<?xml version="1.0" standalone="yes"?>

<svg version="1.1" viewBox="0.0 0.0 696.5590551181102 666.4173228346457" fill="none" stroke="none" stroke-linecap="square" stroke-miterlimit="10" xmlns="http://www.w3.org/2000/svg" xmlns:xlink="http://www.w3.org/1999/xlink"><clipPath id="p.0"><path d="m0 0l696.5591 0l0 666.4173l-696.5591 0l0 -666.4173z" clip-rule="nonzero"></path></clipPath><g clip-path="url(#p.0)"><path fill="#000000" fill-opacity="0.0" d="m0 0l696.5591 0l0 666.4173l-696.5591 0z" fill-rule="nonzero"></path><path fill="#f0e7d5" d="m442.41733 88.526l242.80313 0l0 30.141731l-242.80313 0z" fill-rule="nonzero"></path><path fill="#f0e7d5" d="m442.41733 121.029305l242.80313 0l0 30.141731l-242.80313 0z" fill-rule="nonzero"></path><path fill="#f0e7d5" d="m442.41733 153.5326l242.80313 0l0 30.141739l-242.80313 0z" fill-rule="nonzero"></path><path fill="#f0e7d5" d="m442.41733 185.6173l242.80313 0l0 30.141724l-242.80313 0z" fill-rule="nonzero"></path><path fill="#f0e7d5" d="m442.41733 218.43037l242.80313 0l0 30.141739l-242.80313 0z" fill-rule="nonzero"></path><path fill="#f0e7d5" d="m442.41733 251.28996l242.80313 0l0 30.141739l-242.80313 0z" fill-rule="nonzero"></path><path fill="#f0e7d5" d="m442.41733 283.16534l242.80313 0l0 30.141754l-242.80313 0z" fill-rule="nonzero"></path><path fill="#f0e7d5" d="m442.41733 316.02496l242.80313 0l0 30.141724l-242.80313 0z" fill-rule="nonzero"></path><path fill="#f0e7d5" d="m442.41733 349.04733l242.80313 0l0 30.141724l-242.80313 0z" fill-rule="nonzero"></path><path fill="#f0e7d5" d="m442.41733 382.11624l242.80313 0l0 30.141724l-242.80313 0z" fill-rule="nonzero"></path><path fill="#f0e7d5" d="m442.41733 415.18512l242.80313 0l0 30.141754l-242.80313 0z" fill-rule="nonzero"></path><path fill="#f0e7d5" d="m442.41733 448.25403l242.80313 0l0 30.141724l-242.80313 0z" fill-rule="nonzero"></path><path fill="#f0e7d5" d="m442.41733 481.06714l242.80313 0l0 30.141724l-242.80313 0z" fill-rule="nonzero"></path><path fill="#f0e7d5" d="m442.41733 513.7174l242.80313 0l0 30.141724l-242.80313 0z" fill-rule="nonzero"></path><path fill="#f0e7d5" d="m442.41733 546.36774l242.80313 0l0 30.141724l-242.80313 0z" fill-rule="nonzero"></path><path fill="#f0e7d5" d="m442.41733 579.2273l242.80313 0l0 30.141724l-242.80313 0z" fill-rule="nonzero"></path><path fill="#f0e7d5" d="m10.417323 260.46457l242.80315 0l0 30.141724l-242.80315 0z" fill-rule="nonzero"></path><path fill="#f0e7d5" d="m10.417323 292.54926l242.80315 0l0 30.141724l-242.80315 0z" fill-rule="nonzero"></path><path fill="#f0e7d5" d="m10.417323 324.84326l242.80315 0l0 30.141724l-242.80315 0z" fill-rule="nonzero"></path><path fill="#f0e7d5" d="m10.417323 357.13724l242.80315 0l0 30.141724l-242.80315 0z" fill-rule="nonzero"></path><path fill="#f0e7d5" d="m10.417323 389.38474l242.80315 0l0 30.141724l-242.80315 0z" fill-rule="nonzero"></path><path fill="#f0e7d5" d="m10.417323 421.85687l242.80315 0l0 30.141754l-242.80315 0z" fill-rule="nonzero"></path><path fill="#f0e7d5" d="m10.417323 454.329l242.80315 0l0 30.141724l-242.80315 0z" fill-rule="nonzero"></path><path fill="#f0e7d5" d="m10.417323 486.62302l242.80315 0l0 30.141754l-242.80315 0z" fill-rule="nonzero"></path><path fill="#f0e7d5" d="m442.41733 612.0869l242.80313 0l0 30.141724l-242.80313 0z" fill-rule="nonzero"></path><path fill="#f0e7d5" d="m442.41733 56.27852l242.80313 0l0 30.141731l-242.80313 0z" fill-rule="nonzero"></path><path fill="#000000" fill-opacity="0.0" d="m442.4042 16.0l242.80313 0l0 40.283466l-242.80313 0z" fill-rule="nonzero"></path><path fill="#f0e7d5" d="m531.36884 42.92l0 -9.859375l1.5 0l0 1.390625q0.453125 -0.71875 1.21875 -1.15625q0.78125 -0.453125 1.765625 -0.453125q1.09375 0 1.796875 0.453125q0.703125 0.453125 0.984375 1.28125q1.171875 -1.734375 3.046875 -1.734375q1.46875 0 2.25 0.8125q0.796875 0.8125 0.796875 2.5l0 6.765625l-1.671875 0l0 -6.203125q0 -1.0 -0.15625 -1.4375q-0.15625 -0.453125 -0.59375 -0.71875q-0.421875 -0.265625 -1.0 -0.265625q-1.03125 0 -1.71875 0.6875q-0.6875 0.6875 -0.6875 2.21875l0 5.71875l-1.671875 0l0 -6.40625q0 -1.109375 -0.40625 -1.65625q-0.40625 -0.5625 -1.34375 -0.5625q-0.703125 0 -1.3125 0.375q-0.59375 0.359375 -0.859375 1.078125q-0.265625 0.71875 -0.265625 2.0625l0 5.109375l-1.671875 0zm22.290833 -3.171875l1.71875 0.21875q-0.40625 1.5 -1.515625 2.34375q-1.09375 0.828125 -2.8125 0.828125q-2.15625 0 -3.421875 -1.328125q-1.265625 -1.328125 -1.265625 -3.734375q0 -2.484375 1.265625 -3.859375q1.28125 -1.375 3.328125 -1.375q1.984375 0 3.234375 1.34375q1.25 1.34375 1.25 3.796875q0 0.140625 -0.015625 0.4375l-7.34375 0q0.09375 1.625 0.921875 2.484375q0.828125 0.859375 2.0625 0.859375q0.90625 0 1.546875 -0.46875q0.65625 -0.484375 1.046875 -1.546875zm-5.484375 -2.703125l5.5 0q-0.109375 -1.234375 -0.625 -1.859375q-0.796875 -0.96875 -2.078125 -0.96875q-1.140625 0 -1.9375 0.78125q-0.78125 0.765625 -0.859375 2.046875zm9.110107 5.875l0 -9.859375l1.5 0l0 1.390625q0.453125 -0.71875 1.21875 -1.15625q0.78125 -0.453125 1.765625 -0.453125q1.09375 0 1.796875 0.453125q0.703125 0.453125 0.984375 1.28125q1.171875 -1.734375 3.046875 -1.734375q1.46875 0 2.25 0.8125q0.79681396 0.8125 0.79681396 2.5l0 6.765625l-1.671814 0l0 -6.203125q0 -1.0 -0.15625 -1.4375q-0.15625 -0.453125 -0.59375 -0.71875q-0.421875 -0.265625 -1.0 -0.265625q-1.03125 0 -1.71875 0.6875q-0.6875 0.6875 -0.6875 2.21875l0 5.71875l-1.671875 0l0 -6.40625q0 -1.109375 -0.40625 -1.65625q-0.40625 -0.5625 -1.34375 -0.5625q-0.703125 0 -1.3125 0.375q-0.59375 0.359375 -0.859375 1.078125q-0.265625 0.71875 -0.265625 2.0625l0 5.109375l-1.671875 0zm14.9157715 -4.921875q0 -2.734375 1.53125 -4.0625q1.265625 -1.09375 3.09375 -1.09375q2.03125 0 3.3125 1.34375q1.296875 1.328125 1.296875 3.671875q0 1.90625 -0.578125 3.0q-0.5625 1.078125 -1.65625 1.6875q-1.078125 0.59375 -2.375 0.59375q-2.0625 0 -3.34375 -1.328125q-1.28125 -1.328125 -1.28125 -3.8125zm1.71875 0q0 1.890625 0.828125 2.828125q0.828125 0.9375 2.078125 0.9375q1.25 0 2.0625 -0.9375q0.828125 -0.953125 0.828125 -2.890625q0 -1.828125 -0.828125 -2.765625q-0.828125 -0.9375 -2.0625 -0.9375q-1.25 0 -2.078125 0.9375q-0.828125 0.9375 -0.828125 2.828125zm9.266357 4.921875l0 -9.859375l1.5 0l0 1.5q0.578125 -1.046875 1.0625 -1.375q0.484375 -0.34375 1.078125 -0.34375q0.84375 0 1.71875 0.546875l-0.578125 1.546875q-0.609375 -0.359375 -1.234375 -0.359375q-0.546875 0 -0.984375 0.328125q-0.421875 0.328125 -0.609375 0.90625q-0.28125 0.890625 -0.28125 1.953125l0 5.15625l-1.671875 0zm6.1501465 3.796875l-0.171875 -1.5625q0.546875 0.140625 0.953125 0.140625q0.546875 0 0.875 -0.1875q0.34375 -0.1875 0.5625 -0.515625q0.15625 -0.25 0.5 -1.25q0.046875 -0.140625 0.15625 -0.40625l-3.734375 -9.875l1.796875 0l2.046875 5.71875q0.40625 1.078125 0.71875 2.28125q0.28125 -1.15625 0.6875 -2.25l2.09375 -5.75l1.671875 0l-3.75 10.03125q-0.59375 1.625 -0.9375 2.234375q-0.4375 0.828125 -1.015625 1.203125q-0.578125 0.390625 -1.375 0.390625q-0.484375 0 -1.078125 -0.203125z" fill-rule="nonzero"></path><path fill="#000000" fill-opacity="0.0" d="m10.4042 219.09961l242.80315 0l0 40.283478l-242.80315 0z" fill-rule="nonzero"></path><path fill="#f0e7d5" d="m114.60157 242.41023l1.640625 0.21875q-0.265625 1.6875 -1.375 2.65625q-1.109375 0.953125 -2.734375 0.953125q-2.015625 0 -3.25 -1.3125q-1.21875 -1.328125 -1.21875 -3.796875q0 -1.59375 0.515625 -2.78125q0.53125 -1.203125 1.609375 -1.796875q1.09375 -0.609375 2.359375 -0.609375q1.609375 0 2.625 0.8125q1.015625 0.8125 1.3125 2.3125l-1.625 0.25q-0.234375 -1.0 -0.828125 -1.5q-0.59375 -0.5 -1.421875 -0.5q-1.265625 0 -2.0625 0.90625q-0.78125 0.90625 -0.78125 2.859375q0 1.984375 0.765625 2.890625q0.765625 0.890625 1.984375 0.890625q0.984375 0 1.640625 -0.59375q0.65625 -0.609375 0.84375 -1.859375zm9.328125 2.390625q-0.9375 0.796875 -1.796875 1.125q-0.859375 0.3125 -1.84375 0.3125q-1.609375 0 -2.484375 -0.78125q-0.875 -0.796875 -0.875 -2.03125q0 -0.734375 0.328125 -1.328125q0.328125 -0.59375 0.859375 -0.953125q0.53125 -0.359375 1.203125 -0.546875q0.5 -0.140625 1.484375 -0.25q2.03125 -0.25 2.984375 -0.578125q0 -0.34375 0 -0.4375q0 -1.015625 -0.46875 -1.4375q-0.640625 -0.5625 -1.90625 -0.5625q-1.171875 0 -1.734375 0.40625q-0.5625 0.40625 -0.828125 1.46875l-1.640625 -0.234375q0.234375 -1.046875 0.734375 -1.6875q0.515625 -0.640625 1.46875 -0.984375q0.96875 -0.359375 2.25 -0.359375q1.265625 0 2.046875 0.296875q0.78125 0.296875 1.15625 0.75q0.375 0.453125 0.515625 1.140625q0.09375 0.421875 0.09375 1.53125l0 2.234375q0 2.328125 0.09375 2.953125q0.109375 0.609375 0.4375 1.171875l-1.75 0q-0.265625 -0.515625 -0.328125 -1.21875zm-0.140625 -3.71875q-0.90625 0.359375 -2.734375 0.625q-1.03125 0.140625 -1.453125 0.328125q-0.421875 0.1875 -0.65625 0.546875q-0.234375 0.359375 -0.234375 0.796875q0 0.671875 0.5 1.125q0.515625 0.4375 1.484375 0.4375q0.96875 0 1.71875 -0.421875q0.75 -0.4375 1.109375 -1.15625q0.265625 -0.578125 0.265625 -1.671875l0 -0.609375zm10.51635 1.328125l1.640625 0.21875q-0.265625 1.6875 -1.375 2.65625q-1.109375 0.953125 -2.734375 0.953125q-2.015625 0 -3.25 -1.3125q-1.2187576 -1.328125 -1.2187576 -3.796875q0 -1.59375 0.515625 -2.78125q0.5312576 -1.203125 1.6093826 -1.796875q1.09375 -0.609375 2.359375 -0.609375q1.609375 0 2.625 0.8125q1.015625 0.8125 1.3125 2.3125l-1.625 0.25q-0.234375 -1.0 -0.828125 -1.5q-0.59375 -0.5 -1.421875 -0.5q-1.265625 0 -2.0625 0.90625q-0.78125 0.90625 -0.78125 2.859375q0 1.984375 0.765625 2.890625q0.765625 0.890625 1.984375 0.890625q0.984375 0 1.640625 -0.59375q0.65625 -0.609375 0.84375 -1.859375zm2.890625 3.609375l0 -13.59375l1.671875 0l0 4.875q1.171875 -1.359375 2.953125 -1.359375q1.09375 0 1.890625 0.4375q0.8125 0.421875 1.15625 1.1875q0.359375 0.765625 0.359375 2.203125l0 6.25l-1.671875 0l0 -6.25q0 -1.25 -0.546875 -1.8125q-0.546875 -0.578125 -1.53125 -0.578125q-0.75 0 -1.40625 0.390625q-0.640625 0.375 -0.921875 1.046875q-0.28125 0.65625 -0.28125 1.8125l0 5.390625l-1.671875 0zm17.125717 -3.171875l1.71875 0.21875q-0.40625 1.5 -1.515625 2.34375q-1.09375 0.828125 -2.8125 0.828125q-2.15625 0 -3.421875 -1.328125q-1.265625 -1.328125 -1.265625 -3.734375q0 -2.484375 1.265625 -3.859375q1.28125 -1.375 3.328125 -1.375q1.984375 0 3.234375 1.34375q1.25 1.34375 1.25 3.796875q0 0.140625 -0.015625 0.4375l-7.34375 0q0.09375 1.625 0.921875 2.484375q0.828125 0.859375 2.0625 0.859375q0.90625 0 1.546875 -0.46875q0.65625 -0.484375 1.046875 -1.546875zm-5.484375 -2.703125l5.5 0q-0.109375 -1.234375 -0.625 -1.859375q-0.796875 -0.96875 -2.078125 -0.96875q-1.140625 0 -1.9375 0.78125q-0.78125 0.765625 -0.859375 2.046875z" fill-rule="nonzero"></path><path fill="#000000" fill-opacity="0.0" d="m442.5748 92.23961l-189.35432 279.9685" fill-rule="nonzero"></path><path stroke="#f0e7d5" stroke-width="3.0" stroke-linejoin="round" stroke-linecap="butt" d="m442.5748 92.2396l-183.59439 271.4522" fill-rule="evenodd"></path><path fill="#f0e7d5" stroke="#f0e7d5" stroke-width="3.0" stroke-linecap="butt" d="m258.9804 363.69183l-0.9045105 -4.6846924l-2.3983917 9.568176l7.9875946 -5.7879944z" fill-rule="evenodd"></path><path fill="#000000" fill-opacity="0.0" d="m442.5748 147.97638l-189.35432 127.55905" fill-rule="nonzero"></path><path stroke="#f0e7d5" stroke-width="3.0" stroke-linejoin="round" stroke-linecap="butt" d="m442.5748 147.97638l-180.8274 121.81485" fill-rule="evenodd"></path><path fill="#f0e7d5" stroke="#f0e7d5" stroke-width="3.0" stroke-linecap="butt" d="m261.7474 269.79123l0.913147 -4.6829834l-5.8027344 7.9768677l9.572601 -2.3807373z" fill-rule="evenodd"></path><path fill="#000000" fill-opacity="0.0" d="m442.5748 210.51776l-189.35432 97.102356" fill-rule="nonzero"></path><path stroke="#f0e7d5" stroke-width="3.0" stroke-linejoin="round" stroke-linecap="butt" d="m442.5748 210.51776l-180.20584 92.41095" fill-rule="evenodd"></path><path fill="#f0e7d5" stroke="#f0e7d5" stroke-width="3.0" stroke-linecap="butt" d="m262.36896 302.9287l1.4625854 -4.541504l-6.708557 7.2316895l9.787476 -1.2276306z" fill-rule="evenodd"></path><path fill="#000000" fill-opacity="0.0" d="m442.5748 276.04614l-189.35432 128.40945" fill-rule="nonzero"></path><path stroke="#f0e7d5" stroke-width="3.0" stroke-linejoin="round" stroke-linecap="butt" d="m442.5748 276.04614l-180.84515 122.63898" fill-rule="evenodd"></path><path fill="#f0e7d5" stroke="#f0e7d5" stroke-width="3.0" stroke-linecap="butt" d="m261.72964 398.68515l0.89871216 -4.6858215l-5.7781067 7.994751l9.565216 -2.4102478z" fill-rule="evenodd"></path><path fill="#000000" fill-opacity="0.0" d="m442.5748 364.8905l-189.35432 -24.97638" fill-rule="nonzero"></path><path stroke="#f0e7d5" stroke-width="3.0" stroke-linejoin="round" stroke-linecap="butt" d="m442.5748 364.8905l-179.16135 -23.631897" fill-rule="evenodd"></path><path fill="#f0e7d5" stroke="#f0e7d5" stroke-width="3.0" stroke-linecap="butt" d="m263.41345 341.2586l3.7859497 -2.903595l-9.63089 2.1326294l8.748535 4.556946z" fill-rule="evenodd"></path><path fill="#000000" fill-opacity="0.0" d="m442.5748 402.6597l-189.35432 66.74017" fill-rule="nonzero"></path><path stroke="#f0e7d5" stroke-width="3.0" stroke-linejoin="round" stroke-linecap="butt" d="m442.5748 402.6597l-179.65775 63.32245" fill-rule="evenodd"></path><path fill="#f0e7d5" stroke="#f0e7d5" stroke-width="3.0" stroke-linecap="butt" d="m262.91705 465.98218l2.0603943 -4.3033752l-7.6206665 6.263153l9.863678 0.100616455z" fill-rule="evenodd"></path><path fill="#000000" fill-opacity="0.0" d="m442.5748 526.04034l-189.35432 -24.346466" fill-rule="nonzero"></path><path stroke="#f0e7d5" stroke-width="3.0" stroke-linejoin="round" stroke-linecap="butt" d="m442.5748 526.04034l-179.15701 -23.035309" fill-rule="evenodd"></path><path fill="#f0e7d5" stroke="#f0e7d5" stroke-width="3.0" stroke-linecap="butt" d="m263.4178 503.00504l3.7764587 -2.9159546l-9.623871 2.1641235l8.763367 4.5282593z" fill-rule="evenodd"></path><path fill="#000000" fill-opacity="0.0" d="m442.5748 553.0852l-189.35432 -116.15747" fill-rule="nonzero"></path><path stroke="#f0e7d5" stroke-width="3.0" stroke-linejoin="round" stroke-linecap="butt" d="m442.5748 553.0852l-180.5906 -110.78143" fill-rule="evenodd"></path><path fill="#f0e7d5" stroke="#f0e7d5" stroke-width="3.0" stroke-linecap="butt" d="m261.9842 442.30374l4.6398926 -1.1116638l-9.665253 -1.9710693l6.137024 7.7226257z" fill-rule="evenodd"></path></g></svg>

