<?xml version="1.0" standalone="yes"?>

<svg version="1.1" viewBox="0.0 0.0 870.0 285.0" fill="none" stroke="none" stroke-linecap="square" stroke-miterlimit="10" xmlns="http://www.w3.org/2000/svg" xmlns:xlink="http://www.w3.org/1999/xlink"><clipPath id="p.0"><path d="m0 0l870.0 0l0 285.0l-870.0 0l0 -285.0z" clip-rule="nonzero"></path></clipPath><g clip-path="url(#p.0)"><path fill="#000000" fill-opacity="0.0" d="m0 0l870.0 0l0 285.0l-870.0 0z" fill-rule="nonzero"></path><path fill="#000000" fill-opacity="0.0" d="m356.02362 112.3727l134.80316 0l0 56.09449l-134.80316 0z" fill-rule="nonzero"></path><path stroke="#f0e7d5" stroke-width="3.0" stroke-linejoin="round" stroke-linecap="butt" d="m356.02362 112.3727l134.80316 0l0 56.09449l-134.80316 0z" fill-rule="nonzero"></path><path fill="#f0e7d5" d="m381.69772 142.6162q0 1.5 -0.4375 2.734375q-0.421875 1.234375 -1.25 2.109375q-0.8125 0.875 -1.953125 1.359375q-1.125 0.484375 -2.546875 0.484375q-1.390625 0 -2.53125 -0.484375q-1.140625 -0.484375 -1.96875 -1.359375q-0.8125 -0.875 -1.265625 -2.109375q-0.453125 -1.234375 -0.453125 -2.734375q0 -1.484375 0.46875 -2.703125q0.46875 -1.21875 1.296875 -2.078125q0.828125 -0.875 1.96875 -1.34375q1.140625 -0.484375 2.484375 -0.484375q1.359375 0 2.5 0.484375q1.140625 0.46875 1.953125 1.34375q0.828125 0.859375 1.28125 2.078125q0.453125 1.21875 0.453125 2.703125zm-3.640625 0q0 -1.640625 -0.671875 -2.59375q-0.65625 -0.953125 -1.875 -0.953125q-1.21875 0 -1.890625 0.953125q-0.671875 0.953125 -0.671875 2.59375q0 1.65625 0.671875 2.640625q0.671875 0.96875 1.890625 0.96875q1.21875 0 1.875 -0.96875q0.671875 -0.984375 0.671875 -2.640625zm14.489838 0.125q0 -1.65625 -0.75 -2.640625q-0.734375 -1.0 -2.203125 -1.0q-0.46875 0 -0.890625 0.03125q-0.40625 0.03125 -0.671875 0.078125l0 6.46875q0.34375 0.203125 0.875 0.359375q0.546875 0.140625 1.09375 0.140625q2.546875 0 2.546875 -3.4375zm3.65625 -0.09375q0 1.46875 -0.359375 2.671875q-0.359375 1.1875 -1.0625 2.0625q-0.703125 0.859375 -1.734375 1.34375q-1.03125 0.46875 -2.375 0.46875q-0.734375 0 -1.390625 -0.140625q-0.640625 -0.140625 -1.25 -0.40625l0 4.75l-3.5625 0l0 -16.625q0.46875 -0.15625 1.09375 -0.28125q0.625 -0.125 1.3125 -0.21875q0.6875 -0.109375 1.390625 -0.15625q0.703125 -0.0625 1.359375 -0.0625q1.5625 0 2.78125 0.46875q1.21875 0.46875 2.0625 1.328125q0.84375 0.84375 1.28125 2.0625q0.453125 1.21875 0.453125 2.734375zm2.6365967 -9.453125l3.578125 -0.578125l0 3.71875l4.296875 0l0 2.984375l-4.296875 0l0 4.4375q0 1.125 0.390625 1.796875q0.390625 0.671875 1.59375 0.671875q0.578125 0 1.1875 -0.109375q0.609375 -0.109375 1.125 -0.296875l0.5 2.78125q-0.65625 0.265625 -1.453125 0.453125q-0.78125 0.1875 -1.9375 0.1875q-1.453125 0 -2.421875 -0.390625q-0.953125 -0.390625 -1.53125 -1.09375q-0.578125 -0.71875 -0.8125 -1.71875q-0.21875 -1.015625 -0.21875 -2.234375l0 -10.609375zm14.343475 15.765625l-3.5625 0l0 -12.625l3.5625 0l0 12.625zm0.34375 -16.265625q0 0.984375 -0.640625 1.546875q-0.640625 0.5625 -1.5 0.5625q-0.859375 0 -1.5 -0.5625q-0.640625 -0.5625 -0.640625 -1.546875q0 -0.984375 0.640625 -1.546875q0.640625 -0.578125 1.5 -0.578125q0.859375 0 1.5 0.578125q0.640625 0.5625 0.640625 1.546875zm9.951599 9.5625q0 -1.71875 -0.4375 -2.4375q-0.4375 -0.71875 -1.53125 -0.71875q-0.328125 0 -0.6875 0.03125q-0.359375 0.03125 -0.703125 0.078125l0 9.75l-3.5625 0l0 -12.1875q0.453125 -0.125 1.0625 -0.25q0.609375 -0.140625 1.296875 -0.25q0.6875 -0.109375 1.40625 -0.15625q0.71875 -0.0625 1.40625 -0.0625q1.375 0 2.21875 0.34375q0.859375 0.34375 1.40625 0.828125q0.765625 -0.546875 1.765625 -0.859375q1.0 -0.3125 1.84375 -0.3125q1.5 0 2.46875 0.421875q0.984375 0.40625 1.5625 1.1875q0.578125 0.765625 0.78125 1.828125q0.21875 1.046875 0.21875 2.34375l0 7.125l-3.578125 0l0 -6.703125q0 -1.71875 -0.453125 -2.4375q-0.4375 -0.71875 -1.515625 -0.71875q-0.28125 0 -0.796875 0.140625q-0.515625 0.140625 -0.859375 0.359375q0.171875 0.546875 0.21875 1.171875q0.046875 0.609375 0.046875 1.296875l0 6.890625l-3.578125 0l0 -6.703125zm17.328552 6.703125l-3.5625 0l0 -12.625l3.5625 0l0 12.625zm0.34375 -16.265625q0 0.984375 -0.640625 1.546875q-0.640625 0.5625 -1.5 0.5625q-0.859375 0 -1.5 -0.5625q-0.640625 -0.5625 -0.640625 -1.546875q0 -0.984375 0.640625 -1.546875q0.640625 -0.578125 1.5 -0.578125q0.859375 0 1.5 0.578125q0.640625 0.5625 0.640625 1.546875zm12.498474 6.046875q-0.421875 0.46875 -1.15625 1.296875q-0.734375 0.8125 -1.578125 1.796875q-0.84375 0.984375 -1.703125 2.0625q-0.84375 1.078125 -1.53125 2.09375l6.09375 0l0 2.96875l-10.4375 0l0 -2.109375q0.5 -0.859375 1.203125 -1.859375q0.71875 -1.0 1.484375 -2.0q0.78125 -1.015625 1.546875 -1.953125q0.78125 -0.953125 1.421875 -1.71875l-5.375 0l0 -2.984375l10.03125 0l0 2.40625zm1.9218445 4.0q0 -1.671875 0.515625 -2.9375q0.515625 -1.265625 1.359375 -2.09375q0.84375 -0.84375 1.921875 -1.265625q1.09375 -0.4375 2.25 -0.4375q2.6875 0 4.25 1.640625q1.5625 1.640625 1.5625 4.828125q0 0.3125 -0.03125 0.6875q-0.015625 0.375 -0.046875 0.65625l-8.109375 0q0.125 1.109375 1.03125 1.765625q0.921875 0.640625 2.453125 0.640625q0.984375 0 1.921875 -0.171875q0.953125 -0.1875 1.5625 -0.453125l0.46875 2.90625q-0.28125 0.140625 -0.765625 0.28125q-0.484375 0.140625 -1.078125 0.25q-0.578125 0.109375 -1.25 0.1875q-0.671875 0.078125 -1.34375 0.078125q-1.703125 0 -2.96875 -0.5q-1.25 -0.515625 -2.078125 -1.390625q-0.828125 -0.875 -1.234375 -2.078125q-0.390625 -1.203125 -0.390625 -2.59375zm8.40625 -1.359375q-0.03125 -0.46875 -0.171875 -0.890625q-0.125 -0.4375 -0.40625 -0.765625q-0.265625 -0.34375 -0.6875 -0.5625q-0.421875 -0.21875 -1.046875 -0.21875q-0.59375 0 -1.03125 0.21875q-0.421875 0.203125 -0.71875 0.546875q-0.28125 0.328125 -0.4375 0.765625q-0.15625 0.4375 -0.234375 0.90625l4.734375 0zm13.812836 -1.875q-0.46875 -0.125 -1.125 -0.25q-0.640625 -0.140625 -1.390625 -0.140625q-0.328125 0 -0.796875 0.0625q-0.46875 0.0625 -0.71875 0.140625l0 9.640625l-3.5625 0l0 -11.953125q0.953125 -0.328125 2.25 -0.625q1.3125 -0.3125 2.921875 -0.3125q0.296875 0 0.703125 0.046875q0.40625 0.03125 0.8125 0.09375q0.40625 0.046875 0.8125 0.140625q0.40625 0.078125 0.703125 0.203125l-0.609375 2.953125z" fill-rule="nonzero"></path><path fill="#000000" fill-opacity="0.0" d="m532.0236 112.3727l134.80316 0l0 56.09449l-134.80316 0z" fill-rule="nonzero"></path><path stroke="#f0e7d5" stroke-width="3.0" stroke-linejoin="round" stroke-linecap="butt" d="m532.0236 112.3727l134.80316 0l0 56.09449l-134.80316 0z" fill-rule="nonzero"></path><path fill="#f0e7d5" d="m556.95496 142.5537q0 -3.453125 -2.546875 -3.453125q-0.546875 0 -1.09375 0.140625q-0.53125 0.140625 -0.875 0.359375l0 6.5q0.265625 0.046875 0.671875 0.09375q0.421875 0.03125 0.890625 0.03125q1.46875 0 2.203125 -1.0q0.75 -1.015625 0.75 -2.671875zm3.65625 0.09375q0 1.515625 -0.453125 2.734375q-0.4375 1.21875 -1.28125 2.09375q-0.84375 0.859375 -2.0625 1.328125q-1.21875 0.46875 -2.78125 0.46875q-0.65625 0 -1.359375 -0.0625q-0.703125 -0.0625 -1.390625 -0.15625q-0.6875 -0.09375 -1.3125 -0.21875q-0.625 -0.140625 -1.09375 -0.28125l0 -17.640625l3.5625 -0.578125l0 6.28125q0.609375 -0.25 1.25 -0.390625q0.65625 -0.15625 1.390625 -0.15625q1.34375 0 2.375 0.46875q1.03125 0.46875 1.734375 1.34375q0.703125 0.859375 1.0625 2.078125q0.359375 1.203125 0.359375 2.6875zm7.5740967 3.8125q0.53125 0 1.0 -0.015625q0.484375 -0.03125 0.78125 -0.078125l0 -2.703125q-0.21875 -0.0625 -0.65625 -0.109375q-0.421875 -0.046875 -0.78125 -0.046875q-0.5 0 -0.953125 0.0625q-0.4375 0.0625 -0.78125 0.234375q-0.328125 0.171875 -0.53125 0.453125q-0.1875 0.28125 -0.1875 0.71875q0 0.84375 0.5625 1.171875q0.5625 0.3125 1.546875 0.3125zm-0.28125 -10.453125q1.578125 0 2.625 0.359375q1.0625 0.359375 1.703125 1.03125q0.640625 0.671875 0.90625 1.640625q0.265625 0.953125 0.265625 2.125l0 7.4375q-0.78125 0.171875 -2.15625 0.390625q-1.359375 0.234375 -3.296875 0.234375q-1.21875 0 -2.21875 -0.21875q-1.0 -0.21875 -1.71875 -0.703125q-0.71875 -0.5 -1.109375 -1.28125q-0.375 -0.796875 -0.375 -1.953125q0 -1.09375 0.4375 -1.859375q0.453125 -0.78125 1.1875 -1.234375q0.75 -0.453125 1.703125 -0.65625q0.96875 -0.203125 2.0 -0.203125q0.6875 0 1.21875 0.0625q0.546875 0.046875 0.890625 0.15625l0 -0.34375q0 -0.90625 -0.5625 -1.453125q-0.546875 -0.5625 -1.90625 -0.5625q-0.921875 0 -1.8125 0.140625q-0.875 0.125 -1.53125 0.359375l-0.453125 -2.875q0.3125 -0.09375 0.78125 -0.203125q0.46875 -0.109375 1.015625 -0.1875q0.5625 -0.09375 1.171875 -0.140625q0.609375 -0.0625 1.234375 -0.0625zm8.131348 6.640625q0 -1.375 0.4375 -2.578125q0.453125 -1.21875 1.28125 -2.109375q0.84375 -0.90625 2.046875 -1.421875q1.203125 -0.53125 2.734375 -0.53125q1.015625 0 1.84375 0.1875q0.84375 0.171875 1.640625 0.5l-0.75 2.859375q-0.5 -0.1875 -1.109375 -0.328125q-0.59375 -0.15625 -1.328125 -0.15625q-1.59375 0 -2.375 0.984375q-0.765625 0.984375 -0.765625 2.59375q0 1.703125 0.71875 2.640625q0.734375 0.9375 2.5625 0.9375q0.640625 0 1.390625 -0.109375q0.75 -0.125 1.375 -0.390625l0.5 2.921875q-0.625 0.265625 -1.5625 0.453125q-0.9375 0.203125 -2.0625 0.203125q-1.734375 0 -2.984375 -0.515625q-1.234375 -0.53125 -2.046875 -1.40625q-0.796875 -0.890625 -1.171875 -2.09375q-0.375 -1.21875 -0.375 -2.640625zm16.171814 -1.75q0.53125 -0.578125 1.09375 -1.203125q0.5625 -0.625 1.09375 -1.234375q0.53125 -0.609375 1.0 -1.15625q0.46875 -0.5625 0.796875 -0.96875l4.25 0q-1.265625 1.46875 -2.484375 2.796875q-1.203125 1.328125 -2.640625 2.75q0.71875 0.640625 1.484375 1.546875q0.765625 0.90625 1.484375 1.859375q0.71875 0.953125 1.3125 1.921875q0.609375 0.953125 1.015625 1.75l-4.109375 0q-0.375 -0.625 -0.875 -1.375q-0.484375 -0.765625 -1.046875 -1.515625q-0.546875 -0.75 -1.15625 -1.453125q-0.609375 -0.703125 -1.21875 -1.171875l0 5.515625l-3.5625 0l0 -18.046875l3.5625 -0.578125l0 10.5625zm9.239746 -0.71875l6.96875 0l0 3.234375l-6.96875 0l0 -3.234375zm8.644348 2.5625q0 -1.671875 0.515625 -2.9375q0.515625 -1.265625 1.359375 -2.09375q0.84375 -0.84375 1.921875 -1.265625q1.09375 -0.4375 2.25 -0.4375q2.6875 0 4.25 1.640625q1.5625 1.640625 1.5625 4.828125q0 0.3125 -0.03125 0.6875q-0.015625 0.375 -0.046875 0.65625l-8.109375 0q0.125 1.109375 1.03125 1.765625q0.921875 0.640625 2.453125 0.640625q0.984375 0 1.921875 -0.171875q0.953125 -0.1875 1.5625 -0.453125l0.46875 2.90625q-0.28125 0.140625 -0.765625 0.28125q-0.484375 0.140625 -1.078125 0.25q-0.578125 0.109375 -1.25 0.1875q-0.671875 0.078125 -1.34375 0.078125q-1.703125 0 -2.96875 -0.5q-1.25 -0.515625 -2.078125 -1.390625q-0.828125 -0.875 -1.234375 -2.078125q-0.390625 -1.203125 -0.390625 -2.59375zm8.40625 -1.359375q-0.03125 -0.46875 -0.171875 -0.890625q-0.125 -0.4375 -0.40625 -0.765625q-0.265625 -0.34375 -0.6875 -0.5625q-0.421875 -0.21875 -1.046875 -0.21875q-0.59375 0 -1.03125 0.21875q-0.421875 0.203125 -0.71875 0.546875q-0.28125 0.328125 -0.4375 0.765625q-0.15625 0.4375 -0.234375 0.90625l4.734375 0zm6.219055 -4.609375q0.90625 -0.265625 2.34375 -0.484375q1.4375 -0.234375 3.03125 -0.234375q1.59375 0 2.65625 0.421875q1.078125 0.40625 1.703125 1.1875q0.625 0.765625 0.890625 1.828125q0.265625 1.046875 0.265625 2.34375l0 7.125l-3.578125 0l0 -6.703125q0 -1.71875 -0.453125 -2.4375q-0.453125 -0.71875 -1.703125 -0.71875q-0.390625 0 -0.828125 0.03125q-0.421875 0.03125 -0.765625 0.078125l0 9.75l-3.5625 0l0 -12.1875zm17.182861 5.78125q0 1.65625 0.734375 2.671875q0.75 1.0 2.21875 1.0q0.46875 0 0.875 -0.03125q0.40625 -0.046875 0.671875 -0.09375l0 -6.5q-0.328125 -0.21875 -0.875 -0.359375q-0.53125 -0.140625 -1.09375 -0.140625q-2.53125 0 -2.53125 3.453125zm8.078125 6.0q-0.46875 0.140625 -1.09375 0.28125q-0.625 0.125 -1.3125 0.21875q-0.6875 0.09375 -1.40625 0.15625q-0.703125 0.0625 -1.34375 0.0625q-1.5625 0 -2.796875 -0.453125q-1.21875 -0.453125 -2.0625 -1.296875q-0.828125 -0.859375 -1.28125 -2.078125q-0.4375 -1.21875 -0.4375 -2.71875q0 -1.546875 0.375 -2.78125q0.390625 -1.234375 1.109375 -2.09375q0.71875 -0.859375 1.765625 -1.3125q1.046875 -0.46875 2.390625 -0.46875q0.75 0 1.328125 0.15625q0.59375 0.140625 1.1875 0.390625l0 -5.703125l3.578125 -0.578125l0 18.21875z" fill-rule="nonzero"></path><path fill="#000000" fill-opacity="0.0" d="m180.02362 112.3727l134.80316 0l0 56.09449l-134.80316 0z" fill-rule="nonzero"></path><path stroke="#f0e7d5" stroke-width="3.0" stroke-linejoin="round" stroke-linecap="butt" d="m180.02362 112.3727l134.80316 0l0 56.09449l-134.80316 0z" fill-rule="nonzero"></path><path fill="#f0e7d5" d="m199.3696 130.33495q1.0 0 1.84375 0.203125q0.84375 0.203125 1.296875 0.390625l-0.703125 2.859375q-0.46875 -0.21875 -1.046875 -0.3125q-0.5625 -0.109375 -1.03125 -0.109375q-0.65625 0 -1.109375 0.1875q-0.4375 0.171875 -0.6875 0.484375q-0.25 0.3125 -0.359375 0.75q-0.109375 0.421875 -0.109375 0.921875l0 0.625l4.421875 0l0 2.984375l-4.421875 0l0 9.640625l-3.5625 0l0 -13.296875q0 -2.453125 1.375 -3.890625q1.375 -1.4375 4.09375 -1.4375zm12.252975 9.171875q-0.46875 -0.125 -1.125 -0.25q-0.640625 -0.140625 -1.390625 -0.140625q-0.328125 0 -0.796875 0.0625q-0.46875 0.0625 -0.71875 0.140625l0 9.640625l-3.5625 0l0 -11.953125q0.953125 -0.328125 2.25 -0.625q1.3125 -0.3125 2.921875 -0.3125q0.296875 0 0.703125 0.046875q0.40625 0.03125 0.8125 0.09375q0.40625 0.046875 0.8125 0.140625q0.40625 0.078125 0.703125 0.203125l-0.609375 2.953125zm14.3311 3.109375q0 1.5 -0.4375 2.734375q-0.421875 1.234375 -1.25 2.109375q-0.8125 0.875 -1.953125 1.359375q-1.125 0.484375 -2.546875 0.484375q-1.390625 0 -2.53125 -0.484375q-1.140625 -0.484375 -1.96875 -1.359375q-0.8125 -0.875 -1.265625 -2.109375q-0.453125 -1.234375 -0.453125 -2.734375q0 -1.484375 0.46875 -2.703125q0.46875 -1.21875 1.296875 -2.078125q0.828125 -0.875 1.96875 -1.34375q1.140625 -0.484375 2.484375 -0.484375q1.359375 0 2.5 0.484375q1.140625 0.46875 1.953125 1.34375q0.828125 0.859375 1.28125 2.078125q0.453125 1.21875 0.453125 2.703125zm-3.640625 0q0 -1.640625 -0.671875 -2.59375q-0.65625 -0.953125 -1.875 -0.953125q-1.21875 0 -1.890625 0.953125q-0.671875 0.953125 -0.671875 2.59375q0 1.65625 0.671875 2.640625q0.671875 0.96875 1.890625 0.96875q1.21875 0 1.875 -0.96875q0.671875 -0.984375 0.671875 -2.640625zm6.4117126 -5.84375q0.90625 -0.265625 2.34375 -0.484375q1.4375 -0.234375 3.03125 -0.234375q1.59375 0 2.65625 0.421875q1.078125 0.40625 1.703125 1.1875q0.625 0.765625 0.890625 1.828125q0.265625 1.046875 0.265625 2.34375l0 7.125l-3.578125 0l0 -6.703125q0 -1.71875 -0.453125 -2.4375q-0.453125 -0.71875 -1.703125 -0.71875q-0.390625 0 -0.828125 0.03125q-0.421875 0.03125 -0.765625 0.078125l0 9.75l-3.5625 0l0 -12.1875zm14.010956 -3.578125l3.578125 -0.578125l0 3.71875l4.296875 0l0 2.984375l-4.296875 0l0 4.4375q0 1.125 0.390625 1.796875q0.390625 0.671875 1.59375 0.671875q0.578125 0 1.1875 -0.109375q0.609375 -0.109375 1.125 -0.296875l0.5 2.78125q-0.65625 0.265625 -1.453125 0.453125q-0.78125 0.1875 -1.9375 0.1875q-1.453125 0 -2.421875 -0.390625q-0.953125 -0.390625 -1.53125 -1.09375q-0.578125 -0.71875 -0.8125 -1.71875q-0.21875 -1.015625 -0.21875 -2.234375l0 -10.609375zm9.687225 6.984375l6.96875 0l0 3.234375l-6.96875 0l0 -3.234375zm8.644348 2.5625q0 -1.671875 0.515625 -2.9375q0.515625 -1.265625 1.359375 -2.09375q0.84375 -0.84375 1.921875 -1.265625q1.09375 -0.4375 2.25 -0.4375q2.6875 0 4.25 1.640625q1.5625 1.640625 1.5625 4.828125q0 0.3125 -0.03125 0.6875q-0.015625 0.375 -0.046875 0.65625l-8.109375 0q0.125 1.109375 1.03125 1.765625q0.921875 0.640625 2.453125 0.640625q0.984375 0 1.921875 -0.171875q0.953125 -0.1875 1.5625 -0.453125l0.46875 2.90625q-0.28125 0.140625 -0.765625 0.28125q-0.484375 0.140625 -1.078125 0.25q-0.578125 0.109375 -1.25 0.1875q-0.671875 0.078125 -1.34375 0.078125q-1.703125 0 -2.96875 -0.5q-1.25 -0.515625 -2.078125 -1.390625q-0.828125 -0.875 -1.234375 -2.078125q-0.390625 -1.203125 -0.390625 -2.59375zm8.40625 -1.359375q-0.03125 -0.46875 -0.171875 -0.890625q-0.125 -0.4375 -0.40625 -0.765625q-0.265625 -0.34375 -0.6875 -0.5625q-0.421875 -0.21875 -1.046875 -0.21875q-0.59375 0 -1.03125 0.21875q-0.421875 0.203125 -0.71875 0.546875q-0.28125 0.328125 -0.4375 0.765625q-0.15625 0.4375 -0.234375 0.90625l4.734375 0zm6.2190857 -4.609375q0.90625 -0.265625 2.34375 -0.484375q1.4375 -0.234375 3.03125 -0.234375q1.59375 0 2.65625 0.421875q1.078125 0.40625 1.703125 1.1875q0.625 0.765625 0.890625 1.828125q0.265625 1.046875 0.265625 2.34375l0 7.125l-3.578125 0l0 -6.703125q0 -1.71875 -0.453125 -2.4375q-0.453125 -0.71875 -1.703125 -0.71875q-0.390625 0 -0.828125 0.03125q-0.421875 0.03125 -0.765625 0.078125l0 9.75l-3.5625 0l0 -12.1875zm17.18283 5.78125q0 1.65625 0.734375 2.671875q0.75 1.0 2.21875 1.0q0.46875 0 0.875 -0.03125q0.40625 -0.046875 0.671875 -0.09375l0 -6.5q-0.328125 -0.21875 -0.875 -0.359375q-0.53125 -0.140625 -1.09375 -0.140625q-2.53125 0 -2.53125 3.453125zm8.078125 6.0q-0.46875 0.140625 -1.09375 0.28125q-0.625 0.125 -1.3125 0.21875q-0.6875 0.09375 -1.40625 0.15625q-0.703125 0.0625 -1.34375 0.0625q-1.5625 0 -2.796875 -0.453125q-1.21875 -0.453125 -2.0625 -1.296875q-0.828125 -0.859375 -1.28125 -2.078125q-0.4375 -1.21875 -0.4375 -2.71875q0 -1.546875 0.375 -2.78125q0.390625 -1.234375 1.109375 -2.09375q0.71875 -0.859375 1.765625 -1.3125q1.046875 -0.46875 2.390625 -0.46875q0.75 0 1.328125 0.15625q0.59375 0.140625 1.1875 0.390625l0 -5.703125l3.578125 -0.578125l0 18.21875z" fill-rule="nonzero"></path><path fill="#000000" fill-opacity="0.0" d="m3.7979002 104.419945l0 0c0 -15.490059 28.435207 -28.047241 63.511806 -28.047241l0 0c35.076607 0 63.51181 12.557182 63.51181 28.047241l0 0c0 15.490067 -28.435204 28.047249 -63.51181 28.047249l0 0c-35.0766 0 -63.511806 -12.557182 -63.511806 -28.047249z" fill-rule="nonzero"></path><path stroke="#f0e7d5" stroke-width="3.0" stroke-linejoin="round" stroke-linecap="butt" d="m3.7979002 104.419945l0 0c0 -15.490059 28.435207 -28.047241 63.511806 -28.047241l0 0c35.076607 0 63.51181 12.557182 63.51181 28.047241l0 0c0 15.490067 -28.435204 28.047249 -63.51181 28.047249l0 0c-35.0766 0 -63.511806 -12.557182 -63.511806 -28.047249z" fill-rule="nonzero"></path><path fill="#f0e7d5" d="m61.18002 104.40244l-2.5625 0.46875q-0.140625 -0.78125 -0.59375 -1.171875q-0.453125 -0.390625 -1.1875 -0.390625q-0.984375 0 -1.5625 0.671875q-0.578125 0.671875 -0.578125 2.25q0 1.765625 0.578125 2.484375q0.59375 0.71875 1.59375 0.71875q0.75 0 1.21875 -0.421875q0.46875 -0.421875 0.671875 -1.453125l2.546875 0.4375q-0.390625 1.765625 -1.53125 2.671875q-1.125 0.890625 -3.03125 0.890625q-2.15625 0 -3.453125 -1.359375q-1.28125 -1.359375 -1.28125 -3.78125q0 -2.4375 1.296875 -3.796875q1.296875 -1.359375 3.484375 -1.359375q1.796875 0 2.859375 0.78125q1.0625 0.765625 1.53125 2.359375zm4.766346 4.984375l0 -3.546875l-3.5625038 0l0 -2.4375l3.5625038 0l0 -3.53125l2.375 0l0 3.53125l3.578125 0l0 2.4375l-3.578125 0l0 3.546875l-2.375 0zm10.8949585 0l0 -3.546875l-3.5625 0l0 -2.4375l3.5625 0l0 -3.53125l2.375 0l0 3.53125l3.578125 0l0 2.4375l-3.578125 0l0 3.546875l-2.375 0z" fill-rule="nonzero"></path><path fill="#000000" fill-opacity="0.0" d="m3.7979002 176.41995l0 0c0 -15.490067 28.435207 -28.047256 63.511806 -28.047256l0 0c35.076607 0 63.51181 12.55719 63.51181 28.047256l0 0c0 15.490067 -28.435204 28.047241 -63.51181 28.047241l0 0c-35.0766 0 -63.511806 -12.557175 -63.511806 -28.047241z" fill-rule="nonzero"></path><path stroke="#f0e7d5" stroke-width="3.0" stroke-linejoin="round" stroke-linecap="butt" d="m3.7979002 176.41995l0 0c0 -15.490067 28.435207 -28.047256 63.511806 -28.047256l0 0c35.076607 0 63.51181 12.55719 63.51181 28.047256l0 0c0 15.490067 -28.435204 28.047241 -63.51181 28.047241l0 0c-35.0766 0 -63.511806 -12.557175 -63.511806 -28.047241z" fill-rule="nonzero"></path><path fill="#f0e7d5" d="m72.07498 176.40245l-2.5625 0.46875q-0.140625 -0.78125 -0.59375 -1.171875q-0.453125 -0.390625 -1.1875 -0.390625q-0.984375 0 -1.5625 0.671875q-0.578125 0.671875 -0.578125 2.25q0 1.765625 0.578125 2.484375q0.59375 0.71875 1.59375 0.71875q0.75 0 1.21875 -0.421875q0.46875 -0.421875 0.671875 -1.453125l2.546875 0.4375q-0.390625 1.765625 -1.53125 2.671875q-1.125 0.890625 -3.03125 0.890625q-2.15625 0 -3.453125 -1.359375q-1.2812538 -1.359375 -1.2812538 -3.78125q0 -2.4375 1.2968788 -3.796875q1.296875 -1.359375 3.484375 -1.359375q1.796875 0 2.859375 0.78125q1.0625 0.765625 1.53125 2.359375z" fill-rule="nonzero"></path><path fill="#000000" fill-opacity="0.0" d="m3.7979002 32.41995l0 0c0 -15.490067 28.435207 -28.047245 63.511806 -28.047245l0 0c35.076607 0 63.51181 12.5571785 63.51181 28.047245l0 0c0 15.490063 -28.435204 28.047241 -63.51181 28.047241l0 0c-35.0766 0 -63.511806 -12.5571785 -63.511806 -28.047241z" fill-rule="nonzero"></path><path stroke="#f0e7d5" stroke-width="3.0" stroke-linejoin="round" stroke-linecap="butt" d="m3.7979002 32.41995l0 0c0 -15.490067 28.435207 -28.047245 63.511806 -28.047245l0 0c35.076607 0 63.51181 12.5571785 63.51181 28.047245l0 0c0 15.490063 -28.435204 28.047241 -63.51181 28.047241l0 0c-35.0766 0 -63.511806 -12.5571785 -63.511806 -28.047241z" fill-rule="nonzero"></path><path fill="#f0e7d5" d="m52.855152 25.746197l2.734375 0l0 8.609375q0 1.6875 -0.296875 2.59375q-0.40625 1.1875 -1.453125 1.90625q-1.046875 0.71875 -2.765625 0.71875q-2.015625 0 -3.109375 -1.125q-1.078125 -1.125 -1.078125 -3.3125l2.578125 -0.296875q0.046875 1.171875 0.34375 1.65625q0.453125 0.734375 1.359375 0.734375q0.921875 0 1.296875 -0.515625q0.390625 -0.53125 0.390625 -2.1875l0 -8.78125zm7.391342 6.75l-2.359375 -0.4375q0.390625 -1.421875 1.359375 -2.109375q0.984375 -0.6875 2.90625 -0.6875q1.734375 0 2.5937538 0.421875q0.859375 0.40625 1.203125 1.046875q0.34375 0.625 0.34375 2.328125l-0.03125 3.046875q0 1.296875 0.125 1.921875q0.125 0.609375 0.46875 1.3125l-2.578125 0q-0.09375 -0.265625 -0.25 -0.765625q-0.062503815 -0.234375 -0.093753815 -0.3125q-0.65625 0.65625 -1.421875 0.984375q-0.765625 0.3125 -1.625 0.3125q-1.515625 0 -2.40625 -0.8125q-0.875 -0.828125 -0.875 -2.09375q0 -0.84375 0.390625 -1.484375q0.40625 -0.65625 1.125 -1.0q0.71875 -0.359375 2.078125 -0.625q1.828125 -0.328125 2.53125 -0.625l0 -0.265625q0 -0.75 -0.375 -1.0625q-0.359375 -0.328125 -1.390625 -0.328125q-0.703125 0 -1.09375 0.28125q-0.390625 0.265625 -0.625 0.953125zm3.484375 2.109375q-0.5 0.171875 -1.59375 0.40625q-1.078125 0.234375 -1.40625 0.453125q-0.515625 0.359375 -0.515625 0.921875q0 0.546875 0.40625 0.953125q0.40625 0.390625 1.046875 0.390625q0.703125 0 1.34375 -0.46875q0.46875 -0.359375 0.625 -0.859375q0.09375 -0.34375 0.09375 -1.28125l0 -0.515625zm7.656971 4.734375l-3.96875 -9.859375l2.734375 0l1.84375 5.03125l0.546875 1.6875q0.21875 -0.640625 0.265625 -0.84375q0.125 -0.421875 0.28125 -0.84375l1.875 -5.03125l2.671875 0l-3.90625 9.859375l-2.34375 0zm9.610092 -6.84375l-2.359375 -0.4375q0.390625 -1.421875 1.359375 -2.109375q0.984375 -0.6875 2.90625 -0.6875q1.734375 0 2.59375 0.421875q0.859375 0.40625 1.203125 1.046875q0.34375 0.625 0.34375 2.328125l-0.03125 3.046875q0 1.296875 0.125 1.921875q0.125 0.609375 0.46875 1.3125l-2.578125 0q-0.09375 -0.265625 -0.25 -0.765625q-0.0625 -0.234375 -0.09375 -0.3125q-0.65625 0.65625 -1.421875 0.984375q-0.765625 0.3125 -1.625 0.3125q-1.515625 0 -2.40625 -0.8125q-0.875 -0.828125 -0.875 -2.09375q0 -0.84375 0.390625 -1.484375q0.40625 -0.65625 1.125 -1.0q0.71875 -0.359375 2.078125 -0.625q1.828125 -0.328125 2.53125 -0.625l0 -0.265625q0 -0.75 -0.375 -1.0625q-0.359375 -0.328125 -1.390625 -0.328125q-0.703125 0 -1.09375 0.28125q-0.390625 0.265625 -0.625 0.953125zm3.484375 2.109375q-0.5 0.171875 -1.59375 0.40625q-1.078125 0.234375 -1.40625 0.453125q-0.515625 0.359375 -0.515625 0.921875q0 0.546875 0.40625 0.953125q0.40625 0.390625 1.046875 0.390625q0.703125 0 1.34375 -0.46875q0.46875 -0.359375 0.625 -0.859375q0.09375 -0.34375 0.09375 -1.28125l0 -0.515625z" fill-rule="nonzero"></path><path fill="#000000" fill-opacity="0.0" d="m3.7979002 248.41995l0 0c0 -15.490067 28.435207 -28.047256 63.511806 -28.047256l0 0c35.076607 0 63.51181 12.55719 63.51181 28.047256l0 0c0 15.490051 -28.435204 28.047241 -63.51181 28.047241l0 0c-35.0766 0 -63.511806 -12.55719 -63.511806 -28.047241z" fill-rule="nonzero"></path><path stroke="#f0e7d5" stroke-width="3.0" stroke-linejoin="round" stroke-linecap="butt" d="m3.7979002 248.41995l0 0c0 -15.490067 28.435207 -28.047256 63.511806 -28.047256l0 0c35.076607 0 63.51181 12.55719 63.51181 28.047256l0 0c0 15.490051 -28.435204 28.047241 -63.51181 28.047241l0 0c-35.0766 0 -63.511806 -12.55719 -63.511806 -28.047241z" fill-rule="nonzero"></path><path fill="#f0e7d5" d="m36.067524 255.33995l0 -13.59375l9.3125 0l0 2.296875l-6.578125 0l0 3.21875l5.6875 0l0 2.296875l-5.6875 0l0 5.78125l-2.734375 0zm10.755356 -5.0625q0 -1.296875 0.640625 -2.515625q0.640625 -1.21875 1.8125 -1.859375q1.171875 -0.640625 2.609375 -0.640625q2.25 0 3.671875 1.453125q1.421875 1.453125 1.421875 3.671875q0 2.234375 -1.4375 3.703125q-1.4375 1.46875 -3.625 1.46875q-1.359375 0 -2.59375 -0.609375q-1.21875 -0.609375 -1.859375 -1.796875q-0.640625 -1.1875 -0.640625 -2.875zm2.671875 0.140625q0 1.46875 0.6875 2.25q0.703125 0.765625 1.71875 0.765625q1.015625 0 1.703125 -0.765625q0.703125 -0.78125 0.703125 -2.265625q0 -1.453125 -0.703125 -2.234375q-0.6875 -0.78125 -1.703125 -0.78125q-1.015625 0 -1.71875 0.78125q-0.6875 0.78125 -0.6875 2.25zm11.817856 4.921875l-2.609375 0l0 -9.859375l2.421875 0l0 1.40625q0.625 -0.984375 1.109375 -1.296875q0.5 -0.328125 1.140625 -0.328125q0.8906288 0 1.7187538 0.5l-0.8125 2.265625q-0.6562538 -0.421875 -1.2187538 -0.421875q-0.546875 0 -0.9375 0.296875q-0.375 0.296875 -0.59375 1.09375q-0.21875 0.78125 -0.21875 3.296875l0 3.046875zm9.275898 -9.859375l0 2.078125l-1.78125 0l0 3.984375q0 1.203125 0.046875 1.40625q0.0625 0.1875 0.234375 0.328125q0.1875 0.125 0.453125 0.125q0.359375 0 1.046875 -0.25l0.21875 2.015625q-0.90625 0.390625 -2.0625 0.390625q-0.703125 0 -1.265625 -0.234375q-0.5625 -0.234375 -0.828125 -0.609375q-0.265625 -0.375 -0.375 -1.015625q-0.078125 -0.453125 -0.078125 -1.84375l0 -4.296875l-1.203125 0l0 -2.078125l1.203125 0l0 -1.953125l2.609375 -1.515625l0 3.46875l1.78125 0zm4.197052 9.859375l-2.609375 0l0 -9.859375l2.421875 0l0 1.40625q0.625 -0.984375 1.109375 -1.296875q0.5 -0.328125 1.140625 -0.328125q0.890625 0 1.71875 0.5l-0.8125 2.265625q-0.65625 -0.421875 -1.21875 -0.421875q-0.546875 0 -0.9375 0.296875q-0.375 0.296875 -0.59375 1.09375q-0.21875 0.78125 -0.21875 3.296875l0 3.046875zm6.713394 -6.84375l-2.359375 -0.4375q0.390625 -1.421875 1.359375 -2.109375q0.984375 -0.6875 2.90625 -0.6875q1.734375 0 2.59375 0.421875q0.859375 0.40625 1.203125 1.046875q0.34375 0.625 0.34375 2.328125l-0.03125 3.046875q0 1.296875 0.125 1.921875q0.125 0.609375 0.46875 1.3125l-2.578125 0q-0.09375 -0.265625 -0.25 -0.765625q-0.0625 -0.234375 -0.09375 -0.3125q-0.65625 0.65625 -1.421875 0.984375q-0.765625 0.3125 -1.625 0.3125q-1.515625 0 -2.40625 -0.8125q-0.875 -0.828125 -0.875 -2.09375q0 -0.84375 0.390625 -1.484375q0.40625 -0.65625 1.125 -1.0q0.71875 -0.359375 2.078125 -0.625q1.828125 -0.328125 2.53125 -0.625l0 -0.265625q0 -0.75 -0.375 -1.0625q-0.359375 -0.328125 -1.390625 -0.328125q-0.703125 0 -1.09375 0.28125q-0.390625 0.265625 -0.625 0.953125zm3.484375 2.109375q-0.5 0.171875 -1.59375 0.40625q-1.078125 0.234375 -1.40625 0.453125q-0.515625 0.359375 -0.515625 0.921875q0 0.546875 0.40625 0.953125q0.40625 0.390625 1.046875 0.390625q0.703125 0 1.34375 -0.46875q0.46875 -0.359375 0.625 -0.859375q0.09375 -0.34375 0.09375 -1.28125l0 -0.515625zm13.906967 4.734375l-2.609375 0l0 -5.03125q0 -1.59375 -0.171875 -2.0625q-0.15625 -0.46875 -0.53125 -0.71875q-0.375 -0.265625 -0.90625 -0.265625q-0.6875 0 -1.234375 0.375q-0.53125 0.359375 -0.734375 0.984375q-0.1875 0.609375 -0.1875 2.25l0 4.46875l-2.609375 0l0 -9.859375l2.421875 0l0 1.453125q1.296875 -1.671875 3.25 -1.671875q0.859375 0 1.578125 0.3125q0.71875 0.3125 1.078125 0.796875q0.359375 0.484375 0.5 1.09375q0.15625 0.609375 0.15625 1.75l0 6.125z" fill-rule="nonzero"></path><path fill="#000000" fill-opacity="0.0" d="m723.7979 104.419945l0 0c0 -15.490059 31.925232 -28.047241 71.30707 -28.047241l0 0c39.381836 0 71.30707 12.557182 71.30707 28.047241l0 0c0 15.490067 -31.925232 28.047249 -71.30707 28.047249l0 0c-39.381836 0 -71.30707 -12.557182 -71.30707 -28.047249z" fill-rule="nonzero"></path><path stroke="#f0e7d5" stroke-width="3.0" stroke-linejoin="round" stroke-linecap="butt" d="m723.7979 104.419945l0 0c0 -15.490059 31.925232 -28.047241 71.30707 -28.047241l0 0c39.381836 0 71.30707 12.557182 71.30707 28.047241l0 0c0 15.490067 -31.925232 28.047249 -71.30707 28.047249l0 0c-39.381836 0 -71.30707 -12.557182 -71.30707 -28.047249z" fill-rule="nonzero"></path><path fill="#f0e7d5" d="m764.0872 111.33994l3.5625 -5.078125l-3.40625 -4.78125l3.171875 0l1.75 2.71875l1.828125 -2.71875l3.0625 0l-3.328125 4.671875l3.640625 5.1875l-3.203125 0l-2.0 -3.046875l-2.03125 3.046875l-3.046875 0zm13.313232 -7.34375q-1.015625 -0.421875 -1.484375 -1.171875q-0.453125 -0.75 -0.453125 -1.640625q0 -1.515625 1.0625 -2.5q1.0625 -1.0 3.03125 -1.0q1.9375 0 3.0 1.0q1.078125 0.984375 1.078125 2.5q0 0.953125 -0.5 1.6875q-0.484375 0.734375 -1.375 1.125q1.125 0.453125 1.71875 1.328125q0.59375 0.875 0.59375 2.015625q0 1.890625 -1.203125 3.0625q-1.203125 1.171875 -3.203125 1.171875q-1.859375 0 -3.078125 -0.96875q-1.46875 -1.15625 -1.46875 -3.15625q0 -1.09375 0.546875 -2.015625q0.546875 -0.9375 1.734375 -1.4375zm0.53125 -2.625q0 0.78125 0.4375 1.21875q0.453125 0.4375 1.1875 0.4375q0.734375 0 1.171875 -0.4375q0.453125 -0.4375 0.453125 -1.21875q0 -0.734375 -0.4375 -1.171875q-0.4375 -0.453125 -1.171875 -0.453125q-0.75 0 -1.203125 0.453125q-0.4375 0.4375 -0.4375 1.171875zm-0.234375 5.828125q0 1.078125 0.546875 1.6875q0.546875 0.59375 1.375 0.59375q0.8125 0 1.34375 -0.578125q0.53125 -0.578125 0.53125 -1.671875q0 -0.953125 -0.546875 -1.53125q-0.53125 -0.578125 -1.359375 -0.578125q-0.953125 0 -1.421875 0.65625q-0.46875 0.65625 -0.46875 1.421875zm16.672546 -6.125l-2.53125 0.28125q-0.09375 -0.78125 -0.484375 -1.15625q-0.375 -0.375 -1.0 -0.375q-0.828125 0 -1.40625 0.75q-0.5625 0.734375 -0.71875 3.078125q0.984375 -1.140625 2.421875 -1.140625q1.640625 0 2.796875 1.25q1.171875 1.234375 1.171875 3.203125q0 2.078125 -1.234375 3.34375q-1.21875 1.265625 -3.140625 1.265625q-2.0625 0 -3.390625 -1.59375q-1.3125 -1.609375 -1.3125 -5.25q0 -3.75 1.375 -5.390625q1.390625 -1.65625 3.59375 -1.65625q1.546875 0 2.5625 0.875q1.015625 0.859375 1.296875 2.515625zm-5.90625 5.6875q0 1.265625 0.578125 1.953125q0.59375 0.6875 1.34375 0.6875q0.71875 0 1.203125 -0.5625q0.484375 -0.5625 0.484375 -1.84375q0 -1.328125 -0.53125 -1.9375q-0.515625 -0.625 -1.296875 -0.625q-0.75 0 -1.265625 0.59375q-0.515625 0.578125 -0.515625 1.734375zm6.4694824 8.328125l0 -1.6875l10.828125 0l0 1.6875l-10.828125 0zm20.188232 -14.015625l-2.53125 0.28125q-0.09375 -0.78125 -0.484375 -1.15625q-0.375 -0.375 -1.0 -0.375q-0.828125 0 -1.40625 0.75q-0.5625 0.734375 -0.71875 3.078125q0.984375 -1.140625 2.421875 -1.140625q1.640625 0 2.796875 1.25q1.171875 1.234375 1.171875 3.203125q0 2.078125 -1.234375 3.34375q-1.21875 1.265625 -3.140625 1.265625q-2.0625 0 -3.390625 -1.59375q-1.3125 -1.609375 -1.3125 -5.25q0 -3.75 1.375 -5.390625q1.390625 -1.65625 3.59375 -1.65625q1.546875 0 2.5625 0.875q1.015625 0.859375 1.296875 2.515625zm-5.90625 5.6875q0 1.265625 0.578125 1.953125q0.59375 0.6875 1.34375 0.6875q0.71875 0 1.203125 -0.5625q0.484375 -0.5625 0.484375 -1.84375q0 -1.328125 -0.53125 -1.9375q-0.515625 -0.625 -1.296875 -0.625q-0.75 0 -1.265625 0.59375q-0.515625 0.578125 -0.515625 1.734375zm12.563232 4.578125l0 -2.734375l-5.5625 0l0 -2.28125l5.890625 -8.640625l2.1875 0l0 8.625l1.6875 0l0 2.296875l-1.6875 0l0 2.734375l-2.515625 0zm0 -5.03125l0 -4.640625l-3.125 4.640625l3.125 0z" fill-rule="nonzero"></path><path fill="#000000" fill-opacity="0.0" d="m723.7979 176.41995l0 0c0 -15.490067 31.925232 -28.047256 71.30707 -28.047256l0 0c39.381836 0 71.30707 12.55719 71.30707 28.047256l0 0c0 15.490067 -31.925232 28.047241 -71.30707 28.047241l0 0c-39.381836 0 -71.30707 -12.557175 -71.30707 -28.047241z" fill-rule="nonzero"></path><path stroke="#f0e7d5" stroke-width="3.0" stroke-linejoin="round" stroke-linecap="butt" d="m723.7979 176.41995l0 0c0 -15.490067 31.925232 -28.047256 71.30707 -28.047256l0 0c39.381836 0 71.30707 12.55719 71.30707 28.047256l0 0c0 15.490067 -31.925232 28.047241 -71.30707 28.047241l0 0c-39.381836 0 -71.30707 -12.557175 -71.30707 -28.047241z" fill-rule="nonzero"></path><path fill="#f0e7d5" d="m773.6431 183.33995l0 -13.59375l4.109375 0l2.46875 9.265625l2.4375 -9.265625l4.125 0l0 13.59375l-2.546875 0l0 -10.703125l-2.703125 10.703125l-2.640625 0l-2.703125 -10.703125l0 10.703125l-2.546875 0zm15.4938965 0l0 -13.59375l2.75 0l0 13.59375l-2.75 0zm5.2614746 0l0 -13.59375l4.421875 0q2.5 0 3.265625 0.203125q1.15625 0.296875 1.9375 1.328125q0.796875 1.015625 0.796875 2.640625q0 1.25 -0.453125 2.109375q-0.453125 0.859375 -1.15625 1.34375q-0.703125 0.484375 -1.421875 0.640625q-0.984375 0.203125 -2.84375 0.203125l-1.796875 0l0 5.125l-2.75 0zm2.75 -11.296875l0 3.859375l1.5 0q1.625 0 2.171875 -0.21875q0.546875 -0.21875 0.859375 -0.671875q0.3125 -0.453125 0.3125 -1.046875q0 -0.75 -0.4375 -1.234375q-0.4375 -0.484375 -1.09375 -0.59375q-0.5 -0.09375 -1.984375 -0.09375l-1.328125 0zm9.0060425 6.875l2.671875 -0.265625q0.234375 1.34375 0.96875 1.984375q0.75 0.625 2.0 0.625q1.328125 0 2.0 -0.5625q0.671875 -0.5625 0.671875 -1.3125q0 -0.484375 -0.28125 -0.8125q-0.28125 -0.34375 -0.984375 -0.59375q-0.484375 -0.171875 -2.203125 -0.59375q-2.203125 -0.546875 -3.09375 -1.34375q-1.265625 -1.125 -1.265625 -2.734375q0 -1.046875 0.59375 -1.953125q0.59375 -0.90625 1.703125 -1.375q1.109375 -0.46875 2.671875 -0.46875q2.5625 0 3.859375 1.125q1.296875 1.109375 1.359375 2.984375l-2.75 0.125q-0.171875 -1.046875 -0.75 -1.5q-0.578125 -0.46875 -1.75 -0.46875q-1.1875 0 -1.875 0.5q-0.4375 0.3125 -0.4375 0.84375q0 0.484375 0.421875 0.828125q0.515625 0.421875 2.515625 0.90625q2.0 0.46875 2.953125 0.984375q0.96875 0.5 1.515625 1.375q0.546875 0.875 0.546875 2.15625q0 1.171875 -0.65625 2.203125q-0.640625 1.015625 -1.828125 1.515625q-1.1875 0.484375 -2.96875 0.484375q-2.578125 0 -3.96875 -1.1875q-1.375 -1.1875 -1.640625 -3.46875z" fill-rule="nonzero"></path><path fill="#000000" fill-opacity="0.0" d="m723.7979 32.41995l0 0c0 -15.490067 31.925232 -28.047245 71.30707 -28.047245l0 0c39.381836 0 71.30707 12.5571785 71.30707 28.047245l0 0c0 15.490063 -31.925232 28.047241 -71.30707 28.047241l0 0c-39.381836 0 -71.30707 -12.5571785 -71.30707 -28.047241z" fill-rule="nonzero"></path><path stroke="#f0e7d5" stroke-width="3.0" stroke-linejoin="round" stroke-linecap="butt" d="m723.7979 32.41995l0 0c0 -15.490067 31.925232 -28.047245 71.30707 -28.047245l0 0c39.381836 0 71.30707 12.5571785 71.30707 28.047245l0 0c0 15.490063 -31.925232 28.047241 -71.30707 28.047241l0 0c-39.381836 0 -71.30707 -12.5571785 -71.30707 -28.047241z" fill-rule="nonzero"></path><path fill="#f0e7d5" d="m787.50226 39.339947l-2.984375 0l-1.1875 -3.09375l-5.4375 0l-1.125 3.09375l-2.90625 0l5.296875 -13.59375l2.90625 0l5.4375 13.59375zm-5.046875 -5.375l-1.875 -5.046875l-1.84375 5.046875l3.71875 0zm6.2698364 5.375l0 -13.59375l5.78125 0q2.1875 0 3.171875 0.359375q0.984375 0.359375 1.578125 1.296875q0.59375 0.9375 0.59375 2.15625q0 1.53125 -0.90625 2.53125q-0.890625 0.984375 -2.6875 1.25q0.890625 0.515625 1.46875 1.140625q0.578125 0.625 1.5625 2.203125l1.671875 2.65625l-3.296875 0l-1.984375 -2.953125q-1.046875 -1.59375 -1.4375 -2.0q-0.390625 -0.421875 -0.828125 -0.5625q-0.4375 -0.15625 -1.390625 -0.15625l-0.546875 0l0 5.671875l-2.75 0zm2.75 -7.84375l2.03125 0q1.96875 0 2.453125 -0.171875q0.5 -0.171875 0.78125 -0.578125q0.28125 -0.40625 0.28125 -1.015625q0 -0.6875 -0.375 -1.109375q-0.359375 -0.421875 -1.03125 -0.53125q-0.328125 -0.046875 -2.0 -0.046875l-2.140625 0l0 3.453125zm10.676086 7.84375l0 -13.59375l4.109375 0l2.46875 9.265625l2.4375 -9.265625l4.125 0l0 13.59375l-2.546875 0l0 -10.703125l-2.703125 10.703125l-2.640625 0l-2.703125 -10.703125l0 10.703125l-2.546875 0z" fill-rule="nonzero"></path><path fill="#000000" fill-opacity="0.0" d="m723.7979 248.41995l0 0c0 -15.490067 31.925232 -28.047256 71.30707 -28.047256l0 0c39.381836 0 71.30707 12.55719 71.30707 28.047256l0 0c0 15.490051 -31.925232 28.047241 -71.30707 28.047241l0 0c-39.381836 0 -71.30707 -12.55719 -71.30707 -28.047241z" fill-rule="nonzero"></path><path stroke="#f0e7d5" stroke-width="3.0" stroke-linejoin="round" stroke-linecap="butt" d="m723.7979 248.41995l0 0c0 -15.490067 31.925232 -28.047256 71.30707 -28.047256l0 0c39.381836 0 71.30707 12.55719 71.30707 28.047256l0 0c0 15.490051 -31.925232 28.047241 -71.30707 28.047241l0 0c-39.381836 0 -71.30707 -12.55719 -71.30707 -28.047241z" fill-rule="nonzero"></path><path fill="#f0e7d5" d="m756.05206 255.33995l0 -13.59375l4.421875 0q2.5 0 3.265625 0.203125q1.15625 0.296875 1.9375 1.328125q0.796875 1.015625 0.796875 2.640625q0 1.25 -0.453125 2.109375q-0.453125 0.859375 -1.15625 1.34375q-0.703125 0.484375 -1.421875 0.640625q-0.984375 0.203125 -2.84375 0.203125l-1.796875 0l0 5.125l-2.75 0zm2.75 -11.296875l0 3.859375l1.5 0q1.625 0 2.171875 -0.21875q0.546875 -0.21875 0.859375 -0.671875q0.3125 -0.453125 0.3125 -1.046875q0 -0.75 -0.4375 -1.234375q-0.4375 -0.484375 -1.09375 -0.59375q-0.5 -0.09375 -1.984375 -0.09375l-1.328125 0zm9.1466675 4.578125q0 -2.078125 0.625 -3.484375q0.453125 -1.046875 1.25 -1.859375q0.8125 -0.828125 1.765625 -1.234375q1.28125 -0.53125 2.9375 -0.53125q3.0 0 4.796875 1.859375q1.8125 1.859375 1.8125 5.1875q0 3.296875 -1.796875 5.15625q-1.78125 1.859375 -4.78125 1.859375q-3.03125 0 -4.828125 -1.84375q-1.78125 -1.859375 -1.78125 -5.109375zm2.828125 -0.09375q0 2.3125 1.0625 3.515625q1.078125 1.1875 2.71875 1.1875q1.640625 0 2.6875 -1.1875q1.046875 -1.1875 1.046875 -3.546875q0 -2.34375 -1.03125 -3.484375q-1.015625 -1.15625 -2.703125 -1.15625q-1.703125 0 -2.75 1.171875q-1.03125 1.15625 -1.03125 3.5zm14.167664 6.8125l-3.25 -13.59375l2.8125 0l2.046875 9.328125l2.484375 -9.328125l3.265625 0l2.390625 9.5l2.09375 -9.5l2.765625 0l-3.3125 13.59375l-2.90625 0l-2.71875 -10.171875l-2.6875 10.171875l-2.984375 0zm15.671204 0l0 -13.59375l10.09375 0l0 2.296875l-7.34375 0l0 3.015625l6.828125 0l0 2.28125l-6.828125 0l0 3.703125l7.609375 0l0 2.296875l-10.359375 0zm12.4591675 0l0 -13.59375l5.78125 0q2.1875 0 3.171875 0.359375q0.984375 0.359375 1.578125 1.296875q0.59375 0.9375 0.59375 2.15625q0 1.53125 -0.90625 2.53125q-0.890625 0.984375 -2.6875 1.25q0.890625 0.515625 1.46875 1.140625q0.578125 0.625 1.5625 2.203125l1.671875 2.65625l-3.296875 0l-1.984375 -2.953125q-1.046875 -1.59375 -1.4375 -2.0q-0.390625 -0.421875 -0.828125 -0.5625q-0.4375 -0.15625 -1.390625 -0.15625l-0.546875 0l0 5.671875l-2.75 0zm2.75 -7.84375l2.03125 0q1.96875 0 2.453125 -0.171875q0.5 -0.171875 0.78125 -0.578125q0.28125 -0.40625 0.28125 -1.015625q0 -0.6875 -0.375 -1.109375q-0.359375 -0.421875 -1.03125 -0.53125q-0.328125 -0.046875 -2.0 -0.046875l-2.140625 0l0 3.453125zm12.379211 0.5q-1.015625 -0.421875 -1.484375 -1.171875q-0.453125 -0.75 -0.453125 -1.640625q0 -1.515625 1.0625 -2.5q1.0625 -1.0 3.03125 -1.0q1.9375 0 3.0 1.0q1.078125 0.984375 1.078125 2.5q0 0.953125 -0.5 1.6875q-0.484375 0.734375 -1.375 1.125q1.125 0.453125 1.71875 1.328125q0.59375 0.875 0.59375 2.015625q0 1.890625 -1.203125 3.0625q-1.203125 1.171875 -3.203125 1.171875q-1.859375 0 -3.078125 -0.96875q-1.46875 -1.15625 -1.46875 -3.15625q0 -1.09375 0.546875 -2.015625q0.546875 -0.9375 1.734375 -1.4375zm0.53125 -2.625q0 0.78125 0.4375 1.21875q0.453125 0.4375 1.1875 0.4375q0.734375 0 1.171875 -0.4375q0.453125 -0.4375 0.453125 -1.21875q0 -0.734375 -0.4375 -1.171875q-0.4375 -0.453125 -1.171875 -0.453125q-0.75 0 -1.203125 0.453125q-0.4375 0.4375 -0.4375 1.171875zm-0.234375 5.828125q0 1.078125 0.546875 1.6875q0.546875 0.59375 1.375 0.59375q0.8125 0 1.34375 -0.578125q0.53125 -0.578125 0.53125 -1.671875q0 -0.953125 -0.546875 -1.53125q-0.53125 -0.578125 -1.359375 -0.578125q-0.953125 0 -1.421875 0.65625q-0.46875 0.65625 -0.46875 1.421875z" fill-rule="nonzero"></path><path fill="#000000" fill-opacity="0.0" d="m314.82678 140.41995l41.19684 0" fill-rule="nonzero"></path><path stroke="#f0e7d5" stroke-width="3.0" stroke-linejoin="round" stroke-linecap="butt" d="m325.10803 140.41995l20.634338 0" fill-rule="evenodd"></path><path fill="#f0e7d5" stroke="#f0e7d5" stroke-width="3.0" stroke-linecap="butt" d="m325.10803 140.41995l3.3737488 -3.3737488l-9.269318 3.3737488l9.269318 3.3737488z" fill-rule="evenodd"></path><path fill="#f0e7d5" stroke="#f0e7d5" stroke-width="3.0" stroke-linecap="butt" d="m345.74237 140.41995l-3.3737488 3.3737488l9.269287 -3.3737488l-9.269287 -3.3737488z" fill-rule="evenodd"></path><path fill="#000000" fill-opacity="0.0" d="m490.82678 140.41995l41.19684 0" fill-rule="nonzero"></path><path stroke="#f0e7d5" stroke-width="3.0" stroke-linejoin="round" stroke-linecap="butt" d="m501.10803 140.41995l20.634338 0" fill-rule="evenodd"></path><path fill="#f0e7d5" stroke="#f0e7d5" stroke-width="3.0" stroke-linecap="butt" d="m501.10803 140.41995l3.3737488 -3.3737488l-9.269318 3.3737488l9.269318 3.3737488z" fill-rule="evenodd"></path><path fill="#f0e7d5" stroke="#f0e7d5" stroke-width="3.0" stroke-linecap="butt" d="m521.7424 140.41995l-3.3737793 3.3737488l9.269348 -3.3737488l-9.269348 -3.3737488z" fill-rule="evenodd"></path><path fill="#000000" fill-opacity="0.0" d="m180.02362 140.41995l-49.196854 -108.0" fill-rule="nonzero"></path><path stroke="#f0e7d5" stroke-width="3.0" stroke-linejoin="round" stroke-linecap="butt" d="m180.02362 140.41995l-44.93483 -98.64375" fill-rule="evenodd"></path><path fill="#f0e7d5" stroke="#f0e7d5" stroke-width="3.0" stroke-linecap="butt" d="m135.08879 41.7762l4.4687805 1.6716537l-6.912735 -7.0367813l0.77230835 9.833908z" fill-rule="evenodd"></path><path fill="#000000" fill-opacity="0.0" d="m180.02362 140.41995l-49.196854 -36.000008" fill-rule="nonzero"></path><path stroke="#f0e7d5" stroke-width="3.0" stroke-linejoin="round" stroke-linecap="butt" d="m180.02362 140.41995l-40.89975 -29.928566" fill-rule="evenodd"></path><path fill="#f0e7d5" stroke="#f0e7d5" stroke-width="3.0" stroke-linecap="butt" d="m139.12387 110.49139l4.714981 -0.73033905l-9.472763 -2.7511902l5.4881287 8.196503z" fill-rule="evenodd"></path><path fill="#000000" fill-opacity="0.0" d="m180.02362 140.41995l-49.196854 36.0" fill-rule="nonzero"></path><path stroke="#f0e7d5" stroke-width="3.0" stroke-linejoin="round" stroke-linecap="butt" d="m180.02362 140.41995l-40.89975 29.928558" fill-rule="evenodd"></path><path fill="#f0e7d5" stroke="#f0e7d5" stroke-width="3.0" stroke-linecap="butt" d="m139.12387 170.34851l0.7303467 -4.714981l-5.4881287 8.196503l9.472763 -2.7511902z" fill-rule="evenodd"></path><path fill="#000000" fill-opacity="0.0" d="m180.02362 140.41995l-49.196854 108.0" fill-rule="nonzero"></path><path stroke="#f0e7d5" stroke-width="3.0" stroke-linejoin="round" stroke-linecap="butt" d="m180.02362 140.41995l-44.93483 98.64374" fill-rule="evenodd"></path><path fill="#f0e7d5" stroke="#f0e7d5" stroke-width="3.0" stroke-linecap="butt" d="m135.08879 239.06369l-1.6716461 -4.4687805l-0.77230835 9.833908l6.912735 -7.0367737z" fill-rule="evenodd"></path><path fill="#000000" fill-opacity="0.0" d="m666.8268 140.41995l56.97638 -108.0" fill-rule="nonzero"></path><path stroke="#f0e7d5" stroke-width="3.0" stroke-linejoin="round" stroke-linecap="butt" d="m666.8268 140.41995l52.179016 -98.9066" fill-rule="evenodd"></path><path fill="#f0e7d5" stroke="#f0e7d5" stroke-width="3.0" stroke-linecap="butt" d="m719.00586 41.51336l1.409729 4.558178l1.3411865 -9.772587l-7.309143 6.624153z" fill-rule="evenodd"></path><path fill="#000000" fill-opacity="0.0" d="m666.8268 140.41995l56.97638 -36.000008" fill-rule="nonzero"></path><path stroke="#f0e7d5" stroke-width="3.0" stroke-linejoin="round" stroke-linecap="butt" d="m666.8268 140.41995l48.284668 -30.508255" fill-rule="evenodd"></path><path fill="#f0e7d5" stroke="#f0e7d5" stroke-width="3.0" stroke-linecap="butt" d="m715.1115 109.9117l-1.0500488 4.6542206l6.0340576 -7.803337l-9.638245 2.0990753z" fill-rule="evenodd"></path><path fill="#000000" fill-opacity="0.0" d="m666.8268 140.41995l56.97638 36.0" fill-rule="nonzero"></path><path stroke="#f0e7d5" stroke-width="3.0" stroke-linejoin="round" stroke-linecap="butt" d="m666.8268 140.41995l48.284668 30.508255" fill-rule="evenodd"></path><path fill="#f0e7d5" stroke="#f0e7d5" stroke-width="3.0" stroke-linecap="butt" d="m715.1115 170.9282l-4.654236 1.0500336l9.638245 2.0990753l-6.0340576 -7.8033447z" fill-rule="evenodd"></path><path fill="#000000" fill-opacity="0.0" d="m666.8268 140.41995l56.97638 108.0" fill-rule="nonzero"></path><path stroke="#f0e7d5" stroke-width="3.0" stroke-linejoin="round" stroke-linecap="butt" d="m666.8268 140.41995l52.179016 98.9066" fill-rule="evenodd"></path><path fill="#f0e7d5" stroke="#f0e7d5" stroke-width="3.0" stroke-linecap="butt" d="m719.00586 239.32654l-4.5582275 -1.4097443l7.309143 6.6241455l-1.3411865 -9.772583z" fill-rule="evenodd"></path></g></svg>

