<?xml version="1.0" standalone="yes"?>

<svg version="1.1" viewBox="0.0 0.0 626.4698162729659 121.93438320209974" fill="none" stroke="none" stroke-linecap="square" stroke-miterlimit="10" xmlns="http://www.w3.org/2000/svg" xmlns:xlink="http://www.w3.org/1999/xlink"><clipPath id="p.0"><path d="m0 0l626.4698 0l0 121.93438l-626.4698 0l0 -121.93438z" clip-rule="nonzero"></path></clipPath><g clip-path="url(#p.0)"><path fill="#000000" fill-opacity="0.0" d="m0 0l626.4698 0l0 121.93438l-626.4698 0z" fill-rule="nonzero"></path><path fill="#000000" fill-opacity="0.0" d="m4.5118113 7.0209975l110.267715 0l0 110.267715l-110.267715 0z" fill-rule="nonzero"></path><path stroke="#ff8d14" stroke-width="1.0" stroke-linejoin="round" stroke-linecap="butt" d="m4.5118113 7.0209975l110.267715 0l0 110.267715l-110.267715 0z" fill-rule="nonzero"></path><path fill="#ffffff" d="m77.31754 83.71433q-3.1875 1.21875 -6.546875 1.796875q-3.34375 0.59375 -6.90625 0.59375q-11.15625 0 -17.1875 -6.046875q-6.015625 -6.046875 -6.015625 -17.671875q0 -5.578125 1.734375 -10.125q1.734375 -4.546875 4.875 -7.78125q3.140625 -3.234375 7.5 -4.984375q4.359375 -1.765625 9.609375 -1.765625q3.65625 0 6.84375 0.515625q3.1875 0.515625 6.09375 1.6875l0 7.78125q-3.046875 -1.59375 -6.21875 -2.3125q-3.15625 -0.734375 -6.53125 -0.734375q-3.140625 0 -5.9375 1.203125q-2.78125 1.1875 -4.890625 3.4375q-2.109375 2.25 -3.328125 5.484375q-1.21875 3.234375 -1.21875 7.3125q0 8.53125 4.140625 12.78125q4.15625 4.234375 11.515625 4.234375q3.328125 0 6.4375 -0.75q3.125 -0.75 6.03125 -2.25l0 7.59375z" fill-rule="nonzero"></path><path fill="#000000" fill-opacity="0.0" d="m180.51181 7.0209975l110.26773 0l0 110.267715l-110.26773 0z" fill-rule="nonzero"></path><path stroke="#ff8d14" stroke-width="1.0" stroke-linejoin="round" stroke-linecap="butt" d="m180.51181 7.0209975l110.26773 0l0 110.267715l-110.26773 0z" fill-rule="nonzero"></path><path fill="#ffffff" d="m253.31755 83.71433q-3.1875 1.21875 -6.546875 1.796875q-3.34375 0.59375 -6.90625 0.59375q-11.15625 0 -17.1875 -6.046875q-6.015625 -6.046875 -6.015625 -17.671875q0 -5.578125 1.734375 -10.125q1.734375 -4.546875 4.875 -7.78125q3.140625 -3.234375 7.5 -4.984375q4.359375 -1.765625 9.609375 -1.765625q3.65625 0 6.84375 0.515625q3.1875 0.515625 6.09375 1.6875l0 7.78125q-3.046875 -1.59375 -6.21875 -2.3125q-3.15625 -0.734375 -6.53125 -0.734375q-3.140625 0 -5.9375 1.203125q-2.78125 1.1875 -4.890625 3.4375q-2.109375 2.25 -3.328125 5.484375q-1.21875 3.234375 -1.21875 7.3125q0 8.53125 4.140625 12.78125q4.15625 4.234375 11.515625 4.234375q3.328125 0 6.4375 -0.75q3.125 -0.75 6.03125 -2.25l0 7.59375z" fill-rule="nonzero"></path><path fill="#000000" fill-opacity="0.0" d="m290.83865 7.0209975l110.26773 0l0 110.267715l-110.26773 0z" fill-rule="nonzero"></path><path stroke="#ff8d14" stroke-width="1.0" stroke-linejoin="round" stroke-linecap="butt" d="m290.83865 7.0209975l110.26773 0l0 110.267715l-110.26773 0z" fill-rule="nonzero"></path><path fill="#ffffff" d="m363.64438 83.71433q-3.1875 1.21875 -6.546875 1.796875q-3.34375 0.59375 -6.90625 0.59375q-11.15625 0 -17.1875 -6.046875q-6.015625 -6.046875 -6.015625 -17.671875q0 -5.578125 1.734375 -10.125q1.734375 -4.546875 4.875 -7.78125q3.140625 -3.234375 7.5 -4.984375q4.359375 -1.765625 9.609375 -1.765625q3.65625 0 6.84375 0.515625q3.1875 0.515625 6.09375 1.6875l0 7.78125q-3.046875 -1.59375 -6.21875 -2.3125q-3.15625 -0.734375 -6.53125 -0.734375q-3.140625 0 -5.9375 1.203125q-2.78125 1.1875 -4.890625 3.4375q-2.109375 2.25 -3.328125 5.484375q-1.21875 3.234375 -1.21875 7.3125q0 8.53125 4.140625 12.78125q4.15625 4.234375 11.515625 4.234375q3.328125 0 6.4375 -0.75q3.125 -0.75 6.03125 -2.25l0 7.59375z" fill-rule="nonzero"></path><path fill="#000000" fill-opacity="0.0" d="m401.17075 7.0209975l110.2677 0l0 110.267715l-110.2677 0z" fill-rule="nonzero"></path><path stroke="#ff8d14" stroke-width="1.0" stroke-linejoin="round" stroke-linecap="butt" d="m401.17075 7.0209975l110.2677 0l0 110.267715l-110.2677 0z" fill-rule="nonzero"></path><path fill="#ffffff" d="m473.97647 83.71433q-3.1875 1.21875 -6.546875 1.796875q-3.34375 0.59375 -6.90625 0.59375q-11.15625 0 -17.1875 -6.046875q-6.015625 -6.046875 -6.015625 -17.671875q0 -5.578125 1.734375 -10.125q1.734375 -4.546875 4.875 -7.78125q3.140625 -3.234375 7.5 -4.984375q4.359375 -1.765625 9.609375 -1.765625q3.65625 0 6.84375 0.515625q3.1875 0.515625 6.09375 1.6875l0 7.78125q-3.046875 -1.59375 -6.21875 -2.3125q-3.15625 -0.734375 -6.53125 -0.734375q-3.140625 0 -5.9375 1.203125q-2.78125 1.1875 -4.890625 3.4375q-2.109375 2.25 -3.328125 5.484375q-1.21875 3.234375 -1.21875 7.3125q0 8.53125 4.140625 12.78125q4.15625 4.234375 11.515625 4.234375q3.328125 0 6.4375 -0.75q3.125 -0.75 6.03125 -2.25l0 7.59375z" fill-rule="nonzero"></path><path fill="#000000" fill-opacity="0.0" d="m511.5002 7.0209975l110.26773 0l0 110.267715l-110.26773 0z" fill-rule="nonzero"></path><path stroke="#ff8d14" stroke-width="1.0" stroke-linejoin="round" stroke-linecap="butt" d="m511.5002 7.0209975l110.26773 0l0 110.267715l-110.26773 0z" fill-rule="nonzero"></path><path fill="#ffffff" d="m584.30597 83.71433q-3.1875 1.21875 -6.546875 1.796875q-3.34375 0.59375 -6.90625 0.59375q-11.15625 0 -17.1875 -6.046875q-6.015625 -6.046875 -6.015625 -17.671875q0 -5.578125 1.734375 -10.125q1.734375 -4.546875 4.875 -7.78125q3.140625 -3.234375 7.5 -4.984375q4.359375 -1.765625 9.609375 -1.765625q3.65625 0 6.84375 0.515625q3.1875 0.515625 6.09375 1.6875l0 7.78125q-3.046875 -1.59375 -6.21875 -2.3125q-3.15625 -0.734375 -6.53125 -0.734375q-3.140625 0 -5.9375 1.203125q-2.78125 1.1875 -4.890625 3.4375q-2.109375 2.25 -3.328125 5.484375q-1.21875 3.234375 -1.21875 7.3125q0 8.53125 4.140625 12.78125q4.15625 4.234375 11.515625 4.234375q3.328125 0 6.4375 -0.75q3.125 -0.75 6.03125 -2.25l0 7.59375z" fill-rule="nonzero"></path><path fill="#000000" fill-opacity="0.0" d="m124.00525 51.24672l24.015747 0l0 -13.299213l24.015747 26.598423l-24.015747 26.598427l0 -13.29921l-24.015747 0z" fill-rule="nonzero"></path><path stroke="#ff8d14" stroke-width="1.0" stroke-linejoin="round" stroke-linecap="butt" d="m124.00525 51.24672l24.015747 0l0 -13.299213l24.015747 26.598423l-24.015747 26.598427l0 -13.29921l-24.015747 0z" fill-rule="nonzero"></path></g></svg>

