<?xml version="1.0" standalone="yes"?>

<svg version="1.1" viewBox="0.0 0.0 621.2099737532808 212.6509186351706" fill="none" stroke="none" stroke-linecap="square" stroke-miterlimit="10" xmlns="http://www.w3.org/2000/svg" xmlns:xlink="http://www.w3.org/1999/xlink"><clipPath id="p.0"><path d="m0 0l621.20996 0l0 212.65092l-621.20996 0l0 -212.65092z" clip-rule="nonzero"></path></clipPath><g clip-path="url(#p.0)"><path fill="#000000" fill-opacity="0.0" d="m0 0l621.20996 0l0 212.65092l-621.20996 0z" fill-rule="nonzero"></path><path fill="#000000" fill-opacity="0.0" d="m8.209973 65.29921l168.44095 0l0 133.29134l-168.44095 0z" fill-rule="nonzero"></path><path stroke="#f0e7d5" stroke-width="3.0" stroke-linejoin="round" stroke-linecap="butt" d="m8.209973 65.29921l168.44095 0l0 133.29134l-168.44095 0z" fill-rule="nonzero"></path><path fill="#f0e7d5" d="m59.483425 123.42238q0.984375 0 1.390625 -0.1875q0.421875 -0.203125 0.421875 -0.75q0 -0.4375 -0.53125 -0.75q-0.53125 -0.328125 -1.609375 -0.734375q-0.84375 -0.3125 -1.53125 -0.640625q-0.671875 -0.34375 -1.15625 -0.8125q-0.484375 -0.46875 -0.75 -1.109375q-0.265625 -0.65625 -0.265625 -1.578125q0 -1.765625 1.3125 -2.796875q1.328125 -1.03125 3.640625 -1.03125q1.15625 0 2.203125 0.203125q1.0625 0.203125 1.6875038 0.4375l-0.6250038 2.78125q-0.625 -0.21875 -1.359375 -0.375q-0.734375 -0.171875 -1.640625 -0.171875q-1.6875 0 -1.6875 0.9375q0 0.21875 0.0625 0.390625q0.078125 0.15625 0.296875 0.3125q0.21875 0.15625 0.59375 0.34375q0.375 0.171875 0.953125 0.390625q1.171875 0.4375 1.9375 0.859375q0.765625 0.40625 1.2031288 0.90625q0.453125 0.484375 0.625 1.09375q0.1875 0.59375 0.1875 1.390625q0 1.875 -1.4062538 2.84375q-1.40625 0.953125 -3.96875 0.953125q-1.6875 0 -2.796875 -0.296875q-1.109375 -0.28125 -1.546875 -0.484375l0.59375 -2.90625q0.921875 0.375 1.875 0.578125q0.96875 0.203125 1.890625 0.203125zm19.827473 -3.78125q0 1.5 -0.4375 2.734375q-0.421875 1.234375 -1.25 2.109375q-0.8125 0.875 -1.953125 1.359375q-1.125 0.484375 -2.546875 0.484375q-1.390625 0 -2.53125 -0.484375q-1.140625 -0.484375 -1.96875 -1.359375q-0.8125 -0.875 -1.265625 -2.109375q-0.453125 -1.234375 -0.453125 -2.734375q0 -1.484375 0.46875 -2.703125q0.46875 -1.21875 1.296875 -2.078125q0.828125 -0.875 1.96875 -1.34375q1.140625 -0.484375 2.484375 -0.484375q1.359375 0 2.5 0.484375q1.140625 0.46875 1.953125 1.34375q0.828125 0.859375 1.28125 2.078125q0.453125 1.21875 0.453125 2.703125zm-3.640625 0q0 -1.640625 -0.671875 -2.59375q-0.65625 -0.953125 -1.875 -0.953125q-1.21875 0 -1.890625 0.953125q-0.671875 0.953125 -0.671875 2.59375q0 1.65625 0.671875 2.640625q0.671875 0.96875 1.890625 0.96875q1.21875 0 1.875 -0.96875q0.671875 -0.984375 0.671875 -2.640625zm17.177338 5.90625q-0.90625 0.265625 -2.359375 0.484375q-1.4375 0.234375 -3.015625 0.234375q-1.609375 0 -2.671875 -0.421875q-1.0625 -0.4375 -1.6875 -1.21875q-0.625 -0.78125 -0.890625 -1.859375q-0.265625 -1.078125 -0.265625 -2.375l0 -7.03125l3.578125 0l0 6.59375q0 1.734375 0.453125 2.5q0.453125 0.765625 1.703125 0.765625q0.390625 0 0.8125 -0.03125q0.4375 -0.03125 0.765625 -0.078125l0 -9.75l3.578125 0l0 12.1875zm10.964081 -9.015625q-0.46875 -0.125 -1.125 -0.25q-0.640625 -0.140625 -1.390625 -0.140625q-0.328125 0 -0.796875 0.0625q-0.46875 0.0625 -0.71875 0.140625l0 9.640625l-3.5625 0l0 -11.953125q0.953125 -0.328125 2.25 -0.625q1.3125 -0.3125 2.921875 -0.3125q0.296875 0 0.703125 0.046875q0.40625 0.03125 0.8125 0.09375q0.40625 0.046875 0.8125 0.140625q0.40625 0.078125 0.703125 0.203125l-0.609375 2.953125zm1.9248505 3.140625q0 -1.375 0.4375 -2.578125q0.453125 -1.21875 1.28125 -2.109375q0.84375 -0.90625 2.046875 -1.421875q1.203125 -0.53125 2.734375 -0.53125q1.015625 0 1.84375 0.1875q0.84375 0.171875 1.640625 0.5l-0.75 2.859375q-0.5 -0.1875 -1.109375 -0.328125q-0.59375 -0.15625 -1.328125 -0.15625q-1.59375 0 -2.375 0.984375q-0.765625 0.984375 -0.765625 2.59375q0 1.703125 0.71875 2.640625q0.734375 0.9375 2.5625 0.9375q0.640625 0 1.390625 -0.109375q0.75 -0.125 1.375 -0.390625l0.5 2.921875q-0.625 0.265625 -1.5625 0.453125q-0.9375 0.203125 -2.0625 0.203125q-1.734375 0 -2.984375 -0.515625q-1.234375 -0.53125 -2.046875 -1.40625q-0.796875 -0.890625 -1.171875 -2.09375q-0.375 -1.21875 -0.375 -2.640625zm11.9999695 0.09375q0 -1.671875 0.515625 -2.9375q0.515625 -1.265625 1.359375 -2.09375q0.84375 -0.84375 1.921875 -1.265625q1.09375 -0.4375 2.25 -0.4375q2.6875 0 4.25 1.640625q1.5625 1.640625 1.5625 4.828125q0 0.3125 -0.03125 0.6875q-0.015625 0.375 -0.046875 0.65625l-8.109375 0q0.125 1.109375 1.03125 1.765625q0.921875 0.640625 2.453125 0.640625q0.984375 0 1.921875 -0.171875q0.953125 -0.1875 1.5625 -0.453125l0.46875 2.90625q-0.28125 0.140625 -0.765625 0.28125q-0.484375 0.140625 -1.078125 0.25q-0.578125 0.109375 -1.25 0.1875q-0.671875 0.078125 -1.34375 0.078125q-1.703125 0 -2.96875 -0.5q-1.25 -0.515625 -2.078125 -1.390625q-0.828125 -0.875 -1.234375 -2.078125q-0.390625 -1.203125 -0.390625 -2.59375zm8.40625 -1.359375q-0.03125 -0.46875 -0.171875 -0.890625q-0.125 -0.4375 -0.40625 -0.765625q-0.265625 -0.34375 -0.6875 -0.5625q-0.421875 -0.21875 -1.046875 -0.21875q-0.59375 0 -1.03125 0.21875q-0.421875 0.203125 -0.71875 0.546875q-0.28125 0.328125 -0.4375 0.765625q-0.15625 0.4375 -0.234375 0.90625l4.734375 0z" fill-rule="nonzero"></path><path fill="#f0e7d5" d="m65.96865 148.67238q0 -1.375 0.4375 -2.578125q0.453125 -1.21875 1.28125 -2.109375q0.84375 -0.90625 2.046875 -1.421875q1.203125 -0.53125 2.734375 -0.53125q1.015625 0 1.84375 0.1875q0.84375 0.171875 1.640625 0.5l-0.75 2.859375q-0.5 -0.1875 -1.109375 -0.328125q-0.59375 -0.15625 -1.328125 -0.15625q-1.59375 0 -2.375 0.984375q-0.765625 0.984375 -0.765625 2.59375q0 1.703125 0.71875 2.640625q0.734375 0.9375 2.5625 0.9375q0.640625 0 1.390625 -0.109375q0.75 -0.125 1.375 -0.390625l0.5 2.921875q-0.625 0.265625 -1.5625 0.453125q-0.9375 0.203125 -2.0625 0.203125q-1.734375 0 -2.984375 -0.515625q-1.234375 -0.53125 -2.046875 -1.40625q-0.796875 -0.890625 -1.171875 -2.09375q-0.375 -1.21875 -0.375 -2.640625zm24.40622 -0.03125q0 1.5 -0.4375 2.734375q-0.421875 1.234375 -1.25 2.109375q-0.8125 0.875 -1.953125 1.359375q-1.125 0.484375 -2.546875 0.484375q-1.390625 0 -2.53125 -0.484375q-1.140625 -0.484375 -1.96875 -1.359375q-0.8125 -0.875 -1.265625 -2.109375q-0.453125 -1.234375 -0.453125 -2.734375q0 -1.484375 0.46875 -2.703125q0.46875 -1.21875 1.296875 -2.078125q0.828125 -0.875 1.96875 -1.34375q1.140625 -0.484375 2.484375 -0.484375q1.359375 0 2.5 0.484375q1.140625 0.46875 1.953125 1.34375q0.828125 0.859375 1.28125 2.078125q0.453125 1.21875 0.453125 2.703125zm-3.640625 0q0 -1.640625 -0.671875 -2.59375q-0.65625 -0.953125 -1.875 -0.953125q-1.21875 0 -1.890625 0.953125q-0.671875 0.953125 -0.671875 2.59375q0 1.65625 0.671875 2.640625q0.671875 0.96875 1.890625 0.96875q1.21875 0 1.875 -0.96875q0.671875 -0.984375 0.671875 -2.640625zm9.458588 -0.0625q0 1.65625 0.734375 2.671875q0.75 1.0 2.21875 1.0q0.46875 0 0.875 -0.03125q0.40625 -0.046875 0.671875 -0.09375l0 -6.5q-0.328125 -0.21875 -0.875 -0.359375q-0.53125 -0.140625 -1.09375 -0.140625q-2.53125 0 -2.53125 3.453125zm8.078125 6.0q-0.46875 0.140625 -1.09375 0.28125q-0.625 0.125 -1.3125 0.21875q-0.6875 0.09375 -1.40625 0.15625q-0.703125 0.0625 -1.34375 0.0625q-1.5625 0 -2.796875 -0.453125q-1.21875 -0.453125 -2.0625 -1.296875q-0.828125 -0.859375 -1.28125 -2.078125q-0.4375 -1.21875 -0.4375 -2.71875q0 -1.546875 0.375 -2.78125q0.390625 -1.234375 1.109375 -2.09375q0.71875 -0.859375 1.765625 -1.3125q1.046875 -0.46875 2.390625 -0.46875q0.75 0 1.328125 0.15625q0.59375 0.140625 1.1875 0.390625l0 -5.703125l3.578125 -0.578125l0 18.21875zm2.7615814 -5.8125q0 -1.671875 0.515625 -2.9375q0.515625 -1.265625 1.359375 -2.09375q0.84375 -0.84375 1.921875 -1.265625q1.09375 -0.4375 2.25 -0.4375q2.6875 0 4.25 1.640625q1.5625 1.640625 1.5625 4.828125q0 0.3125 -0.03125 0.6875q-0.015625 0.375 -0.046875 0.65625l-8.109375 0q0.125 1.109375 1.03125 1.765625q0.921875 0.640625 2.453125 0.640625q0.984375 0 1.921875 -0.171875q0.953125 -0.1875 1.5625 -0.453125l0.46875 2.90625q-0.28125 0.140625 -0.765625 0.28125q-0.484375 0.140625 -1.078125 0.25q-0.578125 0.109375 -1.25 0.1875q-0.671875 0.078125 -1.34375 0.078125q-1.703125 0 -2.96875 -0.5q-1.25 -0.515625 -2.078125 -1.390625q-0.828125 -0.875 -1.234375 -2.078125q-0.390625 -1.203125 -0.390625 -2.59375zm8.40625 -1.359375q-0.03125 -0.46875 -0.171875 -0.890625q-0.125 -0.4375 -0.40625 -0.765625q-0.265625 -0.34375 -0.6875 -0.5625q-0.421875 -0.21875 -1.046875 -0.21875q-0.59375 0 -1.03125 0.21875q-0.421875 0.203125 -0.71875 0.546875q-0.28125 0.328125 -0.4375 0.765625q-0.15625 0.4375 -0.234375 0.90625l4.734375 0z" fill-rule="nonzero"></path><path fill="#ff8d14" d="m179.16273 86.65354l34.330704 0l0 -5.354332l10.708664 10.708664l-10.708664 10.708664l0 -5.354332l-34.330704 0z" fill-rule="nonzero"></path><path fill="#000000" fill-opacity="0.0" d="m224.20998 9.299212l168.44093 0l0 133.29134l-168.44093 0z" fill-rule="nonzero"></path><path stroke="#f0e7d5" stroke-width="3.0" stroke-linejoin="round" stroke-linecap="butt" d="m224.20998 9.299212l168.44093 0l0 133.29134l-168.44093 0z" fill-rule="nonzero"></path><path fill="#f0e7d5" d="m238.70467 69.98488l-3.5625 0l0 -12.624996l3.5625 0l0 12.624996zm0.34375 -16.265621q0 0.984375 -0.640625 1.546875q-0.640625 0.5625 -1.5 0.5625q-0.859375 0 -1.5 -0.5625q-0.640625 -0.5625 -0.640625 -1.546875q0 -0.984375 0.640625 -1.546875q0.640625 -0.578125 1.5 -0.578125q0.859375 0 1.5 0.578125q0.640625 0.5625 0.640625 1.546875zm3.0297241 4.078125q0.90625 -0.265625 2.34375 -0.484375q1.4375 -0.234375 3.03125 -0.234375q1.59375 0 2.65625 0.421875q1.078125 0.40625 1.703125 1.1875q0.625 0.765625 0.890625 1.828125q0.265625 1.046875 0.265625 2.34375l0 7.124996l-3.578125 0l0 -6.703121q0 -1.71875 -0.453125 -2.4375q-0.453125 -0.71875 -1.703125 -0.71875q-0.390625 0 -0.828125 0.03125q-0.421875 0.03125 -0.765625 0.078125l0 9.749996l-3.5625 0l0 -12.187496zm14.010941 -3.578125l3.578125 -0.578125l0 3.71875l4.296875 0l0 2.984375l-4.296875 0l0 4.437496q0 1.125 0.390625 1.796875q0.390625 0.671875 1.59375 0.671875q0.578125 0 1.1875 -0.109375q0.609375 -0.109375 1.125 -0.296875l0.5 2.78125q-0.65625 0.265625 -1.453125 0.453125q-0.78125 0.1875 -1.9375 0.1875q-1.453125 0 -2.421875 -0.390625q-0.953125 -0.390625 -1.53125 -1.09375q-0.578125 -0.71875 -0.8125 -1.71875q-0.21875 -1.015625 -0.21875 -2.234375l0 -10.609371zm10.1716 9.546875q0 -1.671875 0.515625 -2.9375q0.515625 -1.265625 1.359375 -2.09375q0.84375 -0.84375 1.921875 -1.265625q1.09375 -0.4375 2.25 -0.4375q2.6875 0 4.25 1.640625q1.5625 1.640625 1.5625 4.828125q0 0.3125 -0.03125 0.6874962q-0.015625 0.375 -0.046875 0.65625l-8.109375 0q0.125 1.109375 1.03125 1.765625q0.921875 0.640625 2.453125 0.640625q0.984375 0 1.921875 -0.171875q0.953125 -0.1875 1.5625 -0.453125l0.46875 2.90625q-0.28125 0.140625 -0.765625 0.28125q-0.484375 0.140625 -1.078125 0.25q-0.578125 0.109375 -1.25 0.1875q-0.671875 0.078125 -1.34375 0.078125q-1.703125 0 -2.96875 -0.5q-1.25 -0.515625 -2.078125 -1.390625q-0.828125 -0.875 -1.234375 -2.078125q-0.390625 -1.203125 -0.390625 -2.5937462zm8.40625 -1.359375q-0.03125 -0.46875 -0.171875 -0.890625q-0.125 -0.4375 -0.40625 -0.765625q-0.265625 -0.34375 -0.6875 -0.5625q-0.421875 -0.21875 -1.046875 -0.21875q-0.59375 0 -1.03125 0.21875q-0.421875 0.203125 -0.71875 0.546875q-0.28125 0.328125 -0.4375 0.765625q-0.15625 0.4375 -0.234375 0.90625l4.734375 0zm13.812836 -1.875q-0.46875 -0.125 -1.125 -0.25q-0.640625 -0.140625 -1.390625 -0.140625q-0.328125 0 -0.796875 0.0625q-0.46875 0.0625 -0.71875 0.140625l0 9.640621l-3.5625 0l0 -11.953121q0.953125 -0.328125 2.25 -0.625q1.3125 -0.3125 2.921875 -0.3125q0.296875 0 0.703125 0.046875q0.40625 0.03125 0.8125 0.09375q0.40625 0.046875 0.8125 0.140625q0.40625 0.078125 0.703125 0.203125l-0.609375 2.953125zm9.456116 2.75q0 -1.71875 -0.4375 -2.4375q-0.4375 -0.71875 -1.53125 -0.71875q-0.328125 0 -0.6875 0.03125q-0.359375 0.03125 -0.703125 0.078125l0 9.749996l-3.5625 0l0 -12.187496q0.453125 -0.125 1.0625 -0.25q0.609375 -0.140625 1.296875 -0.25q0.6875 -0.109375 1.40625 -0.15625q0.71875 -0.0625 1.40625 -0.0625q1.375 0 2.21875 0.34375q0.859375 0.34375 1.40625 0.828125q0.765625 -0.546875 1.765625 -0.859375q1.0 -0.3125 1.84375 -0.3125q1.5 0 2.46875 0.421875q0.984375 0.40625 1.5625 1.1875q0.578125 0.765625 0.78125 1.828125q0.21875 1.046875 0.21875 2.34375l0 7.124996l-3.578125 0l0 -6.703121q0 -1.71875 -0.453125 -2.4375q-0.4375 -0.71875 -1.515625 -0.71875q-0.28125 0 -0.796875 0.140625q-0.515625 0.140625 -0.859375 0.359375q0.171875 0.546875 0.21875 1.171875q0.046875 0.609375 0.046875 1.296875l0 6.890621l-3.578125 0l0 -6.703121zm13.156677 0.484375q0 -1.671875 0.515625 -2.9375q0.515625 -1.265625 1.359375 -2.09375q0.84375 -0.84375 1.921875 -1.265625q1.09375 -0.4375 2.25 -0.4375q2.6875 0 4.25 1.640625q1.5625 1.640625 1.5625 4.828125q0 0.3125 -0.03125 0.6874962q-0.015625 0.375 -0.046875 0.65625l-8.109375 0q0.125 1.109375 1.03125 1.765625q0.921875 0.640625 2.453125 0.640625q0.984375 0 1.921875 -0.171875q0.953125 -0.1875 1.5625 -0.453125l0.46875 2.90625q-0.28125 0.140625 -0.765625 0.28125q-0.484375 0.140625 -1.078125 0.25q-0.578125 0.109375 -1.25 0.1875q-0.671875 0.078125 -1.34375 0.078125q-1.703125 0 -2.96875 -0.5q-1.25 -0.515625 -2.078125 -1.390625q-0.828125 -0.875 -1.234375 -2.078125q-0.390625 -1.203125 -0.390625 -2.5937462zm8.40625 -1.359375q-0.03125 -0.46875 -0.171875 -0.890625q-0.125 -0.4375 -0.40625 -0.765625q-0.265625 -0.34375 -0.6875 -0.5625q-0.421875 -0.21875 -1.046875 -0.21875q-0.59375 0 -1.03125 0.21875q-0.421875 0.203125 -0.71875 0.546875q-0.28125 0.328125 -0.4375 0.765625q-0.15625 0.4375 -0.234375 0.90625l4.734375 0zm9.265961 1.171875q0 1.6562462 0.734375 2.6718712q0.75 1.0 2.21875 1.0q0.46875 0 0.875 -0.03125q0.40625 -0.046875 0.671875 -0.09375l0 -6.499996q-0.328125 -0.21875 -0.875 -0.359375q-0.53125 -0.140625 -1.09375 -0.140625q-2.53125 0 -2.53125 3.453125zm8.078125 5.999996q-0.46875 0.140625 -1.09375 0.28125q-0.625 0.125 -1.3125 0.21875q-0.6875 0.09375 -1.40625 0.15625q-0.703125 0.0625 -1.34375 0.0625q-1.5625 0 -2.796875 -0.453125q-1.21875 -0.453125 -2.0625 -1.296875q-0.828125 -0.859375 -1.28125 -2.078125q-0.4375 -1.21875 -0.4375 -2.7187462q0 -1.546875 0.375 -2.78125q0.390625 -1.234375 1.109375 -2.09375q0.71875 -0.859375 1.765625 -1.3125q1.046875 -0.46875 2.390625 -0.46875q0.75 0 1.328125 0.15625q0.59375 0.140625 1.1875 0.390625l0 -5.703125l3.578125 -0.578125l0 18.218746zm6.9334717 0.40625l-3.5625 0l0 -12.624996l3.5625 0l0 12.624996zm0.34375 -16.265621q0 0.984375 -0.640625 1.546875q-0.640625 0.5625 -1.5 0.5625q-0.859375 0 -1.5 -0.5625q-0.640625 -0.5625 -0.640625 -1.546875q0 -0.984375 0.640625 -1.546875q0.640625 -0.578125 1.5 -0.578125q0.859375 0 1.5 0.578125q0.640625 0.5625 0.640625 1.546875zm7.842224 13.765621q0.53125 0 1.0 -0.015625q0.484375 -0.03125 0.78125 -0.078125l0 -2.703125q-0.21875 -0.0625 -0.65625 -0.109375q-0.421875 -0.046875 -0.78125 -0.046875q-0.5 0 -0.953125 0.0625q-0.4375 0.0625 -0.78125 0.234375q-0.328125 0.171875 -0.53125 0.453125q-0.1875 0.28125 -0.1875 0.71875q0 0.84375 0.5625 1.171875q0.5625 0.3125 1.546875 0.3125zm-0.28125 -10.453121q1.578125 0 2.625 0.359375q1.0625 0.359375 1.703125 1.03125q0.640625 0.671875 0.90625 1.640625q0.265625 0.953125 0.265625 2.125l0 7.437496q-0.78125 0.171875 -2.15625 0.390625q-1.359375 0.234375 -3.296875 0.234375q-1.21875 0 -2.21875 -0.21875q-1.0 -0.21875 -1.71875 -0.703125q-0.71875 -0.5 -1.109375 -1.28125q-0.375 -0.796875 -0.375 -1.953125q0 -1.09375 0.4375 -1.859375q0.453125 -0.7812462 1.1875 -1.2343712q0.75 -0.453125 1.703125 -0.65625q0.96875 -0.203125 2.0 -0.203125q0.6875 0 1.21875 0.0625q0.546875 0.046875 0.890625 0.15625l0 -0.34375q0 -0.90625 -0.5625 -1.453125q-0.546875 -0.5625 -1.90625 -0.5625q-0.921875 0 -1.8125 0.140625q-0.875 0.125 -1.53125 0.359375l-0.453125 -2.875q0.3125 -0.09375 0.78125 -0.203125q0.46875 -0.109375 1.015625 -0.1875q0.5625 -0.09375 1.171875 -0.140625q0.609375 -0.0625 1.234375 -0.0625zm8.615692 -2.8125l3.578125 -0.578125l0 3.71875l4.296875 0l0 2.984375l-4.296875 0l0 4.437496q0 1.125 0.390625 1.796875q0.390625 0.671875 1.59375 0.671875q0.578125 0 1.1875 -0.109375q0.609375 -0.109375 1.125 -0.296875l0.5 2.78125q-0.65625 0.265625 -1.453125 0.453125q-0.78125 0.1875 -1.9375 0.1875q-1.453125 0 -2.421875 -0.390625q-0.953125 -0.390625 -1.53125 -1.09375q-0.578125 -0.71875 -0.8125 -1.71875q-0.21875 -1.015625 -0.21875 -2.234375l0 -10.609371zm10.1716 9.546875q0 -1.671875 0.515625 -2.9375q0.515625 -1.265625 1.359375 -2.09375q0.84375 -0.84375 1.921875 -1.265625q1.09375 -0.4375 2.25 -0.4375q2.6875 0 4.25 1.640625q1.5625 1.640625 1.5625 4.828125q0 0.3125 -0.03125 0.6874962q-0.015625 0.375 -0.046875 0.65625l-8.109375 0q0.125 1.109375 1.03125 1.765625q0.921875 0.640625 2.453125 0.640625q0.984375 0 1.921875 -0.171875q0.953125 -0.1875 1.5625 -0.453125l0.46875 2.90625q-0.28125 0.140625 -0.765625 0.28125q-0.484375 0.140625 -1.078125 0.25q-0.578125 0.109375 -1.25 0.1875q-0.671875 0.078125 -1.34375 0.078125q-1.703125 0 -2.96875 -0.5q-1.25 -0.515625 -2.078125 -1.390625q-0.828125 -0.875 -1.234375 -2.078125q-0.390625 -1.203125 -0.390625 -2.5937462zm8.40625 -1.359375q-0.03125 -0.46875 -0.171875 -0.890625q-0.125 -0.4375 -0.40625 -0.765625q-0.265625 -0.34375 -0.6875 -0.5625q-0.421875 -0.21875 -1.046875 -0.21875q-0.59375 0 -1.03125 0.21875q-0.421875 0.203125 -0.71875 0.546875q-0.28125 0.328125 -0.4375 0.765625q-0.15625 0.4375 -0.234375 0.90625l4.734375 0z" fill-rule="nonzero"></path><path fill="#f0e7d5" d="m281.96866 92.67238q0 -1.375 0.4375 -2.578125q0.453125 -1.21875 1.28125 -2.109375q0.84375 -0.90625 2.046875 -1.421875q1.203125 -0.53125 2.734375 -0.53125q1.015625 0 1.84375 0.1875q0.84375 0.171875 1.640625 0.5l-0.75 2.859375q-0.5 -0.1875 -1.109375 -0.328125q-0.59375 -0.15625 -1.328125 -0.15625q-1.59375 0 -2.375 0.984375q-0.765625 0.984375 -0.765625 2.59375q0 1.703125 0.71875 2.640625q0.734375 0.9375 2.5625 0.9375q0.640625 0 1.390625 -0.109375q0.75 -0.125 1.375 -0.390625l0.5 2.921875q-0.625 0.265625 -1.5625 0.453125q-0.9375 0.203125 -2.0625 0.203125q-1.734375 0 -2.984375 -0.515625q-1.234375 -0.53125 -2.046875 -1.40625q-0.796875 -0.890625 -1.171875 -2.09375q-0.375 -1.21875 -0.375 -2.640625zm24.40622 -0.03125q0 1.5 -0.4375 2.734375q-0.421875 1.234375 -1.25 2.109375q-0.8125 0.875 -1.953125 1.359375q-1.125 0.484375 -2.546875 0.484375q-1.390625 0 -2.53125 -0.484375q-1.140625 -0.484375 -1.96875 -1.359375q-0.8125 -0.875 -1.265625 -2.109375q-0.453125 -1.234375 -0.453125 -2.734375q0 -1.484375 0.46875 -2.703125q0.46875 -1.21875 1.296875 -2.078125q0.828125 -0.875 1.96875 -1.34375q1.140625 -0.484375 2.484375 -0.484375q1.359375 0 2.5 0.484375q1.140625 0.46875 1.953125 1.34375q0.828125 0.859375 1.28125 2.078125q0.453125 1.21875 0.453125 2.703125zm-3.640625 0q0 -1.640625 -0.671875 -2.59375q-0.65625 -0.953125 -1.875 -0.953125q-1.21875 0 -1.890625 0.953125q-0.671875 0.953125 -0.671875 2.59375q0 1.65625 0.671875 2.640625q0.671875 0.96875 1.890625 0.96875q1.21875 0 1.875 -0.96875q0.671875 -0.984375 0.671875 -2.640625zm9.458588 -0.0625q0 1.65625 0.734375 2.671875q0.75 1.0 2.21875 1.0q0.46875 0 0.875 -0.03125q0.40625 -0.046875 0.671875 -0.09375l0 -6.5q-0.328125 -0.21875 -0.875 -0.359375q-0.53125 -0.140625 -1.09375 -0.140625q-2.53125 0 -2.53125 3.453125zm8.078125 6.0q-0.46875 0.140625 -1.09375 0.28125q-0.625 0.125 -1.3125 0.21875q-0.6875 0.09375 -1.40625 0.15625q-0.703125 0.0625 -1.34375 0.0625q-1.5625 0 -2.796875 -0.453125q-1.21875 -0.453125 -2.0625 -1.296875q-0.828125 -0.859375 -1.28125 -2.078125q-0.4375 -1.21875 -0.4375 -2.71875q0 -1.546875 0.375 -2.78125q0.390625 -1.234375 1.109375 -2.09375q0.71875 -0.859375 1.765625 -1.3125q1.046875 -0.46875 2.390625 -0.46875q0.75 0 1.328125 0.15625q0.59375 0.140625 1.1875 0.390625l0 -5.703125l3.578125 -0.578125l0 18.21875zm2.7615662 -5.8125q0 -1.671875 0.515625 -2.9375q0.515625 -1.265625 1.359375 -2.09375q0.84375 -0.84375 1.921875 -1.265625q1.09375 -0.4375 2.25 -0.4375q2.6875 0 4.25 1.640625q1.5625 1.640625 1.5625 4.828125q0 0.3125 -0.03125 0.6875q-0.015625 0.375 -0.046875 0.65625l-8.109375 0q0.125 1.109375 1.03125 1.765625q0.921875 0.640625 2.453125 0.640625q0.984375 0 1.921875 -0.171875q0.953125 -0.1875 1.5625 -0.453125l0.46875 2.90625q-0.28125 0.140625 -0.765625 0.28125q-0.484375 0.140625 -1.078125 0.25q-0.578125 0.109375 -1.25 0.1875q-0.671875 0.078125 -1.34375 0.078125q-1.703125 0 -2.96875 -0.5q-1.25 -0.515625 -2.078125 -1.390625q-0.828125 -0.875 -1.234375 -2.078125q-0.390625 -1.203125 -0.390625 -2.59375zm8.40625 -1.359375q-0.03125 -0.46875 -0.171875 -0.890625q-0.125 -0.4375 -0.40625 -0.765625q-0.265625 -0.34375 -0.6875 -0.5625q-0.421875 -0.21875 -1.046875 -0.21875q-0.59375 0 -1.03125 0.21875q-0.421875 0.203125 -0.71875 0.546875q-0.28125 0.328125 -0.4375 0.765625q-0.15625 0.4375 -0.234375 0.90625l4.734375 0z" fill-rule="nonzero"></path><path fill="#000000" fill-opacity="0.0" d="m440.20996 65.29921l168.44098 0l0 133.29134l-168.44098 0z" fill-rule="nonzero"></path><path stroke="#f0e7d5" stroke-width="3.0" stroke-linejoin="round" stroke-linecap="butt" d="m440.20996 65.29921l168.44098 0l0 133.29134l-168.44098 0z" fill-rule="nonzero"></path><path fill="#f0e7d5" d="m489.50104 110.21925l3.578125 -0.578125l0 3.71875l4.296875 0l0 2.984375l-4.296875 0l0 4.4375q0 1.125 0.390625 1.796875q0.390625 0.671875 1.59375 0.671875q0.578125 0 1.1875 -0.109375q0.609375 -0.109375 1.125 -0.296875l0.5 2.78125q-0.65625 0.265625 -1.453125 0.453125q-0.78125 0.1875 -1.9375 0.1875q-1.453125 0 -2.421875 -0.390625q-0.953125 -0.390625 -1.53125 -1.09375q-0.578125 -0.71875 -0.8125 -1.71875q-0.21875 -1.015625 -0.21875 -2.234375l0 -10.609375zm15.593475 13.265625q0.53125 0 1.0 -0.015625q0.484375 -0.03125 0.78125 -0.078125l0 -2.703125q-0.21875 -0.0625 -0.65625 -0.109375q-0.421875 -0.046875 -0.78125 -0.046875q-0.5 0 -0.953125 0.0625q-0.4375 0.0625 -0.78125 0.234375q-0.328125 0.171875 -0.53125 0.453125q-0.1875 0.28125 -0.1875 0.71875q0 0.84375 0.5625 1.171875q0.5625 0.3125 1.546875 0.3125zm-0.28125 -10.453125q1.578125 0 2.625 0.359375q1.0625 0.359375 1.703125 1.03125q0.640625 0.671875 0.90625 1.640625q0.265625 0.953125 0.265625 2.125l0 7.4375q-0.78125 0.171875 -2.15625 0.390625q-1.359375 0.234375 -3.296875 0.234375q-1.21875 0 -2.21875 -0.21875q-1.0 -0.21875 -1.71875 -0.703125q-0.71875 -0.5 -1.109375 -1.28125q-0.375 -0.796875 -0.375 -1.953125q0 -1.09375 0.4375 -1.859375q0.453125 -0.78125 1.1875 -1.234375q0.75 -0.453125 1.703125 -0.65625q0.96875 -0.203125 2.0 -0.203125q0.6875 0 1.21875 0.0625q0.546875 0.046875 0.890625 0.15625l0 -0.34375q0 -0.90625 -0.5625 -1.453125q-0.546875 -0.5625 -1.90625 -0.5625q-0.921875 0 -1.8125 0.140625q-0.875 0.125 -1.53125 0.359375l-0.453125 -2.875q0.3125 -0.09375 0.78125 -0.203125q0.46875 -0.109375 1.015625 -0.1875q0.5625 -0.09375 1.171875 -0.140625q0.609375 -0.0625 1.234375 -0.0625zm16.334442 3.5q-0.46875 -0.125 -1.125 -0.25q-0.640625 -0.140625 -1.390625 -0.140625q-0.328125 0 -0.796875 0.0625q-0.46875 0.0625 -0.71875 0.140625l0 9.640625l-3.5625 0l0 -11.953125q0.953125 -0.328125 2.25 -0.625q1.3125 -0.3125 2.921875 -0.3125q0.296875 0 0.703125 0.046875q0.40625 0.03125 0.8125 0.09375q0.40625 0.046875 0.8125 0.140625q0.40625 0.078125 0.703125 0.203125l-0.609375 2.953125zm5.5811157 2.734375q0 3.0 2.421875 3.0q0.546875 0 1.015625 -0.140625q0.484375 -0.15625 0.828125 -0.34375l0 -5.703125q-0.265625 -0.046875 -0.625 -0.078125q-0.359375 -0.046875 -0.84375 -0.046875q-1.40625 0 -2.109375 0.9375q-0.6875 0.9375 -0.6875 2.375zm7.84375 5.140625q0 3.09375 -1.578125 4.59375q-1.5625 1.5 -4.859375 1.5q-1.15625 0 -2.3125 -0.203125q-1.140625 -0.203125 -2.125 -0.546875l0.625 -3.0q0.84375 0.34375 1.765625 0.53125q0.921875 0.1875 2.09375 0.1875q1.546875 0 2.171875 -0.671875q0.640625 -0.671875 0.640625 -1.71875l0 -0.46875q-0.578125 0.265625 -1.1875 0.40625q-0.609375 0.125 -1.328125 0.125q-2.625 0 -4.015625 -1.546875q-1.390625 -1.546875 -1.390625 -4.328125q0 -1.390625 0.421875 -2.53125q0.4375 -1.140625 1.265625 -1.953125q0.828125 -0.828125 2.03125 -1.265625q1.203125 -0.4375 2.71875 -0.4375q0.640625 0 1.328125 0.0625q0.6875 0.046875 1.359375 0.15625q0.671875 0.09375 1.28125 0.21875q0.609375 0.125 1.09375 0.28125l0 10.609375zm2.7559814 -4.640625q0 -1.671875 0.515625 -2.9375q0.515625 -1.265625 1.359375 -2.09375q0.84375 -0.84375 1.921875 -1.265625q1.09375 -0.4375 2.25 -0.4375q2.6875 0 4.25 1.640625q1.5625 1.640625 1.5625 4.828125q0 0.3125 -0.03125 0.6875q-0.015625 0.375 -0.046875 0.65625l-8.109375 0q0.125 1.109375 1.03125 1.765625q0.921875 0.640625 2.453125 0.640625q0.984375 0 1.921875 -0.171875q0.953125 -0.1875 1.5625 -0.453125l0.46875 2.90625q-0.28125 0.140625 -0.765625 0.28125q-0.484375 0.140625 -1.078125 0.25q-0.578125 0.109375 -1.25 0.1875q-0.671875 0.078125 -1.34375 0.078125q-1.703125 0 -2.96875 -0.5q-1.25 -0.515625 -2.078125 -1.390625q-0.828125 -0.875 -1.234375 -2.078125q-0.390625 -1.203125 -0.390625 -2.59375zm8.40625 -1.359375q-0.03125 -0.46875 -0.171875 -0.890625q-0.125 -0.4375 -0.40625 -0.765625q-0.265625 -0.34375 -0.6875 -0.5625q-0.421875 -0.21875 -1.046875 -0.21875q-0.59375 0 -1.03125 0.21875q-0.421875 0.203125 -0.71875 0.546875q-0.28125 0.328125 -0.4375 0.765625q-0.15625 0.4375 -0.234375 0.90625l4.734375 0zm6.094055 -8.1875l3.578125 -0.578125l0 3.71875l4.296875 0l0 2.984375l-4.296875 0l0 4.4375q0 1.125 0.390625 1.796875q0.390625 0.671875 1.59375 0.671875q0.578125 0 1.1875 -0.109375q0.609375 -0.109375 1.125 -0.296875l0.5 2.78125q-0.65625 0.265625 -1.453125 0.453125q-0.78125 0.1875 -1.9375 0.1875q-1.453125 0 -2.421875 -0.390625q-0.953125 -0.390625 -1.53125 -1.09375q-0.578125 -0.71875 -0.8125 -1.71875q-0.21875 -1.015625 -0.21875 -2.234375l0 -10.609375z" fill-rule="nonzero"></path><path fill="#f0e7d5" d="m497.96866 148.67238q0 -1.375 0.4375 -2.578125q0.453125 -1.21875 1.28125 -2.109375q0.84375 -0.90625 2.046875 -1.421875q1.203125 -0.53125 2.734375 -0.53125q1.015625 0 1.84375 0.1875q0.84375 0.171875 1.640625 0.5l-0.75 2.859375q-0.5 -0.1875 -1.109375 -0.328125q-0.59375 -0.15625 -1.328125 -0.15625q-1.59375 0 -2.375 0.984375q-0.765625 0.984375 -0.765625 2.59375q0 1.703125 0.71875 2.640625q0.734375 0.9375 2.5625 0.9375q0.640625 0 1.390625 -0.109375q0.75 -0.125 1.375 -0.390625l0.5 2.921875q-0.625 0.265625 -1.5625 0.453125q-0.9375 0.203125 -2.0625 0.203125q-1.734375 0 -2.984375 -0.515625q-1.234375 -0.53125 -2.046875 -1.40625q-0.796875 -0.890625 -1.171875 -2.09375q-0.375 -1.21875 -0.375 -2.640625zm24.40622 -0.03125q0 1.5 -0.4375 2.734375q-0.421875 1.234375 -1.25 2.109375q-0.8125 0.875 -1.953125 1.359375q-1.125 0.484375 -2.546875 0.484375q-1.390625 0 -2.53125 -0.484375q-1.140625 -0.484375 -1.96875 -1.359375q-0.8125 -0.875 -1.265625 -2.109375q-0.453125 -1.234375 -0.453125 -2.734375q0 -1.484375 0.46875 -2.703125q0.46875 -1.21875 1.296875 -2.078125q0.828125 -0.875 1.96875 -1.34375q1.140625 -0.484375 2.484375 -0.484375q1.359375 0 2.5 0.484375q1.140625 0.46875 1.953125 1.34375q0.828125 0.859375 1.28125 2.078125q0.453125 1.21875 0.453125 2.703125zm-3.640625 0q0 -1.640625 -0.671875 -2.59375q-0.65625 -0.953125 -1.875 -0.953125q-1.21875 0 -1.890625 0.953125q-0.671875 0.953125 -0.671875 2.59375q0 1.65625 0.671875 2.640625q0.671875 0.96875 1.890625 0.96875q1.21875 0 1.875 -0.96875q0.671875 -0.984375 0.671875 -2.640625zm9.458557 -0.0625q0 1.65625 0.734375 2.671875q0.75 1.0 2.21875 1.0q0.46875 0 0.875 -0.03125q0.40625 -0.046875 0.671875 -0.09375l0 -6.5q-0.328125 -0.21875 -0.875 -0.359375q-0.53125 -0.140625 -1.09375 -0.140625q-2.53125 0 -2.53125 3.453125zm8.078125 6.0q-0.46875 0.140625 -1.09375 0.28125q-0.625 0.125 -1.3125 0.21875q-0.6875 0.09375 -1.40625 0.15625q-0.703125 0.0625 -1.34375 0.0625q-1.5625 0 -2.796875 -0.453125q-1.21875 -0.453125 -2.0625 -1.296875q-0.828125 -0.859375 -1.28125 -2.078125q-0.4375 -1.21875 -0.4375 -2.71875q0 -1.546875 0.375 -2.78125q0.390625 -1.234375 1.109375 -2.09375q0.71875 -0.859375 1.765625 -1.3125q1.046875 -0.46875 2.390625 -0.46875q0.75 0 1.328125 0.15625q0.59375 0.140625 1.1875 0.390625l0 -5.703125l3.578125 -0.578125l0 18.21875zm2.7615967 -5.8125q0 -1.671875 0.515625 -2.9375q0.515625 -1.265625 1.359375 -2.09375q0.84375 -0.84375 1.921875 -1.265625q1.09375 -0.4375 2.25 -0.4375q2.6875 0 4.25 1.640625q1.5625 1.640625 1.5625 4.828125q0 0.3125 -0.03125 0.6875q-0.015625 0.375 -0.046875 0.65625l-8.109375 0q0.125 1.109375 1.03125 1.765625q0.921875 0.640625 2.453125 0.640625q0.984375 0 1.921875 -0.171875q0.953125 -0.1875 1.5625 -0.453125l0.46875 2.90625q-0.28125 0.140625 -0.765625 0.28125q-0.484375 0.140625 -1.078125 0.25q-0.578125 0.109375 -1.25 0.1875q-0.671875 0.078125 -1.34375 0.078125q-1.703125 0 -2.96875 -0.5q-1.25 -0.515625 -2.078125 -1.390625q-0.828125 -0.875 -1.234375 -2.078125q-0.390625 -1.203125 -0.390625 -2.59375zm8.40625 -1.359375q-0.03125 -0.46875 -0.171875 -0.890625q-0.125 -0.4375 -0.40625 -0.765625q-0.265625 -0.34375 -0.6875 -0.5625q-0.421875 -0.21875 -1.046875 -0.21875q-0.59375 0 -1.03125 0.21875q-0.421875 0.203125 -0.71875 0.546875q-0.28125 0.328125 -0.4375 0.765625q-0.15625 0.4375 -0.234375 0.90625l4.734375 0z" fill-rule="nonzero"></path><path fill="#ff8d14" d="m395.1706 86.65354l34.33072 0l0 -5.354332l10.708649 10.708664l-10.708649 10.708664l0 -5.354332l-34.33072 0z" fill-rule="nonzero"></path><path fill="#ff8d14" fill-opacity="0.15" d="m179.16273 168.95276l250.3307 0l0 -5.3543396l10.708649 10.708664l-10.708649 10.708664l0 -5.3543243l-250.3307 0z" fill-rule="nonzero"></path><path stroke="#ff8d14" stroke-width="1.0" stroke-linejoin="round" stroke-linecap="butt" d="m179.16273 168.95276l250.3307 0l0 -5.3543396l10.708649 10.708664l-10.708649 10.708664l0 -5.3543243l-250.3307 0z" fill-rule="nonzero"></path></g></svg>

