<?xml version="1.0" standalone="yes"?>

<svg version="1.1" viewBox="0.0 0.0 1282.2283464566929 271.2257217847769" fill="none" stroke="none" stroke-linecap="square" stroke-miterlimit="10" xmlns="http://www.w3.org/2000/svg" xmlns:xlink="http://www.w3.org/1999/xlink"><clipPath id="p.0"><path d="m0 0l1282.2284 0l0 271.2257l-1282.2284 0l0 -271.2257z" clip-rule="nonzero"></path></clipPath><g clip-path="url(#p.0)"><path fill="#000000" fill-opacity="0.0" d="m0 0l1282.2284 0l0 271.2257l-1282.2284 0z" fill-rule="nonzero"></path><path fill="#000000" fill-opacity="0.0" d="m311.21008 15.553867l142.55121 0l0 112.7874l-142.55121 0z" fill-rule="nonzero"></path><path stroke="#f0e7d5" stroke-width="3.0" stroke-linejoin="round" stroke-linecap="butt" d="m311.21008 15.553867l142.55121 0l0 112.7874l-142.55121 0z" fill-rule="nonzero"></path><path fill="#f0e7d5" d="m330.14035 72.15945q0 1.21875 0.296875 2.203125q0.296875 0.984375 0.859375 1.703125q0.578125 0.703125 1.390625 1.09375q0.8125 0.375 1.875 0.375q1.03125 0 1.859375 -0.375q0.828125 -0.390625 1.390625 -1.09375q0.5625 -0.71875 0.859375 -1.703125q0.296875 -0.984375 0.296875 -2.203125q0 -1.21875 -0.296875 -2.21875q-0.296875 -1.0 -0.859375 -1.703125q-0.5625 -0.703125 -1.390625 -1.09375q-0.828125 -0.390625 -1.859375 -0.390625q-1.0625 0 -1.875 0.40625q-0.8125 0.390625 -1.390625 1.109375q-0.5625 0.703125 -0.859375 1.703125q-0.296875 0.984375 -0.296875 2.1875zm12.703125 0q0 2.140625 -0.640625 3.765625q-0.640625 1.609375 -1.75 2.703125q-1.09375 1.09375 -2.625 1.65625q-1.515625 0.546875 -3.265625 0.546875q-1.703125 0 -3.21875 -0.546875q-1.515625 -0.5625 -2.640625 -1.65625q-1.125 -1.09375 -1.78125 -2.703125q-0.640625 -1.625 -0.640625 -3.765625q0 -2.140625 0.671875 -3.75q0.671875 -1.625 1.8125 -2.71875q1.140625 -1.109375 2.640625 -1.65625q1.5 -0.5625038 3.15625 -0.5625038q1.703125 0 3.203125 0.5625038q1.515625 0.546875 2.640625 1.65625q1.140625 1.09375 1.78125 2.71875q0.65625 1.609375 0.65625 3.75zm10.95993 2.109375q0 -1.65625 -0.75 -2.640625q-0.734375 -1.0 -2.203125 -1.0q-0.46875 0 -0.890625 0.03125q-0.40625 0.03125 -0.671875 0.078125l0 6.46875q0.34375 0.203125 0.875 0.359375q0.546875 0.140625 1.09375 0.140625q2.546875 0 2.546875 -3.4375zm3.65625 -0.09375q0 1.46875 -0.359375 2.671875q-0.359375 1.1875 -1.0625 2.0625q-0.703125 0.859375 -1.734375 1.34375q-1.03125 0.46875 -2.375 0.46875q-0.734375 0 -1.390625 -0.140625q-0.640625 -0.140625 -1.25 -0.40625l0 4.75l-3.5625 0l0 -16.625q0.46875 -0.15625 1.09375 -0.28125q0.625 -0.125 1.3125 -0.21875q0.6875 -0.109375 1.390625 -0.15625q0.703125 -0.0625 1.359375 -0.0625q1.5625 0 2.78125 0.46875q1.21875 0.46875 2.0625 1.328125q0.84375 0.84375 1.28125 2.0625q0.453125 1.21875 0.453125 2.734375zm2.6365967 -9.453125l3.578125 -0.578125l0 3.71875l4.296875 0l0 2.984375l-4.296875 0l0 4.4375q0 1.125 0.390625 1.796875q0.390625 0.671875 1.59375 0.671875q0.578125 0 1.1875 -0.109375q0.609375 -0.109375 1.125 -0.296875l0.5 2.78125q-0.65625 0.265625 -1.453125 0.453125q-0.78125 0.1875 -1.9375 0.1875q-1.453125 0 -2.421875 -0.390625q-0.953125 -0.390625 -1.53125 -1.09375q-0.578125 -0.71875 -0.8125 -1.71875q-0.21875 -1.015625 -0.21875 -2.234375l0 -10.609375zm14.343475 15.765625l-3.5625 0l0 -12.625l3.5625 0l0 12.625zm0.34375 -16.265625q0 0.984375 -0.640625 1.546875q-0.640625 0.5625 -1.5 0.5625q-0.859375 0 -1.5 -0.5625q-0.640625 -0.5625 -0.640625 -1.546875q0 -0.9843788 0.640625 -1.5468788q0.640625 -0.578125 1.5 -0.578125q0.859375 0 1.5 0.578125q0.640625 0.5625 0.640625 1.5468788zm9.951599 9.5625q0 -1.71875 -0.4375 -2.4375q-0.4375 -0.71875 -1.53125 -0.71875q-0.328125 0 -0.6875 0.03125q-0.359375 0.03125 -0.703125 0.078125l0 9.75l-3.5625 0l0 -12.1875q0.453125 -0.125 1.0625 -0.25q0.609375 -0.140625 1.296875 -0.25q0.6875 -0.109375 1.40625 -0.15625q0.71875 -0.0625 1.40625 -0.0625q1.375 0 2.21875 0.34375q0.859375 0.34375 1.40625 0.828125q0.765625 -0.546875 1.765625 -0.859375q1.0 -0.3125 1.84375 -0.3125q1.5 0 2.46875 0.421875q0.984375 0.40625 1.5625 1.1875q0.578125 0.765625 0.78125 1.828125q0.21875 1.046875 0.21875 2.34375l0 7.125l-3.578125 0l0 -6.703125q0 -1.71875 -0.453125 -2.4375q-0.4375 -0.71875 -1.515625 -0.71875q-0.28125 0 -0.796875 0.140625q-0.515625 0.140625 -0.859375 0.359375q0.171875 0.546875 0.21875 1.171875q0.046875 0.609375 0.046875 1.296875l0 6.890625l-3.578125 0l0 -6.703125zm17.328552 6.703125l-3.5625 0l0 -12.625l3.5625 0l0 12.625zm0.34375 -16.265625q0 0.984375 -0.640625 1.546875q-0.640625 0.5625 -1.5 0.5625q-0.859375 0 -1.5 -0.5625q-0.640625 -0.5625 -0.640625 -1.546875q0 -0.9843788 0.640625 -1.5468788q0.640625 -0.578125 1.5 -0.578125q0.859375 0 1.5 0.578125q0.640625 0.5625 0.640625 1.5468788zm12.498474 6.046875q-0.421875 0.46875 -1.15625 1.296875q-0.734375 0.8125 -1.578125 1.796875q-0.84375 0.984375 -1.703125 2.0625q-0.84375 1.078125 -1.53125 2.09375l6.09375 0l0 2.96875l-10.4375 0l0 -2.109375q0.5 -0.859375 1.203125 -1.859375q0.71875 -1.0 1.484375 -2.0q0.78125 -1.015625 1.546875 -1.953125q0.78125 -0.953125 1.421875 -1.71875l-5.375 0l0 -2.984375l10.03125 0l0 2.40625zm1.9218445 4.0q0 -1.671875 0.515625 -2.9375q0.515625 -1.265625 1.359375 -2.09375q0.84375 -0.84375 1.921875 -1.265625q1.09375 -0.4375 2.25 -0.4375q2.6875 0 4.25 1.640625q1.5625 1.640625 1.5625 4.828125q0 0.3125 -0.03125 0.6875q-0.015625 0.375 -0.046875 0.65625l-8.109375 0q0.125 1.109375 1.03125 1.765625q0.921875 0.640625 2.453125 0.640625q0.984375 0 1.921875 -0.171875q0.953125 -0.1875 1.5625 -0.453125l0.46875 2.90625q-0.28125 0.140625 -0.765625 0.28125q-0.484375 0.140625 -1.078125 0.25q-0.578125 0.109375 -1.25 0.1875q-0.671875 0.078125 -1.34375 0.078125q-1.703125 0 -2.96875 -0.5q-1.25 -0.515625 -2.078125 -1.390625q-0.828125 -0.875 -1.234375 -2.078125q-0.390625 -1.203125 -0.390625 -2.59375zm8.40625 -1.359375q-0.03125 -0.46875 -0.171875 -0.890625q-0.125 -0.4375 -0.40625 -0.765625q-0.265625 -0.34375 -0.6875 -0.5625q-0.421875 -0.21875 -1.046875 -0.21875q-0.59375 0 -1.03125 0.21875q-0.421875 0.203125 -0.71875 0.546875q-0.28125 0.328125 -0.4375 0.765625q-0.15625 0.4375 -0.234375 0.90625l4.734375 0zm13.812836 -1.875q-0.46875 -0.125 -1.125 -0.25q-0.640625 -0.140625 -1.390625 -0.140625q-0.328125 0 -0.796875 0.0625q-0.46875 0.0625 -0.71875 0.140625l0 9.640625l-3.5625 0l0 -11.953125q0.953125 -0.328125 2.25 -0.625q1.3125 -0.3125 2.921875 -0.3125q0.296875 0 0.703125 0.046875q0.40625 0.03125 0.8125 0.09375q0.40625 0.046875 0.8125 0.140625q0.40625 0.078125 0.703125 0.203125l-0.609375 2.953125z" fill-rule="nonzero"></path><path fill="#000000" fill-opacity="0.0" d="m125.11259 15.553867l142.55118 0l0 112.7874l-142.55118 0z" fill-rule="nonzero"></path><path stroke="#f0e7d5" stroke-width="3.0" stroke-linejoin="round" stroke-linecap="butt" d="m125.11259 15.553867l142.55118 0l0 112.7874l-142.55118 0z" fill-rule="nonzero"></path><path fill="#f0e7d5" d="m171.46027 66.33132q-4.046875 0 -6.171875 -2.25q-2.125 -2.2656288 -2.125 -6.421879q0 -2.0625 0.640625 -3.671875q0.65625 -1.625 1.78125 -2.734375q1.125 -1.125 2.6875 -1.703125q1.5625 -0.578125 3.390625 -0.578125q1.046875 0 1.90625 0.15625q0.875 0.15625 1.515625 0.359375q0.65625 0.203125 1.078125 0.421875q0.4375 0.21875 0.625 0.328125l-1.078125 3.03125q-0.765625 -0.40625 -1.796875 -0.6875q-1.015625 -0.296875 -2.3125 -0.296875q-0.859375 0 -1.6875 0.296875q-0.828125 0.28125 -1.46875 0.921875q-0.625 0.625 -1.015625 1.640625q-0.375 1.0 -0.375 2.4375q0 1.15625 0.25 2.15625q0.25 1.0 0.8125 1.71875q0.5625 0.71875 1.46875 1.140625q0.921875 0.421875 2.21875 0.421875q0.8125 0 1.453125 -0.09375q0.65625 -0.109375 1.15625 -0.234375q0.5 -0.140625 0.890625 -0.296875q0.390625 -0.171875 0.703125 -0.3125l1.03125 3.0000038q-0.796875 0.46875 -2.234375 0.859375q-1.4375 0.390625 -3.34375 0.390625zm9.130081 4.09375l-3.671875 0l8.0625 -23.234379l3.625 0l-8.015625 23.234379zm16.909851 -4.09375q-4.046875 0 -6.171875 -2.25q-2.125 -2.2656288 -2.125 -6.421879q0 -2.0625 0.640625 -3.671875q0.65625 -1.625 1.78125 -2.734375q1.125 -1.125 2.6875 -1.703125q1.5625 -0.578125 3.390625 -0.578125q1.046875 0 1.90625 0.15625q0.875 0.15625 1.515625 0.359375q0.65625 0.203125 1.078125 0.421875q0.4375 0.21875 0.625 0.328125l-1.078125 3.03125q-0.765625 -0.40625 -1.796875 -0.6875q-1.015625 -0.296875 -2.3125 -0.296875q-0.859375 0 -1.6875 0.296875q-0.828125 0.28125 -1.46875 0.921875q-0.625 0.625 -1.015625 1.640625q-0.375 1.0 -0.375 2.4375q0 1.15625 0.25 2.15625q0.25 1.0 0.8125 1.71875q0.5625 0.71875 1.46875 1.140625q0.921875 0.421875 2.21875 0.421875q0.8125 0 1.453125 -0.09375q0.65625 -0.109375 1.15625 -0.234375q0.5 -0.140625 0.890625 -0.296875q0.390625 -0.171875 0.703125 -0.3125l1.03125 3.0000038q-0.796875 0.46875 -2.234375 0.859375q-1.4375 0.390625 -3.34375 0.390625zm7.223831 -9.000004l4.015625 0l0 -4.453125l3.265625 0l0 4.453125l4.0 0l0 3.0l-4.0 0l0 4.437504l-3.265625 0l0 -4.437504l-4.015625 0l0 -3.0zm13.631958 0l4.015625 0l0 -4.453125l3.265625 0l0 4.453125l4.0 0l0 3.0l-4.0 0l0 4.437504l-3.265625 0l0 -4.437504l-4.015625 0l0 -3.0z" fill-rule="nonzero"></path><path fill="#f0e7d5" d="m145.3542 94.98757l0 -16.625l11.140625 0l0 3.140625l-7.40625 0l0 3.46875l6.578125 0l0 3.15625l-6.578125 0l0 6.859375l-3.734375 0zm21.13533 -9.453125q-0.46875 -0.125 -1.125 -0.25q-0.640625 -0.140625 -1.390625 -0.140625q-0.328125 0 -0.796875 0.0625q-0.46875 0.0625 -0.71875 0.140625l0 9.640625l-3.5625 0l0 -11.953125q0.953125 -0.328125 2.25 -0.625q1.3125 -0.3125 2.921875 -0.3125q0.296875 0 0.703125 0.046875q0.40625 0.03125 0.8125 0.09375q0.40625 0.046875 0.8125 0.140625q0.40625 0.078125 0.703125 0.203125l-0.609375 2.953125zm14.3311 3.109375q0 1.5 -0.4375 2.734375q-0.421875 1.234375 -1.25 2.109375q-0.8125 0.875 -1.953125 1.359375q-1.125 0.484375 -2.546875 0.484375q-1.390625 0 -2.53125 -0.484375q-1.140625 -0.484375 -1.96875 -1.359375q-0.8125 -0.875 -1.265625 -2.109375q-0.453125 -1.234375 -0.453125 -2.734375q0 -1.484375 0.46875 -2.703125q0.46875 -1.21875 1.296875 -2.078125q0.828125 -0.875 1.96875 -1.34375q1.140625 -0.484375 2.484375 -0.484375q1.359375 0 2.5 0.484375q1.140625 0.46875 1.953125 1.34375q0.828125 0.859375 1.28125 2.078125q0.453125 1.21875 0.453125 2.703125zm-3.640625 0q0 -1.640625 -0.671875 -2.59375q-0.65625 -0.953125 -1.875 -0.953125q-1.21875 0 -1.890625 0.953125q-0.671875 0.953125 -0.671875 2.59375q0 1.65625 0.671875 2.640625q0.671875 0.96875 1.890625 0.96875q1.21875 0 1.875 -0.96875q0.671875 -0.984375 0.671875 -2.640625zm6.4117126 -5.84375q0.90625 -0.265625 2.34375 -0.484375q1.4375 -0.234375 3.03125 -0.234375q1.59375 0 2.65625 0.421875q1.078125 0.40625 1.703125 1.1875q0.625 0.765625 0.890625 1.828125q0.265625 1.046875 0.265625 2.34375l0 7.125l-3.578125 0l0 -6.703125q0 -1.71875 -0.453125 -2.4375q-0.453125 -0.71875 -1.703125 -0.71875q-0.390625 0 -0.828125 0.03125q-0.421875 0.03125 -0.765625 0.078125l0 9.75l-3.5625 0l0 -12.1875zm14.010956 -3.578125l3.578125 -0.578125l0 3.71875l4.296875 0l0 2.984375l-4.296875 0l0 4.4375q0 1.125 0.390625 1.796875q0.390625 0.671875 1.59375 0.671875q0.578125 0 1.1875 -0.109375q0.609375 -0.109375 1.125 -0.296875l0.5 2.78125q-0.65625 0.265625 -1.453125 0.453125q-0.78125 0.1875 -1.9375 0.1875q-1.453125 0 -2.421875 -0.390625q-0.953125 -0.390625 -1.53125 -1.09375q-0.578125 -0.71875 -0.8125 -1.71875q-0.21875 -1.015625 -0.21875 -2.234375l0 -10.609375zm10.1716 9.546875q0 -1.671875 0.515625 -2.9375q0.515625 -1.265625 1.359375 -2.09375q0.84375 -0.84375 1.921875 -1.265625q1.09375 -0.4375 2.25 -0.4375q2.6875 0 4.25 1.640625q1.5625 1.640625 1.5625 4.828125q0 0.3125 -0.03125 0.6875q-0.015625 0.375 -0.046875 0.65625l-8.109375 0q0.125 1.109375 1.03125 1.765625q0.921875 0.640625 2.453125 0.640625q0.984375 0 1.921875 -0.171875q0.953125 -0.1875 1.5625 -0.453125l0.46875 2.90625q-0.28125 0.140625 -0.765625 0.28125q-0.484375 0.140625 -1.078125 0.25q-0.578125 0.109375 -1.25 0.1875q-0.671875 0.078125 -1.34375 0.078125q-1.703125 0 -2.96875 -0.5q-1.25 -0.515625 -2.078125 -1.390625q-0.828125 -0.875 -1.234375 -2.078125q-0.390625 -1.203125 -0.390625 -2.59375zm8.40625 -1.359375q-0.03125 -0.46875 -0.171875 -0.890625q-0.125 -0.4375 -0.40625 -0.765625q-0.265625 -0.34375 -0.6875 -0.5625q-0.421875 -0.21875 -1.046875 -0.21875q-0.59375 0 -1.03125 0.21875q-0.421875 0.203125 -0.71875 0.546875q-0.28125 0.328125 -0.4375 0.765625q-0.15625 0.4375 -0.234375 0.90625l4.734375 0zm6.2190857 -4.609375q0.90625 -0.265625 2.34375 -0.484375q1.4375 -0.234375 3.03125 -0.234375q1.59375 0 2.65625 0.421875q1.078125 0.40625 1.703125 1.1875q0.625 0.765625 0.890625 1.828125q0.265625 1.046875 0.265625 2.34375l0 7.125l-3.578125 0l0 -6.703125q0 -1.71875 -0.453125 -2.4375q-0.453125 -0.71875 -1.703125 -0.71875q-0.390625 0 -0.828125 0.03125q-0.421875 0.03125 -0.765625 0.078125l0 9.75l-3.5625 0l0 -12.1875zm17.18283 5.78125q0 1.65625 0.734375 2.671875q0.75 1.0 2.21875 1.0q0.46875 0 0.875 -0.03125q0.40625 -0.046875 0.671875 -0.09375l0 -6.5q-0.328125 -0.21875 -0.875 -0.359375q-0.53125 -0.140625 -1.09375 -0.140625q-2.53125 0 -2.53125 3.453125zm8.078125 6.0q-0.46875 0.140625 -1.09375 0.28125q-0.625 0.125 -1.3125 0.21875q-0.6875 0.09375 -1.40625 0.15625q-0.703125 0.0625 -1.34375 0.0625q-1.5625 0 -2.796875 -0.453125q-1.21875 -0.453125 -2.0625 -1.296875q-0.828125 -0.859375 -1.28125 -2.078125q-0.4375 -1.21875 -0.4375 -2.71875q0 -1.546875 0.375 -2.78125q0.390625 -1.234375 1.109375 -2.09375q0.71875 -0.859375 1.765625 -1.3125q1.046875 -0.46875 2.390625 -0.46875q0.75 0 1.328125 0.15625q0.59375 0.140625 1.1875 0.390625l0 -5.703125l3.578125 -0.578125l0 18.21875z" fill-rule="nonzero"></path><path fill="#000000" fill-opacity="0.0" d="m267.66376 71.94757l43.55905 0" fill-rule="nonzero"></path><path stroke="#f0e7d5" stroke-width="3.0" stroke-linejoin="round" stroke-linecap="butt" d="m267.6638 71.94757l33.2778 0" fill-rule="evenodd"></path><path fill="#f0e7d5" stroke="#f0e7d5" stroke-width="3.0" stroke-linecap="butt" d="m300.94156 71.94757l-3.3737488 3.3737488l9.269318 -3.3737488l-9.269318 -3.3737564z" fill-rule="evenodd"></path><path fill="#000000" fill-opacity="0.0" d="m618.5313 80.830154l142.55121 0l0 112.7874l-142.55121 0z" fill-rule="nonzero"></path><path stroke="#f0e7d5" stroke-width="3.0" stroke-linejoin="round" stroke-linecap="butt" d="m618.5313 80.830154l142.55121 0l0 112.7874l-142.55121 0z" fill-rule="nonzero"></path><path fill="#f0e7d5" d="m666.5263 142.5451l0 3.21875l-11.109375 0l0 -16.625l3.734375 0l0 13.40625l7.375 0zm5.730713 3.21875l-3.5625 0l0 -12.625l3.5625 0l0 12.625zm0.34375 -16.265625q0 0.984375 -0.640625 1.546875q-0.640625 0.5625 -1.5 0.5625q-0.859375 0 -1.5 -0.5625q-0.640625 -0.5625 -0.640625 -1.546875q0 -0.984375 0.640625 -1.546875q0.640625 -0.578125 1.5 -0.578125q0.859375 0 1.5 0.578125q0.640625 0.5625 0.640625 1.546875zm3.0297241 4.078125q0.90625 -0.265625 2.34375 -0.484375q1.4375 -0.234375 3.03125 -0.234375q1.59375 0 2.65625 0.421875q1.078125 0.40625 1.703125 1.1875q0.625 0.765625 0.890625 1.828125q0.265625 1.046875 0.265625 2.34375l0 7.125l-3.578125 0l0 -6.703125q0 -1.71875 -0.453125 -2.4375q-0.453125 -0.71875 -1.703125 -0.71875q-0.390625 0 -0.828125 0.03125q-0.421875 0.03125 -0.765625 0.078125l0 9.75l-3.5625 0l0 -12.1875zm17.698425 4.125q0.53125 -0.578125 1.09375 -1.203125q0.5625 -0.625 1.09375 -1.234375q0.53125 -0.609375 1.0 -1.15625q0.46875 -0.5625 0.796875 -0.96875l4.25 0q-1.265625 1.46875 -2.484375 2.796875q-1.203125 1.328125 -2.640625 2.75q0.71875 0.640625 1.484375 1.546875q0.765625 0.90625 1.484375 1.859375q0.71875 0.953125 1.3125 1.921875q0.609375 0.953125 1.015625 1.75l-4.109375 0q-0.375 -0.625 -0.875 -1.375q-0.484375 -0.765625 -1.046875 -1.515625q-0.546875 -0.75 -1.15625 -1.453125q-0.609375 -0.703125 -1.21875 -1.171875l0 5.515625l-3.5625 0l0 -18.046875l3.5625 -0.578125l0 10.5625zm9.724121 1.84375q0 -1.671875 0.515625 -2.9375q0.515625 -1.265625 1.359375 -2.09375q0.84375 -0.84375 1.921875 -1.265625q1.09375 -0.4375 2.25 -0.4375q2.6875 0 4.25 1.640625q1.5625 1.640625 1.5625 4.828125q0 0.3125 -0.03125 0.6875q-0.015625 0.375 -0.046875 0.65625l-8.109375 0q0.125 1.109375 1.03125 1.765625q0.921875 0.640625 2.453125 0.640625q0.984375 0 1.921875 -0.171875q0.953125 -0.1875 1.5625 -0.453125l0.46875 2.90625q-0.28125 0.140625 -0.765625 0.28125q-0.484375 0.140625 -1.078125 0.25q-0.578125 0.109375 -1.25 0.1875q-0.671875 0.078125 -1.34375 0.078125q-1.703125 0 -2.96875 -0.5q-1.25 -0.515625 -2.078125 -1.390625q-0.828125 -0.875 -1.234375 -2.078125q-0.390625 -1.203125 -0.390625 -2.59375zm8.40625 -1.359375q-0.03125 -0.46875 -0.171875 -0.890625q-0.125 -0.4375 -0.40625 -0.765625q-0.265625 -0.34375 -0.6875 -0.5625q-0.421875 -0.21875 -1.046875 -0.21875q-0.59375 0 -1.03125 0.21875q-0.421875 0.203125 -0.71875 0.546875q-0.28125 0.328125 -0.4375 0.765625q-0.15625 0.4375 -0.234375 0.90625l4.734375 0zm13.812805 -1.875q-0.46875 -0.125 -1.125 -0.25q-0.640625 -0.140625 -1.390625 -0.140625q-0.328125 0 -0.796875 0.0625q-0.46875 0.0625 -0.71875 0.140625l0 9.640625l-3.5625 0l0 -11.953125q0.953125 -0.328125 2.25 -0.625q1.3125 -0.3125 2.921875 -0.3125q0.296875 0 0.703125 0.046875q0.40625 0.03125 0.8125 0.09375q0.40625 0.046875 0.8125 0.140625q0.40625 0.078125 0.703125 0.203125l-0.609375 2.953125z" fill-rule="nonzero"></path><path fill="#000000" fill-opacity="0.0" d="m761.0825 137.22386l45.57483 -0.22047424" fill-rule="nonzero"></path><path stroke="#f0e7d5" stroke-width="3.0" stroke-linejoin="round" stroke-linecap="butt" d="m761.0825 137.22386l35.29364 -0.17074585" fill-rule="evenodd"></path><path fill="#f0e7d5" stroke="#f0e7d5" stroke-width="3.0" stroke-linecap="butt" d="m796.37616 137.05312l-3.3573608 3.39003l9.252869 -3.4185486l-9.285522 -3.3288727z" fill-rule="evenodd"></path><path fill="#ff8d14" d="m77.938545 69.019356l19.559052 0l0 -4.1889725l8.377953 8.377953l-8.377953 8.377953l0 -4.18898l-19.559052 0z" fill-rule="nonzero"></path><path fill="#ff8d14" d="m77.938545 93.80188l19.559052 0l0 -4.1889725l8.377953 8.377953l-8.377953 8.377953l0 -4.18898l-19.559052 0z" fill-rule="nonzero"></path><path fill="#ff8d14" d="m77.938545 44.23683l19.559052 0l0 -4.1889763l8.377953 8.377953l-8.377953 8.377953l0 -4.1889763l-19.559052 0z" fill-rule="nonzero"></path><path fill="#000000" fill-opacity="0.0" d="m-1.0 15.553867l91.40157 0l0 112.7874l-91.40157 0z" fill-rule="nonzero"></path><path fill="#ff8d14" d="m37.47227 51.487568l-3.296875 0l0 -12.40625q-1.8125 1.6875 -4.25 2.484375l0 -2.984375q1.28125 -0.421875 2.796875 -1.59375q1.515625 -1.1875 2.078125 -2.75l2.671875 0l0 17.25zm5.6132812 0l0 -3.296875l3.296875 0l0 3.296875l-3.296875 0zm17.527344 -8.765625l-3.25 0.578125q-0.15625 -0.96875 -0.75 -1.453125q-0.578125 -0.5 -1.5 -0.5q-1.234375 0 -1.96875 0.859375q-0.71875 0.84375 -0.71875 2.828125q0 2.21875 0.734375 3.140625q0.75 0.90625 2.0 0.90625q0.9375 0 1.53125 -0.53125q0.609375 -0.53125 0.84375 -1.828125l3.234375 0.546875q-0.5 2.21875 -1.9375 3.359375q-1.421875 1.140625 -3.828125 1.140625q-2.71875 0 -4.34375 -1.71875q-1.625 -1.734375 -1.625 -4.78125q0 -3.078125 1.625 -4.796875q1.625 -1.71875 4.40625 -1.71875q2.28125 0 3.609375 0.984375q1.34375 0.984375 1.9375 2.984375z" fill-rule="nonzero"></path><path fill="#ff8d14" d="m40.15977 77.42507l0 3.0625l-11.546875 0q0.1875 -1.734375 1.125 -3.28125q0.9375 -1.5625 3.703125 -4.125q2.234375 -2.078125 2.734375 -2.8125q0.6875 -1.015625 0.6875 -2.015625q0 -1.109375 -0.59375 -1.6875q-0.59375 -0.59375 -1.640625 -0.59375q-1.03125 0 -1.640625 0.625q-0.609375 0.609375 -0.703125 2.046875l-3.28125 -0.328125q0.296875 -2.71875 1.84375 -3.890625q1.546875 -1.1875038 3.859375 -1.1875038q2.546875 0 4.0 1.3750038q1.453125 1.359375 1.453125 3.40625q0 1.15625 -0.421875 2.203125q-0.40625 1.046875 -1.3125 2.203125q-0.59375 0.765625 -2.15625 2.203125q-1.5625 1.421875 -1.984375 1.890625q-0.40625 0.46875 -0.65625 0.90625l6.53125 0zm2.9257812 3.0625l0 -3.296875l3.296875 0l0 3.296875l-3.296875 0zm17.527344 -8.765625l-3.25 0.578125q-0.15625 -0.96875 -0.75 -1.453125q-0.578125 -0.5 -1.5 -0.5q-1.234375 0 -1.96875 0.859375q-0.71875 0.84375 -0.71875 2.828125q0 2.21875 0.734375 3.140625q0.75 0.90625 2.0 0.90625q0.9375 0 1.53125 -0.53125q0.609375 -0.53125 0.84375 -1.828125l3.234375 0.546875q-0.5 2.21875 -1.9375 3.359375q-1.421875 1.140625 -3.828125 1.140625q-2.71875 0 -4.34375 -1.71875q-1.625 -1.734375 -1.625 -4.78125q0 -3.078125 1.625 -4.796875q1.625 -1.71875 4.40625 -1.71875q2.28125 0 3.609375 0.984375q1.34375 0.984375 1.9375 2.984375z" fill-rule="nonzero"></path><path fill="#ff8d14" d="m28.925396 104.92507l3.1875 -0.390625q0.15625 1.21875 0.8125 1.875q0.671875 0.640625 1.625 0.640625q1.015625 0 1.703125 -0.765625q0.703125 -0.78125 0.703125 -2.09375q0 -1.25 -0.671875 -1.96875q-0.65625 -0.734375 -1.625 -0.734375q-0.625 0 -1.5 0.25l0.359375 -2.6875q1.328125 0.046875 2.03125 -0.5625q0.703125 -0.625 0.703125 -1.640625q0 -0.875 -0.515625 -1.390625q-0.515625 -0.515625 -1.359375 -0.515625q-0.84375 0 -1.453125 0.59375q-0.59375 0.578125 -0.71875 1.703125l-3.03125 -0.515625q0.3125 -1.5625 0.953125 -2.484375q0.640625 -0.9375 1.78125 -1.46875q1.140625 -0.53125 2.5625 -0.53125q2.421875 0 3.890625 1.546875q1.203125 1.265625 1.203125 2.859375q0 2.265625 -2.46875 3.609375q1.46875 0.3125 2.34375 1.421875q0.890625 1.09375 0.890625 2.65625q0 2.265625 -1.65625 3.859375q-1.640625 1.59375 -4.109375 1.59375q-2.328125 0 -3.859375 -1.34375q-1.53125 -1.34375 -1.78125 -3.515625zm14.160156 4.5625l0 -3.296875l3.296875 0l0 3.296875l-3.296875 0zm17.527344 -8.765625l-3.25 0.578125q-0.15625 -0.96875 -0.75 -1.453125q-0.578125 -0.5 -1.5 -0.5q-1.234375 0 -1.96875 0.859375q-0.71875 0.84375 -0.71875 2.828125q0 2.21875 0.734375 3.140625q0.75 0.90625 2.0 0.90625q0.9375 0 1.53125 -0.53125q0.609375 -0.53125 0.84375 -1.828125l3.234375 0.546875q-0.5 2.21875 -1.9375 3.359375q-1.421875 1.140625 -3.828125 1.140625q-2.71875 0 -4.34375 -1.71875q-1.625 -1.734375 -1.625 -4.78125q0 -3.078125 1.625 -4.796875q1.625 -1.71875 4.40625 -1.71875q2.28125 0 3.609375 0.984375q1.34375 0.984375 1.9375 2.984375z" fill-rule="nonzero"></path><path fill="#000000" fill-opacity="0.0" d="m1172.6746 67.71654l108.0 0l0 133.29134l-108.0 0z" fill-rule="nonzero"></path><path fill="#ff8d14" d="m1202.198 134.24596l-2.984375 -0.53125q0.5 -1.8125 1.71875 -2.671875q1.234375 -0.875 3.671875 -0.875q2.203125 0 3.28125 0.53125q1.078125 0.515625 1.515625 1.328125q0.4375 0.796875 0.4375 2.9375l-0.03125 3.84375q0 1.640625 0.15625 2.421875q0.15625 0.78125 0.59375 1.671875l-3.265625 0q-0.125 -0.328125 -0.3125 -0.96875q-0.078125 -0.296875 -0.125 -0.390625q-0.84375 0.8125 -1.8125 1.234375q-0.953125 0.40625 -2.03125 0.40625q-1.921875 0 -3.03125 -1.046875q-1.109375 -1.046875 -1.109375 -2.640625q0 -1.046875 0.5 -1.875q0.5 -0.828125 1.40625 -1.265625q0.921875 -0.4375 2.625 -0.765625q2.3125 -0.4375 3.203125 -0.8125l0 -0.328125q0 -0.953125 -0.46875 -1.34375q-0.46875 -0.40625 -1.765625 -0.40625q-0.890625 0 -1.390625 0.34375q-0.484375 0.34375 -0.78125 1.203125zm4.40625 2.671875q-0.640625 0.21875 -2.015625 0.515625q-1.359375 0.28125 -1.78125 0.5625q-0.640625 0.46875 -0.640625 1.171875q0 0.6875 0.515625 1.1875q0.515625 0.5 1.3125 0.5q0.890625 0 1.6875 -0.578125q0.609375 -0.453125 0.796875 -1.09375q0.125 -0.421875 0.125 -1.609375l0 -0.65625zm6.4726562 5.984375l0 -3.296875l3.296875 0l0 3.296875l-3.296875 0zm5.9179688 -6.40625q0 -1.640625 0.796875 -3.171875q0.8125 -1.53125 2.296875 -2.34375q1.484375 -0.8125 3.3125 -0.8125q2.828125 0 4.625 1.84375q1.8125 1.828125 1.8125 4.625q0 2.828125 -1.828125 4.6875q-1.828125 1.859375 -4.59375 1.859375q-1.703125 0 -3.265625 -0.765625q-1.546875 -0.78125 -2.359375 -2.265625q-0.796875 -1.5 -0.796875 -3.65625zm3.375 0.1875q0 1.84375 0.875 2.828125q0.875 0.984375 2.171875 0.984375q1.28125 0 2.15625 -0.984375q0.875 -0.984375 0.875 -2.859375q0 -1.828125 -0.875 -2.8125q-0.875 -0.984375 -2.15625 -0.984375q-1.296875 0 -2.171875 0.984375q-0.875 0.984375 -0.875 2.84375zm20.238281 6.21875l0 -1.859375q-0.6875 0.984375 -1.796875 1.5625q-1.109375 0.578125 -2.328125 0.578125q-1.265625 0 -2.265625 -0.546875q-0.984375 -0.5625 -1.4375 -1.546875q-0.4375 -1.0 -0.4375 -2.765625l0 -7.875l3.296875 0l0 5.71875q0 2.625 0.171875 3.21875q0.1875 0.59375 0.65625 0.9375q0.484375 0.34375 1.234375 0.34375q0.84375 0 1.5 -0.453125q0.671875 -0.46875 0.921875 -1.15625q0.25 -0.6875 0.25 -3.359375l0 -5.25l3.28125 0l0 12.453125l-3.046875 0zm12.175781 -12.453125l0 2.625l-2.25 0l0 5.015625q0 1.53125 0.0625 1.78125q0.0625 0.25 0.28125 0.421875q0.234375 0.15625 0.5625 0.15625q0.453125 0 1.328125 -0.3125l0.28125 2.546875q-1.15625 0.5 -2.609375 0.5q-0.890625 0 -1.609375 -0.296875q-0.703125 -0.296875 -1.046875 -0.765625q-0.328125 -0.484375 -0.453125 -1.296875q-0.109375 -0.578125 -0.109375 -2.3125l0 -5.4375l-1.515625 0l0 -2.625l1.515625 0l0 -2.46875l3.3125 -1.921875l0 4.390625l2.25 0z" fill-rule="nonzero"></path><path fill="#ff8d14" d="m1150.6746 126.54068l16.503906 0l0 -8.748032l16.503906 17.496063l-16.503906 17.496063l0 -8.748032l-16.503906 0z" fill-rule="nonzero"></path><path fill="#000000" fill-opacity="0.0" d="m486.4452 15.553867l91.40161 0l0 112.7874l-91.40161 0z" fill-rule="nonzero"></path><path fill="#ff8d14" d="m524.2612 51.487568l-3.296875 0l0 -12.40625q-1.8125 1.6875 -4.25 2.484375l0 -2.984375q1.28125 -0.421875 2.796875 -1.59375q1.515625 -1.1875 2.078125 -2.75l2.671875 0l0 17.25zm5.6132812 0l0 -3.296875l3.296875 0l0 3.296875l-3.296875 0zm5.9179688 -6.40625q0 -1.640625 0.796875 -3.171875q0.8125 -1.53125 2.296875 -2.34375q1.484375 -0.8125 3.3125 -0.8125q2.828125 0 4.625 1.84375q1.8125 1.828125 1.8125 4.625q0 2.828125 -1.828125 4.6875q-1.828125 1.859375 -4.59375 1.859375q-1.703125 0 -3.265625 -0.765625q-1.546875 -0.78125 -2.359375 -2.265625q-0.796875 -1.5 -0.796875 -3.65625zm3.375 0.1875q0 1.84375 0.875 2.828125q0.875 0.984375 2.171875 0.984375q1.28125 0 2.15625 -0.984375q0.875 -0.984375 0.875 -2.859375q0 -1.828125 -0.875 -2.8125q-0.875 -0.984375 -2.15625 -0.984375q-1.296875 0 -2.171875 0.984375q-0.875 0.984375 -0.875 2.84375z" fill-rule="nonzero"></path><path fill="#ff8d14" d="m526.9487 77.42507l0 3.0625l-11.546875 0q0.1875 -1.734375 1.125 -3.28125q0.9375 -1.5625 3.703125 -4.125q2.234375 -2.078125 2.734375 -2.8125q0.6875 -1.015625 0.6875 -2.015625q0 -1.109375 -0.59375 -1.6875q-0.59375 -0.59375 -1.640625 -0.59375q-1.03125 0 -1.640625 0.625q-0.609375 0.609375 -0.703125 2.046875l-3.28125 -0.328125q0.296875 -2.71875 1.84375 -3.890625q1.546875 -1.1875038 3.859375 -1.1875038q2.546875 0 4.0 1.3750038q1.453125 1.359375 1.453125 3.40625q0 1.15625 -0.421875 2.203125q-0.40625 1.046875 -1.3125 2.203125q-0.59375 0.765625 -2.15625 2.203125q-1.5625 1.421875 -1.984375 1.890625q-0.40625 0.46875 -0.65625 0.90625l6.53125 0zm2.9257812 3.0625l0 -3.296875l3.296875 0l0 3.296875l-3.296875 0zm5.9179688 -6.40625q0 -1.640625 0.796875 -3.171875q0.8125 -1.53125 2.296875 -2.34375q1.484375 -0.8125 3.3125 -0.8125q2.828125 0 4.625 1.84375q1.8125 1.828125 1.8125 4.625q0 2.828125 -1.828125 4.6875q-1.828125 1.859375 -4.59375 1.859375q-1.703125 0 -3.265625 -0.765625q-1.546875 -0.78125 -2.359375 -2.265625q-0.796875 -1.5 -0.796875 -3.65625zm3.375 0.1875q0 1.84375 0.875 2.828125q0.875 0.984375 2.171875 0.984375q1.28125 0 2.15625 -0.984375q0.875 -0.984375 0.875 -2.859375q0 -1.828125 -0.875 -2.8125q-0.875 -0.984375 -2.15625 -0.984375q-1.296875 0 -2.171875 0.984375q-0.875 0.984375 -0.875 2.84375z" fill-rule="nonzero"></path><path fill="#ff8d14" d="m515.71436 104.92507l3.1875 -0.390625q0.15625 1.21875 0.8125 1.875q0.671875 0.640625 1.625 0.640625q1.015625 0 1.703125 -0.765625q0.703125 -0.78125 0.703125 -2.09375q0 -1.25 -0.671875 -1.96875q-0.65625 -0.734375 -1.625 -0.734375q-0.625 0 -1.5 0.25l0.359375 -2.6875q1.328125 0.046875 2.03125 -0.5625q0.703125 -0.625 0.703125 -1.640625q0 -0.875 -0.515625 -1.390625q-0.515625 -0.515625 -1.359375 -0.515625q-0.84375 0 -1.453125 0.59375q-0.59375 0.578125 -0.71875 1.703125l-3.03125 -0.515625q0.3125 -1.5625 0.953125 -2.484375q0.640625 -0.9375 1.78125 -1.46875q1.140625 -0.53125 2.5625 -0.53125q2.421875 0 3.890625 1.546875q1.203125 1.265625 1.203125 2.859375q0 2.265625 -2.46875 3.609375q1.46875 0.3125 2.34375 1.421875q0.890625 1.09375 0.890625 2.65625q0 2.265625 -1.65625 3.859375q-1.640625 1.59375 -4.109375 1.59375q-2.328125 0 -3.859375 -1.34375q-1.53125 -1.34375 -1.78125 -3.515625zm14.160156 4.5625l0 -3.296875l3.296875 0l0 3.296875l-3.296875 0zm5.9179688 -6.40625q0 -1.640625 0.796875 -3.171875q0.8125 -1.53125 2.296875 -2.34375q1.484375 -0.8125 3.3125 -0.8125q2.828125 0 4.625 1.84375q1.8125 1.828125 1.8125 4.625q0 2.828125 -1.828125 4.6875q-1.828125 1.859375 -4.59375 1.859375q-1.703125 0 -3.265625 -0.765625q-1.546875 -0.78125 -2.359375 -2.265625q-0.796875 -1.5 -0.796875 -3.65625zm3.375 0.1875q0 1.84375 0.875 2.828125q0.875 0.984375 2.171875 0.984375q1.28125 0 2.15625 -0.984375q0.875 -0.984375 0.875 -2.859375q0 -1.828125 -0.875 -2.8125q-0.875 -0.984375 -2.15625 -0.984375q-1.296875 0 -2.171875 0.984375q-0.875 0.984375 -0.875 2.84375z" fill-rule="nonzero"></path><path fill="#000000" fill-opacity="0.0" d="m311.2101 137.41524l142.55118 0l0 112.7874l-142.55118 0z" fill-rule="nonzero"></path><path stroke="#f0e7d5" stroke-width="3.0" stroke-linejoin="round" stroke-linecap="butt" d="m311.2101 137.41524l142.55118 0l0 112.7874l-142.55118 0z" fill-rule="nonzero"></path><path fill="#f0e7d5" d="m330.14035 194.02081q0 1.21875 0.296875 2.203125q0.296875 0.984375 0.859375 1.703125q0.578125 0.703125 1.390625 1.09375q0.8125 0.375 1.875 0.375q1.03125 0 1.859375 -0.375q0.828125 -0.390625 1.390625 -1.09375q0.5625 -0.71875 0.859375 -1.703125q0.296875 -0.984375 0.296875 -2.203125q0 -1.21875 -0.296875 -2.21875q-0.296875 -1.0 -0.859375 -1.703125q-0.5625 -0.703125 -1.390625 -1.09375q-0.828125 -0.390625 -1.859375 -0.390625q-1.0625 0 -1.875 0.40625q-0.8125 0.390625 -1.390625 1.109375q-0.5625 0.703125 -0.859375 1.703125q-0.296875 0.984375 -0.296875 2.1875zm12.703125 0q0 2.140625 -0.640625 3.765625q-0.640625 1.609375 -1.75 2.703125q-1.09375 1.09375 -2.625 1.65625q-1.515625 0.546875 -3.265625 0.546875q-1.703125 0 -3.21875 -0.546875q-1.515625 -0.5625 -2.640625 -1.65625q-1.125 -1.09375 -1.78125 -2.703125q-0.640625 -1.625 -0.640625 -3.765625q0 -2.140625 0.671875 -3.75q0.671875 -1.625 1.8125 -2.71875q1.140625 -1.109375 2.640625 -1.65625q1.5 -0.5625 3.15625 -0.5625q1.703125 0 3.203125 0.5625q1.515625 0.546875 2.640625 1.65625q1.140625 1.09375 1.78125 2.71875q0.65625 1.609375 0.65625 3.75zm10.959961 2.109375q0 -1.65625 -0.75 -2.640625q-0.734375 -1.0 -2.203125 -1.0q-0.46875 0 -0.890625 0.03125q-0.40625 0.03125 -0.671875 0.078125l0 6.46875q0.34375 0.203125 0.875 0.359375q0.546875 0.140625 1.09375 0.140625q2.546875 0 2.546875 -3.4375zm3.65625 -0.09375q0 1.46875 -0.359375 2.671875q-0.359375 1.1875 -1.0625 2.0625q-0.703125 0.859375 -1.734375 1.34375q-1.03125 0.46875 -2.375 0.46875q-0.734375 0 -1.390625 -0.140625q-0.640625 -0.140625 -1.25 -0.40625l0 4.75l-3.5625 0l0 -16.625q0.46875 -0.15625 1.09375 -0.28125q0.625 -0.125 1.3125 -0.21875q0.6875 -0.109375 1.390625 -0.15625q0.703125 -0.0625 1.359375 -0.0625q1.5625 0 2.78125 0.46875q1.21875 0.46875 2.0625 1.328125q0.84375 0.84375 1.28125 2.0625q0.453125 1.21875 0.453125 2.734375zm2.6365662 -9.453125l3.578125 -0.578125l0 3.71875l4.296875 0l0 2.984375l-4.296875 0l0 4.4375q0 1.125 0.390625 1.796875q0.390625 0.671875 1.59375 0.671875q0.578125 0 1.1875 -0.109375q0.609375 -0.109375 1.125 -0.296875l0.5 2.78125q-0.65625 0.265625 -1.453125 0.453125q-0.78125 0.1875 -1.9375 0.1875q-1.453125 0 -2.421875 -0.390625q-0.953125 -0.390625 -1.53125 -1.09375q-0.578125 -0.71875 -0.8125 -1.71875q-0.21875 -1.015625 -0.21875 -2.234375l0 -10.609375zm14.343475 15.765625l-3.5625 0l0 -12.625l3.5625 0l0 12.625zm0.34375 -16.265625q0 0.984375 -0.640625 1.546875q-0.640625 0.5625 -1.5 0.5625q-0.859375 0 -1.5 -0.5625q-0.640625 -0.5625 -0.640625 -1.546875q0 -0.984375 0.640625 -1.546875q0.640625 -0.578125 1.5 -0.578125q0.859375 0 1.5 0.578125q0.640625 0.5625 0.640625 1.546875zm9.951599 9.5625q0 -1.71875 -0.4375 -2.4375q-0.4375 -0.71875 -1.53125 -0.71875q-0.328125 0 -0.6875 0.03125q-0.359375 0.03125 -0.703125 0.078125l0 9.75l-3.5625 0l0 -12.1875q0.453125 -0.125 1.0625 -0.25q0.609375 -0.140625 1.296875 -0.25q0.6875 -0.109375 1.40625 -0.15625q0.71875 -0.0625 1.40625 -0.0625q1.375 0 2.21875 0.34375q0.859375 0.34375 1.40625 0.828125q0.765625 -0.546875 1.765625 -0.859375q1.0 -0.3125 1.84375 -0.3125q1.5 0 2.46875 0.421875q0.984375 0.40625 1.5625 1.1875q0.578125 0.765625 0.78125 1.828125q0.21875 1.046875 0.21875 2.34375l0 7.125l-3.578125 0l0 -6.703125q0 -1.71875 -0.453125 -2.4375q-0.4375 -0.71875 -1.515625 -0.71875q-0.28125 0 -0.796875 0.140625q-0.515625 0.140625 -0.859375 0.359375q0.171875 0.546875 0.21875 1.171875q0.046875 0.609375 0.046875 1.296875l0 6.890625l-3.578125 0l0 -6.703125zm17.328583 6.703125l-3.5625 0l0 -12.625l3.5625 0l0 12.625zm0.34375 -16.265625q0 0.984375 -0.640625 1.546875q-0.640625 0.5625 -1.5 0.5625q-0.859375 0 -1.5 -0.5625q-0.640625 -0.5625 -0.640625 -1.546875q0 -0.984375 0.640625 -1.546875q0.640625 -0.578125 1.5 -0.578125q0.859375 0 1.5 0.578125q0.640625 0.5625 0.640625 1.546875zm12.498474 6.046875q-0.421875 0.46875 -1.15625 1.296875q-0.734375 0.8125 -1.578125 1.796875q-0.84375 0.984375 -1.703125 2.0625q-0.84375 1.078125 -1.53125 2.09375l6.09375 0l0 2.96875l-10.4375 0l0 -2.109375q0.5 -0.859375 1.203125 -1.859375q0.71875 -1.0 1.484375 -2.0q0.78125 -1.015625 1.546875 -1.953125q0.78125 -0.953125 1.421875 -1.71875l-5.375 0l0 -2.984375l10.03125 0l0 2.40625zm1.9218445 4.0q0 -1.671875 0.515625 -2.9375q0.515625 -1.265625 1.359375 -2.09375q0.84375 -0.84375 1.921875 -1.265625q1.09375 -0.4375 2.25 -0.4375q2.6875 0 4.25 1.640625q1.5625 1.640625 1.5625 4.828125q0 0.3125 -0.03125 0.6875q-0.015625 0.375 -0.046875 0.65625l-8.109375 0q0.125 1.109375 1.03125 1.765625q0.921875 0.640625 2.453125 0.640625q0.984375 0 1.921875 -0.171875q0.953125 -0.1875 1.5625 -0.453125l0.46875 2.90625q-0.28125 0.140625 -0.765625 0.28125q-0.484375 0.140625 -1.078125 0.25q-0.578125 0.109375 -1.25 0.1875q-0.671875 0.078125 -1.34375 0.078125q-1.703125 0 -2.96875 -0.5q-1.25 -0.515625 -2.078125 -1.390625q-0.828125 -0.875 -1.234375 -2.078125q-0.390625 -1.203125 -0.390625 -2.59375zm8.40625 -1.359375q-0.03125 -0.46875 -0.171875 -0.890625q-0.125 -0.4375 -0.40625 -0.765625q-0.265625 -0.34375 -0.6875 -0.5625q-0.421875 -0.21875 -1.046875 -0.21875q-0.59375 0 -1.03125 0.21875q-0.421875 0.203125 -0.71875 0.546875q-0.28125 0.328125 -0.4375 0.765625q-0.15625 0.4375 -0.234375 0.90625l4.734375 0zm13.812836 -1.875q-0.46875 -0.125 -1.125 -0.25q-0.640625 -0.140625 -1.390625 -0.140625q-0.328125 0 -0.796875 0.0625q-0.46875 0.0625 -0.71875 0.140625l0 9.640625l-3.5625 0l0 -11.953125q0.953125 -0.328125 2.25 -0.625q1.3125 -0.3125 2.921875 -0.3125q0.296875 0 0.703125 0.046875q0.40625 0.03125 0.8125 0.09375q0.40625 0.046875 0.8125 0.140625q0.40625 0.078125 0.703125 0.203125l-0.609375 2.953125z" fill-rule="nonzero"></path><path fill="#000000" fill-opacity="0.0" d="m125.11259 137.41524l142.55118 0l0 112.7874l-142.55118 0z" fill-rule="nonzero"></path><path stroke="#f0e7d5" stroke-width="3.0" stroke-linejoin="round" stroke-linecap="butt" d="m125.11259 137.41524l142.55118 0l0 112.7874l-142.55118 0z" fill-rule="nonzero"></path><path fill="#f0e7d5" d="m154.97816 187.84894l0 -16.625l11.140625 0l0 3.140625l-7.40625 0l0 3.46875l6.578125 0l0 3.15625l-6.578125 0l0 6.859375l-3.734375 0zm25.338455 -6.34375q0 1.5 -0.4375 2.734375q-0.421875 1.234375 -1.25 2.109375q-0.8125 0.875 -1.953125 1.359375q-1.125 0.484375 -2.546875 0.484375q-1.390625 0 -2.53125 -0.484375q-1.140625 -0.484375 -1.96875 -1.359375q-0.8125 -0.875 -1.265625 -2.109375q-0.453125 -1.234375 -0.453125 -2.734375q0 -1.484375 0.46875 -2.703125q0.46875 -1.21875 1.296875 -2.078125q0.828125 -0.875 1.96875 -1.34375q1.140625 -0.484375 2.484375 -0.484375q1.359375 0 2.5 0.484375q1.140625 0.46875 1.953125 1.34375q0.828125 0.859375 1.28125 2.078125q0.453125 1.21875 0.453125 2.703125zm-3.640625 0q0 -1.640625 -0.671875 -2.59375q-0.65625 -0.953125 -1.875 -0.953125q-1.21875 0 -1.890625 0.953125q-0.671875 0.953125 -0.671875 2.59375q0 1.65625 0.671875 2.640625q0.671875 0.96875 1.890625 0.96875q1.21875 0 1.875 -0.96875q0.671875 -0.984375 0.671875 -2.640625zm14.005463 -3.109375q-0.46875 -0.125 -1.125 -0.25q-0.640625 -0.140625 -1.390625 -0.140625q-0.328125 0 -0.796875 0.0625q-0.46875 0.0625 -0.71875 0.140625l0 9.640625l-3.5625 0l0 -11.953125q0.953125 -0.328125 2.25 -0.625q1.3125 -0.3125 2.921875 -0.3125q0.296875 0 0.703125 0.046875q0.40625 0.03125 0.8125 0.09375q0.40625 0.046875 0.8125 0.140625q0.40625 0.078125 0.703125 0.203125l-0.609375 2.953125zm2.4092255 -6.3125l3.578125 -0.578125l0 3.71875l4.296875 0l0 2.984375l-4.296875 0l0 4.4375q0 1.125 0.390625 1.796875q0.390625 0.671875 1.59375 0.671875q0.578125 0 1.1875 -0.109375q0.609375 -0.109375 1.125 -0.296875l0.5 2.78125q-0.65625 0.265625 -1.453125 0.453125q-0.78125 0.1875 -1.9375 0.1875q-1.453125 0 -2.421875 -0.390625q-0.953125 -0.390625 -1.53125 -1.09375q-0.578125 -0.71875 -0.8125 -1.71875q-0.21875 -1.015625 -0.21875 -2.234375l0 -10.609375zm18.374725 6.3125q-0.46875 -0.125 -1.125 -0.25q-0.640625 -0.140625 -1.390625 -0.140625q-0.328125 0 -0.796875 0.0625q-0.46875 0.0625 -0.71875 0.140625l0 9.640625l-3.5625 0l0 -11.953125q0.953125 -0.328125 2.25 -0.625q1.3125 -0.3125 2.921875 -0.3125q0.296875 0 0.703125 0.046875q0.40625 0.03125 0.8125 0.09375q0.40625 0.046875 0.8125 0.140625q0.40625 0.078125 0.703125 0.203125l-0.609375 2.953125zm7.3467255 6.953125q0.53125 0 1.0 -0.015625q0.484375 -0.03125 0.78125 -0.078125l0 -2.703125q-0.21875 -0.0625 -0.65625 -0.109375q-0.421875 -0.046875 -0.78125 -0.046875q-0.5 0 -0.953125 0.0625q-0.4375 0.0625 -0.78125 0.234375q-0.328125 0.171875 -0.53125 0.453125q-0.1875 0.28125 -0.1875 0.71875q0 0.84375 0.5625 1.171875q0.5625 0.3125 1.546875 0.3125zm-0.28125 -10.453125q1.578125 0 2.625 0.359375q1.0625 0.359375 1.703125 1.03125q0.640625 0.671875 0.90625 1.640625q0.265625 0.953125 0.265625 2.125l0 7.4375q-0.78125 0.171875 -2.15625 0.390625q-1.359375 0.234375 -3.296875 0.234375q-1.21875 0 -2.21875 -0.21875q-1.0 -0.21875 -1.71875 -0.703125q-0.71875 -0.5 -1.109375 -1.28125q-0.375 -0.796875 -0.375 -1.953125q0 -1.09375 0.4375 -1.859375q0.453125 -0.78125 1.1875 -1.234375q0.75 -0.453125 1.703125 -0.65625q0.96875 -0.203125 2.0 -0.203125q0.6875 0 1.21875 0.0625q0.546875 0.046875 0.890625 0.15625l0 -0.34375q0 -0.90625 -0.5625 -1.453125q-0.546875 -0.5625 -1.90625 -0.5625q-0.921875 0 -1.8125 0.140625q-0.875 0.125 -1.53125 0.359375l-0.453125 -2.875q0.3125 -0.09375 0.78125 -0.203125q0.46875 -0.109375 1.015625 -0.1875q0.5625 -0.09375 1.171875 -0.140625q0.609375 -0.0625 1.234375 -0.0625zm8.740707 0.765625q0.90625 -0.265625 2.34375 -0.484375q1.4375 -0.234375 3.03125 -0.234375q1.59375 0 2.65625 0.421875q1.078125 0.40625 1.703125 1.1875q0.625 0.765625 0.890625 1.828125q0.265625 1.046875 0.265625 2.34375l0 7.125l-3.578125 0l0 -6.703125q0 -1.71875 -0.453125 -2.4375q-0.453125 -0.71875 -1.703125 -0.71875q-0.390625 0 -0.828125 0.03125q-0.421875 0.03125 -0.765625 0.078125l0 9.75l-3.5625 0l0 -12.1875z" fill-rule="nonzero"></path><path fill="#f0e7d5" d="m145.3542 216.84894l0 -16.625l11.140625 0l0 3.140625l-7.40625 0l0 3.46875l6.578125 0l0 3.15625l-6.578125 0l0 6.859375l-3.734375 0zm21.13533 -9.453125q-0.46875 -0.125 -1.125 -0.25q-0.640625 -0.140625 -1.390625 -0.140625q-0.328125 0 -0.796875 0.0625q-0.46875 0.0625 -0.71875 0.140625l0 9.640625l-3.5625 0l0 -11.953125q0.953125 -0.328125 2.25 -0.625q1.3125 -0.3125 2.921875 -0.3125q0.296875 0 0.703125 0.046875q0.40625 0.03125 0.8125 0.09375q0.40625 0.046875 0.8125 0.140625q0.40625 0.078125 0.703125 0.203125l-0.609375 2.953125zm14.3311 3.109375q0 1.5 -0.4375 2.734375q-0.421875 1.234375 -1.25 2.109375q-0.8125 0.875 -1.953125 1.359375q-1.125 0.484375 -2.546875 0.484375q-1.390625 0 -2.53125 -0.484375q-1.140625 -0.484375 -1.96875 -1.359375q-0.8125 -0.875 -1.265625 -2.109375q-0.453125 -1.234375 -0.453125 -2.734375q0 -1.484375 0.46875 -2.703125q0.46875 -1.21875 1.296875 -2.078125q0.828125 -0.875 1.96875 -1.34375q1.140625 -0.484375 2.484375 -0.484375q1.359375 0 2.5 0.484375q1.140625 0.46875 1.953125 1.34375q0.828125 0.859375 1.28125 2.078125q0.453125 1.21875 0.453125 2.703125zm-3.640625 0q0 -1.640625 -0.671875 -2.59375q-0.65625 -0.953125 -1.875 -0.953125q-1.21875 0 -1.890625 0.953125q-0.671875 0.953125 -0.671875 2.59375q0 1.65625 0.671875 2.640625q0.671875 0.96875 1.890625 0.96875q1.21875 0 1.875 -0.96875q0.671875 -0.984375 0.671875 -2.640625zm6.4117126 -5.84375q0.90625 -0.265625 2.34375 -0.484375q1.4375 -0.234375 3.03125 -0.234375q1.59375 0 2.65625 0.421875q1.078125 0.40625 1.703125 1.1875q0.625 0.765625 0.890625 1.828125q0.265625 1.046875 0.265625 2.34375l0 7.125l-3.578125 0l0 -6.703125q0 -1.71875 -0.453125 -2.4375q-0.453125 -0.71875 -1.703125 -0.71875q-0.390625 0 -0.828125 0.03125q-0.421875 0.03125 -0.765625 0.078125l0 9.75l-3.5625 0l0 -12.1875zm14.010956 -3.578125l3.578125 -0.578125l0 3.71875l4.296875 0l0 2.984375l-4.296875 0l0 4.4375q0 1.125 0.390625 1.796875q0.390625 0.671875 1.59375 0.671875q0.578125 0 1.1875 -0.109375q0.609375 -0.109375 1.125 -0.296875l0.5 2.78125q-0.65625 0.265625 -1.453125 0.453125q-0.78125 0.1875 -1.9375 0.1875q-1.453125 0 -2.421875 -0.390625q-0.953125 -0.390625 -1.53125 -1.09375q-0.578125 -0.71875 -0.8125 -1.71875q-0.21875 -1.015625 -0.21875 -2.234375l0 -10.609375zm10.1716 9.546875q0 -1.671875 0.515625 -2.9375q0.515625 -1.265625 1.359375 -2.09375q0.84375 -0.84375 1.921875 -1.265625q1.09375 -0.4375 2.25 -0.4375q2.6875 0 4.25 1.640625q1.5625 1.640625 1.5625 4.828125q0 0.3125 -0.03125 0.6875q-0.015625 0.375 -0.046875 0.65625l-8.109375 0q0.125 1.109375 1.03125 1.765625q0.921875 0.640625 2.453125 0.640625q0.984375 0 1.921875 -0.171875q0.953125 -0.1875 1.5625 -0.453125l0.46875 2.90625q-0.28125 0.140625 -0.765625 0.28125q-0.484375 0.140625 -1.078125 0.25q-0.578125 0.109375 -1.25 0.1875q-0.671875 0.078125 -1.34375 0.078125q-1.703125 0 -2.96875 -0.5q-1.25 -0.515625 -2.078125 -1.390625q-0.828125 -0.875 -1.234375 -2.078125q-0.390625 -1.203125 -0.390625 -2.59375zm8.40625 -1.359375q-0.03125 -0.46875 -0.171875 -0.890625q-0.125 -0.4375 -0.40625 -0.765625q-0.265625 -0.34375 -0.6875 -0.5625q-0.421875 -0.21875 -1.046875 -0.21875q-0.59375 0 -1.03125 0.21875q-0.421875 0.203125 -0.71875 0.546875q-0.28125 0.328125 -0.4375 0.765625q-0.15625 0.4375 -0.234375 0.90625l4.734375 0zm6.2190857 -4.609375q0.90625 -0.265625 2.34375 -0.484375q1.4375 -0.234375 3.03125 -0.234375q1.59375 0 2.65625 0.421875q1.078125 0.40625 1.703125 1.1875q0.625 0.765625 0.890625 1.828125q0.265625 1.046875 0.265625 2.34375l0 7.125l-3.578125 0l0 -6.703125q0 -1.71875 -0.453125 -2.4375q-0.453125 -0.71875 -1.703125 -0.71875q-0.390625 0 -0.828125 0.03125q-0.421875 0.03125 -0.765625 0.078125l0 9.75l-3.5625 0l0 -12.1875zm17.18283 5.78125q0 1.65625 0.734375 2.671875q0.75 1.0 2.21875 1.0q0.46875 0 0.875 -0.03125q0.40625 -0.046875 0.671875 -0.09375l0 -6.5q-0.328125 -0.21875 -0.875 -0.359375q-0.53125 -0.140625 -1.09375 -0.140625q-2.53125 0 -2.53125 3.453125zm8.078125 6.0q-0.46875 0.140625 -1.09375 0.28125q-0.625 0.125 -1.3125 0.21875q-0.6875 0.09375 -1.40625 0.15625q-0.703125 0.0625 -1.34375 0.0625q-1.5625 0 -2.796875 -0.453125q-1.21875 -0.453125 -2.0625 -1.296875q-0.828125 -0.859375 -1.28125 -2.078125q-0.4375 -1.21875 -0.4375 -2.71875q0 -1.546875 0.375 -2.78125q0.390625 -1.234375 1.109375 -2.09375q0.71875 -0.859375 1.765625 -1.3125q1.046875 -0.46875 2.390625 -0.46875q0.75 0 1.328125 0.15625q0.59375 0.140625 1.1875 0.390625l0 -5.703125l3.578125 -0.578125l0 18.21875z" fill-rule="nonzero"></path><path fill="#000000" fill-opacity="0.0" d="m267.66376 193.80893l43.55905 0" fill-rule="nonzero"></path><path stroke="#f0e7d5" stroke-width="3.0" stroke-linejoin="round" stroke-linecap="butt" d="m267.6638 193.80893l33.2778 0" fill-rule="evenodd"></path><path fill="#f0e7d5" stroke="#f0e7d5" stroke-width="3.0" stroke-linecap="butt" d="m300.94156 193.80893l-3.3737488 3.3737488l9.269318 -3.3737488l-9.269318 -3.3737488z" fill-rule="evenodd"></path><path fill="#000000" fill-opacity="0.0" d="m-1.0 137.41524l91.40157 0l0 112.7874l-91.40157 0z" fill-rule="nonzero"></path><path fill="#ff8d14" d="m38.181255 173.34894l0 -3.453125l-7.03125 0l0 -2.890625l7.453125 -10.90625l2.765625 0l0 10.890625l2.125 0l0 2.90625l-2.125 0l0 3.453125l-3.1875 0zm0 -6.359375l0 -5.859375l-3.953125 5.859375l3.953125 0zm7.5820312 6.359375l0 -3.296875l3.296875 0l0 3.296875l-3.296875 0zm5.2304688 -12.453125l1.828125 0l0 -0.9375q0 -1.5625 0.328125 -2.328125q0.34375 -0.78125 1.234375 -1.265625q0.90625 -0.484375 2.265625 -0.484375q1.40625 0 2.765625 0.421875l-0.453125 2.296875q-0.78125 -0.1875 -1.515625 -0.1875q-0.703125 0 -1.015625 0.328125q-0.3125 0.328125 -0.3125 1.28125l0 0.875l2.453125 0l0 2.59375l-2.453125 0l0 9.859375l-3.296875 0l0 -9.859375l-1.828125 0l0 -2.59375z" fill-rule="nonzero"></path><path fill="#ff8d14" d="m31.75938 197.92706l3.28125 -0.34375q0.140625 1.125 0.828125 1.78125q0.703125 0.640625 1.609375 0.640625q1.03125 0 1.734375 -0.828125q0.71875 -0.84375 0.71875 -2.53125q0 -1.59375 -0.71875 -2.375q-0.703125 -0.796875 -1.828125 -0.796875q-1.421875 0 -2.546875 1.25l-2.671875 -0.375l1.6875 -8.953125l8.703125 0l0 3.09375l-6.203125 0l-0.515625 2.90625q1.09375 -0.546875 2.25 -0.546875q2.1875 0 3.703125 1.59375q1.53125 1.59375 1.53125 4.140625q0 2.125 -1.234375 3.78125q-1.671875 2.28125 -4.65625 2.28125q-2.375 0 -3.875 -1.28125q-1.5 -1.28125 -1.796875 -3.4375zm14.003906 4.421875l0 -3.296875l3.296875 0l0 3.296875l-3.296875 0zm5.2304688 -12.453125l1.828125 0l0 -0.9375q0 -1.5625 0.328125 -2.328125q0.34375 -0.78125 1.234375 -1.265625q0.90625 -0.484375 2.265625 -0.484375q1.40625 0 2.765625 0.421875l-0.453125 2.296875q-0.78125 -0.1875 -1.515625 -0.1875q-0.703125 0 -1.015625 0.328125q-0.3125 0.328125 -0.3125 1.28125l0 0.875l2.453125 0l0 2.59375l-2.453125 0l0 9.859375l-3.296875 0l0 -9.859375l-1.828125 0l0 -2.59375z" fill-rule="nonzero"></path><path fill="#ff8d14" d="m42.868755 218.38019l-3.1875 0.34375q-0.109375 -0.984375 -0.609375 -1.453125q-0.484375 -0.46875 -1.265625 -0.46875q-1.046875 0 -1.765625 0.9375q-0.71875 0.9375 -0.90625 3.90625q1.21875 -1.453125 3.046875 -1.453125q2.0625 0 3.53125 1.578125q1.484375 1.5625 1.484375 4.046875q0 2.640625 -1.546875 4.234375q-1.546875 1.59375 -3.984375 1.59375q-2.59375 0 -4.28125 -2.015625q-1.671875 -2.03125 -1.671875 -6.640625q0 -4.71875 1.75 -6.796875q1.75 -2.09375 4.53125 -2.09375q1.96875 0 3.25 1.09375q1.28125 1.09375 1.625 3.1875zm-7.453125 7.171875q0 1.609375 0.734375 2.484375q0.734375 0.875 1.6875 0.875q0.90625 0 1.515625 -0.71875q0.609375 -0.71875 0.609375 -2.34375q0 -1.671875 -0.65625 -2.453125q-0.65625 -0.78125 -1.640625 -0.78125q-0.9375 0 -1.59375 0.75q-0.65625 0.734375 -0.65625 2.1875zm10.347656 5.796875l0 -3.296875l3.296875 0l0 3.296875l-3.296875 0zm5.2304688 -12.453125l1.828125 0l0 -0.9375q0 -1.5625 0.328125 -2.328125q0.34375 -0.78125 1.234375 -1.265625q0.90625 -0.484375 2.265625 -0.484375q1.40625 0 2.765625 0.421875l-0.453125 2.296875q-0.78125 -0.1875 -1.515625 -0.1875q-0.703125 0 -1.015625 0.328125q-0.3125 0.328125 -0.3125 1.28125l0 0.875l2.453125 0l0 2.59375l-2.453125 0l0 9.859375l-3.296875 0l0 -9.859375l-1.828125 0l0 -2.59375z" fill-rule="nonzero"></path><path fill="#000000" fill-opacity="0.0" d="m486.4452 137.41524l91.40161 0l0 112.7874l-91.40161 0z" fill-rule="nonzero"></path><path fill="#ff8d14" d="m522.2925 173.34894l0 -3.453125l-7.03125 0l0 -2.890625l7.453125 -10.90625l2.765625 0l0 10.890625l2.125 0l0 2.90625l-2.125 0l0 3.453125l-3.1875 0zm0 -6.359375l0 -5.859375l-3.953125 5.859375l3.953125 0zm7.5820312 6.359375l0 -3.296875l3.296875 0l0 3.296875l-3.296875 0zm5.9179688 -6.40625q0 -1.640625 0.796875 -3.171875q0.8125 -1.53125 2.296875 -2.34375q1.484375 -0.8125 3.3125 -0.8125q2.828125 0 4.625 1.84375q1.8125 1.828125 1.8125 4.625q0 2.828125 -1.828125 4.6875q-1.828125 1.859375 -4.59375 1.859375q-1.703125 0 -3.265625 -0.765625q-1.546875 -0.78125 -2.359375 -2.265625q-0.796875 -1.5 -0.796875 -3.65625zm3.375 0.1875q0 1.84375 0.875 2.828125q0.875 0.984375 2.171875 0.984375q1.28125 0 2.15625 -0.984375q0.875 -0.984375 0.875 -2.859375q0 -1.828125 -0.875 -2.8125q-0.875 -0.984375 -2.15625 -0.984375q-1.296875 0 -2.171875 0.984375q-0.875 0.984375 -0.875 2.84375z" fill-rule="nonzero"></path><path fill="#ff8d14" d="m515.8706 197.92706l3.28125 -0.34375q0.140625 1.125 0.828125 1.78125q0.703125 0.640625 1.609375 0.640625q1.03125 0 1.734375 -0.828125q0.71875 -0.84375 0.71875 -2.53125q0 -1.59375 -0.71875 -2.375q-0.703125 -0.796875 -1.828125 -0.796875q-1.421875 0 -2.546875 1.25l-2.671875 -0.375l1.6875 -8.953125l8.703125 0l0 3.09375l-6.203125 0l-0.515625 2.90625q1.09375 -0.546875 2.25 -0.546875q2.1875 0 3.703125 1.59375q1.53125 1.59375 1.53125 4.140625q0 2.125 -1.234375 3.78125q-1.671875 2.28125 -4.65625 2.28125q-2.375 0 -3.875 -1.28125q-1.5 -1.28125 -1.796875 -3.4375zm14.003906 4.421875l0 -3.296875l3.296875 0l0 3.296875l-3.296875 0zm5.9179688 -6.40625q0 -1.640625 0.796875 -3.171875q0.8125 -1.53125 2.296875 -2.34375q1.484375 -0.8125 3.3125 -0.8125q2.828125 0 4.625 1.84375q1.8125 1.828125 1.8125 4.625q0 2.828125 -1.828125 4.6875q-1.828125 1.859375 -4.59375 1.859375q-1.703125 0 -3.265625 -0.765625q-1.546875 -0.78125 -2.359375 -2.265625q-0.796875 -1.5 -0.796875 -3.65625zm3.375 0.1875q0 1.84375 0.875 2.828125q0.875 0.984375 2.171875 0.984375q1.28125 0 2.15625 -0.984375q0.875 -0.984375 0.875 -2.859375q0 -1.828125 -0.875 -2.8125q-0.875 -0.984375 -2.15625 -0.984375q-1.296875 0 -2.171875 0.984375q-0.875 0.984375 -0.875 2.84375z" fill-rule="nonzero"></path><path fill="#ff8d14" d="m526.98 218.38019l-3.1875 0.34375q-0.109375 -0.984375 -0.609375 -1.453125q-0.484375 -0.46875 -1.265625 -0.46875q-1.046875 0 -1.765625 0.9375q-0.71875 0.9375 -0.90625 3.90625q1.21875 -1.453125 3.046875 -1.453125q2.0625 0 3.53125 1.578125q1.484375 1.5625 1.484375 4.046875q0 2.640625 -1.546875 4.234375q-1.546875 1.59375 -3.984375 1.59375q-2.59375 0 -4.28125 -2.015625q-1.671875 -2.03125 -1.671875 -6.640625q0 -4.71875 1.75 -6.796875q1.75 -2.09375 4.53125 -2.09375q1.96875 0 3.25 1.09375q1.28125 1.09375 1.625 3.1875zm-7.453125 7.171875q0 1.609375 0.734375 2.484375q0.734375 0.875 1.6875 0.875q0.90625 0 1.515625 -0.71875q0.609375 -0.71875 0.609375 -2.34375q0 -1.671875 -0.65625 -2.453125q-0.65625 -0.78125 -1.640625 -0.78125q-0.9375 0 -1.59375 0.75q-0.65625 0.734375 -0.65625 2.1875zm10.347656 5.796875l0 -3.296875l3.296875 0l0 3.296875l-3.296875 0zm5.9179688 -6.40625q0 -1.640625 0.796875 -3.171875q0.8125 -1.53125 2.296875 -2.34375q1.484375 -0.8125 3.3125 -0.8125q2.828125 0 4.625 1.84375q1.8125 1.828125 1.8125 4.625q0 2.828125 -1.828125 4.6875q-1.828125 1.859375 -4.59375 1.859375q-1.703125 0 -3.265625 -0.765625q-1.546875 -0.78125 -2.359375 -2.265625q-0.796875 -1.5 -0.796875 -3.65625zm3.375 0.1875q0 1.84375 0.875 2.828125q0.875 0.984375 2.171875 0.984375q1.28125 0 2.15625 -0.984375q0.875 -0.984375 0.875 -2.859375q0 -1.828125 -0.875 -2.8125q-0.875 -0.984375 -2.15625 -0.984375q-1.296875 0 -2.171875 0.984375q-0.875 0.984375 -0.875 2.84375z" fill-rule="nonzero"></path><path fill="#ff8d14" d="m77.938545 190.88072l19.559052 0l0 -4.18898l8.377953 8.37796l-8.377953 8.377945l0 -4.18898l-19.559052 0z" fill-rule="nonzero"></path><path fill="#ff8d14" d="m77.938545 215.66324l19.559052 0l0 -4.188965l8.377953 8.377945l-8.377953 8.37796l0 -4.18898l-19.559052 0z" fill-rule="nonzero"></path><path fill="#ff8d14" d="m77.938545 166.09819l19.559052 0l0 -4.18898l8.377953 8.37796l-8.377953 8.377945l0 -4.188965l-19.559052 0z" fill-rule="nonzero"></path><path fill="#ff8d14" d="m467.8275 69.019356l19.559052 0l0 -4.1889725l8.37796 8.377953l-8.37796 8.377953l0 -4.18898l-19.559052 0z" fill-rule="nonzero"></path><path fill="#ff8d14" d="m467.8275 93.80188l19.559052 0l0 -4.1889725l8.37796 8.377953l-8.37796 8.377953l0 -4.18898l-19.559052 0z" fill-rule="nonzero"></path><path fill="#ff8d14" d="m467.8275 44.23683l19.559052 0l0 -4.1889763l8.37796 8.377953l-8.37796 8.377953l0 -4.1889763l-19.559052 0z" fill-rule="nonzero"></path><path fill="#ff8d14" d="m467.8275 190.88072l19.559052 0l0 -4.18898l8.37796 8.37796l-8.37796 8.377945l0 -4.18898l-19.559052 0z" fill-rule="nonzero"></path><path fill="#ff8d14" d="m467.8275 215.66324l19.559052 0l0 -4.188965l8.37796 8.377945l-8.37796 8.37796l0 -4.18898l-19.559052 0z" fill-rule="nonzero"></path><path fill="#ff8d14" d="m467.8275 166.09819l19.559052 0l0 -4.18898l8.37796 8.37796l-8.37796 8.377945l0 -4.188965l-19.559052 0z" fill-rule="nonzero"></path><path fill="#ff8d14" d="m571.83844 82.55951l19.559082 0l0 -4.18898l8.37793 8.377953l-8.37793 8.377953l0 -4.1889725l-19.559082 0z" fill-rule="nonzero"></path><path fill="#ff8d14" d="m571.83844 107.34203l19.559082 0l0 -4.1889725l8.37793 8.377953l-8.37793 8.377953l0 -4.18898l-19.559082 0z" fill-rule="nonzero"></path><path fill="#ff8d14" d="m571.83844 57.77698l19.559082 0l0 -4.1889763l8.37793 8.377953l-8.37793 8.377953l0 -4.1889725l-19.559082 0z" fill-rule="nonzero"></path><path fill="#ff8d14" d="m571.83844 177.34056l19.559082 0l0 -4.188965l8.37793 8.377945l-8.37793 8.37796l0 -4.18898l-19.559082 0z" fill-rule="nonzero"></path><path fill="#ff8d14" d="m571.83844 202.1231l19.559082 0l0 -4.18898l8.37793 8.37796l-8.37793 8.377945l0 -4.188965l-19.559082 0z" fill-rule="nonzero"></path><path fill="#ff8d14" d="m571.83844 152.55804l19.559082 0l0 -4.18898l8.37793 8.37796l-8.37793 8.377945l0 -4.18898l-19.559082 0z" fill-rule="nonzero"></path><path fill="#000000" fill-opacity="0.0" d="m806.6553 80.61385l142.55121 0l0 112.78739l-142.55121 0z" fill-rule="nonzero"></path><path stroke="#f0e7d5" stroke-width="3.0" stroke-linejoin="round" stroke-linecap="butt" d="m806.6553 80.61385l142.55121 0l0 112.78739l-142.55121 0z" fill-rule="nonzero"></path><path fill="#f0e7d5" d="m825.5856 137.21942q0 1.21875 0.296875 2.203125q0.296875 0.984375 0.859375 1.703125q0.578125 0.703125 1.390625 1.09375q0.8125 0.375 1.875 0.375q1.03125 0 1.859375 -0.375q0.828125 -0.390625 1.390625 -1.09375q0.5625 -0.71875 0.859375 -1.703125q0.296875 -0.984375 0.296875 -2.203125q0 -1.21875 -0.296875 -2.21875q-0.296875 -1.0 -0.859375 -1.703125q-0.5625 -0.703125 -1.390625 -1.09375q-0.828125 -0.390625 -1.859375 -0.390625q-1.0625 0 -1.875 0.40625q-0.8125 0.390625 -1.390625 1.109375q-0.5625 0.703125 -0.859375 1.703125q-0.296875 0.984375 -0.296875 2.1875zm12.703125 0q0 2.140625 -0.640625 3.765625q-0.640625 1.609375 -1.75 2.703125q-1.09375 1.09375 -2.625 1.65625q-1.515625 0.546875 -3.265625 0.546875q-1.703125 0 -3.21875 -0.546875q-1.515625 -0.5625 -2.640625 -1.65625q-1.125 -1.09375 -1.78125 -2.703125q-0.640625 -1.625 -0.640625 -3.765625q0 -2.140625 0.671875 -3.75q0.671875 -1.625 1.8125 -2.71875q1.140625 -1.109375 2.640625 -1.65625q1.5 -0.5625 3.15625 -0.5625q1.703125 0 3.203125 0.5625q1.515625 0.546875 2.640625 1.65625q1.140625 1.09375 1.78125 2.71875q0.65625 1.609375 0.65625 3.75zm10.9599 2.109375q0 -1.65625 -0.75 -2.640625q-0.734375 -1.0 -2.203125 -1.0q-0.46875 0 -0.890625 0.03125q-0.40625 0.03125 -0.671875 0.078125l0 6.46875q0.34375 0.203125 0.875 0.359375q0.546875 0.140625 1.09375 0.140625q2.546875 0 2.546875 -3.4375zm3.65625 -0.09375q0 1.46875 -0.359375 2.671875q-0.359375 1.1875 -1.0625 2.0625q-0.703125 0.859375 -1.734375 1.34375q-1.03125 0.46875 -2.375 0.46875q-0.734375 0 -1.390625 -0.140625q-0.640625 -0.140625 -1.25 -0.40625l0 4.75l-3.5625 0l0 -16.625q0.46875 -0.15625 1.09375 -0.28125q0.625 -0.125 1.3125 -0.21875q0.6875 -0.109375 1.390625 -0.15625q0.703125 -0.0625 1.359375 -0.0625q1.5625 0 2.78125 0.46875q1.21875 0.46875 2.0625 1.328125q0.84375 0.84375 1.28125 2.0625q0.453125 1.21875 0.453125 2.734375zm2.6365967 -9.453125l3.578125 -0.578125l0 3.71875l4.296875 0l0 2.984375l-4.296875 0l0 4.4375q0 1.125 0.390625 1.796875q0.390625 0.671875 1.59375 0.671875q0.578125 0 1.1875 -0.109375q0.609375 -0.109375 1.125 -0.296875l0.5 2.78125q-0.65625 0.265625 -1.453125 0.453125q-0.78125 0.1875 -1.9375 0.1875q-1.453125 0 -2.421875 -0.390625q-0.953125 -0.390625 -1.53125 -1.09375q-0.578125 -0.71875 -0.8125 -1.71875q-0.21875 -1.015625 -0.21875 -2.234375l0 -10.609375zm14.343506 15.765625l-3.5625 0l0 -12.625l3.5625 0l0 12.625zm0.34375 -16.265625q0 0.984375 -0.640625 1.546875q-0.640625 0.5625 -1.5 0.5625q-0.859375 0 -1.5 -0.5625q-0.640625 -0.5625 -0.640625 -1.546875q0 -0.984375 0.640625 -1.5468674q0.640625 -0.578125 1.5 -0.578125q0.859375 0 1.5 0.578125q0.640625 0.5624924 0.640625 1.5468674zm9.951599 9.5625q0 -1.71875 -0.4375 -2.4375q-0.4375 -0.71875 -1.53125 -0.71875q-0.328125 0 -0.6875 0.03125q-0.359375 0.03125 -0.703125 0.078125l0 9.75l-3.5625 0l0 -12.1875q0.453125 -0.125 1.0625 -0.25q0.609375 -0.140625 1.296875 -0.25q0.6875 -0.109375 1.40625 -0.15625q0.71875 -0.0625 1.40625 -0.0625q1.375 0 2.21875 0.34375q0.859375 0.34375 1.40625 0.828125q0.765625 -0.546875 1.765625 -0.859375q1.0 -0.3125 1.84375 -0.3125q1.5 0 2.46875 0.421875q0.984375 0.40625 1.5625 1.1875q0.578125 0.765625 0.78125 1.828125q0.21875 1.046875 0.21875 2.34375l0 7.125l-3.578125 0l0 -6.703125q0 -1.71875 -0.453125 -2.4375q-0.4375 -0.71875 -1.515625 -0.71875q-0.28125 0 -0.796875 0.140625q-0.515625 0.140625 -0.859375 0.359375q0.171875 0.546875 0.21875 1.171875q0.046875 0.609375 0.046875 1.296875l0 6.890625l-3.578125 0l0 -6.703125zm17.328552 6.703125l-3.5625 0l0 -12.625l3.5625 0l0 12.625zm0.34375 -16.265625q0 0.984375 -0.640625 1.546875q-0.640625 0.5625 -1.5 0.5625q-0.859375 0 -1.5 -0.5625q-0.640625 -0.5625 -0.640625 -1.546875q0 -0.984375 0.640625 -1.5468674q0.640625 -0.578125 1.5 -0.578125q0.859375 0 1.5 0.578125q0.640625 0.5624924 0.640625 1.5468674zm12.498474 6.046875q-0.421875 0.46875 -1.15625 1.296875q-0.734375 0.8125 -1.578125 1.796875q-0.84375 0.984375 -1.703125 2.0625q-0.84375 1.078125 -1.53125 2.09375l6.09375 0l0 2.96875l-10.4375 0l0 -2.109375q0.5 -0.859375 1.203125 -1.859375q0.71875 -1.0 1.484375 -2.0q0.78125 -1.015625 1.546875 -1.953125q0.78125 -0.953125 1.421875 -1.71875l-5.375 0l0 -2.984375l10.03125 0l0 2.40625zm1.921814 4.0q0 -1.671875 0.515625 -2.9375q0.515625 -1.265625 1.359375 -2.09375q0.84375 -0.84375 1.921875 -1.265625q1.09375 -0.4375 2.25 -0.4375q2.6875 0 4.25 1.640625q1.5625 1.640625 1.5625 4.828125q0 0.3125 -0.03125 0.6875q-0.015625 0.375 -0.046875 0.65625l-8.109375 0q0.125 1.109375 1.03125 1.765625q0.921875 0.640625 2.453125 0.640625q0.984375 0 1.921875 -0.171875q0.953125 -0.1875 1.5625 -0.453125l0.46875 2.90625q-0.28125 0.140625 -0.765625 0.28125q-0.484375 0.140625 -1.078125 0.25q-0.578125 0.109375 -1.25 0.1875q-0.671875 0.078125 -1.34375 0.078125q-1.703125 0 -2.96875 -0.5q-1.25 -0.515625 -2.078125 -1.390625q-0.828125 -0.875 -1.234375 -2.078125q-0.390625 -1.203125 -0.390625 -2.59375zm8.40625 -1.359375q-0.03125 -0.46875 -0.171875 -0.890625q-0.125 -0.4375 -0.40625 -0.765625q-0.265625 -0.34375 -0.6875 -0.5625q-0.421875 -0.21875 -1.046875 -0.21875q-0.59375 0 -1.03125 0.21875q-0.421875 0.203125 -0.71875 0.546875q-0.28125 0.328125 -0.4375 0.765625q-0.15625 0.4375 -0.234375 0.90625l4.734375 0zm13.812866 -1.875q-0.46875 -0.125 -1.125 -0.25q-0.640625 -0.140625 -1.390625 -0.140625q-0.328125 0 -0.796875 0.0625q-0.46875 0.0625 -0.71875 0.140625l0 9.640625l-3.5625 0l0 -11.953125q0.953125 -0.328125 2.25 -0.625q1.3125 -0.3125 2.921875 -0.3125q0.296875 0 0.703125 0.046875q0.40625 0.03125 0.8125 0.09375q0.40625 0.046875 0.8125 0.140625q0.40625 0.078125 0.703125 0.203125l-0.609375 2.953125z" fill-rule="nonzero"></path><path fill="#000000" fill-opacity="0.0" d="m949.2065 137.00755l43.338562 0" fill-rule="nonzero"></path><path stroke="#f0e7d5" stroke-width="3.0" stroke-linejoin="round" stroke-linecap="butt" d="m949.2064 137.00755l33.057373 0" fill-rule="evenodd"></path><path fill="#f0e7d5" stroke="#f0e7d5" stroke-width="3.0" stroke-linecap="butt" d="m982.2638 137.00755l-3.3737793 3.3737488l9.269287 -3.3737488l-9.269287 -3.3737488z" fill-rule="evenodd"></path><path fill="#000000" fill-opacity="0.0" d="m992.5532 80.61385l142.55115 0l0 112.78739l-142.55115 0z" fill-rule="nonzero"></path><path stroke="#f0e7d5" stroke-width="3.0" stroke-linejoin="round" stroke-linecap="butt" d="m992.5532 80.61385l142.55115 0l0 112.78739l-142.55115 0z" fill-rule="nonzero"></path><path fill="#f0e7d5" d="m1030.6201 122.266304l2.484375 -3.84375l3.703125 0l-4.328125 6.078125q1.453125 1.796875 2.625 3.4999924q1.171875 1.703125 1.875 3.046875l-3.84375 0q-0.1875 -0.359375 -0.484375 -0.890625q-0.28125 -0.546875 -0.640625 -1.125q-0.359375 -0.59375 -0.765625 -1.1874924q-0.390625 -0.59375 -0.78125 -1.0625q-0.359375 0.453125 -0.734375 1.0q-0.359375 0.5468674 -0.703125 1.1249924q-0.328125 0.5625 -0.65625 1.109375q-0.328125 0.546875 -0.5625 1.03125l-3.65625 0q0.296875 -0.59375 0.796875 -1.40625q0.5 -0.828125 1.09375 -1.7031174q0.59375 -0.875 1.234375 -1.75q0.65625 -0.875 1.265625 -1.640625q-1.078125 -1.515625 -2.15625 -3.0625q-1.078125 -1.546875 -2.125 -3.0625l3.859375 0l2.5 3.84375zm19.311523 4.15625q0 1.078125 -0.375 1.9843674q-0.375 0.890625 -1.125 1.5625q-0.734375 0.671875 -1.859375 1.046875q-1.109375 0.375 -2.5625 0.375q-1.6875 0 -2.8125 -0.46875q-1.109375 -0.46875 -1.796875 -1.15625q-0.671875 -0.703125 -0.96875 -1.53125q-0.28125 -0.8281174 -0.28125 -1.5312424q0 -0.71875 0.1875 -1.3125q0.1875 -0.609375 0.515625 -1.09375q0.34375 -0.5 0.765625 -0.90625q0.421875 -0.40625 0.90625 -0.765625q-1.03125 -0.84375 -1.53125 -1.65625q-0.484375 -0.8125 -0.484375 -2.09375q0 -0.953125 0.390625 -1.84375q0.40625 -0.890625 1.125 -1.546875q0.71875 -0.65625 1.734375 -1.046875q1.015625 -0.40625 2.265625 -0.40625q1.46875 0 2.515625 0.421875q1.046875 0.421875 1.71875 1.078125q0.671875 0.640625 0.96875 1.453125q0.296875 0.796875 0.296875 1.578125q0 1.15625 -0.609375 2.15625q-0.609375 0.984375 -1.53125 1.5625q1.375 0.890625 1.953125 1.875q0.59375 0.96875 0.59375 2.265625zm-8.296875 0.140625q0 0.28125 0.125 0.640625q0.140625 0.34375 0.421875 0.640625q0.28125 0.28124237 0.734375 0.46874237q0.46875 0.1875 1.109375 0.1875q1.25 0 1.828125 -0.5937424q0.578125 -0.609375 0.578125 -1.34375q0 -0.5625 -0.25 -0.984375q-0.25 -0.4375 -0.6875 -0.75q-0.4375 -0.328125 -1.03125 -0.578125q-0.578125 -0.265625 -1.25 -0.46875q-0.671875 0.5 -1.125 1.171875q-0.453125 0.671875 -0.453125 1.609375zm4.4375 -7.90625q0 -0.25 -0.109375 -0.546875q-0.109375 -0.3125 -0.359375 -0.578125q-0.25 -0.265625 -0.640625 -0.4375q-0.375 -0.1875 -0.9375 -0.1875q-0.53125 0 -0.921875 0.171875q-0.375 0.171875 -0.625 0.453125q-0.25 0.265625 -0.375 0.578125q-0.109375 0.3125 -0.109375 0.59375q0 0.78125 0.5625 1.453125q0.5625 0.671875 1.921875 1.140625q0.78125 -0.46875 1.1875 -1.09375q0.40625 -0.625 0.40625 -1.546875zm11.350708 4.5625q-0.53125 0 -1.140625 0.109375q-0.59375 0.09375 -0.921875 0.25q0 0.09375 -0.015625 0.296875q-0.015625 0.1875 -0.015625 0.328125q0 0.875 0.125 1.640625q0.125 0.765625 0.40625 1.34375q0.28125 0.578125 0.765625 0.9062424q0.484375 0.3125 1.203125 0.3125q0.59375 0 1.015625 -0.25q0.421875 -0.24999237 0.6875 -0.6249924q0.28125 -0.390625 0.40625 -0.859375q0.140625 -0.46875 0.140625 -0.90625q0 -1.21875 -0.609375 -1.875q-0.609375 -0.671875 -2.046875 -0.671875zm0.453125 -2.78125q1.5625 0 2.65625 0.421875q1.09375 0.421875 1.78125 1.140625q0.703125 0.71875 1.015625 1.6875q0.3125 0.953125 0.3125 2.03125q0 0.953125 -0.359375 1.96875q-0.34375 0.9999924 -1.046875 1.8281174q-0.703125 0.8125 -1.796875 1.34375q-1.09375 0.53125 -2.578125 0.53125q-3.0 0 -4.5625 -1.890625q-1.5625 -1.9062424 -1.5625 -5.2499924q0 -2.390625 0.734375 -4.234375q0.75 -1.859375 2.125 -3.109375q1.390625 -1.265625 3.34375 -1.921875q1.953125 -0.671875 4.40625 -0.6875q0.046875 0.734375 0.09375 1.453125q0.046875 0.703125 0.09375 1.46875q-1.21875 0.03125 -2.296875 0.234375q-1.0625 0.203125 -1.9375 0.640625q-0.875 0.421875 -1.53125 1.109375q-0.640625 0.6875 -1.0 1.671875q0.53125 -0.25 1.078125 -0.34375q0.546875 -0.09375 1.03125 -0.09375zm6.600708 12.078117l12.0 0l0 2.96875l-12.0 0l0 -2.96875zm18.578125 -9.296867q-0.53125 0 -1.140625 0.109375q-0.59375 0.09375 -0.921875 0.25q0 0.09375 -0.015625 0.296875q-0.015625 0.1875 -0.015625 0.328125q0 0.875 0.125 1.640625q0.125 0.765625 0.40625 1.34375q0.28125 0.578125 0.765625 0.9062424q0.484375 0.3125 1.203125 0.3125q0.59375 0 1.015625 -0.25q0.421875 -0.24999237 0.6875 -0.6249924q0.28125 -0.390625 0.40625 -0.859375q0.140625 -0.46875 0.140625 -0.90625q0 -1.21875 -0.609375 -1.875q-0.609375 -0.671875 -2.046875 -0.671875zm0.453125 -2.78125q1.5625 0 2.65625 0.421875q1.09375 0.421875 1.78125 1.140625q0.703125 0.71875 1.015625 1.6875q0.3125 0.953125 0.3125 2.03125q0 0.953125 -0.359375 1.96875q-0.34375 0.9999924 -1.046875 1.8281174q-0.703125 0.8125 -1.796875 1.34375q-1.09375 0.53125 -2.578125 0.53125q-3.0 0 -4.5625 -1.890625q-1.5625 -1.9062424 -1.5625 -5.2499924q0 -2.390625 0.734375 -4.234375q0.75 -1.859375 2.125 -3.109375q1.390625 -1.265625 3.34375 -1.921875q1.953125 -0.671875 4.40625 -0.6875q0.046875 0.734375 0.09375 1.453125q0.046875 0.703125 0.09375 1.46875q-1.21875 0.03125 -2.296875 0.234375q-1.0625 0.203125 -1.9375 0.640625q-0.875 0.421875 -1.53125 1.109375q-0.640625 0.6875 -1.0 1.671875q0.53125 -0.25 1.078125 -0.34375q0.546875 -0.09375 1.03125 -0.09375zm14.256958 -1.65625q-0.9375 1.21875 -2.0 2.671875q-1.046875 1.4375 -1.765625 2.953125l3.765625 0l0 -5.625zm3.5 -4.359375l0 9.984375l1.78125 0l0 2.921875l-1.78125 0l0 3.7187424l-3.5 0l0 -3.7187424l-7.171875 0l0 -2.625q0.53125 -1.046875 1.3125 -2.375q0.796875 -1.34375 1.765625 -2.734375q0.96875 -1.40625 2.046875 -2.75q1.09375 -1.34375 2.171875 -2.421875l3.375 0z" fill-rule="nonzero"></path><path fill="#f0e7d5" d="m1022.3257 160.2663q-1.375 0 -2.734375 -0.09375q-1.34375 -0.078125 -2.8125 -0.390625l0 -16.125q1.15625 -0.21875 2.515625 -0.328125q1.375 -0.109375 2.546875 -0.109375q1.578125 0 2.90625 0.234375q1.34375 0.21875 2.296875 0.78125q0.96875 0.546875 1.5 1.453125q0.546875 0.890625 0.546875 2.21875q0 1.984375 -1.921875 3.140625q1.578125 0.59375 2.15625 1.625q0.578125 1.03125 0.578125 2.328125q0 2.625 -1.90625 3.953125q-1.90625 1.3125 -5.671875 1.3125zm-1.90625 -7.46875l0 4.296875q0.40625 0.046875 0.890625 0.078125q0.484375 0.015625 1.0625 0.015625q1.671875 0 2.703125 -0.46875q1.03125 -0.484375 1.03125 -1.78125q0 -1.15625 -0.859375 -1.640625q-0.859375 -0.5 -2.46875 -0.5l-2.359375 0zm0 -2.859375l1.828125 0q1.734375 0 2.46875 -0.4375q0.75 -0.4375 0.75 -1.421875q0 -1.015625 -0.765625 -1.421875q-0.765625 -0.40625 -2.265625 -0.40625q-0.46875 0 -1.03125 0.015625q-0.546875 0 -0.984375 0.046875l0 3.625zm17.06543 7.609375q0.53125 0 1.0 -0.015625q0.484375 -0.03125 0.78125 -0.078125l0 -2.703125q-0.21875 -0.0625 -0.65625 -0.109375q-0.421875 -0.046875 -0.78125 -0.046875q-0.5 0 -0.953125 0.0625q-0.4375 0.0625 -0.78125 0.234375q-0.328125 0.171875 -0.53125 0.453125q-0.1875 0.28125 -0.1875 0.71875q0 0.84375 0.5625 1.171875q0.5625 0.3125 1.546875 0.3125zm-0.28125 -10.453125q1.578125 0 2.625 0.359375q1.0625 0.359375 1.703125 1.03125q0.640625 0.671875 0.90625 1.640625q0.265625 0.953125 0.265625 2.125l0 7.4375q-0.78125 0.171875 -2.15625 0.390625q-1.359375 0.234375 -3.296875 0.234375q-1.21875 0 -2.21875 -0.21875q-1.0 -0.21875 -1.71875 -0.703125q-0.71875 -0.5 -1.109375 -1.28125q-0.375 -0.796875 -0.375 -1.953125q0 -1.09375 0.4375 -1.859375q0.453125 -0.78125 1.1875 -1.234375q0.75 -0.453125 1.703125 -0.65625q0.96875 -0.203125 2.0 -0.203125q0.6875 0 1.21875 0.0625q0.546875 0.046875 0.890625 0.15625l0 -0.34375q0 -0.90625 -0.5625 -1.453125q-0.546875 -0.5625 -1.90625 -0.5625q-0.921875 0 -1.8125 0.140625q-0.875 0.125 -1.53125 0.359375l-0.453125 -2.875q0.3125 -0.09375 0.78125 -0.203125q0.46875 -0.109375 1.015625 -0.1875q0.5625 -0.09375 1.171875 -0.140625q0.609375 -0.0625 1.234375 -0.0625zm8.131348 6.640625q0 -1.375 0.4375 -2.578125q0.453125 -1.21875 1.28125 -2.109375q0.84375 -0.90625 2.046875 -1.421875q1.203125 -0.53125 2.734375 -0.53125q1.015625 0 1.84375 0.1875q0.84375 0.171875 1.640625 0.5l-0.75 2.859375q-0.5 -0.1875 -1.109375 -0.328125q-0.59375 -0.15625 -1.328125 -0.15625q-1.59375 0 -2.375 0.984375q-0.765625 0.984375 -0.765625 2.59375q0 1.703125 0.71875 2.640625q0.734375 0.9375 2.5625 0.9375q0.640625 0 1.390625 -0.109375q0.75 -0.125 1.375 -0.390625l0.5 2.921875q-0.625 0.265625 -1.5625 0.453125q-0.9375 0.203125 -2.0625 0.203125q-1.734375 0 -2.984375 -0.515625q-1.234375 -0.53125 -2.046875 -1.40625q-0.796875 -0.890625 -1.171875 -2.09375q-0.375 -1.21875 -0.375 -2.640625zm16.171875 -1.75q0.53125 -0.578125 1.09375 -1.203125q0.5625 -0.625 1.09375 -1.234375q0.53125 -0.609375 1.0 -1.15625q0.46875 -0.5625 0.796875 -0.96875l4.25 0q-1.265625 1.46875 -2.484375 2.796875q-1.203125 1.328125 -2.640625 2.75q0.71875 0.640625 1.484375 1.546875q0.765625 0.90625 1.484375 1.859375q0.71875 0.953125 1.3125 1.921875q0.609375 0.953125 1.015625 1.75l-4.109375 0q-0.375 -0.625 -0.875 -1.375q-0.484375 -0.765625 -1.046875 -1.515625q-0.546875 -0.75 -1.15625 -1.453125q-0.609375 -0.703125 -1.21875 -1.171875l0 5.515625l-3.5625 0l0 -18.046875l3.5625 -0.578125l0 10.5625zm9.724121 1.84375q0 -1.671875 0.515625 -2.9375q0.515625 -1.265625 1.359375 -2.09375q0.84375 -0.84375 1.921875 -1.265625q1.09375 -0.4375 2.25 -0.4375q2.6875 0 4.25 1.640625q1.5625 1.640625 1.5625 4.828125q0 0.3125 -0.03125 0.6875q-0.015625 0.375 -0.046875 0.65625l-8.109375 0q0.125 1.109375 1.03125 1.765625q0.921875 0.640625 2.453125 0.640625q0.984375 0 1.921875 -0.171875q0.953125 -0.1875 1.5625 -0.453125l0.46875 2.90625q-0.28125 0.140625 -0.765625 0.28125q-0.484375 0.140625 -1.078125 0.25q-0.578125 0.109375 -1.25 0.1875q-0.671875 0.078125 -1.34375 0.078125q-1.703125 0 -2.96875 -0.5q-1.25 -0.515625 -2.078125 -1.390625q-0.828125 -0.875 -1.234375 -2.078125q-0.390625 -1.203125 -0.390625 -2.59375zm8.40625 -1.359375q-0.03125 -0.46875 -0.171875 -0.890625q-0.125 -0.4375 -0.40625 -0.765625q-0.265625 -0.34375 -0.6875 -0.5625q-0.421875 -0.21875 -1.046875 -0.21875q-0.59375 0 -1.03125 0.21875q-0.421875 0.203125 -0.71875 0.546875q-0.28125 0.328125 -0.4375 0.765625q-0.15625 0.4375 -0.234375 0.90625l4.734375 0zm6.219116 -4.609375q0.90625 -0.265625 2.34375 -0.484375q1.4375 -0.234375 3.03125 -0.234375q1.59375 0 2.65625 0.421875q1.078125 0.40625 1.703125 1.1875q0.625 0.765625 0.890625 1.828125q0.265625 1.046875 0.265625 2.34375l0 7.125l-3.578125 0l0 -6.703125q0 -1.71875 -0.453125 -2.4375q-0.453125 -0.71875 -1.703125 -0.71875q-0.390625 0 -0.828125 0.03125q-0.421875 0.03125 -0.765625 0.078125l0 9.75l-3.5625 0l0 -12.1875zm17.18274 5.78125q0 1.65625 0.734375 2.671875q0.75 1.0 2.21875 1.0q0.46875 0 0.875 -0.03125q0.40625 -0.046875 0.671875 -0.09375l0 -6.5q-0.328125 -0.21875 -0.875 -0.359375q-0.53125 -0.140625 -1.09375 -0.140625q-2.53125 0 -2.53125 3.453125zm8.078125 6.0q-0.46875 0.140625 -1.09375 0.28125q-0.625 0.125 -1.3125 0.21875q-0.6875 0.09375 -1.40625 0.15625q-0.703125 0.0625 -1.34375 0.0625q-1.5625 0 -2.796875 -0.453125q-1.21875 -0.453125 -2.0625 -1.296875q-0.828125 -0.859375 -1.28125 -2.078125q-0.4375 -1.21875 -0.4375 -2.71875q0 -1.546875 0.375 -2.78125q0.390625 -1.234375 1.109375 -2.09375q0.71875 -0.859375 1.765625 -1.3125q1.046875 -0.46875 2.390625 -0.46875q0.75 0 1.328125 0.15625q0.59375 0.140625 1.1875 0.390625l0 -5.703125l3.578125 -0.578125l0 18.21875z" fill-rule="nonzero"></path></g></svg>

