<?xml version="1.0" standalone="yes"?>

<svg version="1.1" viewBox="0.0 0.0 645.6377952755905 368.73228346456693" fill="none" stroke="none" stroke-linecap="square" stroke-miterlimit="10" xmlns="http://www.w3.org/2000/svg" xmlns:xlink="http://www.w3.org/1999/xlink"><clipPath id="p.0"><path d="m0 0l645.6378 0l0 368.73227l-645.6378 0l0 -368.73227z" clip-rule="nonzero"></path></clipPath><g clip-path="url(#p.0)"><path fill="#000000" fill-opacity="0.0" d="m0 0l645.6378 0l0 368.73227l-645.6378 0z" fill-rule="nonzero"></path><path fill="#ff8d14" d="m225.5511 64.18635l0 0c0 -28.344814 45.6176 -51.32283 101.889755 -51.32283l0 0c56.272186 0 101.88977 22.978016 101.88977 51.32283l0 0c0 28.344826 -45.617584 51.322838 -101.88977 51.322838l0 0c-56.272156 0 -101.889755 -22.978012 -101.889755 -51.322838z" fill-rule="nonzero"></path><path stroke="#ffffff" stroke-width="1.0" stroke-linejoin="round" stroke-linecap="butt" d="m225.5511 64.18635l0 0c0 -28.344814 45.6176 -51.32283 101.889755 -51.32283l0 0c56.272186 0 101.88977 22.978016 101.88977 51.32283l0 0c0 28.344826 -45.617584 51.322838 -101.88977 51.322838l0 0c-56.272156 0 -101.889755 -22.978012 -101.889755 -51.322838z" fill-rule="nonzero"></path><path fill="#000000" d="m274.7692 54.752598q0.515625 0.953125 1.203125 2.359375q0.6875 1.40625 1.421875 3.046875q0.734375 1.640625 1.453125 3.359375q0.734375 1.7031288 1.375 3.2031288q0.640625 -1.5 1.359375 -3.2031288q0.734375 -1.71875 1.46875 -3.359375q0.734375 -1.640625 1.40625 -3.046875q0.6875 -1.40625 1.21875 -2.359375l4.109375 0q0.296875 2.0 0.546875 4.484375q0.25 2.46875 0.4375 5.156254q0.1875 2.6875 0.34375 5.390625q0.15625 2.6875 0.265625 5.0625l-4.40625 0q-0.078125 -2.921875 -0.234375 -6.375q-0.140625 -3.453125 -0.421875 -6.968754q-0.53125 1.21875 -1.171875 2.7031288q-0.625 1.484375 -1.25 2.96875q-0.625 1.46875 -1.203125 2.8125q-0.578125 1.34375 -0.984375 2.3125l-3.171875 0q-0.40625 -0.96875 -0.984375 -2.3125q-0.578125 -1.34375 -1.203125 -2.8125q-0.625 -1.484375 -1.265625 -2.96875q-0.625 -1.4843788 -1.15625 -2.7031288q-0.28125 3.5156288 -0.4375 6.968754q-0.140625 3.453125 -0.234375 6.375l-4.40625 0q0.125 -2.375 0.28125 -5.0625q0.15625 -2.703125 0.34375 -5.390625q0.1875 -2.6875038 0.4375 -5.156254q0.25 -2.484375 0.53125 -4.484375l4.328125 0zm19.963562 12.578129q0 -2.03125 0.609375 -3.5468788q0.625 -1.53125 1.640625 -2.53125q1.015625 -1.015625 2.328125 -1.53125q1.328125 -0.53125 2.71875 -0.53125q3.25 0 5.125 1.984375q1.890625 1.984375 1.890625 5.843754q0 0.375 -0.03125 0.828125q-0.015625 0.453125 -0.046875 0.796875l-9.8125 0q0.15625 1.328125 1.25 2.109375q1.109375 0.78125 2.96875 0.78125q1.1875 0 2.328125 -0.203125q1.140625 -0.21875 1.875 -0.546875l0.578125 3.515625q-0.34375 0.171875 -0.9375 0.34375q-0.578125 0.171875 -1.296875 0.296875q-0.703125 0.140625 -1.515625 0.21875q-0.8125 0.09375 -1.625 0.09375q-2.046875 0 -3.578125 -0.609375q-1.515625 -0.609375 -2.515625 -1.65625q-1.0 -1.0625 -1.484375 -2.515625q-0.46875 -1.453125 -0.46875 -3.140625zm10.140625 -1.640625q-0.03125 -0.5625 -0.1875 -1.078125q-0.15625 -0.53125 -0.5 -0.9375038q-0.328125 -0.40625 -0.84375 -0.65625q-0.5 -0.265625 -1.25 -0.265625q-0.71875 0 -1.25 0.25q-0.515625 0.25 -0.875 0.65625q-0.34375 0.4062538 -0.53125 0.9375038q-0.1875 0.53125 -0.28125 1.09375l5.71875 0zm13.5338745 6.140625q0.640625 0 1.21875 -0.03125q0.578125 -0.03125 0.921875 -0.078125l0 -3.28125q-0.25 -0.0625 -0.78125 -0.109375q-0.515625 -0.0625 -0.953125 -0.0625q-0.609375 0 -1.15625 0.078125q-0.53125 0.0625 -0.9375 0.265625q-0.40625 0.203125 -0.640625 0.546875q-0.21875 0.34375 -0.21875 0.875q0 1.015625 0.671875 1.40625q0.6875 0.390625 1.875 0.390625zm-0.34375 -12.640629q1.90625 0 3.1875 0.4375q1.28125 0.421875 2.046875 1.234375q0.765625 0.8125 1.078125 1.984375q0.328125 1.1562538 0.328125 2.5781288l0 8.984375q-0.9375 0.203125 -2.59375 0.46875q-1.640625 0.28125 -4.0 0.28125q-1.46875 0 -2.671875 -0.265625q-1.203125 -0.25 -2.078125 -0.84375q-0.875 -0.59375 -1.34375 -1.546875q-0.453125 -0.96875 -0.453125 -2.359375q0 -1.328125 0.53125 -2.25q0.546875 -0.9375 1.4375 -1.484375q0.90625 -0.546875 2.0625 -0.796875q1.15625 -0.25 2.40625 -0.25q0.84375 0 1.484375 0.078125q0.65625 0.0625 1.0625 0.1875l0 -0.40625q0 -1.109375 -0.671875 -1.7656288q-0.65625 -0.671875 -2.3125 -0.671875q-1.09375 0 -2.171875 0.15625q-1.078125 0.15625 -1.859375 0.453125l-0.546875 -3.484375q0.375 -0.109375 0.9375 -0.234375q0.5625 -0.140625 1.234375 -0.234375q0.671875 -0.109375 1.40625 -0.171875q0.734375 -0.078125 1.5 -0.078125zm15.10907 12.546879q1.1875 0 1.671875 -0.21875q0.5 -0.234375 0.5 -0.90625q0 -0.515625 -0.640625 -0.90625q-0.625 -0.390625 -1.9375 -0.890625q-1.015625 -0.375 -1.84375 -0.78125q-0.828125 -0.40625 -1.40625 -0.96875q-0.578125 -0.578125 -0.90625 -1.359375q-0.3125 -0.78125 -0.3125 -1.8750038q0 -2.15625 1.59375 -3.390625q1.609375 -1.25 4.390625 -1.25q1.390625 0 2.65625 0.25q1.28125 0.234375 2.03125 0.53125l-0.75 3.359375q-0.75 -0.265625 -1.640625 -0.46875q-0.875 -0.203125 -1.984375 -0.203125q-2.03125 0 -2.03125 1.140625q0 0.2656288 0.078125 0.4687538q0.09375 0.203125 0.359375 0.390625q0.265625 0.1875 0.703125 0.40625q0.453125 0.21875 1.15625 0.46875q1.421875 0.53125 2.34375 1.046875q0.9375 0.5 1.46875 1.09375q0.53125 0.59375 0.75 1.3125q0.21875 0.71875 0.21875 1.6875q0 2.265625 -1.703125 3.421875q-1.6875 1.15625 -4.796875 1.15625q-2.03125 0 -3.375 -0.359375q-1.34375 -0.34375 -1.875 -0.5625l0.734375 -3.515625q1.09375 0.4375 2.25 0.6875q1.171875 0.234375 2.296875 0.234375zm22.864746 2.59375q-1.09375 0.3125 -2.84375 0.578125q-1.734375 0.28125 -3.640625 0.28125q-1.953125 0 -3.25 -0.515625q-1.28125 -0.53125 -2.046875 -1.46875q-0.75 -0.9375 -1.0625 -2.234375q-0.3125 -1.3125 -0.3125 -2.875l0 -8.500004l4.3125 0l0 7.968754q0 2.09375 0.546875 3.03125q0.5625 0.921875 2.0625 0.921875q0.46875 0 0.984375 -0.046875q0.53125 -0.046875 0.9375 -0.109375l0 -11.765629l4.3125 0l0 14.734379zm13.446136 -10.906254q-0.578125 -0.15625 -1.359375 -0.3125q-0.78125 -0.15625 -1.6875 -0.15625q-0.40625 0 -0.96875 0.078125q-0.5625 0.0625 -0.859375 0.15625l0 11.656254l-4.3125 0l0 -14.437504q1.15625 -0.40625 2.734375 -0.765625q1.578125 -0.375 3.53125 -0.375q0.34375 0 0.828125 0.046875q0.5 0.046875 0.984375 0.125q0.5 0.0625 0.984375 0.171875q0.5 0.09375 0.859375 0.234375l-0.734375 3.578125zm2.4702148 3.9062538q0 -2.03125 0.609375 -3.5468788q0.625 -1.53125 1.640625 -2.53125q1.015625 -1.015625 2.328125 -1.53125q1.328125 -0.53125 2.71875 -0.53125q3.25 0 5.125 1.984375q1.890625 1.984375 1.890625 5.843754q0 0.375 -0.03125 0.828125q-0.015625 0.453125 -0.046875 0.796875l-9.8125 0q0.15625 1.328125 1.25 2.109375q1.109375 0.78125 2.96875 0.78125q1.1875 0 2.328125 -0.203125q1.140625 -0.21875 1.875 -0.546875l0.578125 3.515625q-0.34375 0.171875 -0.9375 0.34375q-0.578125 0.171875 -1.296875 0.296875q-0.703125 0.140625 -1.515625 0.21875q-0.8125 0.09375 -1.625 0.09375q-2.046875 0 -3.578125 -0.609375q-1.515625 -0.609375 -2.515625 -1.65625q-1.0 -1.0625 -1.484375 -2.515625q-0.46875 -1.453125 -0.46875 -3.140625zm10.140625 -1.640625q-0.03125 -0.5625 -0.1875 -1.078125q-0.15625 -0.53125 -0.5 -0.9375038q-0.328125 -0.40625 -0.84375 -0.65625q-0.5 -0.265625 -1.25 -0.265625q-0.71875 0 -1.25 0.25q-0.515625 0.25 -0.875 0.65625q-0.34375 0.4062538 -0.53125 0.9375038q-0.1875 0.53125 -0.28125 1.09375l5.71875 0z" fill-rule="nonzero"></path><path fill="#f0e7d5" d="m225.55118 305.7172l0 0c0 -28.344818 45.617615 -51.32283 101.88977 -51.32283l0 0c56.272156 0 101.88977 22.978012 101.88977 51.32283l0 0c0 28.344818 -45.617615 51.322845 -101.88977 51.322845l0 0c-56.272156 0 -101.88977 -22.978027 -101.88977 -51.322845z" fill-rule="nonzero"></path><path stroke="#ffffff" stroke-width="1.0" stroke-linejoin="round" stroke-linecap="butt" d="m225.55118 305.7172l0 0c0 -28.344818 45.617615 -51.32283 101.88977 -51.32283l0 0c56.272156 0 101.88977 22.978012 101.88977 51.32283l0 0c0 28.344818 -45.617615 51.322845 -101.88977 51.322845l0 0c-56.272156 0 -101.88977 -22.978027 -101.88977 -51.322845z" fill-rule="nonzero"></path><path fill="#000000" d="m275.007 305.9422q0 1.390625 0.328125 2.5q0.34375 1.09375 0.96875 1.890625q0.640625 0.796875 1.5625 1.234375q0.921875 0.421875 2.109375 0.421875q1.15625 0 2.078125 -0.421875q0.9375 -0.4375 1.5625 -1.234375q0.640625 -0.796875 0.984375 -1.890625q0.34375 -1.109375 0.34375 -2.5q0 -1.375 -0.34375 -2.484375q-0.34375 -1.125 -0.984375 -1.921875q-0.625 -0.796875 -1.5625 -1.21875q-0.921875 -0.4375 -2.078125 -0.4375q-1.1875 0 -2.109375 0.453125q-0.921875 0.4375 -1.5625 1.234375q-0.625 0.796875 -0.96875 1.921875q-0.328125 1.109375 -0.328125 2.453125zm14.28125 0q0 2.40625 -0.71875 4.234375q-0.71875 1.8125 -1.96875 3.046875q-1.234375 1.234375 -2.953125 1.859375q-1.703125 0.609375 -3.671875 0.609375q-1.921875 0 -3.625 -0.609375q-1.703125 -0.625 -2.96875 -1.859375q-1.265625 -1.234375 -2.0 -3.046875q-0.734375 -1.828125 -0.734375 -4.234375q0 -2.390625 0.75 -4.21875q0.765625 -1.828125 2.046875 -3.0625q1.28125 -1.25 2.96875 -1.859375q1.6875 -0.625 3.5625 -0.625q1.90625 0 3.609375 0.625q1.703125 0.609375 2.96875 1.859375q1.265625 1.234375 2.0 3.0625q0.734375 1.828125 0.734375 4.21875zm12.05838 2.375q0 -1.859375 -0.84375 -2.96875q-0.828125 -1.125 -2.46875 -1.125q-0.546875 0 -1.015625 0.046875q-0.453125 0.03125 -0.75 0.078125l0 7.265625q0.390625 0.25 0.984375 0.421875q0.609375 0.15625 1.234375 0.15625q2.859375 0 2.859375 -3.875zm4.109375 -0.09375q0 1.640625 -0.40625 3.0q-0.40625 1.34375 -1.1875 2.3125q-0.78125 0.96875 -1.953125 1.515625q-1.15625 0.53125 -2.65625 0.53125q-0.84375 0 -1.578125 -0.15625q-0.71875 -0.15625 -1.40625 -0.453125l0 5.34375l-4.015625 0l0 -18.71875q0.546875 -0.15625 1.234375 -0.296875q0.703125 -0.15625 1.46875 -0.265625q0.78125 -0.109375 1.578125 -0.171875q0.796875 -0.078125 1.515625 -0.078125q1.765625 0 3.140625 0.53125q1.375 0.53125 2.3125 1.484375q0.953125 0.953125 1.453125 2.34375q0.5 1.375 0.5 3.078125zm2.7565613 -10.640625l4.03125 -0.65625l0 4.1875l4.828125 0l0 3.34375l-4.828125 0l0 5.0q0 1.265625 0.4375 2.03125q0.453125 0.75 1.796875 0.75q0.65625 0 1.34375 -0.125q0.6875 -0.125 1.25 -0.328125l0.5625 3.125q-0.71875 0.296875 -1.609375 0.515625q-0.890625 0.21875 -2.1875 0.21875q-1.65625 0 -2.734375 -0.4375q-1.078125 -0.453125 -1.734375 -1.25q-0.640625 -0.796875 -0.90625 -1.921875q-0.25 -1.140625 -0.25 -2.53125l0 -11.921875zm15.991577 17.734375l-4.015625 0l0 -14.203125l4.015625 0l0 14.203125zm0.390625 -18.3125q0 1.109375 -0.71875 1.75q-0.71875 0.625 -1.6875 0.625q-0.96875 0 -1.6875 -0.625q-0.71875 -0.640625 -0.71875 -1.75q0 -1.09375 0.71875 -1.734375q0.71875 -0.640625 1.6875 -0.640625q0.96875 0 1.6875 0.640625q0.71875 0.640625 0.71875 1.734375zm11.094238 10.78125q0 -1.953125 -0.5 -2.75q-0.5 -0.8125 -1.703125 -0.8125q-0.390625 0 -0.796875 0.046875q-0.390625 0.03125 -0.78125 0.078125l0 10.96875l-4.015625 0l0 -13.71875q0.515625 -0.125 1.203125 -0.265625q0.6875 -0.15625 1.453125 -0.28125q0.765625 -0.125 1.578125 -0.1875q0.8125 -0.078125 1.59375 -0.078125q1.546875 0 2.5 0.390625q0.953125 0.390625 1.578125 0.9375q0.859375 -0.625 1.984375 -0.96875q1.125 -0.359375 2.0625 -0.359375q1.703125 0 2.796875 0.484375q1.09375 0.46875 1.734375 1.328125q0.65625 0.859375 0.890625 2.046875q0.25 1.1875 0.25 2.65625l0 8.015625l-4.015625 0l0 -7.53125q0 -1.953125 -0.5 -2.75q-0.5 -0.8125 -1.71875 -0.8125q-0.328125 0 -0.90625 0.171875q-0.578125 0.15625 -0.953125 0.390625q0.1875 0.625 0.234375 1.3125q0.0625 0.6875 0.0625 1.46875l0 7.75l-4.03125 0l0 -7.53125zm19.19635 7.53125l-4.015625 0l0 -14.203125l4.015625 0l0 14.203125zm0.390625 -18.3125q0 1.109375 -0.71875 1.75q-0.71875 0.625 -1.6875 0.625q-0.96875 0 -1.6875 -0.625q-0.71875 -0.640625 -0.71875 -1.75q0 -1.09375 0.71875 -1.734375q0.71875 -0.640625 1.6875 -0.640625q0.96875 0 1.6875 0.640625q0.71875 0.640625 0.71875 1.734375zm13.969269 6.8125q-0.5 0.53125 -1.328125 1.453125q-0.8125 0.921875 -1.765625 2.03125q-0.9375 1.109375 -1.90625 2.328125q-0.953125 1.203125 -1.734375 2.34375l6.859375 0l0 3.34375l-11.75 0l0 -2.375q0.578125 -0.96875 1.375 -2.09375q0.796875 -1.125 1.671875 -2.25q0.875 -1.140625 1.734375 -2.203125q0.875 -1.0625 1.59375 -1.9375l-6.046875 0l0 -3.34375l11.296875 0l0 2.703125zm1.984314 4.5q0 -1.890625 0.578125 -3.296875q0.578125 -1.421875 1.515625 -2.359375q0.953125 -0.953125 2.171875 -1.4375q1.234375 -0.484375 2.53125 -0.484375q3.03125 0 4.78125 1.859375q1.7500305 1.84375 1.7500305 5.421875q0 0.359375 -0.03125 0.78125q-0.015625 0.40625 -0.046875 0.734375l-9.1250305 0q0.140625 1.25 1.15625 1.984375q1.03125 0.71875 2.765625 0.71875q1.109375 0 2.171875 -0.203125q1.0625 -0.203125 1.734375 -0.5l0.5469055 3.265625q-0.328125 0.171875 -0.8750305 0.328125q-0.53125 0.15625 -1.203125 0.28125q-0.65625 0.125 -1.40625 0.203125q-0.75 0.078125 -1.515625 0.078125q-1.921875 0 -3.34375 -0.5625q-1.40625 -0.5625 -2.34375 -1.546875q-0.921875 -1.0 -1.375 -2.34375q-0.4375 -1.34375 -0.4375 -2.921875zm9.453125 -1.53125q-0.03125 -0.515625 -0.1875 -1.0q-0.140625 -0.484375 -0.453125 -0.859375q-0.3125 -0.375 -0.78125 -0.625q-0.46875 -0.25 -1.171875 -0.25q-0.6875 0 -1.171875 0.234375q-0.484375 0.234375 -0.8125 0.609375q-0.3125 0.375 -0.5 0.875q-0.171875 0.5 -0.25 1.015625l5.328125 0z" fill-rule="nonzero"></path><path fill="#f0e7d5" d="m15.948267 182.27524l0 0c0 -28.344818 45.6176 -51.32283 101.88976 -51.32283l0 0c56.27217 0 101.88977 22.978012 101.88977 51.32283l0 0c0 28.344818 -45.6176 51.322845 -101.88977 51.322845l0 0c-56.27216 0 -101.88976 -22.978027 -101.88976 -51.322845z" fill-rule="nonzero"></path><path stroke="#ffffff" stroke-width="1.0" stroke-linejoin="round" stroke-linecap="butt" d="m15.948267 182.27524l0 0c0 -28.344818 45.6176 -51.32283 101.88976 -51.32283l0 0c56.27217 0 101.88977 22.978012 101.88977 51.32283l0 0c0 28.344818 -45.6176 51.322845 -101.88977 51.322845l0 0c-56.27216 0 -101.88976 -22.978027 -101.88976 -51.322845z" fill-rule="nonzero"></path><path fill="#000000" d="m95.224625 177.05212q-3.546875 0 -5.40625 -1.96875q-1.859375 -1.984375 -1.859375 -5.609375q0 -1.8125 0.5625 -3.21875q0.578125 -1.421875 1.5625 -2.390625q0.984375 -0.984375 2.34375 -1.484375q1.375 -0.515625 2.96875 -0.515625q0.921875 0 1.671875 0.140625q0.765625 0.140625 1.328125 0.3125q0.5625 0.171875 0.9375 0.375q0.390625 0.1875 0.5625 0.28125l-0.953125 2.65625q-0.671875 -0.359375 -1.5625 -0.609375q-0.890625 -0.25 -2.03125 -0.25q-0.75 0 -1.484375 0.25q-0.71875 0.25 -1.28125 0.8125q-0.546875 0.546875 -0.890625 1.4375q-0.328125 0.875 -0.328125 2.140625q0 1.0 0.21875 1.875q0.21875 0.875 0.703125 1.5q0.5 0.625 1.296875 1.0q0.796875 0.359375 1.9375 0.359375q0.71875 0 1.28125 -0.078125q0.5625 -0.078125 1.0 -0.1875q0.453125 -0.125 0.78125 -0.265625q0.34375 -0.15625 0.609375 -0.28125l0.90625 2.625q-0.6875 0.421875 -1.953125 0.765625q-1.265625 0.328125 -2.921875 0.328125zm6.9769287 -0.296875l0 -15.796875l3.125 -0.5l0 5.296875q0.3125 -0.109375 0.8125 -0.203125q0.5 -0.09375 0.953125 -0.09375q1.34375 0 2.234375 0.375q0.890625 0.359375 1.421875 1.03125q0.546875 0.671875 0.765625 1.59375q0.21875 0.921875 0.21875 2.0625l0 6.234375l-3.125 0l0 -5.859375q0 -1.515625 -0.390625 -2.140625q-0.390625 -0.625 -1.4375 -0.625q-0.421875 0 -0.796875 0.078125q-0.359375 0.0625 -0.65625 0.140625l0 8.40625l-3.125 0zm12.031067 -5.4375q0 -1.46875 0.453125 -2.5625q0.453125 -1.109375 1.1875 -1.84375q0.734375 -0.734375 1.6875 -1.109375q0.96875 -0.390625 1.96875 -0.390625q2.359375 0 3.71875 1.4375q1.359375 1.4375 1.359375 4.234375q0 0.28125 -0.015625 0.609375q-0.015625 0.3125 -0.046875 0.5625l-7.09375 0q0.109375 0.96875 0.90625 1.546875q0.796875 0.5625 2.140625 0.5625q0.859375 0 1.6875 -0.15625q0.828125 -0.15625 1.359375 -0.390625l0.421875 2.53125q-0.25 0.140625 -0.671875 0.265625q-0.421875 0.125 -0.9375 0.21875q-0.515625 0.09375 -1.109375 0.15625q-0.578125 0.0625 -1.171875 0.0625q-1.484375 0 -2.59375 -0.4375q-1.09375 -0.453125 -1.828125 -1.21875q-0.71875 -0.765625 -1.078125 -1.8125q-0.34375 -1.046875 -0.34375 -2.265625zm7.359375 -1.203125q-0.015625 -0.390625 -0.140625 -0.765625q-0.109375 -0.390625 -0.359375 -0.671875q-0.234375 -0.296875 -0.609375 -0.484375q-0.359375 -0.1875 -0.90625 -0.1875q-0.53125 0 -0.90625 0.171875q-0.375 0.171875 -0.625 0.46875q-0.25 0.296875 -0.390625 0.6875q-0.140625 0.390625 -0.203125 0.78125l4.140625 0zm5.096298 1.125q0 -1.203125 0.390625 -2.265625q0.390625 -1.0625 1.125 -1.84375q0.734375 -0.796875 1.78125 -1.25q1.0625 -0.46875 2.40625 -0.46875q0.875 0 1.609375 0.15625q0.734375 0.15625 1.4375 0.453125l-0.65625 2.5q-0.4375 -0.171875 -0.96875 -0.296875q-0.53125 -0.125 -1.171875 -0.125q-1.390625 0 -2.078125 0.859375q-0.671875 0.859375 -0.671875 2.28125q0 1.484375 0.640625 2.3125q0.640625 0.8125 2.234375 0.8125q0.5625 0 1.21875 -0.109375q0.65625 -0.109375 1.1875 -0.328125l0.453125 2.5625q-0.546875 0.21875 -1.375 0.390625q-0.8125 0.171875 -1.796875 0.171875q-1.515625 0 -2.609375 -0.453125q-1.09375 -0.453125 -1.796875 -1.21875q-0.703125 -0.78125 -1.03125 -1.84375q-0.328125 -1.0625 -0.328125 -2.296875zm14.320358 -1.546875q0.46875 -0.5 0.953125 -1.046875q0.5 -0.546875 0.953125 -1.078125q0.46875 -0.53125 0.875 -1.015625q0.421875 -0.484375 0.703125 -0.84375l3.71875 0q-1.109375 1.28125 -2.171875 2.453125q-1.0625 1.15625 -2.3125 2.40625q0.625 0.5625 1.296875 1.359375q0.671875 0.78125 1.296875 1.625q0.640625 0.828125 1.15625 1.671875q0.53125 0.84375 0.890625 1.53125l-3.59375 0q-0.34375 -0.546875 -0.78125 -1.203125q-0.421875 -0.671875 -0.90625 -1.328125q-0.484375 -0.65625 -1.015625 -1.265625q-0.53125 -0.609375 -1.0625 -1.03125l0 4.828125l-3.125 0l0 -15.796875l3.125 -0.5l0 9.234375z" fill-rule="nonzero"></path><path fill="#000000" d="m58.821934 197.23962q0 -1.203125 0.390625 -2.265625q0.390625 -1.0625 1.125 -1.84375q0.734375 -0.796875 1.78125 -1.25q1.0625 -0.46875 2.4062462 -0.46875q0.875 0 1.609375 0.15625q0.734375 0.15625 1.4375 0.453125l-0.65625 2.5q-0.4375 -0.171875 -0.96875 -0.296875q-0.53125 -0.125 -1.171875 -0.125q-1.3906212 0 -2.0781212 0.859375q-0.671875 0.859375 -0.671875 2.28125q0 1.484375 0.640625 2.3125q0.640625 0.8125 2.2343712 0.8125q0.5625 0 1.21875 -0.109375q0.65625 -0.109375 1.1875 -0.328125l0.453125 2.5625q-0.546875 0.21875 -1.375 0.390625q-0.8125 0.171875 -1.796875 0.171875q-1.5156212 0 -2.6093712 -0.453125q-1.09375 -0.453125 -1.796875 -1.21875q-0.703125 -0.78125 -1.03125 -1.84375q-0.328125 -1.0625 -0.328125 -2.296875zm21.52348 -0.03125q0 1.3125 -0.375 2.390625q-0.375 1.078125 -1.09375 1.84375q-0.703125 0.765625 -1.703125 1.1875q-1.0 0.421875 -2.234375 0.421875q-1.21875 0 -2.21875 -0.421875q-1.0 -0.421875 -1.71875 -1.1875q-0.703125 -0.765625 -1.109375 -1.84375q-0.40625 -1.078125 -0.40625 -2.390625q0 -1.296875 0.40625 -2.359375q0.421875 -1.078125 1.140625 -1.828125q0.734375 -0.765625 1.71875 -1.1875q1.0 -0.421875 2.1875 -0.421875q1.1875 0 2.1875 0.421875q1.0 0.421875 1.703125 1.1875q0.71875 0.75 1.109375 1.828125q0.40625 1.0625 0.40625 2.359375zm-3.1875 0q0 -1.453125 -0.578125 -2.28125q-0.578125 -0.828125 -1.640625 -0.828125q-1.078125 0 -1.671875 0.828125q-0.578125 0.828125 -0.578125 2.28125q0 1.453125 0.578125 2.3125q0.59375 0.84375 1.671875 0.84375q1.0625 0 1.640625 -0.84375q0.578125 -0.859375 0.578125 -2.3125zm12.461853 -2.734375q-0.421875 -0.09375 -0.984375 -0.203125q-0.5625 -0.125 -1.21875 -0.125q-0.296875 0 -0.703125 0.0625q-0.40625 0.046875 -0.625 0.109375l0 8.4375l-3.125 0l0 -10.453125q0.84375 -0.296875 1.984375 -0.5625q1.140625 -0.265625 2.546875 -0.265625q0.265625 0 0.609375 0.03125q0.359375 0.03125 0.71875 0.09375q0.359375 0.046875 0.71875 0.125q0.359375 0.0625 0.609375 0.171875l-0.53125 2.578125zm9.000504 0q-0.421875 -0.09375 -0.984375 -0.203125q-0.5625 -0.125 -1.21875 -0.125q-0.296875 0 -0.703125 0.0625q-0.40625 0.046875 -0.625 0.109375l0 8.4375l-3.125 0l0 -10.453125q0.84375 -0.296875 1.984375 -0.5625q1.140625 -0.265625 2.546875 -0.265625q0.265625 0 0.609375 0.03125q0.359375 0.03125 0.71875 0.09375q0.359375 0.046875 0.71875 0.125q0.359375 0.0625 0.609375 0.171875l-0.53125 2.578125zm1.8130035 2.84375q0 -1.46875 0.453125 -2.5625q0.453125 -1.109375 1.1875 -1.84375q0.734375 -0.734375 1.6875 -1.109375q0.96875 -0.390625 1.96875 -0.390625q2.359375 0 3.71875 1.4375q1.359375 1.4375 1.359375 4.234375q0 0.28125 -0.015625 0.609375q-0.015625 0.3125 -0.046875 0.5625l-7.09375 0q0.109375 0.96875 0.90625 1.546875q0.796875 0.5625 2.140625 0.5625q0.859375 0 1.6875 -0.15625q0.828125 -0.15625 1.359375 -0.390625l0.421875 2.53125q-0.25 0.140625 -0.671875 0.265625q-0.421875 0.125 -0.9375 0.21875q-0.515625 0.09375 -1.109375 0.15625q-0.578125 0.0625 -1.171875 0.0625q-1.484375 0 -2.59375 -0.4375q-1.09375 -0.453125 -1.828125 -1.21875q-0.71875 -0.765625 -1.078125 -1.8125q-0.34375 -1.046875 -0.34375 -2.265625zm7.359375 -1.203125q-0.015625 -0.390625 -0.140625 -0.765625q-0.109375 -0.390625 -0.359375 -0.671875q-0.234375 -0.296875 -0.609375 -0.484375q-0.359375 -0.1875 -0.90625 -0.1875q-0.53125 0 -0.90625 0.171875q-0.375 0.171875 -0.625 0.46875q-0.25 0.296875 -0.390625 0.6875q-0.140625 0.390625 -0.203125 0.78125l4.140625 0zm5.096298 1.125q0 -1.203125 0.390625 -2.265625q0.390625 -1.0625 1.125 -1.84375q0.734375 -0.796875 1.78125 -1.25q1.0625 -0.46875 2.40625 -0.46875q0.875 0 1.609375 0.15625q0.734375 0.15625 1.4375 0.453125l-0.65625 2.5q-0.4375 -0.171875 -0.96875 -0.296875q-0.53125 -0.125 -1.171875 -0.125q-1.390625 0 -2.078125 0.859375q-0.671875 0.859375 -0.671875 2.28125q0 1.484375 0.640625 2.3125q0.640625 0.8125 2.234375 0.8125q0.5625 0 1.21875 -0.109375q0.65625 -0.109375 1.1875 -0.328125l0.453125 2.5625q-0.546875 0.21875 -1.375 0.390625q-0.8125 0.171875 -1.796875 0.171875q-1.515625 0 -2.609375 -0.453125q-1.09375 -0.453125 -1.796875 -1.21875q-0.703125 -0.78125 -1.03125 -1.84375q-0.328125 -1.0625 -0.328125 -2.296875zm11.085983 -8.28125l3.140625 -0.5l0 3.25l3.75 0l0 2.609375l-3.75 0l0 3.875q0 1.0 0.34375 1.59375q0.34375 0.578125 1.390625 0.578125q0.5 0 1.03125 -0.09375q0.546875 -0.09375 0.984375 -0.265625l0.4375 2.4375q-0.5625 0.234375 -1.265625 0.390625q-0.6875 0.171875 -1.6875 0.171875q-1.28125 0 -2.125 -0.34375q-0.84375 -0.34375 -1.34375 -0.96875q-0.5 -0.625 -0.703125 -1.5q-0.203125 -0.875 -0.203125 -1.953125l0 -9.28125zm9.579102 3.125q0.796875 -0.234375 2.046875 -0.421875q1.265625 -0.203125 2.65625 -0.203125q1.40625 0 2.34375 0.375q0.9375 0.359375 1.484375 1.03125q0.546875 0.671875 0.765625 1.59375q0.234375 0.921875 0.234375 2.0625l0 6.234375l-3.125 0l0 -5.859375q0 -1.515625 -0.40625 -2.140625q-0.390625 -0.625 -1.484375 -0.625q-0.328125 0 -0.71875 0.03125q-0.375 0.03125 -0.671875 0.0625l0 8.53125l-3.125 0l0 -10.671875zm12.031067 5.234375q0 -1.46875 0.453125 -2.5625q0.453125 -1.109375 1.1875 -1.84375q0.734375 -0.734375 1.6875 -1.109375q0.96875 -0.390625 1.96875 -0.390625q2.359375 0 3.71875 1.4375q1.359375 1.4375 1.359375 4.234375q0 0.28125 -0.015625 0.609375q-0.015625 0.3125 -0.046875 0.5625l-7.09375 0q0.109375 0.96875 0.90625 1.546875q0.796875 0.5625 2.140625 0.5625q0.859375 0 1.6875 -0.15625q0.828125 -0.15625 1.359375 -0.390625l0.421875 2.53125q-0.25 0.140625 -0.671875 0.265625q-0.421875 0.125 -0.9375 0.21875q-0.515625 0.09375 -1.109375 0.15625q-0.578125 0.0625 -1.171875 0.0625q-1.484375 0 -2.59375 -0.4375q-1.09375 -0.453125 -1.828125 -1.21875q-0.71875 -0.765625 -1.078125 -1.8125q-0.34375 -1.046875 -0.34375 -2.265625zm7.359375 -1.203125q-0.015625 -0.390625 -0.140625 -0.765625q-0.109375 -0.390625 -0.359375 -0.671875q-0.234375 -0.296875 -0.609375 -0.484375q-0.359375 -0.1875 -0.90625 -0.1875q-0.53125 0 -0.90625 0.171875q-0.375 0.171875 -0.625 0.46875q-0.25 0.296875 -0.390625 0.6875q-0.140625 0.390625 -0.203125 0.78125l4.140625 0zm8.799423 4.390625q0.859375 0 1.21875 -0.15625q0.359375 -0.171875 0.359375 -0.65625q0 -0.375 -0.46875 -0.65625q-0.453125 -0.296875 -1.40625 -0.65625q-0.734375 -0.265625 -1.328125 -0.5625q-0.59375 -0.296875 -1.015625 -0.703125q-0.421875 -0.40625 -0.65625 -0.96875q-0.234375 -0.578125 -0.234375 -1.375q0 -1.546875 1.15625 -2.453125q1.15625 -0.90625 3.171875 -0.90625q1.015625 0 1.9375 0.1875q0.921875 0.171875 1.46875 0.390625l-0.546875 2.421875q-0.546875 -0.1875 -1.1875 -0.328125q-0.640625 -0.140625 -1.4375 -0.140625q-1.46875 0 -1.46875 0.8125q0 0.1875 0.0625 0.34375q0.0625 0.140625 0.25 0.28125q0.1875 0.125 0.515625 0.28125q0.328125 0.15625 0.828125 0.359375q1.03125 0.375 1.703125 0.75q0.671875 0.359375 1.0625 0.796875q0.390625 0.421875 0.546875 0.953125q0.15625 0.515625 0.15625 1.203125q0 1.640625 -1.234375 2.484375q-1.234375 0.84375 -3.46875 0.84375q-1.46875 0 -2.453125 -0.25q-0.96875 -0.25 -1.359375 -0.421875l0.53125 -2.546875q0.796875 0.3125 1.640625 0.5q0.84375 0.171875 1.65625 0.171875zm10.344177 0q0.859375 0 1.21875 -0.15625q0.359375 -0.171875 0.359375 -0.65625q0 -0.375 -0.46875 -0.65625q-0.453125 -0.296875 -1.40625 -0.65625q-0.734375 -0.265625 -1.328125 -0.5625q-0.59375 -0.296875 -1.015625 -0.703125q-0.421875 -0.40625 -0.65625 -0.96875q-0.234375 -0.578125 -0.234375 -1.375q0 -1.546875 1.15625 -2.453125q1.15625 -0.90625 3.171875 -0.90625q1.0156403 0 1.9375153 0.1875q0.921875 0.171875 1.46875 0.390625l-0.546875 2.421875q-0.546875 -0.1875 -1.1875 -0.328125q-0.640625 -0.140625 -1.4375153 -0.140625q-1.46875 0 -1.46875 0.8125q0 0.1875 0.0625 0.34375q0.0625 0.140625 0.25 0.28125q0.1875 0.125 0.515625 0.28125q0.328125 0.15625 0.828125 0.359375q1.0312653 0.375 1.7031403 0.75q0.671875 0.359375 1.0625 0.796875q0.390625 0.421875 0.546875 0.953125q0.15625 0.515625 0.15625 1.203125q0 1.640625 -1.234375 2.484375q-1.234375 0.84375 -3.4687653 0.84375q-1.46875 0 -2.453125 -0.25q-0.96875 -0.25 -1.359375 -0.421875l0.53125 -2.546875q0.796875 0.3125 1.640625 0.5q0.84375 0.171875 1.65625 0.171875z" fill-rule="nonzero"></path><path fill="#f0e7d5" d="m425.5152 182.27464l0 0c0 -28.344818 45.617584 -51.32283 101.88977 -51.32283l0 0c56.272156 0 101.88977 22.978012 101.88977 51.32283l0 0c0 28.344818 -45.617615 51.32283 -101.88977 51.32283l0 0c-56.272186 0 -101.88977 -22.978012 -101.88977 -51.32283z" fill-rule="nonzero"></path><path stroke="#ffffff" stroke-width="1.0" stroke-linejoin="round" stroke-linecap="butt" d="m425.5152 182.27464l0 0c0 -28.344818 45.617584 -51.32283 101.88977 -51.32283l0 0c56.272156 0 101.88977 22.978012 101.88977 51.32283l0 0c0 28.344818 -45.617615 51.32283 -101.88977 51.32283l0 0c-56.272186 0 -101.88977 -22.978012 -101.88977 -51.32283z" fill-rule="nonzero"></path><path fill="#000000" d="m484.0911 193.99464q-0.34375 -1.15625 -0.78125 -2.359375q-0.4375 -1.21875 -0.84375 -2.4375l-8.640625 0q-0.421875 1.21875 -0.859375 2.4375q-0.421875 1.203125 -0.78125 2.359375l-5.1875 0q1.25 -3.578125 2.375 -6.609375q1.125 -3.046875 2.1875 -5.734375q1.078125 -2.703125 2.109375 -5.109375q1.046875 -2.421875 2.171875 -4.71875l4.765625 0q1.09375 2.296875 2.140625 4.71875q1.0625 2.40625 2.125 5.109375q1.078125 2.6875 2.1875 5.734375q1.125 3.03125 2.375 6.609375l-5.34375 0zm-5.984375 -17.15625q-0.15625 0.484375 -0.484375 1.3125q-0.3125 0.828125 -0.734375 1.921875q-0.40625 1.09375 -0.90625 2.40625q-0.5 1.3125 -1.015625 2.75l6.3125 0q-0.515625 -1.4375 -1.0 -2.75q-0.46875 -1.3125 -0.90625 -2.40625q-0.4375 -1.09375 -0.765625 -1.921875q-0.3125 -0.828125 -0.5 -1.3125zm13.884552 0.90625q1.21875 -0.359375 3.140625 -0.65625q1.921875 -0.3125 4.03125 -0.3125q2.140625 0 3.5625 0.5625q1.4375 0.5625 2.265625 1.59375q0.828125 1.015625 1.171875 2.421875q0.359375 1.40625 0.359375 3.140625l0 9.5l-4.765625 0l0 -8.921875q0 -2.3125 -0.609375 -3.265625q-0.609375 -0.96875 -2.265625 -0.96875q-0.515625 0 -1.09375 0.046875q-0.578125 0.046875 -1.015625 0.125l0 12.984375l-4.78125 0l0 -16.25zm25.285522 12.921875q0.703125 0 1.34375 -0.03125q0.640625 -0.03125 1.03125 -0.09375l0 -3.625q-0.296875 -0.0625 -0.875 -0.125q-0.578125 -0.0625 -1.046875 -0.0625q-0.671875 0 -1.265625 0.078125q-0.59375 0.078125 -1.046875 0.3125q-0.4375 0.21875 -0.703125 0.609375q-0.25 0.375 -0.25 0.953125q0 1.125 0.75 1.5625q0.75 0.421875 2.0625 0.421875zm-0.390625 -13.953125q2.125 0 3.53125 0.484375q1.40625 0.484375 2.25 1.375q0.84375 0.890625 1.1875 2.171875q0.359375 1.28125 0.359375 2.84375l0 9.921875q-1.015625 0.234375 -2.84375 0.53125q-1.828125 0.3125 -4.40625 0.3125q-1.640625 0 -2.96875 -0.296875q-1.328125 -0.28125 -2.296875 -0.9375q-0.953125 -0.65625 -1.46875 -1.703125q-0.5 -1.0625 -0.5 -2.609375q0 -1.46875 0.578125 -2.484375q0.59375 -1.03125 1.578125 -1.640625q1.0 -0.609375 2.28125 -0.875q1.28125 -0.28125 2.65625 -0.28125q0.9375 0 1.65625 0.09375q0.71875 0.078125 1.171875 0.203125l0 -0.453125q0 -1.21875 -0.75 -1.953125q-0.734375 -0.734375 -2.546875 -0.734375q-1.21875 0 -2.40625 0.1875q-1.1875 0.171875 -2.046875 0.484375l-0.609375 -3.84375q0.421875 -0.125 1.046875 -0.265625q0.625 -0.140625 1.359375 -0.25q0.734375 -0.125 1.546875 -0.203125q0.8125 -0.078125 1.640625 -0.078125zm18.36792 17.59375q-2.078125 -0.03125 -3.375 -0.4375q-1.296875 -0.421875 -2.046875 -1.171875q-0.75 -0.75 -1.03125 -1.8125q-0.265625 -1.078125 -0.265625 -2.421875l0 -18.53125l4.78125 -0.765625l0 18.328125q0 0.640625 0.09375 1.15625q0.09375 0.515625 0.359375 0.875q0.28125 0.34375 0.78125 0.5625q0.515625 0.21875 1.375 0.296875l-0.671875 3.921875zm18.346375 -17.140625q-1.4375 4.859375 -3.015625 9.125q-1.5625 4.25 -3.421875 8.25q-0.671875 1.4375 -1.34375 2.4375q-0.671875 1.015625 -1.46875 1.671875q-0.796875 0.65625 -1.8125 0.953125q-1.0 0.3125 -2.34375 0.3125q-1.125 0 -2.078125 -0.21875q-0.9375 -0.203125 -1.546875 -0.453125l0.828125 -3.8125q0.75 0.265625 1.3125 0.359375q0.578125 0.09375 1.21875 0.09375q1.28125 0 1.96875 -0.6875q0.6875 -0.6875 1.171875 -1.90625q-1.625 -3.203125 -3.265625 -7.1875q-1.625 -3.984375 -3.078125 -8.9375l5.0625 0q0.328125 1.25 0.75 2.703125q0.4375 1.453125 0.90625 2.9375q0.484375 1.484375 0.984375 2.90625q0.5 1.40625 0.9375 2.546875q0.421875 -1.140625 0.859375 -2.546875q0.453125 -1.421875 0.890625 -2.90625q0.4375 -1.484375 0.828125 -2.9375q0.40625 -1.453125 0.71875 -2.703125l4.9375 0zm7.3946533 13.40625q1.3125 0 1.84375 -0.25q0.546875 -0.265625 0.546875 -1.0q0 -0.578125 -0.703125 -1.0q-0.703125 -0.4375 -2.140625 -0.984375q-1.125 -0.421875 -2.03125 -0.859375q-0.90625 -0.453125 -1.546875 -1.078125q-0.640625 -0.625 -1.0 -1.484375q-0.34375 -0.859375 -0.34375 -2.078125q0 -2.375 1.75 -3.75q1.765625 -1.375 4.828125 -1.375q1.546875 0 2.953125 0.28125q1.40625 0.265625 2.234375 0.578125l-0.828125 3.71875q-0.828125 -0.28125 -1.8125 -0.5q-0.96875 -0.234375 -2.1875 -0.234375q-2.234375 0 -2.234375 1.25q0 0.28125 0.09375 0.515625q0.09375 0.21875 0.375 0.421875q0.296875 0.203125 0.78125 0.453125q0.5 0.234375 1.265625 0.53125q1.578125 0.5625 2.59375 1.125q1.03125 0.5625 1.625 1.21875q0.59375 0.65625 0.828125 1.46875q0.234375 0.796875 0.234375 1.84375q0 2.5 -1.875 3.78125q-1.859375 1.28125 -5.28125 1.28125q-2.25 0 -3.734375 -0.390625q-1.484375 -0.375 -2.0625 -0.640625l0.796875 -3.875q1.21875 0.484375 2.5 0.765625q1.28125 0.265625 2.53125 0.265625zm9.879395 -4.859375q0 -2.25 0.6875 -3.921875q0.6875 -1.6875 1.8125 -2.796875q1.125 -1.125 2.578125 -1.703125q1.453125 -0.578125 2.984375 -0.578125q3.59375 0 5.671875 2.203125q2.078125 2.1875 2.078125 6.4375q0 0.421875 -0.03125 0.921875q-0.03125 0.484375 -0.0625 0.875l-10.8125 0q0.15625 1.46875 1.359375 2.34375q1.21875 0.859375 3.265625 0.859375q1.3125 0 2.578125 -0.234375q1.265625 -0.25 2.0625 -0.609375l0.640625 3.875q-0.375 0.1875 -1.015625 0.390625q-0.640625 0.1875 -1.421875 0.328125q-0.78125 0.140625 -1.6875 0.234375q-0.890625 0.109375 -1.78125 0.109375q-2.28125 0 -3.96875 -0.671875q-1.671875 -0.671875 -2.78125 -1.84375q-1.09375 -1.171875 -1.625 -2.765625q-0.53125 -1.609375 -0.53125 -3.453125zm11.203125 -1.828125q-0.03125 -0.609375 -0.21875 -1.1875q-0.171875 -0.578125 -0.546875 -1.015625q-0.359375 -0.453125 -0.921875 -0.734375q-0.546875 -0.296875 -1.390625 -0.296875q-0.796875 0 -1.375 0.28125q-0.578125 0.265625 -0.96875 0.71875q-0.375 0.4375 -0.578125 1.03125q-0.203125 0.59375 -0.296875 1.203125l6.296875 0z" fill-rule="nonzero"></path><path fill="#000000" fill-opacity="0.0" d="m117.83803 130.95241l107.71654 -66.77165" fill-rule="nonzero"></path><path stroke="#f0e7d5" stroke-width="4.0" stroke-linejoin="round" stroke-linecap="butt" d="m117.83803 130.95241l87.31781 -54.126823" fill-rule="evenodd"></path><path stroke="#f0e7d5" stroke-width="4.0" stroke-linecap="butt" d="m208.63681 82.441124l11.947601 -15.179451l-18.909561 3.9483643z" fill-rule="evenodd"></path><path fill="#000000" fill-opacity="0.0" d="m527.40497 233.59747l-98.078735 72.12598" fill-rule="nonzero"></path><path stroke="#f0e7d5" stroke-width="4.0" stroke-linejoin="round" stroke-linecap="butt" d="m527.40497 233.59749l-78.74396 57.907425" fill-rule="evenodd"></path><path stroke="#f0e7d5" stroke-width="4.0" stroke-linecap="butt" d="m444.7468 286.18228l-10.709625 16.076843l18.538025 -5.4315796z" fill-rule="evenodd"></path><path fill="#000000" fill-opacity="0.0" d="m225.55118 305.7172l-107.71653 -72.12598" fill-rule="nonzero"></path><path stroke="#f0e7d5" stroke-width="4.0" stroke-linejoin="round" stroke-linecap="butt" d="m225.55118 305.7172l-87.77428 -58.772842" fill-rule="evenodd"></path><path stroke="#f0e7d5" stroke-width="4.0" stroke-linecap="butt" d="m141.45287 241.45447l-18.759285 -4.6097565l11.407341 15.589523z" fill-rule="evenodd"></path><path fill="#000000" fill-opacity="0.0" d="m429.33063 64.18635l98.078735 66.77166" fill-rule="nonzero"></path><path stroke="#f0e7d5" stroke-width="4.0" stroke-linejoin="round" stroke-linecap="butt" d="m429.33063 64.18635l78.23987 53.26541" fill-rule="evenodd"></path><path stroke="#f0e7d5" stroke-width="4.0" stroke-linecap="butt" d="m503.85236 122.913185l18.723267 4.7540207l-11.287018 -15.676865z" fill-rule="evenodd"></path></g></svg>

