<?xml version="1.0" standalone="yes"?>

<svg version="1.1" viewBox="0.0 0.0 805.2992125984252 409.78477690288713" fill="none" stroke="none" stroke-linecap="square" stroke-miterlimit="10" xmlns="http://www.w3.org/2000/svg" xmlns:xlink="http://www.w3.org/1999/xlink"><clipPath id="p.0"><path d="m0 0l805.2992 0l0 409.7848l-805.2992 0l0 -409.7848z" clip-rule="nonzero"></path></clipPath><g clip-path="url(#p.0)"><path fill="#000000" fill-opacity="0.0" d="m0 0l805.2992 0l0 409.7848l-805.2992 0z" fill-rule="nonzero"></path><path fill="#000000" fill-opacity="0.0" d="m335.1244 7.3464565l201.7638 0l0 45.196854l-201.7638 0z" fill-rule="nonzero"></path><path stroke="#ff8d14" stroke-width="3.0" stroke-linejoin="round" stroke-linecap="butt" d="m335.1244 7.3464565l201.7638 0l0 45.196854l-201.7638 0z" fill-rule="nonzero"></path><path fill="#f0e7d5" d="m400.93097 29.143631q-0.421875 -0.09375 -0.984375 -0.203125q-0.5625 -0.125 -1.21875 -0.125q-0.296875 0 -0.703125 0.0625q-0.40625 0.046875 -0.625 0.109375l0 8.4375l-3.125 0l0 -10.453125q0.84375 -0.296875 1.984375 -0.5625q1.140625 -0.265625 2.546875 -0.265625q0.265625 0 0.609375 0.03125q0.359375 0.03125 0.71875 0.09375q0.359375 0.046875 0.71875 0.125q0.359375 0.0625 0.609375 0.171875l-0.53125 2.578125zm12.094269 0.96875q0 3.671875 -1.40625 5.640625q-1.390625 1.96875 -3.84375 1.96875q-2.46875 0 -3.859375 -1.96875q-1.390625 -1.96875 -1.390625 -5.640625q0 -1.828125 0.359375 -3.234375q0.375 -1.40625 1.0625 -2.359375q0.6875 -0.96875 1.65625 -1.46875q0.96875 -0.515625 2.171875 -0.515625q2.453125 0 3.84375 1.96875q1.40625 1.953125 1.40625 5.609375zm-3.203125 0q0 -1.09375 -0.109375 -1.984375q-0.09375 -0.890625 -0.328125 -1.53125q-0.234375 -0.65625 -0.640625 -1.015625q-0.390625 -0.359375 -0.96875 -0.359375q-0.59375 0 -0.984375 0.359375q-0.390625 0.359375 -0.640625 1.015625q-0.234375 0.640625 -0.34375 1.53125q-0.09375 0.890625 -0.09375 1.984375q0 1.09375 0.09375 2.0q0.109375 0.90625 0.34375 1.5625q0.25 0.640625 0.640625 1.0q0.390625 0.359375 0.984375 0.359375q0.578125 0 0.96875 -0.359375q0.40625 -0.359375 0.640625 -1.0q0.234375 -0.65625 0.328125 -1.5625q0.109375 -0.90625 0.109375 -2.0zm5.1300354 2.046875l9.875 0l0 2.625l-9.875 0l0 -2.625zm0 -4.609375l9.875 0l0 2.625l-9.875 0l0 -2.625zm12.020691 4.359375q0 -1.203125 0.390625 -2.265625q0.390625 -1.0625 1.125 -1.84375q0.734375 -0.796875 1.78125 -1.25q1.0625 -0.46875 2.40625 -0.46875q0.875 0 1.609375 0.15625q0.734375 0.15625 1.4375 0.453125l-0.65625 2.5q-0.4375 -0.171875 -0.96875 -0.296875q-0.53125 -0.125 -1.171875 -0.125q-1.390625 0 -2.078125 0.859375q-0.671875 0.859375 -0.671875 2.28125q0 1.484375 0.640625 2.3125q0.640625 0.8125 2.234375 0.8125q0.5625 0 1.21875 -0.109375q0.65625 -0.109375 1.1875 -0.328125l0.453125 2.5625q-0.546875 0.21875 -1.375 0.390625q-0.8125 0.171875 -1.796875 0.171875q-1.515625 0 -2.609375 -0.453125q-1.09375 -0.453125 -1.796875 -1.21875q-0.703125 -0.78125 -1.03125 -1.84375q-0.328125 -1.0625 -0.328125 -2.296875zm21.523468 -0.03125q0 1.3125 -0.375 2.390625q-0.375 1.078125 -1.09375 1.84375q-0.703125 0.765625 -1.703125 1.1875q-1.0 0.421875 -2.234375 0.421875q-1.21875 0 -2.21875 -0.421875q-1.0 -0.421875 -1.71875 -1.1875q-0.703125 -0.765625 -1.109375 -1.84375q-0.40625 -1.078125 -0.40625 -2.390625q0 -1.296875 0.40625 -2.359375q0.421875 -1.078125 1.140625 -1.828125q0.734375 -0.765625 1.71875 -1.1875q1.0 -0.421875 2.1875 -0.421875q1.1875 0 2.1875 0.421875q1.0 0.421875 1.703125 1.1875q0.71875 0.75 1.109375 1.828125q0.40625 1.0625 0.40625 2.359375zm-3.1875 0q0 -1.453125 -0.578125 -2.28125q-0.578125 -0.828125 -1.640625 -0.828125q-1.078125 0 -1.671875 0.828125q-0.578125 0.828125 -0.578125 2.28125q0 1.453125 0.578125 2.3125q0.59375 0.84375 1.671875 0.84375q1.0625 0 1.640625 -0.84375q0.578125 -0.859375 0.578125 -2.3125zm10.211853 5.75q-1.359375 -0.015625 -2.21875 -0.28125q-0.84375 -0.28125 -1.34375 -0.765625q-0.484375 -0.5 -0.671875 -1.203125q-0.171875 -0.703125 -0.171875 -1.59375l0 -12.15625l3.125 -0.5l0 12.03125q0 0.421875 0.0625 0.765625q0.0625 0.328125 0.234375 0.5625q0.1875 0.234375 0.515625 0.375q0.34375 0.140625 0.921875 0.1875l-0.453125 2.578125zm6.8022156 -11.453125q0.21875 -0.1875 0.53125 -0.40625q0.3125 -0.234375 0.640625 -0.453125q0.328125 -0.21875 0.65625 -0.390625q0.34375 -0.1875 0.59375 -0.265625l0.5 -0.171875l0.84375 2.609375l-0.5 0.171875q-0.28125 0.078125 -0.640625 0.125q-0.34375 0.03125 -0.75 0.046875q-0.40625 0.015625 -0.78125 0.015625q-0.375 0 -0.671875 0q0.25 0.15625 0.546875 0.390625q0.3125 0.21875 0.609375 0.453125q0.3125 0.234375 0.578125 0.5q0.28125 0.25 0.453125 0.484375l0.34375 0.4375l-2.234375 1.578125l-0.3125 -0.421875q-0.171875 -0.21875 -0.328125 -0.546875q-0.15625 -0.34375 -0.3125 -0.703125q-0.140625 -0.375 -0.25 -0.734375q-0.09375 -0.359375 -0.1875 -0.640625q-0.078125 0.28125 -0.1875 0.640625q-0.09375 0.359375 -0.25 0.734375q-0.140625 0.359375 -0.296875 0.703125q-0.15625 0.328125 -0.328125 0.546875l-0.3125 0.421875l-2.234375 -1.578125l0.34375 -0.4375q0.15625 -0.234375 0.421875 -0.484375q0.28125 -0.265625 0.578125 -0.5q0.3125 -0.234375 0.609375 -0.453125q0.3125 -0.234375 0.5625 -0.390625q-0.28125 0 -0.671875 0q-0.375 0 -0.78125 -0.015625q-0.390625 -0.015625 -0.75 -0.046875q-0.359375 -0.046875 -0.625 -0.125l-0.5 -0.171875l0.84375 -2.609375l0.5 0.171875q0.25 0.078125 0.578125 0.265625q0.34375 0.171875 0.671875 0.390625q0.328125 0.21875 0.625 0.453125q0.3125 0.21875 0.53125 0.40625q-0.09375 -0.28125 -0.21875 -0.640625q-0.109375 -0.375 -0.21875 -0.75q-0.109375 -0.375 -0.1875 -0.734375q-0.0625 -0.375 -0.0625 -0.65625l0 -0.515625l2.734375 0l0 0.515625q0 0.28125 -0.078125 0.65625q-0.078125 0.359375 -0.1875 0.734375q-0.09375 0.375 -0.21875 0.75q-0.109375 0.359375 -0.21875 0.640625zm15.191132 0.515625q0 0.796875 -0.328125 1.53125q-0.3125 0.734375 -0.8125 1.421875q-0.5 0.6875 -1.140625 1.3125q-0.625 0.625 -1.234375 1.203125q-0.3125 0.28125 -0.6875 0.65625q-0.359375 0.375 -0.703125 0.75q-0.328125 0.375 -0.59375 0.703125q-0.265625 0.328125 -0.328125 0.53125l6.265625 0l0 2.625l-9.703125 0q-0.046875 -0.234375 -0.046875 -0.578125q0 -0.359375 0 -0.515625q0 -1.0 0.328125 -1.84375q0.328125 -0.84375 0.84375 -1.5625q0.53125 -0.734375 1.1875 -1.359375q0.671875 -0.625 1.3125 -1.265625q0.515625 -0.484375 0.953125 -0.90625q0.4375 -0.4375 0.765625 -0.84375q0.34375 -0.40625 0.53125 -0.8125q0.1875 -0.40625 0.1875 -0.828125q0 -0.921875 -0.53125 -1.296875q-0.515625 -0.390625 -1.296875 -0.390625q-0.5625 0 -1.0625 0.1875q-0.484375 0.171875 -0.890625 0.421875q-0.40625 0.234375 -0.703125 0.484375q-0.296875 0.234375 -0.453125 0.375l-1.546875 -2.1875q0.921875 -0.859375 2.140625 -1.40625q1.234375 -0.5625 2.640625 -0.5625q1.28125 0 2.203125 0.296875q0.9375 0.296875 1.53125 0.828125q0.59375 0.53125 0.875 1.296875q0.296875 0.765625 0.296875 1.734375z" fill-rule="nonzero"></path><path fill="#000000" fill-opacity="0.0" d="m124.567955 69.97638l201.76376 0l0 45.196846l-201.76376 0z" fill-rule="nonzero"></path><path stroke="#ff8d14" stroke-width="3.0" stroke-linejoin="round" stroke-linecap="butt" d="m124.567955 69.97638l201.76376 0l0 45.196846l-201.76376 0z" fill-rule="nonzero"></path><path fill="#f0e7d5" d="m194.28828 91.77355q-0.421875 -0.09375 -0.984375 -0.203125q-0.5625 -0.125 -1.21875 -0.125q-0.296875 0 -0.703125 0.0625q-0.40625 0.046875 -0.625 0.109375l0 8.4375l-3.125 0l0 -10.453125q0.84375 -0.296875 1.984375 -0.5625q1.140625 -0.265625 2.546875 -0.265625q0.265625 0 0.609375 0.03125q0.359375 0.03125 0.71875 0.09375q0.359375 0.046875 0.71875 0.125q0.359375 0.0625 0.609375 0.171875l-0.53125 2.578125zm2.3442535 -3.25q0.609375 -0.25 1.265625 -0.578125q0.671875 -0.328125 1.296875 -0.703125q0.625 -0.390625 1.203125 -0.8125q0.578125 -0.4375 1.046875 -0.921875l2.1875 0l0 14.546875l-3.140625 0l0 -10.484375q-0.625 0.421875 -1.40625 0.78125q-0.765625 0.34375 -1.5 0.59375l-0.953125 -2.421875zm11.676926 6.265625l9.875 0l0 2.625l-9.875 0l0 -2.625zm0 -4.609375l9.875 0l0 2.625l-9.875 0l0 -2.625zm19.208176 1.59375q-0.421875 -0.09375 -0.984375 -0.203125q-0.5625 -0.125 -1.21875 -0.125q-0.296875 0 -0.703125 0.0625q-0.40625 0.046875 -0.625 0.109375l0 8.4375l-3.125 0l0 -10.453125q0.84375 -0.296875 1.984375 -0.5625q1.140625 -0.265625 2.546875 -0.265625q0.265625 0 0.609375 0.03125q0.359375 0.03125 0.71875 0.09375q0.359375 0.046875 0.71875 0.125q0.359375 0.0625 0.609375 0.171875l-0.53125 2.578125zm12.094254 0.96875q0 3.671875 -1.40625 5.640625q-1.390625 1.96875 -3.84375 1.96875q-2.46875 0 -3.859375 -1.96875q-1.390625 -1.96875 -1.390625 -5.640625q0 -1.828125 0.359375 -3.234375q0.375 -1.40625 1.0625 -2.359375q0.6875 -0.96875 1.65625 -1.46875q0.96875 -0.515625 2.171875 -0.515625q2.453125 0 3.84375 1.96875q1.40625 1.953125 1.40625 5.609375zm-3.203125 0q0 -1.09375 -0.109375 -1.984375q-0.09375 -0.890625 -0.328125 -1.53125q-0.234375 -0.65625 -0.640625 -1.015625q-0.390625 -0.359375 -0.96875 -0.359375q-0.59375 0 -0.984375 0.359375q-0.390625 0.359375 -0.640625 1.015625q-0.234375 0.640625 -0.34375 1.53125q-0.09375 0.890625 -0.09375 1.984375q0 1.09375 0.09375 2.0q0.109375 0.90625 0.34375 1.5625q0.25 0.640625 0.640625 1.0q0.390625 0.359375 0.984375 0.359375q0.578125 0 0.96875 -0.359375q0.40625 -0.359375 0.640625 -1.0q0.234375 -0.65625 0.328125 -1.5625q0.109375 -0.90625 0.109375 -2.0zm5.1300507 -0.265625l3.5 0l0 -3.890625l2.859375 0l0 3.890625l3.515625 0l0 2.625l-3.515625 0l0 3.875l-2.859375 0l0 -3.875l-3.5 0l0 -2.625zm12.551926 -3.953125q0.609375 -0.25 1.265625 -0.578125q0.67185974 -0.328125 1.2968597 -0.703125q0.625 -0.390625 1.203125 -0.8125q0.578125 -0.4375 1.046875 -0.921875l2.1875 0l0 14.546875l-3.140625 0l0 -10.484375q-0.625 0.421875 -1.40625 0.78125q-0.76560974 0.34375 -1.4999847 0.59375l-0.953125 -2.421875z" fill-rule="nonzero"></path><path fill="#000000" fill-opacity="0.0" d="m587.44885 69.97638l201.76373 0l0 45.196846l-201.76373 0z" fill-rule="nonzero"></path><path stroke="#f0e7d5" stroke-width="3.0" stroke-linejoin="round" stroke-linecap="butt" d="m587.44885 69.97638l201.76373 0l0 45.196846l-201.76373 0z" fill-rule="nonzero"></path><path fill="#f0e7d5" d="m609.98047 91.77355q-0.421875 -0.09375 -0.984375 -0.203125q-0.5625 -0.125 -1.21875 -0.125q-0.296875 0 -0.703125 0.0625q-0.40625 0.046875 -0.625 0.109375l0 8.4375l-3.125 0l0 -10.453125q0.84375 -0.296875 1.984375 -0.5625q1.140625 -0.265625 2.546875 -0.265625q0.265625 0 0.609375 0.03125q0.359375 0.03125 0.71875 0.09375q0.359375 0.046875 0.71875 0.125q0.359375 0.0625 0.609375 0.171875l-0.53125 2.578125zm8.438049 4.0q0 -0.609375 -0.28125 -1.078125q-0.265625 -0.484375 -0.9375 -0.796875q-0.671875 -0.3125 -1.8125 -0.46875q-1.125 -0.171875 -2.84375 -0.171875q0.21875 -1.953125 0.359375 -3.96875q0.15625 -2.015625 0.234375 -3.78125l7.875 0l0 2.625l-5.25 0q-0.03125 0.75 -0.09375 1.453125q-0.046875 0.703125 -0.109375 1.234375q3.0625 0.203125 4.515625 1.4375q1.46875 1.21875 1.46875 3.40625q0 1.015625 -0.359375 1.875q-0.359375 0.859375 -1.078125 1.484375q-0.703125 0.625 -1.78125 0.984375q-1.078125 0.359375 -2.53125 0.359375q-0.5625 0 -1.1875 -0.078125q-0.625 -0.0625 -1.203125 -0.1875q-0.578125 -0.109375 -1.046875 -0.234375q-0.453125 -0.125 -0.703125 -0.25l0.5625 -2.59375q0.53125 0.234375 1.390625 0.453125q0.859375 0.21875 2.0625 0.21875q1.453125 0 2.09375 -0.5625q0.65625 -0.578125 0.65625 -1.359375zm5.58313 -0.984375l9.875 0l0 2.625l-9.875 0l0 -2.625zm0 -4.609375l9.875 0l0 2.625l-9.875 0l0 -2.625zm16.95819 10.078125q-1.359375 -0.015625 -2.21875 -0.28125q-0.84375 -0.28125 -1.34375 -0.765625q-0.484375 -0.5 -0.671875 -1.203125q-0.171875 -0.703125 -0.171875 -1.59375l0 -12.15625l3.125 -0.5l0 12.03125q0 0.421875 0.0625 0.765625q0.0625 0.328125 0.234375 0.5625q0.1875 0.234375 0.515625 0.375q0.34375 0.140625 0.921875 0.1875l-0.453125 2.578125zm12.661621 -5.75q0 1.3125 -0.375 2.390625q-0.375 1.078125 -1.09375 1.84375q-0.703125 0.765625 -1.703125 1.1875q-1.0 0.421875 -2.234375 0.421875q-1.21875 0 -2.21875 -0.421875q-1.0 -0.421875 -1.71875 -1.1875q-0.703125 -0.765625 -1.109375 -1.84375q-0.40625 -1.078125 -0.40625 -2.390625q0 -1.296875 0.40625 -2.359375q0.421875 -1.078125 1.140625 -1.828125q0.734375 -0.765625 1.71875 -1.1875q1.0 -0.421875 2.1875 -0.421875q1.1875 0 2.1875 0.421875q1.0 0.421875 1.703125 1.1875q0.71875 0.75 1.109375 1.828125q0.40625 1.0625 0.40625 2.359375zm-3.1875 0q0 -1.453125 -0.578125 -2.28125q-0.578125 -0.828125 -1.640625 -0.828125q-1.078125 0 -1.671875 0.828125q-0.578125 0.828125 -0.578125 2.28125q0 1.453125 0.578125 2.3125q0.59375 0.84375 1.671875 0.84375q1.0625 0 1.640625 -0.84375q0.578125 -0.859375 0.578125 -2.3125zm10.024353 3.359375q0.46875 0 0.890625 -0.015625q0.421875 -0.015625 0.671875 -0.0625l0 -2.375q-0.1875 -0.046875 -0.578125 -0.078125q-0.375 -0.046875 -0.6875 -0.046875q-0.4375 0 -0.828125 0.0625q-0.390625 0.046875 -0.6875 0.1875q-0.296875 0.140625 -0.46875 0.40625q-0.15625 0.25 -0.15625 0.625q0 0.734375 0.484375 1.015625q0.5 0.28125 1.359375 0.28125zm-0.25 -9.15625q1.390625 0 2.3125 0.328125q0.921875 0.3125 1.46875 0.90625q0.5625 0.578125 0.796875 1.421875q0.234375 0.828125 0.234375 1.859375l0 6.515625q-0.671875 0.140625 -1.875 0.34375q-1.1875 0.203125 -2.890625 0.203125q-1.078125 0 -1.953125 -0.1875q-0.859375 -0.1875 -1.5 -0.625q-0.625 -0.4375 -0.96875 -1.125q-0.328125 -0.6875 -0.328125 -1.703125q0 -0.96875 0.390625 -1.640625q0.390625 -0.671875 1.03125 -1.0625q0.65625 -0.40625 1.5 -0.578125q0.84375 -0.171875 1.734375 -0.171875q0.609375 0 1.078125 0.046875q0.484375 0.046875 0.78125 0.140625l0 -0.296875q0 -0.796875 -0.484375 -1.28125q-0.484375 -0.484375 -1.6875 -0.484375q-0.796875 0 -1.578125 0.125q-0.765625 0.109375 -1.34375 0.3125l-0.390625 -2.515625q0.265625 -0.09375 0.671875 -0.1875q0.421875 -0.09375 0.90625 -0.15625q0.484375 -0.078125 1.015625 -0.125q0.53125 -0.0625 1.078125 -0.0625zm10.49762 5.734375q0 1.453125 0.640625 2.34375q0.65625 0.875 1.9375 0.875q0.421875 0 0.78125 -0.03125q0.359375 -0.03125 0.578125 -0.078125l0 -5.6875q-0.28125 -0.1875 -0.765625 -0.3125q-0.46875 -0.125 -0.953125 -0.125q-2.21875 0 -2.21875 3.015625zm7.078125 5.25q-0.421875 0.125 -0.96875 0.25q-0.546875 0.109375 -1.15625 0.1875q-0.59375 0.09375 -1.21875 0.140625q-0.609375 0.046875 -1.171875 0.046875q-1.375 0 -2.453125 -0.390625q-1.0625 -0.40625 -1.796875 -1.140625q-0.734375 -0.75 -1.125 -1.8125q-0.390625 -1.0625 -0.390625 -2.375q0 -1.34375 0.328125 -2.421875q0.34375 -1.09375 0.96875 -1.84375q0.640625 -0.765625 1.546875 -1.15625q0.921875 -0.40625 2.09375 -0.40625q0.65625 0 1.171875 0.125q0.515625 0.125 1.03125 0.359375l0 -5.0l3.140625 -0.5l0 15.9375zm6.225952 -5.921875q0 2.484375 0.765625 4.734375q0.78125 2.234375 2.046875 4.03125l-2.1875 1.40625q-1.78125 -2.078125 -2.75 -4.65625q-0.96875 -2.59375 -0.96875 -5.515625q0 -2.921875 0.96875 -5.5q0.96875 -2.578125 2.75 -4.65625l2.1875 1.40625q-1.265625 1.78125 -2.046875 4.03125q-0.765625 2.25 -0.765625 4.71875zm7.6709595 4.03125q0.859375 0 1.21875 -0.15625q0.359375 -0.171875 0.359375 -0.65625q0 -0.375 -0.46875 -0.65625q-0.453125 -0.296875 -1.40625 -0.65625q-0.734375 -0.265625 -1.328125 -0.5625q-0.59375 -0.296875 -1.015625 -0.703125q-0.421875 -0.40625 -0.65625 -0.96875q-0.234375 -0.578125 -0.234375 -1.375q0 -1.546875 1.15625 -2.453125q1.15625 -0.90625 3.171875 -0.90625q1.015625 0 1.9375 0.1875q0.921875 0.171875 1.46875 0.390625l-0.546875 2.421875q-0.546875 -0.1875 -1.1875 -0.328125q-0.640625 -0.140625 -1.4375 -0.140625q-1.46875 0 -1.46875 0.8125q0 0.1875 0.0625 0.34375q0.0625 0.140625 0.25 0.28125q0.1875 0.125 0.515625 0.28125q0.328125 0.15625 0.828125 0.359375q1.03125 0.375 1.703125 0.75q0.671875 0.359375 1.0625 0.796875q0.390625 0.421875 0.546875 0.953125q0.15625 0.515625 0.15625 1.203125q0 1.640625 -1.234375 2.484375q-1.234375 0.84375 -3.46875 0.84375q-1.46875 0 -2.453125 -0.25q-0.96875 -0.25 -1.359375 -0.421875l0.53125 -2.546875q0.796875 0.3125 1.640625 0.5q0.84375 0.171875 1.65625 0.171875zm14.250427 -3.1875q0 -1.453125 -0.65625 -2.3125q-0.640625 -0.875 -1.921875 -0.875q-0.421875 0 -0.78125 0.03125q-0.359375 0.03125 -0.59375 0.0625l0 5.65625q0.296875 0.1875 0.765625 0.3125q0.484375 0.125 0.96875 0.125q2.21875 0 2.21875 -3.0zm3.1875 -0.078125q0 1.28125 -0.3125 2.328125q-0.3125 1.046875 -0.921875 1.8125q-0.609375 0.75 -1.515625 1.171875q-0.90625 0.40625 -2.078125 0.40625q-0.640625 0 -1.21875 -0.125q-0.5625 -0.125 -1.09375 -0.34375l0 4.15625l-3.125 0l0 -14.5625q0.421875 -0.125 0.96875 -0.234375q0.546875 -0.125 1.140625 -0.203125q0.59375 -0.078125 1.21875 -0.125q0.625 -0.0625 1.1875 -0.0625q1.359375 0 2.421875 0.40625q1.078125 0.40625 1.8125 1.15625q0.75 0.75 1.125 1.828125q0.390625 1.0625 0.390625 2.390625zm2.5072632 -8.28125l3.140625 -0.5l0 3.25l3.75 0l0 2.609375l-3.75 0l0 3.875q0 1.0 0.34375 1.59375q0.34375 0.578125 1.390625 0.578125q0.5 0 1.03125 -0.09375q0.546875 -0.09375 0.984375 -0.265625l0.4375 2.4375q-0.5625 0.234375 -1.265625 0.390625q-0.6875 0.171875 -1.6875 0.171875q-1.28125 0 -2.125 -0.34375q-0.84375 -0.34375 -1.34375 -0.96875q-0.5 -0.625 -0.703125 -1.5q-0.203125 -0.875 -0.203125 -1.953125l0 -9.28125zm16.235352 5.515625q-0.421875 -0.09375 -0.984375 -0.203125q-0.5625 -0.125 -1.21875 -0.125q-0.296875 0 -0.703125 0.0625q-0.40625 0.046875 -0.625 0.109375l0 8.4375l-3.125 0l0 -10.453125q0.84375 -0.296875 1.984375 -0.5625q1.140625 -0.265625 2.546875 -0.265625q0.265625 0 0.609375 0.03125q0.359375 0.03125 0.71875 0.09375q0.359375 0.046875 0.71875 0.125q0.359375 0.0625 0.609375 0.171875l-0.53125 2.578125zm2.3442383 -3.25q0.609375 -0.25 1.265625 -0.578125q0.671875 -0.328125 1.296875 -0.703125q0.625 -0.390625 1.203125 -0.8125q0.578125 -0.4375 1.046875 -0.921875l2.1875 0l0 14.546875l-3.140625 0l0 -10.484375q-0.625 0.421875 -1.40625 0.78125q-0.765625 0.34375 -1.5 0.59375l-0.953125 -2.421875zm15.083191 8.34375q0.03125 0.5 0.046875 0.71875q0.015625 0.203125 0.015625 0.34375q0 0.640625 -0.125 1.34375q-0.109375 0.703125 -0.328125 1.40625q-0.203125 0.71875 -0.515625 1.421875q-0.3125 0.71875 -0.71875 1.375l-2.453125 -0.609375q0.484375 -1.390625 0.671875 -2.609375q0.1875 -1.21875 0.1875 -2.015625q0 -0.125 -0.015625 -0.3125q0 -0.203125 -0.015625 -0.40625q-0.015625 -0.21875 -0.03125 -0.40625q0 -0.1875 0 -0.25l3.28125 0zm8.934204 -5.09375q-0.421875 -0.09375 -0.984375 -0.203125q-0.5625 -0.125 -1.21875 -0.125q-0.296875 0 -0.703125 0.0625q-0.40625 0.046875 -0.625 0.109375l0 8.4375l-3.125 0l0 -10.453125q0.84375 -0.296875 1.984375 -0.5625q1.140625 -0.265625 2.546875 -0.265625q0.265625 0 0.609375 0.03125q0.359375 0.03125 0.71875 0.09375q0.359375 0.046875 0.71875 0.125q0.359375 0.0625 0.609375 0.171875l-0.53125 2.578125zm12.094299 0.96875q0 3.671875 -1.40625 5.640625q-1.390625 1.96875 -3.84375 1.96875q-2.46875 0 -3.859375 -1.96875q-1.390625 -1.96875 -1.390625 -5.640625q0 -1.828125 0.359375 -3.234375q0.375 -1.40625 1.0625 -2.359375q0.6875 -0.96875 1.65625 -1.46875q0.96875 -0.515625 2.171875 -0.515625q2.453125 0 3.84375 1.96875q1.40625 1.953125 1.40625 5.609375zm-3.203125 0q0 -1.09375 -0.109375 -1.984375q-0.09375 -0.890625 -0.328125 -1.53125q-0.234375 -0.65625 -0.640625 -1.015625q-0.390625 -0.359375 -0.96875 -0.359375q-0.59375 0 -0.984375 0.359375q-0.390625 0.359375 -0.640625 1.015625q-0.234375 0.640625 -0.34375 1.53125q-0.09375 0.890625 -0.09375 1.984375q0 1.09375 0.09375 2.0q0.109375 0.90625 0.34375 1.5625q0.25 0.640625 0.640625 1.0q0.390625 0.359375 0.984375 0.359375q0.578125 0 0.96875 -0.359375q0.40625 -0.359375 0.640625 -1.0q0.234375 -0.65625 0.328125 -1.5625q0.109375 -0.90625 0.109375 -2.0zm7.02063 1.03125q0 -2.46875 -0.78125 -4.71875q-0.78125 -2.25 -2.03125 -4.03125l2.171875 -1.40625q1.796875 2.078125 2.75 4.65625q0.96875 2.578125 0.96875 5.5q0 2.921875 -0.96875 5.515625q-0.953125 2.578125 -2.75 4.65625l-2.171875 -1.40625q1.25 -1.796875 2.03125 -4.03125q0.78125 -2.25 0.78125 -4.734375z" fill-rule="nonzero"></path><path fill="#000000" fill-opacity="0.0" d="m14.898238 133.64043l201.76378 0l0 45.19684l-201.76378 0z" fill-rule="nonzero"></path><path stroke="#f0e7d5" stroke-width="3.0" stroke-linejoin="round" stroke-linecap="butt" d="m14.898238 133.64043l201.76378 0l0 45.19684l-201.76378 0z" fill-rule="nonzero"></path><path fill="#f0e7d5" d="m37.4299 155.43759q-0.421875 -0.09375 -0.984375 -0.203125q-0.5625 -0.125 -1.21875 -0.125q-0.296875 0 -0.703125 0.0625q-0.40625 0.046875 -0.625 0.109375l0 8.4375l-3.125002 0l0 -10.453125q0.84375 -0.296875 1.9843769 -0.5625q1.140625 -0.265625 2.546875 -0.265625q0.265625 0 0.609375 0.03125q0.359375 0.03125 0.71875 0.09375q0.359375 0.046875 0.71875 0.125q0.359375 0.0625 0.609375 0.171875l-0.53125 2.578125zm11.297379 -2.453125q0 0.796875 -0.328125 1.53125q-0.3125 0.734375 -0.8125 1.421875q-0.5 0.6875 -1.140625 1.3125q-0.625 0.625 -1.234375 1.203125q-0.3125 0.28125 -0.6875 0.65625q-0.359375 0.375 -0.703125 0.75q-0.328125 0.375 -0.59375 0.703125q-0.265625 0.328125 -0.328125 0.53125l6.265625 0l0 2.625l-9.703125 0q-0.046875 -0.234375 -0.046875 -0.578125q0 -0.359375 0 -0.515625q0 -1.0 0.328125 -1.84375q0.328125 -0.84375 0.84375 -1.5625q0.53125 -0.734375 1.1875 -1.359375q0.671875 -0.625 1.3125 -1.265625q0.515625 -0.484375 0.953125 -0.90625q0.4375 -0.4375 0.765625 -0.84375q0.34375 -0.40625 0.53125 -0.8125q0.1875 -0.40625 0.1875 -0.828125q0 -0.921875 -0.53125 -1.296875q-0.515625 -0.390625 -1.296875 -0.390625q-0.5625 0 -1.0625 0.1875q-0.484375 0.171875 -0.890625 0.421875q-0.40625 0.234375 -0.703125 0.484375q-0.296875 0.234375 -0.453125 0.375l-1.546875 -2.1875q0.921875 -0.859375 2.140625 -1.40625q1.234375 -0.5625 2.640625 -0.5625q1.28125 0 2.203125 0.296875q0.9375 0.296875 1.53125 0.828125q0.59375 0.53125 0.875 1.296875q0.296875 0.765625 0.296875 1.734375zm2.7238007 5.46875l9.875 0l0 2.625l-9.875 0l0 -2.625zm0 -4.609375l9.875 0l0 2.625l-9.875 0l0 -2.625zm16.958176 10.078125q-1.359375 -0.015625 -2.21875 -0.28125q-0.84375 -0.28125 -1.34375 -0.765625q-0.484375 -0.5 -0.671875 -1.203125q-0.171875 -0.703125 -0.171875 -1.59375l0 -12.15625l3.125 -0.5l0 12.03125q0 0.421875 0.0625 0.765625q0.0625 0.328125 0.234375 0.5625q0.1875 0.234375 0.515625 0.375q0.34375 0.140625 0.921875 0.1875l-0.453125 2.578125zm12.661591 -5.75q0 1.3125 -0.375 2.390625q-0.375 1.078125 -1.09375 1.84375q-0.703125 0.765625 -1.703125 1.1875q-1.0 0.421875 -2.234375 0.421875q-1.21875 0 -2.21875 -0.421875q-1.0 -0.421875 -1.71875 -1.1875q-0.703125 -0.765625 -1.109375 -1.84375q-0.40625 -1.078125 -0.40625 -2.390625q0 -1.296875 0.40625 -2.359375q0.421875 -1.078125 1.140625 -1.828125q0.734375 -0.765625 1.71875 -1.1875q1.0 -0.421875 2.1875 -0.421875q1.1875 0 2.1875 0.421875q1.0 0.421875 1.703125 1.1875q0.71875 0.75 1.109375 1.828125q0.40625 1.0625 0.40625 2.359375zm-3.1875 0q0 -1.453125 -0.578125 -2.28125q-0.578125 -0.828125 -1.640625 -0.828125q-1.078125 0 -1.671875 0.828125q-0.578125 0.828125 -0.578125 2.28125q0 1.453125 0.578125 2.3125q0.59375 0.84375 1.671875 0.84375q1.0625 0 1.640625 -0.84375q0.578125 -0.859375 0.578125 -2.3125zm10.024353 3.359375q0.46875 0 0.890625 -0.015625q0.421875 -0.015625 0.671875 -0.0625l0 -2.375q-0.1875 -0.046875 -0.578125 -0.078125q-0.375 -0.046875 -0.6875 -0.046875q-0.4375 0 -0.828125 0.0625q-0.390625 0.046875 -0.6875 0.1875q-0.296875 0.140625 -0.46875 0.40625q-0.15625 0.25 -0.15625 0.625q0 0.734375 0.484375 1.015625q0.5 0.28125 1.359375 0.28125zm-0.25 -9.15625q1.390625 0 2.3125 0.328125q0.921875 0.3125 1.46875 0.90625q0.5625 0.578125 0.796875 1.421875q0.234375 0.828125 0.234375 1.859375l0 6.515625q-0.671875 0.140625 -1.875 0.34375q-1.1875 0.203125 -2.890625 0.203125q-1.078125 0 -1.953125 -0.1875q-0.859375 -0.1875 -1.5 -0.625q-0.625 -0.4375 -0.96875 -1.125q-0.328125 -0.6875 -0.328125 -1.703125q0 -0.96875 0.390625 -1.640625q0.390625 -0.671875 1.03125 -1.0625q0.65625 -0.40625 1.5 -0.578125q0.84375 -0.171875 1.734375 -0.171875q0.609375 0 1.078125 0.046875q0.484375 0.046875 0.78125 0.140625l0 -0.296875q0 -0.796875 -0.484375 -1.28125q-0.484375 -0.484375 -1.6875 -0.484375q-0.796875 0 -1.578125 0.125q-0.765625 0.109375 -1.34375 0.3125l-0.390625 -2.515625q0.265625 -0.09375 0.671875 -0.1875q0.421875 -0.09375 0.90625 -0.15625q0.484375 -0.078125 1.015625 -0.125q0.53125 -0.0625 1.078125 -0.0625zm10.49762 5.734375q0 1.453125 0.640625 2.34375q0.65625 0.875 1.9375 0.875q0.421875 0 0.78125 -0.03125q0.359375 -0.03125 0.578125 -0.078125l0 -5.6875q-0.28125 -0.1875 -0.765625 -0.3125q-0.46875 -0.125 -0.953125 -0.125q-2.21875 0 -2.21875 3.015625zm7.078125 5.25q-0.421875 0.125 -0.96875 0.25q-0.546875 0.109375 -1.15625 0.1875q-0.59375 0.09375 -1.21875 0.140625q-0.609375 0.046875 -1.171875 0.046875q-1.375 0 -2.453125 -0.390625q-1.0625 -0.40625 -1.796875 -1.140625q-0.734375 -0.75 -1.125 -1.8125q-0.390625 -1.0625 -0.390625 -2.375q0 -1.34375 0.328125 -2.421875q0.34375 -1.09375 0.96875 -1.84375q0.640625 -0.765625 1.546875 -1.15625q0.921875 -0.40625 2.09375 -0.40625q0.65625 0 1.171875 0.125q0.515625 0.125 1.03125 0.359375l0 -5.0l3.140625 -0.5l0 15.9375zm6.2259827 -5.921875q0 2.484375 0.765625 4.734375q0.78125 2.234375 2.046875 4.03125l-2.1875 1.40625q-1.78125 -2.078125 -2.75 -4.65625q-0.96875 -2.59375 -0.96875 -5.515625q0 -2.921875 0.96875 -5.5q0.96875 -2.578125 2.75 -4.65625l2.1875 1.40625q-1.265625 1.78125 -2.046875 4.03125q-0.765625 2.25 -0.765625 4.71875zm7.6709747 4.03125q0.859375 0 1.21875 -0.15625q0.359375 -0.171875 0.359375 -0.65625q0 -0.375 -0.46875 -0.65625q-0.453125 -0.296875 -1.40625 -0.65625q-0.734375 -0.265625 -1.328125 -0.5625q-0.59375 -0.296875 -1.015625 -0.703125q-0.421875 -0.40625 -0.65625 -0.96875q-0.234375 -0.578125 -0.234375 -1.375q0 -1.546875 1.15625 -2.453125q1.15625 -0.90625 3.171875 -0.90625q1.015625 0 1.9375 0.1875q0.921875 0.171875 1.46875 0.390625l-0.546875 2.421875q-0.546875 -0.1875 -1.1875 -0.328125q-0.640625 -0.140625 -1.4375 -0.140625q-1.46875 0 -1.46875 0.8125q0 0.1875 0.0625 0.34375q0.0625 0.140625 0.25 0.28125q0.1875 0.125 0.515625 0.28125q0.328125 0.15625 0.828125 0.359375q1.03125 0.375 1.703125 0.75q0.671875 0.359375 1.0625 0.796875q0.390625 0.421875 0.546875 0.953125q0.15625 0.515625 0.15625 1.203125q0 1.640625 -1.234375 2.484375q-1.234375 0.84375 -3.46875 0.84375q-1.46875 0 -2.453125 -0.25q-0.96875 -0.25 -1.359375 -0.421875l0.53125 -2.546875q0.796875 0.3125 1.640625 0.5q0.84375 0.171875 1.65625 0.171875zm14.250427 -3.1875q0 -1.453125 -0.65625 -2.3125q-0.640625 -0.875 -1.921875 -0.875q-0.421875 0 -0.78125 0.03125q-0.359375 0.03125 -0.59375 0.0625l0 5.65625q0.296875 0.1875 0.765625 0.3125q0.484375 0.125 0.96875 0.125q2.21875 0 2.21875 -3.0zm3.1875 -0.078125q0 1.28125 -0.3125 2.328125q-0.3125 1.046875 -0.921875 1.8125q-0.609375 0.75 -1.515625 1.171875q-0.90625 0.40625 -2.078125 0.40625q-0.640625 0 -1.21875 -0.125q-0.5625 -0.125 -1.09375 -0.34375l0 4.15625l-3.125 0l0 -14.5625q0.421875 -0.125 0.96875 -0.234375q0.546875 -0.125 1.140625 -0.203125q0.59375 -0.078125 1.21875 -0.125q0.625 -0.0625 1.1875 -0.0625q1.359375 0 2.421875 0.40625q1.078125 0.40625 1.8125 1.15625q0.75 0.75 1.125 1.828125q0.390625 1.0625 0.390625 2.390625zm2.5072327 -8.28125l3.140625 -0.5l0 3.25l3.75 0l0 2.609375l-3.75 0l0 3.875q0 1.0 0.34375 1.59375q0.34375 0.578125 1.390625 0.578125q0.5 0 1.03125 -0.09375q0.546875 -0.09375 0.984375 -0.265625l0.4375 2.4375q-0.5625 0.234375 -1.265625 0.390625q-0.6875 0.171875 -1.6875 0.171875q-1.28125 0 -2.125 -0.34375q-0.84375 -0.34375 -1.34375 -0.96875q-0.5 -0.625 -0.703125 -1.5q-0.203125 -0.875 -0.203125 -1.953125l0 -9.28125zm16.235352 5.515625q-0.421875 -0.09375 -0.984375 -0.203125q-0.5625 -0.125 -1.21875 -0.125q-0.296875 0 -0.703125 0.0625q-0.40625 0.046875 -0.625 0.109375l0 8.4375l-3.125 0l0 -10.453125q0.84375 -0.296875 1.984375 -0.5625q1.140625 -0.265625 2.546875 -0.265625q0.265625 0 0.609375 0.03125q0.359375 0.03125 0.71875 0.09375q0.359375 0.046875 0.71875 0.125q0.359375 0.0625 0.609375 0.171875l-0.53125 2.578125zm2.3442535 -3.25q0.609375 -0.25 1.265625 -0.578125q0.671875 -0.328125 1.296875 -0.703125q0.625 -0.390625 1.203125 -0.8125q0.578125 -0.4375 1.046875 -0.921875l2.1875 0l0 14.546875l-3.140625 0l0 -10.484375q-0.625 0.421875 -1.40625 0.78125q-0.765625 0.34375 -1.5 0.59375l-0.953125 -2.421875zm15.083176 8.34375q0.03125 0.5 0.046875 0.71875q0.015625 0.203125 0.015625 0.34375q0 0.640625 -0.125 1.34375q-0.109375 0.703125 -0.328125 1.40625q-0.203125 0.71875 -0.515625 1.421875q-0.3125 0.71875 -0.71875 1.375l-2.453125 -0.609375q0.484375 -1.390625 0.671875 -2.609375q0.1875 -1.21875 0.1875 -2.015625q0 -0.125 -0.015625 -0.3125q0 -0.203125 -0.015625 -0.40625q-0.015625 -0.21875 -0.03125 -0.40625q0 -0.1875 0 -0.25l3.28125 0zm8.934235 -5.09375q-0.421875 -0.09375 -0.984375 -0.203125q-0.5625 -0.125 -1.21875 -0.125q-0.296875 0 -0.703125 0.0625q-0.40625 0.046875 -0.625 0.109375l0 8.4375l-3.125 0l0 -10.453125q0.84375 -0.296875 1.984375 -0.5625q1.140625 -0.265625 2.546875 -0.265625q0.265625 0 0.609375 0.03125q0.359375 0.03125 0.71875 0.09375q0.359375 0.046875 0.71875 0.125q0.359375 0.0625 0.609375 0.171875l-0.53125 2.578125zm2.3442535 -3.25q0.609375 -0.25 1.265625 -0.578125q0.671875 -0.328125 1.296875 -0.703125q0.625 -0.390625 1.203125 -0.8125q0.578125 -0.4375 1.046875 -0.921875l2.1875 0l0 14.546875l-3.140625 0l0 -10.484375q-0.625 0.421875 -1.40625 0.78125q-0.765625 0.34375 -1.5 0.59375l-0.953125 -2.421875zm13.567551 5.25q0 -2.46875 -0.78125 -4.71875q-0.78125 -2.25 -2.03125 -4.03125l2.171875 -1.40625q1.796875 2.078125 2.75 4.65625q0.96875 2.578125 0.96875 5.5q0 2.921875 -0.96875 5.515625q-0.953125 2.578125 -2.75 4.65625l-2.171875 -1.40625q1.25 -1.796875 2.03125 -4.03125q0.78125 -2.25 0.78125 -4.734375z" fill-rule="nonzero"></path><path fill="#000000" fill-opacity="0.0" d="m356.0067 70.49344l201.7638 0l0 45.196854l-201.7638 0z" fill-rule="nonzero"></path><path stroke="#f0e7d5" stroke-width="3.0" stroke-linejoin="round" stroke-linecap="butt" d="m356.0067 70.49344l201.7638 0l0 45.196854l-201.7638 0z" fill-rule="nonzero"></path><path fill="#f0e7d5" d="m378.53836 92.29061q-0.421875 -0.09375 -0.984375 -0.203125q-0.5625 -0.125 -1.21875 -0.125q-0.296875 0 -0.703125 0.0625q-0.40625 0.046875 -0.625 0.109375l0 8.4375l-3.125 0l0 -10.453125q0.84375 -0.296875 1.984375 -0.5625q1.140625 -0.265625 2.546875 -0.265625q0.265625 0 0.609375 0.03125q0.359375 0.03125 0.71875 0.09375q0.359375 0.046875 0.71875 0.125q0.359375 0.0625 0.609375 0.171875l-0.53125 2.578125zm7.578644 -2.453125q-0.828125 1.078125 -1.75 2.34375q-0.921875 1.25 -1.546875 2.578125l3.296875 0l0 -4.921875zm3.0625 -3.8125l0 8.734375l1.546875 0l0 2.5625l-1.546875 0l0 3.25l-3.0625 0l0 -3.25l-6.28125 0l0 -2.296875q0.453125 -0.921875 1.140625 -2.078125q0.703125 -1.171875 1.546875 -2.390625q0.859375 -1.234375 1.796875 -2.40625q0.953125 -1.1875 1.890625 -2.125l2.96875 0zm3.3800354 9.28125l9.875 0l0 2.625l-9.875 0l0 -2.625zm0 -4.609375l9.875 0l0 2.625l-9.875 0l0 -2.625zm16.95819 10.078125q-1.359375 -0.015625 -2.21875 -0.28125q-0.84375 -0.28125 -1.34375 -0.765625q-0.484375 -0.5 -0.671875 -1.203125q-0.171875 -0.703125 -0.171875 -1.59375l0 -12.15625l3.125 -0.5l0 12.03125q0 0.421875 0.0625 0.765625q0.0625 0.328125 0.234375 0.5625q0.1875 0.234375 0.515625 0.375q0.34375 0.140625 0.921875 0.1875l-0.453125 2.578125zm12.661591 -5.75q0 1.3125 -0.375 2.390625q-0.375 1.078125 -1.09375 1.84375q-0.703125 0.765625 -1.703125 1.1875q-1.0 0.421875 -2.234375 0.421875q-1.21875 0 -2.21875 -0.421875q-1.0 -0.421875 -1.71875 -1.1875q-0.703125 -0.765625 -1.109375 -1.84375q-0.40625 -1.078125 -0.40625 -2.390625q0 -1.296875 0.40625 -2.359375q0.421875 -1.078125 1.140625 -1.828125q0.734375 -0.765625 1.71875 -1.1875q1.0 -0.421875 2.1875 -0.421875q1.1875 0 2.1875 0.421875q1.0 0.421875 1.703125 1.1875q0.71875 0.75 1.109375 1.828125q0.40625 1.0625 0.40625 2.359375zm-3.1875 0q0 -1.453125 -0.578125 -2.28125q-0.578125 -0.828125 -1.640625 -0.828125q-1.078125 0 -1.671875 0.828125q-0.578125 0.828125 -0.578125 2.28125q0 1.453125 0.578125 2.3125q0.59375 0.84375 1.671875 0.84375q1.0625 0 1.640625 -0.84375q0.578125 -0.859375 0.578125 -2.3125zm10.024353 3.359375q0.46875 0 0.890625 -0.015625q0.421875 -0.015625 0.671875 -0.0625l0 -2.375q-0.1875 -0.046875 -0.578125 -0.078125q-0.375 -0.046875 -0.6875 -0.046875q-0.4375 0 -0.828125 0.0625q-0.390625 0.046875 -0.6875 0.1875q-0.296875 0.140625 -0.46875 0.40625q-0.15625 0.25 -0.15625 0.625q0 0.734375 0.484375 1.015625q0.5 0.28125 1.359375 0.28125zm-0.25 -9.15625q1.390625 0 2.3125 0.328125q0.921875 0.3125 1.46875 0.90625q0.5625 0.578125 0.796875 1.421875q0.234375 0.828125 0.234375 1.859375l0 6.515625q-0.671875 0.140625 -1.875 0.34375q-1.1875 0.203125 -2.890625 0.203125q-1.078125 0 -1.953125 -0.1875q-0.859375 -0.1875 -1.5 -0.625q-0.625 -0.4375 -0.96875 -1.125q-0.328125 -0.6875 -0.328125 -1.703125q0 -0.96875 0.390625 -1.640625q0.390625 -0.671875 1.03125 -1.0625q0.65625 -0.40625 1.5 -0.578125q0.84375 -0.171875 1.734375 -0.171875q0.609375 0 1.078125 0.046875q0.484375 0.046875 0.78125 0.140625l0 -0.296875q0 -0.796875 -0.484375 -1.28125q-0.484375 -0.484375 -1.6875 -0.484375q-0.796875 0 -1.578125 0.125q-0.765625 0.109375 -1.34375 0.3125l-0.390625 -2.515625q0.265625 -0.09375 0.671875 -0.1875q0.421875 -0.09375 0.90625 -0.15625q0.484375 -0.078125 1.015625 -0.125q0.53125 -0.0625 1.078125 -0.0625zm10.49762 5.734375q0 1.453125 0.640625 2.34375q0.65625 0.875 1.9375 0.875q0.421875 0 0.78125 -0.03125q0.359375 -0.03125 0.578125 -0.078125l0 -5.6875q-0.28125 -0.1875 -0.765625 -0.3125q-0.46875 -0.125 -0.953125 -0.125q-2.21875 0 -2.21875 3.015625zm7.078125 5.25q-0.421875 0.125 -0.96875 0.25q-0.546875 0.109375 -1.15625 0.1875q-0.59375 0.09375 -1.21875 0.140625q-0.609375 0.046875 -1.171875 0.046875q-1.375 0 -2.453125 -0.390625q-1.0625 -0.40625 -1.796875 -1.140625q-0.734375 -0.75 -1.125 -1.8125q-0.390625 -1.0625 -0.390625 -2.375q0 -1.34375 0.328125 -2.421875q0.34375 -1.09375 0.96875 -1.84375q0.640625 -0.765625 1.546875 -1.15625q0.921875 -0.40625 2.09375 -0.40625q0.65625 0 1.171875 0.125q0.515625 0.125 1.03125 0.359375l0 -5.0l3.140625 -0.5l0 15.9375zm6.2259827 -5.921875q0 2.484375 0.765625 4.734375q0.78125 2.234375 2.046875 4.03125l-2.1875 1.40625q-1.78125 -2.078125 -2.75 -4.65625q-0.96875 -2.59375 -0.96875 -5.515625q0 -2.921875 0.96875 -5.5q0.96875 -2.578125 2.75 -4.65625l2.1875 1.40625q-1.265625 1.78125 -2.046875 4.03125q-0.765625 2.25 -0.765625 4.71875zm7.6709595 4.03125q0.859375 0 1.21875 -0.15625q0.359375 -0.171875 0.359375 -0.65625q0 -0.375 -0.46875 -0.65625q-0.453125 -0.296875 -1.40625 -0.65625q-0.734375 -0.265625 -1.328125 -0.5625q-0.59375 -0.296875 -1.015625 -0.703125q-0.421875 -0.40625 -0.65625 -0.96875q-0.234375 -0.578125 -0.234375 -1.375q0 -1.546875 1.15625 -2.453125q1.15625 -0.90625 3.171875 -0.90625q1.015625 0 1.9375 0.1875q0.921875 0.171875 1.46875 0.390625l-0.546875 2.421875q-0.546875 -0.1875 -1.1875 -0.328125q-0.640625 -0.140625 -1.4375 -0.140625q-1.46875 0 -1.46875 0.8125q0 0.1875 0.0625 0.34375q0.0625 0.140625 0.25 0.28125q0.1875 0.125 0.515625 0.28125q0.328125 0.15625 0.828125 0.359375q1.03125 0.375 1.703125 0.75q0.671875 0.359375 1.0625 0.796875q0.390625 0.421875 0.546875 0.953125q0.15625 0.515625 0.15625 1.203125q0 1.640625 -1.234375 2.484375q-1.234375 0.84375 -3.46875 0.84375q-1.46875 0 -2.453125 -0.25q-0.96875 -0.25 -1.359375 -0.421875l0.53125 -2.546875q0.796875 0.3125 1.640625 0.5q0.84375 0.171875 1.65625 0.171875zm14.250427 -3.1875q0 -1.453125 -0.65625 -2.3125q-0.640625 -0.875 -1.921875 -0.875q-0.421875 0 -0.78125 0.03125q-0.359375 0.03125 -0.59375 0.0625l0 5.65625q0.296875 0.1875 0.765625 0.3125q0.484375 0.125 0.96875 0.125q2.21875 0 2.21875 -3.0zm3.1875 -0.078125q0 1.28125 -0.3125 2.328125q-0.3125 1.046875 -0.921875 1.8125q-0.609375 0.75 -1.515625 1.171875q-0.90625 0.40625 -2.078125 0.40625q-0.640625 0 -1.21875 -0.125q-0.5625 -0.125 -1.09375 -0.34375l0 4.15625l-3.125 0l0 -14.5625q0.421875 -0.125 0.96875 -0.234375q0.546875 -0.125 1.140625 -0.203125q0.59375 -0.078125 1.21875 -0.125q0.625 -0.0625 1.1875 -0.0625q1.359375 0 2.421875 0.40625q1.078125 0.40625 1.8125 1.15625q0.75 0.75 1.125 1.828125q0.390625 1.0625 0.390625 2.390625zm2.5072327 -8.28125l3.140625 -0.5l0 3.25l3.75 0l0 2.609375l-3.75 0l0 3.875q0 1.0 0.34375 1.59375q0.34375 0.578125 1.390625 0.578125q0.5 0 1.03125 -0.09375q0.546875 -0.09375 0.984375 -0.265625l0.4375 2.4375q-0.5625 0.234375 -1.265625 0.390625q-0.6875 0.171875 -1.6875 0.171875q-1.28125 0 -2.125 -0.34375q-0.84375 -0.34375 -1.34375 -0.96875q-0.5 -0.625 -0.703125 -1.5q-0.203125 -0.875 -0.203125 -1.953125l0 -9.28125zm16.235352 5.515625q-0.421875 -0.09375 -0.984375 -0.203125q-0.5625 -0.125 -1.21875 -0.125q-0.296875 0 -0.703125 0.0625q-0.40625 0.046875 -0.625 0.109375l0 8.4375l-3.125 0l0 -10.453125q0.84375 -0.296875 1.984375 -0.5625q1.140625 -0.265625 2.546875 -0.265625q0.265625 0 0.609375 0.03125q0.359375 0.03125 0.71875 0.09375q0.359375 0.046875 0.71875 0.125q0.359375 0.0625 0.609375 0.171875l-0.53125 2.578125zm12.094269 0.96875q0 3.671875 -1.40625 5.640625q-1.390625 1.96875 -3.84375 1.96875q-2.46875 0 -3.859375 -1.96875q-1.390625 -1.96875 -1.390625 -5.640625q0 -1.828125 0.359375 -3.234375q0.375 -1.40625 1.0625 -2.359375q0.6875 -0.96875 1.65625 -1.46875q0.96875 -0.515625 2.171875 -0.515625q2.453125 0 3.84375 1.96875q1.40625 1.953125 1.40625 5.609375zm-3.203125 0q0 -1.09375 -0.109375 -1.984375q-0.09375 -0.890625 -0.328125 -1.53125q-0.234375 -0.65625 -0.640625 -1.015625q-0.390625 -0.359375 -0.96875 -0.359375q-0.59375 0 -0.984375 0.359375q-0.390625 0.359375 -0.640625 1.015625q-0.234375 0.640625 -0.34375 1.53125q-0.09375 0.890625 -0.09375 1.984375q0 1.09375 0.09375 2.0q0.109375 0.90625 0.34375 1.5625q0.25 0.640625 0.640625 1.0q0.390625 0.359375 0.984375 0.359375q0.578125 0 0.96875 -0.359375q0.40625 -0.359375 0.640625 -1.0q0.234375 -0.65625 0.328125 -1.5625q0.109375 -0.90625 0.109375 -2.0zm8.536285 4.125q0.03125 0.5 0.046875 0.71875q0.015625 0.203125 0.015625 0.34375q0 0.640625 -0.125 1.34375q-0.109375 0.703125 -0.328125 1.40625q-0.203125 0.71875 -0.515625 1.421875q-0.3125 0.71875 -0.71875 1.375l-2.453125 -0.609375q0.484375 -1.390625 0.671875 -2.609375q0.1875 -1.21875 0.1875 -2.015625q0 -0.125 -0.015625 -0.3125q0 -0.203125 -0.015625 -0.40625q-0.015625 -0.21875 -0.03125 -0.40625q0 -0.1875 0 -0.25l3.28125 0zm8.934265 -5.09375q-0.421875 -0.09375 -0.984375 -0.203125q-0.5625 -0.125 -1.21875 -0.125q-0.296875 0 -0.703125 0.0625q-0.40625 0.046875 -0.625 0.109375l0 8.4375l-3.125 0l0 -10.453125q0.84375 -0.296875 1.984375 -0.5625q1.140625 -0.265625 2.546875 -0.265625q0.265625 0 0.609375 0.03125q0.359375 0.03125 0.71875 0.09375q0.359375 0.046875 0.71875 0.125q0.359375 0.0625 0.609375 0.171875l-0.53125 2.578125zm12.094238 0.96875q0 3.671875 -1.40625 5.640625q-1.390625 1.96875 -3.84375 1.96875q-2.46875 0 -3.859375 -1.96875q-1.390625 -1.96875 -1.390625 -5.640625q0 -1.828125 0.359375 -3.234375q0.375 -1.40625 1.0625 -2.359375q0.6875 -0.96875 1.65625 -1.46875q0.96875 -0.515625 2.171875 -0.515625q2.453125 0 3.84375 1.96875q1.40625 1.953125 1.40625 5.609375zm-3.203125 0q0 -1.09375 -0.109375 -1.984375q-0.09375 -0.890625 -0.328125 -1.53125q-0.234375 -0.65625 -0.640625 -1.015625q-0.390625 -0.359375 -0.96875 -0.359375q-0.59375 0 -0.984375 0.359375q-0.390625 0.359375 -0.640625 1.015625q-0.234375 0.640625 -0.34375 1.53125q-0.09375 0.890625 -0.09375 1.984375q0 1.09375 0.09375 2.0q0.109375 0.90625 0.34375 1.5625q0.25 0.640625 0.640625 1.0q0.390625 0.359375 0.984375 0.359375q0.578125 0 0.96875 -0.359375q0.40625 -0.359375 0.640625 -1.0q0.234375 -0.65625 0.328125 -1.5625q0.109375 -0.90625 0.109375 -2.0zm7.020691 1.03125q0 -2.46875 -0.78125 -4.71875q-0.78125 -2.25 -2.03125 -4.03125l2.171875 -1.40625q1.796875 2.078125 2.75 4.65625q0.96875 2.578125 0.96875 5.5q0 2.921875 -0.96875 5.515625q-0.953125 2.578125 -2.75 4.65625l-2.171875 -1.40625q1.25 -1.796875 2.03125 -4.03125q0.78125 -2.25 0.78125 -4.734375z" fill-rule="nonzero"></path><path fill="#000000" fill-opacity="0.0" d="m243.87082 133.63911l201.76376 0l0 45.19684l-201.76376 0z" fill-rule="nonzero"></path><path stroke="#ff8d14" stroke-width="3.0" stroke-linejoin="round" stroke-linecap="butt" d="m243.87082 133.63911l201.76376 0l0 45.19684l-201.76376 0z" fill-rule="nonzero"></path><path fill="#f0e7d5" d="m266.40247 155.43628q-0.421875 -0.09375 -0.984375 -0.203125q-0.5625 -0.125 -1.21875 -0.125q-0.296875 0 -0.703125 0.0625q-0.40625 0.046875 -0.625 0.109375l0 8.4375l-3.125 0l0 -10.453125q0.84375 -0.296875 1.984375 -0.5625q1.140625 -0.265625 2.546875 -0.265625q0.265625 0 0.609375 0.03125q0.359375 0.03125 0.71875 0.09375q0.359375 0.046875 0.71875 0.125q0.359375 0.0625 0.609375 0.171875l-0.53125 2.578125zm5.656769 8.59375q-0.5625 0 -1.1875 -0.078125q-0.625 -0.0625 -1.21875 -0.1875q-0.59375 -0.125 -1.078125 -0.265625q-0.484375 -0.15625 -0.75 -0.28125l0.609375 -2.609375q0.546875 0.234375 1.390625 0.5q0.859375 0.25 2.109375 0.25q1.453125 0 2.125 -0.53125q0.671875 -0.546875 0.671875 -1.484375q0 -0.5625 -0.25 -0.953125q-0.234375 -0.390625 -0.65625 -0.625q-0.421875 -0.234375 -1.0 -0.328125q-0.5625 -0.109375 -1.21875 -0.109375l-1.21875 0l0 -2.515625l1.390625 0q0.453125 0 0.875 -0.078125q0.4375 -0.09375 0.765625 -0.28125q0.34375 -0.203125 0.546875 -0.546875q0.203125 -0.34375 0.203125 -0.875q0 -0.40625 -0.171875 -0.6875q-0.171875 -0.296875 -0.4375 -0.484375q-0.25 -0.1875 -0.609375 -0.28125q-0.34375 -0.109375 -0.6875 -0.109375q-0.90625 0 -1.671875 0.28125q-0.765625 0.265625 -1.40625 0.671875l-1.109375 -2.296875q0.34375 -0.203125 0.78125 -0.4375q0.453125 -0.234375 1.0 -0.421875q0.546875 -0.1875 1.171875 -0.3125q0.625 -0.125 1.3125 -0.125q1.28125 0 2.21875 0.3125q0.9375 0.296875 1.53125 0.859375q0.609375 0.546875 0.90625 1.296875q0.296875 0.75 0.296875 1.625q0 0.859375 -0.484375 1.671875q-0.484375 0.8125 -1.296875 1.234375q1.125 0.453125 1.75 1.375q0.625 0.90625 0.625 2.1875q0 1.015625 -0.34375 1.875q-0.328125 0.84375 -1.046875 1.46875q-0.71875 0.609375 -1.828125 0.953125q-1.09375 0.34375 -2.609375 0.34375zm8.36441 -5.578125l9.875 0l0 2.625l-9.875 0l0 -2.625zm0 -4.609375l9.875 0l0 2.625l-9.875 0l0 -2.625zm16.95819 10.078125q-1.359375 -0.015625 -2.21875 -0.28125q-0.84375 -0.28125 -1.34375 -0.765625q-0.484375 -0.5 -0.671875 -1.203125q-0.171875 -0.703125 -0.171875 -1.59375l0 -12.15625l3.125 -0.5l0 12.03125q0 0.421875 0.0625 0.765625q0.0625 0.328125 0.234375 0.5625q0.1875 0.234375 0.515625 0.375q0.34375 0.140625 0.921875 0.1875l-0.453125 2.578125zm12.661591 -5.75q0 1.3125 -0.375 2.390625q-0.375 1.078125 -1.09375 1.84375q-0.703125 0.765625 -1.703125 1.1875q-1.0 0.421875 -2.234375 0.421875q-1.21875 0 -2.21875 -0.421875q-1.0 -0.421875 -1.71875 -1.1875q-0.703125 -0.765625 -1.109375 -1.84375q-0.40625 -1.078125 -0.40625 -2.390625q0 -1.296875 0.40625 -2.359375q0.421875 -1.078125 1.140625 -1.828125q0.734375 -0.765625 1.71875 -1.1875q1.0 -0.421875 2.1875 -0.421875q1.1875 0 2.1875 0.421875q1.0 0.421875 1.703125 1.1875q0.71875 0.75 1.109375 1.828125q0.40625 1.0625 0.40625 2.359375zm-3.1875 0q0 -1.453125 -0.578125 -2.28125q-0.578125 -0.828125 -1.640625 -0.828125q-1.078125 0 -1.671875 0.828125q-0.578125 0.828125 -0.578125 2.28125q0 1.453125 0.578125 2.3125q0.59375 0.84375 1.671875 0.84375q1.0625 0 1.640625 -0.84375q0.578125 -0.859375 0.578125 -2.3125zm10.024353 3.359375q0.46875 0 0.890625 -0.015625q0.421875 -0.015625 0.671875 -0.0625l0 -2.375q-0.1875 -0.046875 -0.578125 -0.078125q-0.375 -0.046875 -0.6875 -0.046875q-0.4375 0 -0.828125 0.0625q-0.390625 0.046875 -0.6875 0.1875q-0.296875 0.140625 -0.46875 0.40625q-0.15625 0.25 -0.15625 0.625q0 0.734375 0.484375 1.015625q0.5 0.28125 1.359375 0.28125zm-0.25 -9.15625q1.390625 0 2.3125 0.328125q0.921875 0.3125 1.46875 0.90625q0.5625 0.578125 0.796875 1.421875q0.234375 0.828125 0.234375 1.859375l0 6.515625q-0.671875 0.140625 -1.875 0.34375q-1.1875 0.203125 -2.890625 0.203125q-1.078125 0 -1.953125 -0.1875q-0.859375 -0.1875 -1.5 -0.625q-0.625 -0.4375 -0.96875 -1.125q-0.328125 -0.6875 -0.328125 -1.703125q0 -0.96875 0.390625 -1.640625q0.390625 -0.671875 1.03125 -1.0625q0.65625 -0.40625 1.5 -0.578125q0.84375 -0.171875 1.734375 -0.171875q0.609375 0 1.078125 0.046875q0.484375 0.046875 0.78125 0.140625l0 -0.296875q0 -0.796875 -0.484375 -1.28125q-0.484375 -0.484375 -1.6875 -0.484375q-0.796875 0 -1.578125 0.125q-0.765625 0.109375 -1.34375 0.3125l-0.390625 -2.515625q0.265625 -0.09375 0.671875 -0.1875q0.421875 -0.09375 0.90625 -0.15625q0.484375 -0.078125 1.015625 -0.125q0.53125 -0.0625 1.078125 -0.0625zm10.49762 5.734375q0 1.453125 0.640625 2.34375q0.65625 0.875 1.9375 0.875q0.421875 0 0.78125 -0.03125q0.359375 -0.03125 0.578125 -0.078125l0 -5.6875q-0.28125 -0.1875 -0.765625 -0.3125q-0.46875 -0.125 -0.953125 -0.125q-2.21875 0 -2.21875 3.015625zm7.078125 5.25q-0.421875 0.125 -0.96875 0.25q-0.546875 0.109375 -1.15625 0.1875q-0.59375 0.09375 -1.21875 0.140625q-0.609375 0.046875 -1.171875 0.046875q-1.375 0 -2.453125 -0.390625q-1.0625 -0.40625 -1.796875 -1.140625q-0.734375 -0.75 -1.125 -1.8125q-0.390625 -1.0625 -0.390625 -2.375q0 -1.34375 0.328125 -2.421875q0.34375 -1.09375 0.96875 -1.84375q0.640625 -0.765625 1.546875 -1.15625q0.921875 -0.40625 2.09375 -0.40625q0.65625 0 1.171875 0.125q0.515625 0.125 1.03125 0.359375l0 -5.0l3.140625 -0.5l0 15.9375zm6.2259827 -5.921875q0 2.484375 0.765625 4.734375q0.78125 2.234375 2.046875 4.03125l-2.1875 1.40625q-1.78125 -2.078125 -2.75 -4.65625q-0.96875 -2.59375 -0.96875 -5.515625q0 -2.921875 0.96875 -5.5q0.96875 -2.578125 2.75 -4.65625l2.1875 1.40625q-1.265625 1.78125 -2.046875 4.03125q-0.765625 2.25 -0.765625 4.71875zm7.6709595 4.03125q0.859375 0 1.21875 -0.15625q0.359375 -0.171875 0.359375 -0.65625q0 -0.375 -0.46875 -0.65625q-0.453125 -0.296875 -1.40625 -0.65625q-0.734375 -0.265625 -1.328125 -0.5625q-0.59375 -0.296875 -1.015625 -0.703125q-0.421875 -0.40625 -0.65625 -0.96875q-0.234375 -0.578125 -0.234375 -1.375q0 -1.546875 1.15625 -2.453125q1.15625 -0.90625 3.171875 -0.90625q1.015625 0 1.9375 0.1875q0.921875 0.171875 1.46875 0.390625l-0.546875 2.421875q-0.546875 -0.1875 -1.1875 -0.328125q-0.640625 -0.140625 -1.4375 -0.140625q-1.46875 0 -1.46875 0.8125q0 0.1875 0.0625 0.34375q0.0625 0.140625 0.25 0.28125q0.1875 0.125 0.515625 0.28125q0.328125 0.15625 0.828125 0.359375q1.03125 0.375 1.703125 0.75q0.671875 0.359375 1.0625 0.796875q0.390625 0.421875 0.546875 0.953125q0.15625 0.515625 0.15625 1.203125q0 1.640625 -1.234375 2.484375q-1.234375 0.84375 -3.46875 0.84375q-1.46875 0 -2.453125 -0.25q-0.96875 -0.25 -1.359375 -0.421875l0.53125 -2.546875q0.796875 0.3125 1.640625 0.5q0.84375 0.171875 1.65625 0.171875zm14.250427 -3.1875q0 -1.453125 -0.65625 -2.3125q-0.640625 -0.875 -1.921875 -0.875q-0.421875 0 -0.78125 0.03125q-0.359375 0.03125 -0.59375 0.0625l0 5.65625q0.296875 0.1875 0.765625 0.3125q0.484375 0.125 0.96875 0.125q2.21875 0 2.21875 -3.0zm3.1875 -0.078125q0 1.28125 -0.3125 2.328125q-0.3125 1.046875 -0.921875 1.8125q-0.609375 0.75 -1.515625 1.171875q-0.90625 0.40625 -2.078125 0.40625q-0.640625 0 -1.21875 -0.125q-0.5625 -0.125 -1.09375 -0.34375l0 4.15625l-3.125 0l0 -14.5625q0.421875 -0.125 0.96875 -0.234375q0.546875 -0.125 1.140625 -0.203125q0.59375 -0.078125 1.21875 -0.125q0.625 -0.0625 1.1875 -0.0625q1.359375 0 2.421875 0.40625q1.078125 0.40625 1.8125 1.15625q0.75 0.75 1.125 1.828125q0.390625 1.0625 0.390625 2.390625zm2.5072327 -8.28125l3.140625 -0.5l0 3.25l3.75 0l0 2.609375l-3.75 0l0 3.875q0 1.0 0.34375 1.59375q0.34375 0.578125 1.390625 0.578125q0.5 0 1.03125 -0.09375q0.546875 -0.09375 0.984375 -0.265625l0.4375 2.4375q-0.5625 0.234375 -1.265625 0.390625q-0.6875 0.171875 -1.6875 0.171875q-1.28125 0 -2.125 -0.34375q-0.84375 -0.34375 -1.34375 -0.96875q-0.5 -0.625 -0.703125 -1.5q-0.203125 -0.875 -0.203125 -1.953125l0 -9.28125zm16.235352 5.515625q-0.421875 -0.09375 -0.984375 -0.203125q-0.5625 -0.125 -1.21875 -0.125q-0.296875 0 -0.703125 0.0625q-0.40625 0.046875 -0.625 0.109375l0 8.4375l-3.125 0l0 -10.453125q0.84375 -0.296875 1.984375 -0.5625q1.140625 -0.265625 2.546875 -0.265625q0.265625 0 0.609375 0.03125q0.359375 0.03125 0.71875 0.09375q0.359375 0.046875 0.71875 0.125q0.359375 0.0625 0.609375 0.171875l-0.53125 2.578125zm12.094269 0.96875q0 3.671875 -1.40625 5.640625q-1.390625 1.96875 -3.84375 1.96875q-2.46875 0 -3.859375 -1.96875q-1.390625 -1.96875 -1.390625 -5.640625q0 -1.828125 0.359375 -3.234375q0.375 -1.40625 1.0625 -2.359375q0.6875 -0.96875 1.65625 -1.46875q0.96875 -0.515625 2.171875 -0.515625q2.453125 0 3.84375 1.96875q1.40625 1.953125 1.40625 5.609375zm-3.203125 0q0 -1.09375 -0.109375 -1.984375q-0.09375 -0.890625 -0.328125 -1.53125q-0.234375 -0.65625 -0.640625 -1.015625q-0.390625 -0.359375 -0.96875 -0.359375q-0.59375 0 -0.984375 0.359375q-0.390625 0.359375 -0.640625 1.015625q-0.234375 0.640625 -0.34375 1.53125q-0.09375 0.890625 -0.09375 1.984375q0 1.09375 0.09375 2.0q0.109375 0.90625 0.34375 1.5625q0.25 0.640625 0.640625 1.0q0.390625 0.359375 0.984375 0.359375q0.578125 0 0.96875 -0.359375q0.40625 -0.359375 0.640625 -1.0q0.234375 -0.65625 0.328125 -1.5625q0.109375 -0.90625 0.109375 -2.0zm8.536285 4.125q0.03125 0.5 0.046875 0.71875q0.015625 0.203125 0.015625 0.34375q0 0.640625 -0.125 1.34375q-0.109375 0.703125 -0.328125 1.40625q-0.203125 0.71875 -0.515625 1.421875q-0.3125 0.71875 -0.71875 1.375l-2.453125 -0.609375q0.484375 -1.390625 0.671875 -2.609375q0.1875 -1.21875 0.1875 -2.015625q0 -0.125 -0.015625 -0.3125q0 -0.203125 -0.015625 -0.40625q-0.015625 -0.21875 -0.03125 -0.40625q0 -0.1875 0 -0.25l3.28125 0zm8.934235 -5.09375q-0.421875 -0.09375 -0.984375 -0.203125q-0.5625 -0.125 -1.21875 -0.125q-0.296875 0 -0.703125 0.0625q-0.40625 0.046875 -0.625 0.109375l0 8.4375l-3.125 0l0 -10.453125q0.84375 -0.296875 1.984375 -0.5625q1.140625 -0.265625 2.546875 -0.265625q0.265625 0 0.609375 0.03125q0.359375 0.03125 0.71875 0.09375q0.359375 0.046875 0.71875 0.125q0.359375 0.0625 0.609375 0.171875l-0.53125 2.578125zm2.3442688 -3.25q0.609375 -0.25 1.265625 -0.578125q0.671875 -0.328125 1.296875 -0.703125q0.625 -0.390625 1.203125 -0.8125q0.578125 -0.4375 1.046875 -0.921875l2.1875 0l0 14.546875l-3.140625 0l0 -10.484375q-0.625 0.421875 -1.40625 0.78125q-0.765625 0.34375 -1.5 0.59375l-0.953125 -2.421875zm13.567535 5.25q0 -2.46875 -0.78125 -4.71875q-0.78125 -2.25 -2.03125 -4.03125l2.171875 -1.40625q1.796875 2.078125 2.75 4.65625q0.96875 2.578125 0.96875 5.5q0 2.921875 -0.96875 5.515625q-0.953125 2.578125 -2.75 4.65625l-2.171875 -1.40625q1.25 -1.796875 2.03125 -4.03125q0.78125 -2.25 0.78125 -4.734375z" fill-rule="nonzero"></path><path fill="#000000" fill-opacity="0.0" d="m472.84558 133.64043l201.7638 0l0 45.19684l-201.7638 0z" fill-rule="nonzero"></path><path stroke="#f0e7d5" stroke-width="3.0" stroke-linejoin="round" stroke-linecap="butt" d="m472.84558 133.64043l201.7638 0l0 45.19684l-201.7638 0z" fill-rule="nonzero"></path><path fill="#f0e7d5" d="m538.0657 155.43759q-0.421875 -0.09375 -0.984375 -0.203125q-0.5625 -0.125 -1.21875 -0.125q-0.296875 0 -0.703125 0.0625q-0.40625 0.046875 -0.625 0.109375l0 8.4375l-3.125 0l0 -10.453125q0.84375 -0.296875 1.984375 -0.5625q1.140625 -0.265625 2.546875 -0.265625q0.265625 0 0.609375 0.03125q0.359375 0.03125 0.71875 0.09375q0.359375 0.046875 0.71875 0.125q0.359375 0.0625 0.609375 0.171875l-0.53125 2.578125zm3.8598633 8.28125q0.125 -1.53125 0.515625 -3.1875q0.40625 -1.65625 0.984375 -3.25q0.578125 -1.609375 1.28125 -3.015625q0.71875 -1.421875 1.453125 -2.453125l-6.3125 0l0 -2.671875l10.1875 0l0 2.265625q-0.671875 0.734375 -1.484375 2.046875q-0.8125 1.296875 -1.546875 2.953125q-0.71875 1.640625 -1.25 3.53125q-0.53125 1.890625 -0.65625 3.78125l-3.171875 0zm10.161316 -5.265625l9.875 0l0 2.625l-9.875 0l0 -2.625zm0 -4.609375l9.875 0l0 2.625l-9.875 0l0 -2.625zm19.20813 1.59375q-0.421875 -0.09375 -0.984375 -0.203125q-0.5625 -0.125 -1.21875 -0.125q-0.296875 0 -0.703125 0.0625q-0.40625 0.046875 -0.625 0.109375l0 8.4375l-3.125 0l0 -10.453125q0.84375 -0.296875 1.984375 -0.5625q1.140625 -0.265625 2.546875 -0.265625q0.265625 0 0.609375 0.03125q0.359375 0.03125 0.71875 0.09375q0.359375 0.046875 0.71875 0.125q0.359375 0.0625 0.609375 0.171875l-0.53125 2.578125zm7.5786743 -2.453125q-0.828125 1.078125 -1.75 2.34375q-0.921875 1.25 -1.546875 2.578125l3.296875 0l0 -4.921875zm3.0625 -3.8125l0 8.734375l1.546875 0l0 2.5625l-1.546875 0l0 3.25l-3.0625 0l0 -3.25l-6.28125 0l0 -2.296875q0.453125 -0.921875 1.140625 -2.078125q0.703125 -1.171875 1.546875 -2.390625q0.859375 -1.234375 1.796875 -2.40625q0.953125 -1.1875 1.890625 -2.125l2.96875 0zm3.380005 6.96875l3.5 0l0 -3.890625l2.859375 0l0 3.890625l3.515625 0l0 2.625l-3.515625 0l0 3.875l-2.859375 0l0 -3.875l-3.5 0l0 -2.625zm19.20819 -0.703125q-0.421875 -0.09375 -0.984375 -0.203125q-0.5625 -0.125 -1.21875 -0.125q-0.296875 0 -0.703125 0.0625q-0.40625 0.046875 -0.625 0.109375l0 8.4375l-3.125 0l0 -10.453125q0.84375 -0.296875 1.984375 -0.5625q1.140625 -0.265625 2.546875 -0.265625q0.265625 0 0.609375 0.03125q0.359375 0.03125 0.71875 0.09375q0.359375 0.046875 0.71875 0.125q0.359375 0.0625 0.609375 0.171875l-0.53125 2.578125zm8.438049 4.0q0 -0.609375 -0.28125 -1.078125q-0.265625 -0.484375 -0.9375 -0.796875q-0.671875 -0.3125 -1.8125 -0.46875q-1.125 -0.171875 -2.84375 -0.171875q0.21875 -1.953125 0.359375 -3.96875q0.15625 -2.015625 0.234375 -3.78125l7.875 0l0 2.625l-5.25 0q-0.03125 0.75 -0.09375 1.453125q-0.046875 0.703125 -0.109375 1.234375q3.0625 0.203125 4.515625 1.4375q1.46875 1.21875 1.46875 3.40625q0 1.015625 -0.359375 1.875q-0.359375 0.859375 -1.078125 1.484375q-0.703125 0.625 -1.78125 0.984375q-1.078125 0.359375 -2.53125 0.359375q-0.5625 0 -1.1875 -0.078125q-0.625 -0.0625 -1.203125 -0.1875q-0.578125 -0.109375 -1.046875 -0.234375q-0.453125 -0.125 -0.703125 -0.25l0.5625 -2.59375q0.53125 0.234375 1.390625 0.453125q0.859375 0.21875 2.0625 0.21875q1.453125 0 2.09375 -0.5625q0.65625 -0.578125 0.65625 -1.359375z" fill-rule="nonzero"></path><path fill="#000000" fill-opacity="0.0" d="m422.1467 201.80708l201.76376 0l0 45.196854l-201.76376 0z" fill-rule="nonzero"></path><path stroke="#f0e7d5" stroke-width="3.0" stroke-linejoin="round" stroke-linecap="butt" d="m422.1467 201.80708l201.76376 0l0 45.196854l-201.76376 0z" fill-rule="nonzero"></path><path fill="#f0e7d5" d="m491.867 223.60426q-0.421875 -0.09375 -0.984375 -0.203125q-0.5625 -0.125 -1.21875 -0.125q-0.296875 0 -0.703125 0.0625q-0.40625 0.046875 -0.625 0.109375l0 8.4375l-3.125 0l0 -10.453125q0.84375 -0.296875 1.984375 -0.5625q1.140625 -0.265625 2.546875 -0.265625q0.265625 0 0.609375 0.03125q0.359375 0.03125 0.71875 0.09375q0.359375 0.046875 0.71875 0.125q0.359375 0.0625 0.609375 0.171875l-0.53125 2.578125zm12.000519 4.234375q0 0.9375 -0.328125 1.734375q-0.3125 0.78125 -0.96875 1.375q-0.65625 0.578125 -1.640625 0.90625q-0.96875 0.328125 -2.25 0.328125q-1.46875 0 -2.453125 -0.40625q-0.96875 -0.421875 -1.5625 -1.03125q-0.59375 -0.609375 -0.859375 -1.328125q-0.25 -0.71875 -0.25 -1.328125q0 -0.640625 0.171875 -1.15625q0.171875 -0.53125 0.46875 -0.953125q0.296875 -0.4375 0.65625 -0.796875q0.375 -0.359375 0.78125 -0.671875q-0.890625 -0.734375 -1.328125 -1.4375q-0.421875 -0.71875 -0.421875 -1.828125q0 -0.84375 0.34375 -1.625q0.34375 -0.78125 0.96875 -1.359375q0.640625 -0.578125 1.53125 -0.921875q0.890625 -0.34375 1.984375 -0.34375q1.28125 0 2.1875 0.375q0.921875 0.359375 1.5 0.9375q0.59375 0.5625 0.84375 1.265625q0.265625 0.703125 0.265625 1.390625q0 1.015625 -0.53125 1.890625q-0.53125 0.859375 -1.328125 1.359375q1.1875 0.78125 1.703125 1.640625q0.515625 0.84375 0.515625 1.984375zm-7.265625 0.125q0 0.25 0.109375 0.5625q0.125 0.296875 0.375 0.546875q0.25 0.25 0.640625 0.421875q0.40625 0.171875 0.984375 0.171875q1.09375 0 1.59375 -0.53125q0.5 -0.53125 0.5 -1.171875q0 -0.484375 -0.21875 -0.859375q-0.21875 -0.390625 -0.609375 -0.671875q-0.375 -0.28125 -0.890625 -0.5q-0.5 -0.21875 -1.09375 -0.40625q-0.59375 0.4375 -1.0 1.03125q-0.390625 0.578125 -0.390625 1.40625zm3.890625 -6.921875q0 -0.21875 -0.09375 -0.484375q-0.09375 -0.265625 -0.3125 -0.484375q-0.21875 -0.234375 -0.5625 -0.390625q-0.328125 -0.171875 -0.8125 -0.171875q-0.46875 0 -0.8125 0.15625q-0.328125 0.140625 -0.546875 0.390625q-0.21875 0.234375 -0.328125 0.515625q-0.109375 0.265625 -0.109375 0.515625q0 0.671875 0.5 1.265625q0.5 0.578125 1.6875 1.0q0.671875 -0.421875 1.03125 -0.953125q0.359375 -0.546875 0.359375 -1.359375zm5.3956604 5.578125l9.875 0l0 2.625l-9.875 0l0 -2.625zm0 -4.609375l9.875 0l0 2.625l-9.875 0l0 -2.625zm19.20819 1.59375q-0.421875 -0.09375 -0.984375 -0.203125q-0.5625 -0.125 -1.21875 -0.125q-0.296875 0 -0.703125 0.0625q-0.40625 0.046875 -0.625 0.109375l0 8.4375l-3.125 0l0 -10.453125q0.84375 -0.296875 1.984375 -0.5625q1.140625 -0.265625 2.546875 -0.265625q0.265625 0 0.609375 0.03125q0.359375 0.03125 0.71875 0.09375q0.359375 0.046875 0.71875 0.125q0.359375 0.0625 0.609375 0.171875l-0.53125 2.578125zm3.8598633 8.28125q0.125 -1.53125 0.515625 -3.1875q0.40625 -1.65625 0.984375 -3.25q0.578125 -1.609375 1.28125 -3.015625q0.71875 -1.421875 1.453125 -2.453125l-6.3125 0l0 -2.671875l10.1875 0l0 2.265625q-0.671875 0.734375 -1.484375 2.046875q-0.8125 1.296875 -1.546875 2.953125q-0.71875 1.640625 -1.25 3.53125q-0.53125 1.890625 -0.65625 3.78125l-3.171875 0zm10.161316 -7.578125l3.5 0l0 -3.890625l2.859375 0l0 3.890625l3.515625 0l0 2.625l-3.515625 0l0 3.875l-2.859375 0l0 -3.875l-3.5 0l0 -2.625zm21.505066 -3.15625q0 0.796875 -0.328125 1.53125q-0.3125 0.734375 -0.8125 1.421875q-0.5 0.6875 -1.140625 1.3125q-0.625 0.625 -1.234375 1.203125q-0.3125 0.28125 -0.6875 0.65625q-0.359375 0.375 -0.703125 0.75q-0.328125 0.375 -0.59375 0.703125q-0.265625 0.328125 -0.328125 0.53125l6.265625 0l0 2.625l-9.703125 0q-0.046875 -0.234375 -0.046875 -0.578125q0 -0.359375 0 -0.515625q0 -1.0 0.328125 -1.84375q0.328125 -0.84375 0.84375 -1.5625q0.53125 -0.734375 1.1875 -1.359375q0.671875 -0.625 1.3125 -1.265625q0.515625 -0.484375 0.953125 -0.90625q0.4375 -0.4375 0.765625 -0.84375q0.34375 -0.40625 0.53125 -0.8125q0.1875 -0.40625 0.1875 -0.828125q0 -0.921875 -0.53125 -1.296875q-0.515625 -0.390625 -1.296875 -0.390625q-0.5625 0 -1.0625 0.1875q-0.484375 0.171875 -0.890625 0.421875q-0.40625 0.234375 -0.703125 0.484375q-0.296875 0.234375 -0.453125 0.375l-1.546875 -2.1875q0.921875 -0.859375 2.140625 -1.40625q1.234375 -0.5625 2.640625 -0.5625q1.28125 0 2.203125 0.296875q0.9375 0.296875 1.53125 0.828125q0.59375 0.53125 0.875 1.296875q0.296875 0.765625 0.296875 1.734375z" fill-rule="nonzero"></path><path fill="#000000" fill-opacity="0.0" d="m133.35974 201.8084l201.76376 0l0 45.196854l-201.76376 0z" fill-rule="nonzero"></path><path stroke="#ff8d14" stroke-width="3.0" stroke-linejoin="round" stroke-linecap="butt" d="m133.35974 201.8084l201.76376 0l0 45.196854l-201.76376 0z" fill-rule="nonzero"></path><path fill="#f0e7d5" d="m198.5798 223.60558q-0.421875 -0.09375 -0.984375 -0.203125q-0.5625 -0.125 -1.21875 -0.125q-0.296875 0 -0.703125 0.0625q-0.40625 0.046875 -0.625 0.109375l0 8.4375l-3.125 0l0 -10.453125q0.84375 -0.296875 1.984375 -0.5625q1.140625 -0.265625 2.546875 -0.265625q0.265625 0 0.609375 0.03125q0.359375 0.03125 0.71875 0.09375q0.359375 0.046875 0.71875 0.125q0.359375 0.0625 0.609375 0.171875l-0.53125 2.578125zm6.6255035 1.4375q-0.453125 0 -0.984375 0.09375q-0.53125 0.078125 -0.8125 0.21875q0 0.078125 -0.015625 0.25q-0.015625 0.171875 -0.015625 0.296875q0 0.75 0.109375 1.421875q0.109375 0.671875 0.359375 1.1875q0.25 0.5 0.671875 0.78125q0.421875 0.28125 1.046875 0.28125q0.53125 0 0.890625 -0.21875q0.375 -0.21875 0.609375 -0.546875q0.25 -0.34375 0.359375 -0.75q0.109375 -0.40625 0.109375 -0.796875q0 -1.0625 -0.53125 -1.640625q-0.53125 -0.578125 -1.796875 -0.578125zm0.40625 -2.4375q1.359375 0 2.3125 0.375q0.953125 0.359375 1.5625 1.0q0.609375 0.625 0.875 1.46875q0.28125 0.828125 0.28125 1.78125q0 0.828125 -0.3125 1.71875q-0.296875 0.875 -0.921875 1.59375q-0.609375 0.71875 -1.5625 1.1875q-0.953125 0.453125 -2.265625 0.453125q-2.625 0 -3.984375 -1.65625q-1.359375 -1.671875 -1.359375 -4.578125q0 -2.109375 0.640625 -3.71875q0.65625 -1.625 1.859375 -2.71875q1.21875 -1.109375 2.921875 -1.6875q1.71875 -0.578125 3.859375 -0.59375q0.03125 0.65625 0.078125 1.28125q0.046875 0.609375 0.09375 1.28125q-1.078125 0.015625 -2.015625 0.203125q-0.9375 0.171875 -1.703125 0.546875q-0.765625 0.375 -1.328125 0.984375q-0.5625 0.59375 -0.875 1.453125q0.453125 -0.203125 0.9375 -0.28125q0.484375 -0.09375 0.90625 -0.09375zm6.9894257 4.015625l9.875 0l0 2.625l-9.875 0l0 -2.625zm0 -4.609375l9.875 0l0 2.625l-9.875 0l0 -2.625zm19.208176 1.59375q-0.421875 -0.09375 -0.984375 -0.203125q-0.5625 -0.125 -1.21875 -0.125q-0.296875 0 -0.703125 0.0625q-0.40625 0.046875 -0.625 0.109375l0 8.4375l-3.125 0l0 -10.453125q0.84375 -0.296875 1.984375 -0.5625q1.140625 -0.265625 2.546875 -0.265625q0.265625 0 0.609375 0.03125q0.359375 0.03125 0.71875 0.09375q0.359375 0.046875 0.71875 0.125q0.359375 0.0625 0.609375 0.171875l-0.53125 2.578125zm11.297379 -2.453125q0 0.796875 -0.328125 1.53125q-0.3125 0.734375 -0.8125 1.421875q-0.5 0.6875 -1.140625 1.3125q-0.625 0.625 -1.234375 1.203125q-0.3125 0.28125 -0.6875 0.65625q-0.359375 0.375 -0.703125 0.75q-0.328125 0.375 -0.59375 0.703125q-0.265625 0.328125 -0.328125 0.53125l6.265625 0l0 2.625l-9.703125 0q-0.046875 -0.234375 -0.046875 -0.578125q0 -0.359375 0 -0.515625q0 -1.0 0.328125 -1.84375q0.328125 -0.84375 0.84375 -1.5625q0.53125 -0.734375 1.1875 -1.359375q0.671875 -0.625 1.3125 -1.265625q0.515625 -0.484375 0.953125 -0.90625q0.4375 -0.4375 0.765625 -0.84375q0.34375 -0.40625 0.53125 -0.8125q0.1875 -0.40625 0.1875 -0.828125q0 -0.921875 -0.53125 -1.296875q-0.515625 -0.390625 -1.296875 -0.390625q-0.5625 0 -1.0625 0.1875q-0.484375 0.171875 -0.890625 0.421875q-0.40625 0.234375 -0.703125 0.484375q-0.296875 0.234375 -0.453125 0.375l-1.546875 -2.1875q0.921875 -0.859375 2.140625 -1.40625q1.234375 -0.5625 2.640625 -0.5625q1.28125 0 2.203125 0.296875q0.9375 0.296875 1.53125 0.828125q0.59375 0.53125 0.875 1.296875q0.296875 0.765625 0.296875 1.734375zm2.7238007 3.15625l3.5 0l0 -3.890625l2.859375 0l0 3.890625l3.515625 0l0 2.625l-3.515625 0l0 3.875l-2.859375 0l0 -3.875l-3.5 0l0 -2.625zm19.208176 -0.703125q-0.421875 -0.09375 -0.984375 -0.203125q-0.5625 -0.125 -1.21875 -0.125q-0.296875 0 -0.703125 0.0625q-0.40625 0.046875 -0.625 0.109375l0 8.4375l-3.125 0l0 -10.453125q0.84375 -0.296875 1.984375 -0.5625q1.140625 -0.265625 2.546875 -0.265625q0.265625 0 0.609375 0.03125q0.359375 0.03125 0.71875 0.09375q0.359375 0.046875 0.71875 0.125q0.359375 0.0625 0.609375 0.171875l-0.53125 2.578125zm5.656769 8.59375q-0.5625 0 -1.1875 -0.078125q-0.625 -0.0625 -1.21875 -0.1875q-0.59375 -0.125 -1.078125 -0.265625q-0.484375 -0.15625 -0.75 -0.28125l0.609375 -2.609375q0.546875 0.234375 1.390625 0.5q0.859375 0.25 2.109375 0.25q1.453125 0 2.125 -0.53125q0.671875 -0.546875 0.671875 -1.484375q0 -0.5625 -0.25 -0.953125q-0.234375 -0.390625 -0.65625 -0.625q-0.421875 -0.234375 -1.0 -0.328125q-0.5625 -0.109375 -1.21875 -0.109375l-1.21875 0l0 -2.515625l1.390625 0q0.453125 0 0.875 -0.078125q0.4375 -0.09375 0.765625 -0.28125q0.34375 -0.203125 0.546875 -0.546875q0.203125 -0.34375 0.203125 -0.875q0 -0.40625 -0.171875 -0.6875q-0.171875 -0.296875 -0.4375 -0.484375q-0.25 -0.1875 -0.609375 -0.28125q-0.34375 -0.109375 -0.6875 -0.109375q-0.90625 0 -1.671875 0.28125q-0.765625 0.265625 -1.40625 0.671875l-1.109375 -2.296875q0.34375 -0.203125 0.78125 -0.4375q0.453125 -0.234375 1.0 -0.421875q0.546875 -0.1875 1.171875 -0.3125q0.625 -0.125 1.3125 -0.125q1.28125 0 2.21875 0.3125q0.9375 0.296875 1.53125 0.859375q0.609375 0.546875 0.90625 1.296875q0.296875 0.75 0.296875 1.625q0 0.859375 -0.484375 1.671875q-0.484375 0.8125 -1.296875 1.234375q1.125 0.453125 1.75 1.375q0.625 0.90625 0.625 2.1875q0 1.015625 -0.34375 1.875q-0.328125 0.84375 -1.046875 1.46875q-0.71875 0.609375 -1.828125 0.953125q-1.09375 0.34375 -2.609375 0.34375z" fill-rule="nonzero"></path><path fill="#000000" fill-opacity="0.0" d="m284.00803 269.76642l201.7638 0l0 45.19684l-201.7638 0z" fill-rule="nonzero"></path><path stroke="#ff8d14" stroke-width="3.0" stroke-linejoin="round" stroke-linecap="butt" d="m284.00803 269.76642l201.7638 0l0 45.19684l-201.7638 0z" fill-rule="nonzero"></path><path fill="#f0e7d5" d="m349.22812 291.56357q-0.421875 -0.09375 -0.984375 -0.203125q-0.5625 -0.125 -1.21875 -0.125q-0.296875 0 -0.703125 0.0625q-0.40625 0.046875 -0.625 0.109375l0 8.4375l-3.125 0l0 -10.453125q0.84375 -0.296875 1.984375 -0.5625q1.140625 -0.265625 2.546875 -0.265625q0.265625 0 0.609375 0.03125q0.359375 0.03125 0.71875 0.09375q0.359375 0.046875 0.71875 0.125q0.359375 0.0625 0.609375 0.171875l-0.53125 2.578125zm6.9379883 0.46875q0.484375 0 1.015625 -0.09375q0.53125 -0.09375 0.78125 -0.265625l0 -0.1875q0 -0.078125 0 -0.15625q0.015625 -0.09375 0.015625 -0.15625q-0.015625 -0.75 -0.125 -1.40625q-0.109375 -0.671875 -0.359375 -1.15625q-0.25 -0.5 -0.6875 -0.78125q-0.421875 -0.296875 -1.046875 -0.296875q-0.515625 0 -0.890625 0.21875q-0.375 0.203125 -0.609375 0.546875q-0.234375 0.328125 -0.34375 0.734375q-0.109375 0.390625 -0.109375 0.78125q0 1.125 0.546875 1.671875q0.5625 0.546875 1.8125 0.546875zm1.546875 2.03125q-0.453125 0.21875 -0.984375 0.3125q-0.53125 0.09375 -0.90625 0.09375q-1.375 0 -2.34375 -0.328125q-0.953125 -0.328125 -1.578125 -0.921875q-0.625 -0.59375 -0.921875 -1.4375q-0.28125 -0.84375 -0.28125 -1.84375q0 -0.84375 0.28125 -1.71875q0.28125 -0.890625 0.890625 -1.609375q0.609375 -0.734375 1.53125 -1.203125q0.9375 -0.46875 2.265625 -0.46875q2.71875 0 4.09375 1.671875q1.375 1.65625 1.375 4.796875q0 2.046875 -0.546875 3.625q-0.53125 1.578125 -1.65625 2.65625q-1.125 1.0625 -2.875 1.625q-1.734375 0.546875 -4.125 0.578125q-0.015625 -0.671875 -0.0625 -1.296875q-0.046875 -0.640625 -0.078125 -1.3125q1.1875 -0.015625 2.15625 -0.171875q0.96875 -0.15625 1.703125 -0.53125q0.734375 -0.375 1.25 -0.96875q0.515625 -0.609375 0.8125 -1.546875zm5.536316 0.515625l9.875 0l0 2.625l-9.875 0l0 -2.625zm0 -4.609375l9.875 0l0 2.625l-9.875 0l0 -2.625zm19.20816 1.59375q-0.421875 -0.09375 -0.984375 -0.203125q-0.5625 -0.125 -1.21875 -0.125q-0.296875 0 -0.703125 0.0625q-0.40625 0.046875 -0.625 0.109375l0 8.4375l-3.125 0l0 -10.453125q0.84375 -0.296875 1.984375 -0.5625q1.140625 -0.265625 2.546875 -0.265625q0.265625 0 0.609375 0.03125q0.359375 0.03125 0.71875 0.09375q0.359375 0.046875 0.71875 0.125q0.359375 0.0625 0.609375 0.171875l-0.53125 2.578125zm6.625519 1.4375q-0.453125 0 -0.984375 0.09375q-0.53125 0.078125 -0.8125 0.21875q0 0.078125 -0.015625 0.25q-0.015625 0.171875 -0.015625 0.296875q0 0.75 0.109375 1.421875q0.109375 0.671875 0.359375 1.1875q0.25 0.5 0.671875 0.78125q0.421875 0.28125 1.046875 0.28125q0.53125 0 0.890625 -0.21875q0.375 -0.21875 0.609375 -0.546875q0.25 -0.34375 0.359375 -0.75q0.109375 -0.40625 0.109375 -0.796875q0 -1.0625 -0.53125 -1.640625q-0.53125 -0.578125 -1.796875 -0.578125zm0.40625 -2.4375q1.359375 0 2.3125 0.375q0.953125 0.359375 1.5625 1.0q0.609375 0.625 0.875 1.46875q0.28125 0.828125 0.28125 1.78125q0 0.828125 -0.3125 1.71875q-0.296875 0.875 -0.921875 1.59375q-0.609375 0.71875 -1.5625 1.1875q-0.953125 0.453125 -2.265625 0.453125q-2.625 0 -3.984375 -1.65625q-1.359375 -1.671875 -1.359375 -4.578125q0 -2.109375 0.640625 -3.71875q0.65625 -1.625 1.859375 -2.71875q1.21875 -1.109375 2.921875 -1.6875q1.71875 -0.578125 3.859375 -0.59375q0.03125 0.65625 0.078125 1.28125q0.046875 0.609375 0.09375 1.28125q-1.078125 0.015625 -2.015625 0.203125q-0.9375 0.171875 -1.703125 0.546875q-0.765625 0.375 -1.328125 0.984375q-0.5625 0.59375 -0.875 1.453125q0.453125 -0.203125 0.9375 -0.28125q0.484375 -0.09375 0.90625 -0.09375zm6.9894104 1.703125l3.5 0l0 -3.890625l2.859375 0l0 3.890625l3.515625 0l0 2.625l-3.515625 0l0 3.875l-2.859375 0l0 -3.875l-3.5 0l0 -2.625zm19.20816 -0.703125q-0.421875 -0.09375 -0.984375 -0.203125q-0.5625 -0.125 -1.21875 -0.125q-0.296875 0 -0.703125 0.0625q-0.40625 0.046875 -0.625 0.109375l0 8.4375l-3.1249695 0l0 -10.453125q0.84375 -0.296875 1.984375 -0.5625q1.1405945 -0.265625 2.5468445 -0.265625q0.265625 0 0.609375 0.03125q0.359375 0.03125 0.71875 0.09375q0.359375 0.046875 0.71875 0.125q0.359375 0.0625 0.609375 0.171875l-0.53125 2.578125zm12.000519 4.234375q0 0.9375 -0.328125 1.734375q-0.3125 0.78125 -0.96875 1.375q-0.65625 0.578125 -1.640625 0.90625q-0.96875 0.328125 -2.25 0.328125q-1.46875 0 -2.453125 -0.40625q-0.96875 -0.421875 -1.5625 -1.03125q-0.59375 -0.609375 -0.859375 -1.328125q-0.25 -0.71875 -0.25 -1.328125q0 -0.640625 0.171875 -1.15625q0.171875 -0.53125 0.46875 -0.953125q0.296875 -0.4375 0.65625 -0.796875q0.375 -0.359375 0.78125 -0.671875q-0.890625 -0.734375 -1.328125 -1.4375q-0.421875 -0.71875 -0.421875 -1.828125q0 -0.84375 0.34375 -1.625q0.34375 -0.78125 0.96875 -1.359375q0.640625 -0.578125 1.53125 -0.921875q0.890625 -0.34375 1.984375 -0.34375q1.28125 0 2.1875 0.375q0.921875 0.359375 1.5 0.9375q0.59375 0.5625 0.84375 1.265625q0.265625 0.703125 0.265625 1.390625q0 1.015625 -0.53125 1.890625q-0.53125 0.859375 -1.328125 1.359375q1.1875 0.78125 1.703125 1.640625q0.515625 0.84375 0.515625 1.984375zm-7.265625 0.125q0 0.25 0.109375 0.5625q0.125 0.296875 0.375 0.546875q0.25 0.25 0.640625 0.421875q0.40625 0.171875 0.984375 0.171875q1.09375 0 1.59375 -0.53125q0.5 -0.53125 0.5 -1.171875q0 -0.484375 -0.21875 -0.859375q-0.21875 -0.390625 -0.609375 -0.671875q-0.375 -0.28125 -0.890625 -0.5q-0.5 -0.21875 -1.09375 -0.40625q-0.59375 0.4375 -1.0 1.03125q-0.390625 0.578125 -0.390625 1.40625zm3.890625 -6.921875q0 -0.21875 -0.09375 -0.484375q-0.09375 -0.265625 -0.3125 -0.484375q-0.21875 -0.234375 -0.5625 -0.390625q-0.328125 -0.171875 -0.8125 -0.171875q-0.46875 0 -0.8125 0.15625q-0.328125 0.140625 -0.546875 0.390625q-0.21875 0.234375 -0.328125 0.515625q-0.109375 0.265625 -0.109375 0.515625q0 0.671875 0.5 1.265625q0.5 0.578125 1.6875 1.0q0.671875 -0.421875 1.03125 -0.953125q0.359375 -0.546875 0.359375 -1.359375z" fill-rule="nonzero"></path><path fill="#000000" fill-opacity="0.0" d="m284.00803 341.76642l201.7638 0l0 45.19684l-201.7638 0z" fill-rule="nonzero"></path><path stroke="#ff8d14" stroke-width="3.0" stroke-linejoin="round" stroke-linecap="butt" d="m284.00803 341.76642l201.7638 0l0 45.19684l-201.7638 0z" fill-rule="nonzero"></path><path fill="#f0e7d5" d="m326.12964 363.56357q-0.421875 -0.09375 -0.984375 -0.203125q-0.5625 -0.125 -1.21875 -0.125q-0.296875 0 -0.703125 0.0625q-0.40625 0.046875 -0.625 0.109375l0 8.4375l-3.125 0l0 -10.453125q0.84375 -0.296875 1.984375 -0.5625q1.140625 -0.265625 2.546875 -0.265625q0.265625 0 0.609375 0.03125q0.359375 0.03125 0.71875 0.09375q0.359375 0.046875 0.71875 0.125q0.359375 0.0625 0.609375 0.171875l-0.53125 2.578125zm2.3442688 -3.25q0.609375 -0.25 1.265625 -0.578125q0.671875 -0.328125 1.296875 -0.703125q0.625 -0.390625 1.203125 -0.8125q0.578125 -0.4375 1.046875 -0.921875l2.1875 0l0 14.546875l-3.140625 0l0 -10.484375q-0.625 0.421875 -1.40625 0.78125q-0.765625 0.34375 -1.5 0.59375l-0.953125 -2.421875zm21.86441 4.21875q0 3.671875 -1.40625 5.640625q-1.390625 1.96875 -3.84375 1.96875q-2.46875 0 -3.859375 -1.96875q-1.390625 -1.96875 -1.390625 -5.640625q0 -1.828125 0.359375 -3.234375q0.375 -1.40625 1.0625 -2.359375q0.6875 -0.96875 1.65625 -1.46875q0.96875 -0.515625 2.171875 -0.515625q2.453125 0 3.84375 1.96875q1.40625 1.953125 1.40625 5.609375zm-3.203125 0q0 -1.09375 -0.109375 -1.984375q-0.09375 -0.890625 -0.328125 -1.53125q-0.234375 -0.65625 -0.640625 -1.015625q-0.390625 -0.359375 -0.96875 -0.359375q-0.59375 0 -0.984375 0.359375q-0.390625 0.359375 -0.640625 1.015625q-0.234375 0.640625 -0.34375 1.53125q-0.09375 0.890625 -0.09375 1.984375q0 1.09375 0.09375 2.0q0.109375 0.90625 0.34375 1.5625q0.25 0.640625 0.640625 1.0q0.390625 0.359375 0.984375 0.359375q0.578125 0 0.96875 -0.359375q0.40625 -0.359375 0.640625 -1.0q0.234375 -0.65625 0.328125 -1.5625q0.109375 -0.90625 0.109375 -2.0zm5.130066 2.046875l9.875 0l0 2.625l-9.875 0l0 -2.625zm0 -4.609375l9.875 0l0 2.625l-9.875 0l0 -2.625zm15.723785 7.625q0.859375 0 1.21875 -0.15625q0.359375 -0.171875 0.359375 -0.65625q0 -0.375 -0.46875 -0.65625q-0.453125 -0.296875 -1.40625 -0.65625q-0.734375 -0.265625 -1.328125 -0.5625q-0.59375 -0.296875 -1.015625 -0.703125q-0.421875 -0.40625 -0.65625 -0.96875q-0.234375 -0.578125 -0.234375 -1.375q0 -1.546875 1.15625 -2.453125q1.15625 -0.90625 3.171875 -0.90625q1.015625 0 1.9375 0.1875q0.921875 0.171875 1.46875 0.390625l-0.546875 2.421875q-0.546875 -0.1875 -1.1875 -0.328125q-0.640625 -0.140625 -1.4375 -0.140625q-1.46875 0 -1.46875 0.8125q0 0.1875 0.0625 0.34375q0.0625 0.140625 0.25 0.28125q0.1875 0.125 0.515625 0.28125q0.328125 0.15625 0.828125 0.359375q1.03125 0.375 1.703125 0.75q0.671875 0.359375 1.0625 0.796875q0.390625 0.421875 0.546875 0.953125q0.15625 0.515625 0.15625 1.203125q0 1.640625 -1.234375 2.484375q-1.234375 0.84375 -3.46875 0.84375q-1.46875 0 -2.453125 -0.25q-0.96875 -0.25 -1.359375 -0.421875l0.53125 -2.546875q0.796875 0.3125 1.640625 0.5q0.84375 0.171875 1.65625 0.171875zm7.1723022 2.25l0 -15.796875l3.125 -0.5l0 5.296875q0.3125 -0.109375 0.8125 -0.203125q0.5 -0.09375 0.953125 -0.09375q1.34375 0 2.234375 0.375q0.890625 0.359375 1.421875 1.03125q0.546875 0.671875 0.765625 1.59375q0.21875 0.921875 0.21875 2.0625l0 6.234375l-3.125 0l0 -5.859375q0 -1.515625 -0.390625 -2.140625q-0.390625 -0.625 -1.4375 -0.625q-0.421875 0 -0.796875 0.078125q-0.359375 0.0625 -0.65625 0.140625l0 8.40625l-3.125 0zm16.968567 0.203125q-1.359375 -0.015625 -2.21875 -0.28125q-0.84375 -0.28125 -1.34375 -0.765625q-0.484375 -0.5 -0.671875 -1.203125q-0.171875 -0.703125 -0.171875 -1.59375l0 -12.15625l3.125 -0.5l0 12.03125q0 0.421875 0.0625 0.765625q0.0625 0.328125 0.234375 0.5625q0.1875 0.234375 0.515625 0.375q0.34375 0.140625 0.921875 0.1875l-0.453125 2.578125zm5.4272156 -6.484375q0 2.484375 0.765625 4.734375q0.78125 2.234375 2.046875 4.03125l-2.1875 1.40625q-1.78125 -2.078125 -2.75 -4.65625q-0.96875 -2.59375 -0.96875 -5.515625q0 -2.921875 0.96875 -5.5q0.96875 -2.578125 2.75 -4.65625l2.1875 1.40625q-1.265625 1.78125 -2.046875 4.03125q-0.765625 2.25 -0.765625 4.71875zm11.155365 -2.0q-0.421875 -0.09375 -0.984375 -0.203125q-0.5625 -0.125 -1.21875 -0.125q-0.296875 0 -0.703125 0.0625q-0.40625 0.046875 -0.625 0.109375l0 8.4375l-3.125 0l0 -10.453125q0.84375 -0.296875 1.984375 -0.5625q1.140625 -0.265625 2.546875 -0.265625q0.265625 0 0.609375 0.03125q0.359375 0.03125 0.71875 0.09375q0.359375 0.046875 0.71875 0.125q0.359375 0.0625 0.609375 0.171875l-0.53125 2.578125zm6.9379883 0.46875q0.484375 0 1.015625 -0.09375q0.53125 -0.09375 0.78125 -0.265625l0 -0.1875q0 -0.078125 0 -0.15625q0.015625 -0.09375 0.015625 -0.15625q-0.015625 -0.75 -0.125 -1.40625q-0.109375 -0.671875 -0.359375 -1.15625q-0.25 -0.5 -0.6875 -0.78125q-0.421875 -0.296875 -1.046875 -0.296875q-0.515625 0 -0.890625 0.21875q-0.375 0.203125 -0.609375 0.546875q-0.234375 0.328125 -0.34375 0.734375q-0.109375 0.390625 -0.109375 0.78125q0 1.125 0.546875 1.671875q0.5625 0.546875 1.8125 0.546875zm1.546875 2.03125q-0.453125 0.21875 -0.984375 0.3125q-0.53125 0.09375 -0.90625 0.09375q-1.375 0 -2.34375 -0.328125q-0.953125 -0.328125 -1.578125 -0.921875q-0.625 -0.59375 -0.921875 -1.4375q-0.28125 -0.84375 -0.28125 -1.84375q0 -0.84375 0.28125 -1.71875q0.28125 -0.890625 0.890625 -1.609375q0.609375 -0.734375 1.53125 -1.203125q0.9375 -0.46875 2.265625 -0.46875q2.71875 0 4.09375 1.671875q1.375 1.65625 1.375 4.796875q0 2.046875 -0.546875 3.625q-0.53125 1.578125 -1.65625 2.65625q-1.125 1.0625 -2.875 1.625q-1.734375 0.546875 -4.125 0.578125q-0.015625 -0.671875 -0.0625 -1.296875q-0.046875 -0.640625 -0.078125 -1.3125q1.1875 -0.015625 2.15625 -0.171875q0.96875 -0.15625 1.703125 -0.53125q0.734375 -0.375 1.25 -0.96875q0.515625 -0.609375 0.8125 -1.546875zm8.942566 2.59375q0.03125 0.5 0.046875 0.71875q0.015625 0.203125 0.015625 0.34375q0 0.640625 -0.125 1.34375q-0.109375 0.703125 -0.328125 1.40625q-0.203125 0.71875 -0.515625 1.421875q-0.3125 0.71875 -0.71875 1.375l-2.453125 -0.609375q0.484375 -1.390625 0.671875 -2.609375q0.1875 -1.21875 0.1875 -2.015625q0 -0.125 -0.015625 -0.3125q0 -0.203125 -0.015625 -0.40625q-0.015625 -0.21875 -0.03125 -0.40625q0 -0.1875 0 -0.25l3.28125 0zm16.349884 -7.546875q0 0.796875 -0.328125 1.53125q-0.3125 0.734375 -0.8125 1.421875q-0.5 0.6875 -1.140625 1.3125q-0.625 0.625 -1.234375 1.203125q-0.3125 0.28125 -0.6875 0.65625q-0.359375 0.375 -0.703125 0.75q-0.328125 0.375 -0.59375 0.703125q-0.265625 0.328125 -0.328125 0.53125l6.265625 0l0 2.625l-9.703125 0q-0.046875 -0.234375 -0.046875 -0.578125q0 -0.359375 0 -0.515625q0 -1.0 0.328125 -1.84375q0.328125 -0.84375 0.84375 -1.5625q0.53125 -0.734375 1.1875 -1.359375q0.671875 -0.625 1.3125 -1.265625q0.515625 -0.484375 0.953125 -0.90625q0.4375 -0.4375 0.765625 -0.84375q0.34375 -0.40625 0.53125 -0.8125q0.1875 -0.40625 0.1875 -0.828125q0 -0.921875 -0.53125 -1.296875q-0.515625 -0.390625 -1.296875 -0.390625q-0.5625 0 -1.0625 0.1875q-0.484375 0.171875 -0.890625 0.421875q-0.40625 0.234375 -0.703125 0.484375q-0.296875 0.234375 -0.453125 0.375l-1.546875 -2.1875q0.921875 -0.859375 2.140625 -1.40625q1.234375 -0.5625 2.640625 -0.5625q1.28125 0 2.203125 0.296875q0.9375 0.296875 1.53125 0.828125q0.59375 0.53125 0.875 1.296875q0.296875 0.765625 0.296875 1.734375zm4.6144104 4.453125q0 -2.46875 -0.78125 -4.71875q-0.78125 -2.25 -2.03125 -4.03125l2.171875 -1.40625q1.796875 2.078125 2.75 4.65625q0.96875 2.578125 0.96875 5.5q0 2.921875 -0.96875 5.515625q-0.953125 2.578125 -2.75 4.65625l-2.171875 -1.40625q1.25 -1.796875 2.03125 -4.03125q0.78125 -2.25 0.78125 -4.734375z" fill-rule="nonzero"></path><path fill="#000000" fill-opacity="0.0" d="m335.1244 29.944881l-109.6693 40.031498" fill-rule="nonzero"></path><path stroke="#000000" stroke-width="3.0" stroke-linejoin="round" stroke-linecap="butt" d="m335.1244 29.944881l-92.760544 33.859463" fill-rule="evenodd"></path><path fill="#000000" stroke="#000000" stroke-width="3.0" stroke-linecap="butt" d="m240.66475 59.14955l-11.0898285 9.323006l14.488022 -0.013427734z" fill-rule="evenodd"></path><path fill="#000000" fill-opacity="0.0" d="m436.0063 52.54331l20.881866 17.952755" fill-rule="nonzero"></path><path stroke="#000000" stroke-width="3.0" stroke-linejoin="round" stroke-linecap="butt" d="m436.0063 52.54331l7.232727 6.2181816" fill-rule="evenodd"></path><path fill="#000000" stroke="#000000" stroke-width="3.0" stroke-linecap="butt" d="m440.0086 62.518948l13.553925 5.117985l-7.0931396 -12.632908z" fill-rule="evenodd"></path><path fill="#000000" fill-opacity="0.0" d="m536.8882 29.944881l151.43304 40.031498" fill-rule="nonzero"></path><path stroke="#f0e7d5" stroke-width="3.0" stroke-linejoin="round" stroke-linecap="butt" d="m536.8882 29.944881l134.03088 35.431202" fill-rule="evenodd"></path><path fill="#f0e7d5" stroke="#f0e7d5" stroke-width="3.0" stroke-linecap="butt" d="m669.65265 70.16672l14.428589 -1.311203l-11.895752 -8.270065z" fill-rule="evenodd"></path><path fill="#000000" fill-opacity="0.0" d="m456.88858 115.69029l116.85043 17.952759" fill-rule="nonzero"></path><path stroke="#f0e7d5" stroke-width="3.0" stroke-linejoin="round" stroke-linecap="butt" d="m456.8886 115.69029l99.05914 15.21933" fill-rule="evenodd"></path><path fill="#f0e7d5" stroke="#f0e7d5" stroke-width="3.0" stroke-linecap="butt" d="m555.1953 135.80734l14.208862 -2.8302917l-12.703918 -6.965164z" fill-rule="evenodd"></path><path fill="#000000" fill-opacity="0.0" d="m688.33075 115.173225l-114.6142 18.456703" fill-rule="nonzero"></path><path stroke="#f0e7d5" stroke-width="3.0" stroke-linejoin="round" stroke-linecap="butt" d="m688.3307 115.173225l-96.84314 15.594963" fill-rule="evenodd"></path><path fill="#f0e7d5" stroke="#f0e7d5" stroke-width="3.0" stroke-linecap="butt" d="m590.69977 125.876015l-12.65332 7.0566483l14.228943 2.727707z" fill-rule="evenodd"></path><path fill="#000000" fill-opacity="0.0" d="m573.7275 178.83727l-50.70868 22.960632" fill-rule="nonzero"></path><path stroke="#f0e7d5" stroke-width="3.0" stroke-linejoin="round" stroke-linecap="butt" d="m573.7275 178.83727l-34.31128 15.535965" fill-rule="evenodd"></path><path fill="#f0e7d5" stroke="#f0e7d5" stroke-width="3.0" stroke-linecap="butt" d="m537.3723 189.85922l-10.358276 10.129654l14.446106 -1.1016235z" fill-rule="evenodd"></path><path fill="#000000" fill-opacity="0.0" d="m523.02856 247.00394l-138.14172 22.771667" fill-rule="nonzero"></path><path stroke="#f0e7d5" stroke-width="3.0" stroke-linejoin="round" stroke-linecap="butt" d="m523.02856 247.00394l-120.38138 19.843994" fill-rule="evenodd"></path><path fill="#f0e7d5" stroke="#f0e7d5" stroke-width="3.0" stroke-linecap="butt" d="m401.84122 261.9587l-12.627045 7.103546l14.238953 2.6748962z" fill-rule="evenodd"></path><path fill="#000000" fill-opacity="0.0" d="m115.78013 178.83727l118.45669 22.960632" fill-rule="nonzero"></path><path stroke="#f0e7d5" stroke-width="3.0" stroke-linejoin="round" stroke-linecap="butt" d="m115.780136 178.83727l100.78558 19.535416" fill-rule="evenodd"></path><path fill="#f0e7d5" stroke="#f0e7d5" stroke-width="3.0" stroke-linecap="butt" d="m215.62279 203.23734l14.308456 -2.2739868l-12.422607 -7.4553223z" fill-rule="evenodd"></path><path fill="#000000" fill-opacity="0.0" d="m234.24162 247.00525l150.64568 22.771667" fill-rule="nonzero"></path><path stroke="#f0e7d5" stroke-width="3.0" stroke-linejoin="round" stroke-linecap="butt" d="m234.24164 247.00525l132.84784 20.08133" fill-rule="evenodd"></path><path fill="#f0e7d5" stroke="#f0e7d5" stroke-width="3.0" stroke-linecap="butt" d="m366.34888 271.9861l14.201996 -2.8647156l-12.720764 -6.9343567z" fill-rule="evenodd"></path><path fill="#000000" fill-opacity="0.0" d="m384.88992 314.96326l0 26.803162" fill-rule="nonzero"></path><path stroke="#f0e7d5" stroke-width="3.0" stroke-linejoin="round" stroke-linecap="butt" d="m384.88992 314.96326l0 8.803162" fill-rule="evenodd"></path><path fill="#f0e7d5" stroke="#f0e7d5" stroke-width="3.0" stroke-linecap="butt" d="m379.93472 323.76642l4.9552 13.614288l4.9552 -13.614288z" fill-rule="evenodd"></path><path fill="#000000" fill-opacity="0.0" d="m344.75272 178.83595l-110.5197 22.960632" fill-rule="nonzero"></path><path stroke="#f0e7d5" stroke-width="3.0" stroke-linejoin="round" stroke-linecap="butt" d="m344.75272 178.83595l-92.89601 19.299286" fill-rule="evenodd"></path><path fill="#f0e7d5" stroke="#f0e7d5" stroke-width="3.0" stroke-linecap="butt" d="m250.84879 193.28363l-12.321747 7.620865l14.337601 2.0823517z" fill-rule="evenodd"></path><path fill="#000000" fill-opacity="0.0" d="m335.13226 29.944881l-109.6693 40.031498" fill-rule="nonzero"></path><path stroke="#f0e7d5" stroke-width="3.0" stroke-linejoin="round" stroke-linecap="butt" d="m335.13226 29.944881l-92.760544 33.859463" fill-rule="evenodd"></path><path fill="#f0e7d5" stroke="#f0e7d5" stroke-width="3.0" stroke-linecap="butt" d="m240.67262 59.14955l-11.0898285 9.323006l14.488022 -0.013427734z" fill-rule="evenodd"></path><path fill="#000000" fill-opacity="0.0" d="m326.33173 92.57481l18.425201 41.07087" fill-rule="nonzero"></path><path stroke="#f0e7d5" stroke-width="3.0" stroke-linejoin="round" stroke-linecap="butt" d="m326.33173 92.57481l11.057495 24.647812" fill-rule="evenodd"></path><path fill="#f0e7d5" stroke="#f0e7d5" stroke-width="3.0" stroke-linecap="butt" d="m332.86813 119.250854l10.093658 10.393326l-1.0514832 -14.449814z" fill-rule="evenodd"></path><path fill="#000000" fill-opacity="0.0" d="m124.567955 92.57481l-8.787399 41.07087" fill-rule="nonzero"></path><path stroke="#f0e7d5" stroke-width="3.0" stroke-linejoin="round" stroke-linecap="butt" d="m124.567955 92.57481l-5.021408 23.469238" fill-rule="evenodd"></path><path fill="#f0e7d5" stroke="#f0e7d5" stroke-width="3.0" stroke-linecap="butt" d="m114.70101 115.00731l1.9971237 14.349716l7.693939 -12.276245z" fill-rule="evenodd"></path><path fill="#000000" fill-opacity="0.0" d="m436.01416 52.54331l73.03937 17.448818" fill-rule="nonzero"></path><path stroke="#f0e7d5" stroke-width="3.0" stroke-linejoin="round" stroke-linecap="butt" d="m436.01416 52.54331l55.532013 13.266384" fill-rule="evenodd"></path><path fill="#f0e7d5" stroke="#f0e7d5" stroke-width="3.0" stroke-linecap="butt" d="m490.3948 70.629265l14.393036 -1.656189l-12.0903015 -7.9829636z" fill-rule="evenodd"></path></g></svg>

