<?xml version="1.0" standalone="yes"?>

<svg version="1.1" viewBox="0.0 0.0 1063.0866141732283 725.8661417322835" fill="none" stroke="none" stroke-linecap="square" stroke-miterlimit="10" xmlns="http://www.w3.org/2000/svg" xmlns:xlink="http://www.w3.org/1999/xlink"><clipPath id="p.0"><path d="m0 0l1063.0867 0l0 725.86615l-1063.0867 0l0 -725.86615z" clip-rule="nonzero"></path></clipPath><g clip-path="url(#p.0)"><path fill="#000000" fill-opacity="0.0" d="m0 0l1063.0867 0l0 725.86615l-1063.0867 0z" fill-rule="nonzero"></path><path fill="#f0e7d5" d="m6.2267656 252.10236l171.3071 0l0 38.740173l-171.3071 0z" fill-rule="nonzero"></path><path fill="#000000" d="m56.2195 278.39243l0 -8.546875l-1.484375 0l0 -1.3125l1.484375 0l0 -1.046875q0 -0.984375 0.171875 -1.46875q0.234375 -0.65625 0.84375 -1.046875q0.609375 -0.40625 1.703125 -0.40625q0.703125 0 1.5625 0.15625l-0.25 1.46875q-0.515625 -0.09375 -0.984375 -0.09375q-0.765625 0 -1.078125 0.328125q-0.3125 0.3125 -0.3125 1.203125l0 0.90625l1.921875 0l0 1.3125l-1.921875 0l0 8.546875l-1.65625 0zm11.527058 -3.171875l1.71875 0.21875q-0.40625 1.5 -1.515625 2.34375q-1.09375 0.828125 -2.8125 0.828125q-2.1562538 0 -3.4218788 -1.328125q-1.265625 -1.328125 -1.265625 -3.734375q0 -2.484375 1.265625 -3.859375q1.28125 -1.375 3.3281288 -1.375q1.984375 0 3.234375 1.34375q1.25 1.34375 1.25 3.796875q0 0.140625 -0.015625 0.4375l-7.343754 0q0.09375 1.625 0.921875 2.484375q0.828125 0.859375 2.0625038 0.859375q0.90625 0 1.546875 -0.46875q0.65625 -0.484375 1.046875 -1.546875zm-5.484379 -2.703125l5.500004 0q-0.109375 -1.234375 -0.625 -1.859375q-0.796875 -0.96875 -2.078125 -0.96875q-1.1406288 0 -1.9375038 0.78125q-0.78125 0.765625 -0.859375 2.046875zm12.766346 4.375l0.234375 1.484375q-0.703125 0.140625 -1.265625 0.140625q-0.90625 0 -1.40625 -0.28125q-0.5 -0.296875 -0.703125 -0.75q-0.203125 -0.46875 -0.203125 -1.984375l0 -5.65625l-1.234375 0l0 -1.3125l1.234375 0l0 -2.4375l1.65625 -1.0l0 3.4375l1.6875 0l0 1.3125l-1.6875 0l0 5.75q0 0.71875 0.078125 0.921875q0.09375 0.203125 0.296875 0.328125q0.203125 0.125 0.578125 0.125q0.265625 0 0.734375 -0.078125zm7.964554 -2.109375l1.640625 0.21875q-0.265625 1.6875 -1.375 2.65625q-1.109375 0.953125 -2.734375 0.953125q-2.015625 0 -3.25 -1.3125q-1.21875 -1.328125 -1.21875 -3.796875q0 -1.59375 0.515625 -2.78125q0.53125 -1.203125 1.609375 -1.796875q1.09375 -0.609375 2.359375 -0.609375q1.609375 0 2.625 0.8125q1.015625 0.8125 1.3125 2.3125l-1.625 0.25q-0.234375 -1.0 -0.828125 -1.5q-0.59375 -0.5 -1.421875 -0.5q-1.265625 0 -2.0625 0.90625q-0.78125 0.90625 -0.78125 2.859375q0 1.984375 0.765625 2.890625q0.765625 0.890625 1.984375 0.890625q0.984375 0 1.640625 -0.59375q0.65625 -0.609375 0.84375 -1.859375zm2.890625 3.609375l0 -13.59375l1.671875 0l0 4.875q1.171875 -1.359375 2.953125 -1.359375q1.09375 0 1.890625 0.4375q0.8125 0.421875 1.15625 1.1875q0.359375 0.765625 0.359375 2.203125l0 6.25l-1.671875 0l0 -6.25q0 -1.25 -0.546875 -1.8125q-0.546875 -0.578125 -1.53125 -0.578125q-0.75 0 -1.40625 0.390625q-0.640625 0.375 -0.921875 1.046875q-0.28125 0.65625 -0.28125 1.8125l0 5.390625l-1.671875 0zm18.746521 4.0q-1.375 -1.75 -2.328125 -4.078125q-0.953125 -2.34375 -0.953125 -4.84375q0 -2.21875 0.703125 -4.234375q0.84375 -2.34375 2.578125 -4.671875l1.203125 0q-1.125 1.921875 -1.484375 2.75q-0.5625 1.28125 -0.890625 2.671875q-0.40625 1.734375 -0.40625 3.484375q0 4.46875 2.78125 8.921875l-1.203125 0zm3.540802 -4.0l0 -13.59375l1.8125 0l0 13.59375l-1.8125 0zm4.980179 0l0 -13.59375l9.171875 0l0 1.59375l-7.375 0l0 4.21875l6.375 0l0 1.609375l-6.375 0l0 6.171875l-1.796875 0zm12.177231 4.0l-1.1875 0q2.765625 -4.453125 2.765625 -8.921875q0 -1.734375 -0.390625 -3.453125q-0.328125 -1.390625 -0.890625 -2.671875q-0.359375 -0.84375 -1.484375 -2.78125l1.1875 0q1.75 2.328125 2.578125 4.671875q0.7187424 2.015625 0.7187424 4.234375q0 2.5 -0.9687424 4.84375q-0.953125 2.328125 -2.328125 4.078125z" fill-rule="nonzero"></path><path fill="#f0e7d5" d="m6.2267656 298.38583l171.3071 0l0 38.740143l-171.3071 0z" fill-rule="nonzero"></path><path fill="#000000" d="m50.785122 324.6759l0 -1.25q-0.9375 1.46875 -2.75 1.46875q-1.171875 0 -2.171875 -0.640625q-0.984375 -0.65625 -1.53125 -1.8125q-0.53125 -1.171875 -0.53125 -2.6875q0 -1.46875 0.484375 -2.671875q0.5 -1.203125 1.46875 -1.84375q0.984375 -0.640625 2.203125 -0.640625q0.890625 0 1.578125 0.375q0.703125 0.375 1.140625 0.984375l0 -4.875l1.65625 0l0 13.59375l-1.546875 0zm-5.28125 -4.921875q0 1.890625 0.796875 2.828125q0.8125 0.9375 1.890625 0.9375q1.09375 0 1.859375 -0.890625q0.765625 -0.890625 0.765625 -2.734375q0 -2.015625 -0.78125 -2.953125q-0.78125 -0.953125 -1.921875 -0.953125q-1.109375 0 -1.859375 0.90625q-0.75 0.90625 -0.75 2.859375zm16.016342 1.75l1.71875 0.21875q-0.40625 1.5 -1.515625 2.34375q-1.09375 0.828125 -2.8125 0.828125q-2.15625 0 -3.421875 -1.328125q-1.265625 -1.328125 -1.265625 -3.734375q0 -2.484375 1.265625 -3.859375q1.28125 -1.375 3.328125 -1.375q1.984375 0 3.234375 1.34375q1.25 1.34375 1.25 3.796875q0 0.140625 -0.015625 0.4375l-7.34375 0q0.09375 1.625 0.921875 2.484375q0.828125 0.859375 2.0625 0.859375q0.90625 0 1.546875 -0.46875q0.65625 -0.484375 1.046875 -1.546875zm-5.484375 -2.703125l5.5 0q-0.109375 -1.234375 -0.625 -1.859375q-0.796875 -0.96875 -2.078125 -0.96875q-1.140625 0 -1.9375 0.78125q-0.78125 0.765625 -0.859375 2.046875zm15.547596 2.265625l1.640625 0.21875q-0.265625 1.6875 -1.375 2.65625q-1.109375 0.953125 -2.734375 0.953125q-2.015625 0 -3.25 -1.3125q-1.21875 -1.328125 -1.21875 -3.796875q0 -1.59375 0.515625 -2.78125q0.53125 -1.203125 1.609375 -1.796875q1.09375 -0.609375 2.359375 -0.609375q1.609375 0 2.625 0.8125q1.015625 0.8125 1.3125 2.3125l-1.625 0.25q-0.234375 -1.0 -0.828125 -1.5q-0.59375 -0.5 -1.421875 -0.5q-1.265625 0 -2.0625 0.90625q-0.78125 0.90625 -0.78125 2.859375q0 1.984375 0.765625 2.890625q0.765625 0.890625 1.984375 0.890625q0.984375 0 1.640625 -0.59375q0.65625 -0.609375 0.84375 -1.859375zm2.265625 -1.3125q0 -2.734375 1.53125 -4.0625q1.265625 -1.09375 3.09375 -1.09375q2.03125 0 3.3125 1.34375q1.296875 1.328125 1.296875 3.671875q0 1.90625 -0.578125 3.0q-0.5625 1.078125 -1.65625 1.6875q-1.078125 0.59375 -2.375 0.59375q-2.0625 0 -3.34375 -1.328125q-1.28125 -1.328125 -1.28125 -3.8125zm1.71875 0q0 1.890625 0.828125 2.828125q0.828125 0.9375 2.078125 0.9375q1.25 0 2.0625 -0.9375q0.828125 -0.953125 0.828125 -2.890625q0 -1.828125 -0.828125 -2.765625q-0.828125 -0.9375 -2.0625 -0.9375q-1.25 0 -2.078125 0.9375q-0.828125 0.9375 -0.828125 2.828125zm15.672592 4.921875l0 -1.25q-0.9375 1.46875 -2.75 1.46875q-1.171875 0 -2.171875 -0.640625q-0.984375 -0.65625 -1.53125 -1.8125q-0.53125 -1.171875 -0.53125 -2.6875q0 -1.46875 0.484375 -2.671875q0.5 -1.203125 1.46875 -1.84375q0.984375 -0.640625 2.203125 -0.640625q0.890625 0 1.578125 0.375q0.703125 0.375 1.140625 0.984375l0 -4.875l1.65625 0l0 13.59375l-1.546875 0zm-5.28125 -4.921875q0 1.890625 0.796875 2.828125q0.8125 0.9375 1.890625 0.9375q1.09375 0 1.859375 -0.890625q0.765625 -0.890625 0.765625 -2.734375q0 -2.015625 -0.78125 -2.953125q-0.78125 -0.953125 -1.921875 -0.953125q-1.109375 0 -1.859375 0.90625q-0.75 0.90625 -0.75 2.859375zm16.016342 1.75l1.71875 0.21875q-0.40625 1.5 -1.515625 2.34375q-1.09375 0.828125 -2.8125 0.828125q-2.15625 0 -3.421875 -1.328125q-1.265625 -1.328125 -1.265625 -3.734375q0 -2.484375 1.265625 -3.859375q1.28125 -1.375 3.328125 -1.375q1.984375 0 3.234375 1.34375q1.25 1.34375 1.25 3.796875q0 0.140625 -0.015625 0.4375l-7.34375 0q0.09375 1.625 0.921875 2.484375q0.828125 0.859375 2.0625 0.859375q0.90625 0 1.546875 -0.46875q0.65625 -0.484375 1.046875 -1.546875zm-5.484375 -2.703125l5.5 0q-0.109375 -1.234375 -0.625 -1.859375q-0.796875 -0.96875 -2.078125 -0.96875q-1.140625 0 -1.9375 0.78125q-0.78125 0.765625 -0.859375 2.046875zm17.480896 9.875q-1.375 -1.75 -2.328125 -4.078125q-0.953125 -2.34375 -0.953125 -4.84375q0 -2.21875 0.703125 -4.234375q0.84375 -2.34375 2.578125 -4.671875l1.203125 0q-1.125 1.921875 -1.484375 2.75q-0.5625 1.28125 -0.890625 2.671875q-0.40625 1.734375 -0.40625 3.484375q0 4.46875 2.78125 8.921875l-1.203125 0zm3.540802 -4.0l0 -13.59375l1.8125 0l0 13.59375l-1.8125 0zm4.886429 0l0 -13.59375l4.6875 0q1.578125 0 2.421875 0.1875q1.15625 0.265625 1.984375 0.96875q1.078125 0.921875 1.609375 2.34375q0.53125 1.40625 0.53125 3.21875q0 1.546875 -0.359375 2.75q-0.359375 1.1875 -0.921875 1.984375q-0.5625 0.78125 -1.234375 1.234375q-0.671875 0.4375 -1.625 0.671875q-0.953125 0.234375 -2.1875 0.234375l-4.90625 0zm1.796875 -1.609375l2.90625 0q1.34375 0 2.109375 -0.25q0.765625 -0.25 1.21875 -0.703125q0.640625 -0.640625 1.0 -1.71875q0.359375 -1.078125 0.359375 -2.625q0 -2.125 -0.703125 -3.265625q-0.703125 -1.15625 -1.703125 -1.546875q-0.71875 -0.28125 -2.328125 -0.28125l-2.859375 0l0 10.390625zm12.551056 5.609375l-1.1875 0q2.765625 -4.453125 2.765625 -8.921875q0 -1.734375 -0.390625 -3.453125q-0.328125 -1.390625 -0.890625 -2.671875q-0.359375 -0.84375 -1.484375 -2.78125l1.1875 0q1.75 2.328125 2.578125 4.671875q0.71875 2.015625 0.71875 4.234375q0 2.5 -0.96875 4.84375q-0.953125 2.328125 -2.328125 4.078125z" fill-rule="nonzero"></path><path fill="#f0e7d5" d="m6.2267656 344.66928l171.3071 0l0 38.740173l-171.3071 0z" fill-rule="nonzero"></path><path fill="#000000" d="m45.961193 367.7875l1.71875 0.21875q-0.40625 1.5 -1.515625 2.34375q-1.09375 0.828125 -2.8125 0.828125q-2.15625 0 -3.421875 -1.328125q-1.265625 -1.328125 -1.265625 -3.734375q0 -2.484375 1.265625 -3.859375q1.28125 -1.375 3.328125 -1.375q1.984375 0 3.234375 1.34375q1.25 1.34375 1.25 3.796875q0 0.140625 -0.015625 0.4375l-7.34375 0q0.09375 1.625 0.921875 2.484375q0.828125 0.859375 2.0625 0.859375q0.90625 0 1.546875 -0.46875q0.65625 -0.484375 1.046875 -1.546875zm-5.484375 -2.703125l5.5 0q-0.109375 -1.234375 -0.625 -1.859375q-0.796875 -0.96875 -2.078125 -0.96875q-1.140625 0 -1.9375 0.78125q-0.78125 0.765625 -0.859375 2.046875zm8.000717 5.875l3.59375 -5.125l-3.328125 -4.734375l2.09375 0l1.515625 2.3125q0.421875 0.65625 0.671875 1.109375q0.421875 -0.609375 0.765625 -1.09375l1.65625 -2.328125l1.984375 0l-3.390625 4.640625l3.65625 5.21875l-2.046875 0l-2.03125 -3.0625l-0.53125 -0.828125l-2.59375 3.890625l-2.015625 0zm17.187504 -3.171875l1.71875 0.21875q-0.40625 1.5 -1.515625 2.34375q-1.09375 0.828125 -2.8125038 0.828125q-2.15625 0 -3.421875 -1.328125q-1.265625 -1.328125 -1.265625 -3.734375q0 -2.484375 1.265625 -3.859375q1.28125 -1.375 3.328125 -1.375q1.9843788 0 3.2343788 1.34375q1.25 1.34375 1.25 3.796875q0 0.140625 -0.015625 0.4375l-7.343754 0q0.09375 1.625 0.921875 2.484375q0.828125 0.859375 2.0625 0.859375q0.90625 0 1.5468788 -0.46875q0.65625 -0.484375 1.046875 -1.546875zm-5.484379 -2.703125l5.500004 0q-0.109375 -1.234375 -0.625 -1.859375q-0.796875 -0.96875 -2.0781288 -0.96875q-1.140625 0 -1.9375 0.78125q-0.78125 0.765625 -0.859375 2.046875zm15.547596 2.265625l1.640625 0.21875q-0.265625 1.6875 -1.375 2.65625q-1.109375 0.953125 -2.734375 0.953125q-2.015625 0 -3.25 -1.3125q-1.21875 -1.328125 -1.21875 -3.796875q0 -1.59375 0.515625 -2.78125q0.53125 -1.203125 1.609375 -1.796875q1.09375 -0.609375 2.359375 -0.609375q1.609375 0 2.625 0.8125q1.015625 0.8125 1.3125 2.3125l-1.625 0.25q-0.234375 -1.0 -0.828125 -1.5q-0.59375 -0.5 -1.421875 -0.5q-1.265625 0 -2.0625 0.90625q-0.78125 0.90625 -0.78125 2.859375q0 1.984375 0.765625 2.890625q0.765625 0.890625 1.984375 0.890625q0.984375 0 1.640625 -0.59375q0.65625 -0.609375 0.84375 -1.859375zm9.34375 3.609375l0 -1.453125q-1.140625 1.671875 -3.125 1.671875q-0.859375 0 -1.625 -0.328125q-0.75 -0.34375 -1.125 -0.84375q-0.359375 -0.5 -0.515625 -1.234375q-0.09375 -0.5 -0.09375 -1.5625l0 -6.109375l1.671875 0l0 5.46875q0 1.3125 0.09375 1.765625q0.15625 0.65625 0.671875 1.03125q0.515625 0.375 1.265625 0.375q0.75 0 1.40625 -0.375q0.65625 -0.390625 0.921875 -1.046875q0.28125 -0.671875 0.28125 -1.9375l0 -5.28125l1.671875 0l0 9.859375l-1.5 0zm7.578842 -1.5l0.234375 1.484375q-0.703125 0.140625 -1.265625 0.140625q-0.90625 0 -1.40625 -0.28125q-0.5 -0.296875 -0.703125 -0.75q-0.203125 -0.46875 -0.203125 -1.984375l0 -5.65625l-1.234375 0l0 -1.3125l1.234375 0l0 -2.4375l1.65625 -1.0l0 3.4375l1.6875 0l0 1.3125l-1.6875 0l0 5.75q0 0.71875 0.078125 0.921875q0.09375 0.203125 0.296875 0.328125q0.203125 0.125 0.578125 0.125q0.265625 0 0.734375 -0.078125zm8.277054 -1.671875l1.71875 0.21875q-0.40625 1.5 -1.515625 2.34375q-1.09375 0.828125 -2.8125 0.828125q-2.15625 0 -3.421875 -1.328125q-1.265625 -1.328125 -1.265625 -3.734375q0 -2.484375 1.265625 -3.859375q1.28125 -1.375 3.328125 -1.375q1.984375 0 3.234375 1.34375q1.25 1.34375 1.25 3.796875q0 0.140625 -0.015625 0.4375l-7.34375 0q0.09375 1.625 0.921875 2.484375q0.828125 0.859375 2.0625 0.859375q0.90625 0 1.546875 -0.46875q0.65625 -0.484375 1.046875 -1.546875zm-5.484375 -2.703125l5.5 0q-0.109375 -1.234375 -0.625 -1.859375q-0.796875 -0.96875 -2.078125 -0.96875q-1.140625 0 -1.9375 0.78125q-0.78125 0.765625 -0.859375 2.046875zm17.480896 9.875q-1.375 -1.75 -2.328125 -4.078125q-0.953125 -2.34375 -0.953125 -4.84375q0 -2.21875 0.703125 -4.234375q0.84375 -2.34375 2.578125 -4.671875l1.203125 0q-1.125 1.921875 -1.484375 2.75q-0.5625 1.28125 -0.890625 2.671875q-0.40625 1.734375 -0.40625 3.484375q0 4.46875 2.78125 8.921875l-1.203125 0zm3.275177 -4.0l0 -13.59375l9.84375 0l0 1.59375l-8.046875 0l0 4.171875l7.53125 0l0 1.59375l-7.53125 0l0 4.625l8.359375 0l0 1.609375l-10.15625 0zm11.021698 0l5.265625 -7.09375l-4.640625 -6.5l2.140625 0l2.46875 3.484375q0.78125 1.078125 1.09375 1.671875q0.453125 -0.75 1.078125 -1.546875l2.734375 -3.609375l1.96875 0l-4.78125 6.40625l5.140625 7.1875l-2.21875 0l-3.421875 -4.859375q-0.296875 -0.40625 -0.59375 -0.90625q-0.453125 0.75 -0.65625 1.03125l-3.40625 4.734375l-2.171875 0zm14.709198 4.0l-1.1875 0q2.765625 -4.453125 2.765625 -8.921875q0 -1.734375 -0.390625 -3.453125q-0.328125 -1.390625 -0.890625 -2.671875q-0.359375 -0.84375 -1.484375 -2.78125l1.1875 0q1.75 2.328125 2.578125 4.671875q0.71875 2.015625 0.71875 4.234375q0 2.5 -0.96875 4.84375q-0.953125 2.328125 -2.328125 4.078125z" fill-rule="nonzero"></path><path fill="#f0e7d5" d="m6.2267656 390.95276l171.3071 0l0 38.740143l-171.3071 0z" fill-rule="nonzero"></path><path fill="#000000" d="m28.876469 417.24283l0 -9.859375l1.5 0l0 1.390625q0.453125 -0.71875 1.21875 -1.15625q0.78125 -0.453125 1.765625 -0.453125q1.09375 0 1.796875 0.453125q0.703125 0.453125 0.984375 1.28125q1.171875 -1.734375 3.046875 -1.734375q1.46875 0 2.25 0.8125q0.796875 0.8125 0.796875 2.5l0 6.765625l-1.671875 0l0 -6.203125q0 -1.0 -0.15625 -1.4375q-0.15625 -0.453125 -0.59375 -0.71875q-0.421875 -0.265625 -1.0 -0.265625q-1.03125 0 -1.71875 0.6875q-0.6875 0.6875 -0.6875 2.21875l0 5.71875l-1.671875 0l0 -6.40625q0 -1.109375 -0.40625 -1.65625q-0.40625 -0.5625 -1.34375 -0.5625q-0.703125 0 -1.3125 0.375q-0.59375 0.359375 -0.859375 1.078125q-0.265625 0.71875 -0.265625 2.0625l0 5.109375l-1.671875 0zm22.290802 -3.171875l1.71875 0.21875q-0.40625 1.5 -1.515625 2.34375q-1.09375 0.828125 -2.8125 0.828125q-2.15625 0 -3.421875 -1.328125q-1.265625 -1.328125 -1.265625 -3.734375q0 -2.484375 1.265625 -3.859375q1.28125 -1.375 3.328125 -1.375q1.984375 0 3.234375 1.34375q1.25 1.34375 1.25 3.796875q0 0.140625 -0.015625 0.4375l-7.34375 0q0.09375 1.625 0.921875 2.484375q0.828125 0.859375 2.0625 0.859375q0.90625 0 1.546875 -0.46875q0.65625 -0.484375 1.046875 -1.546875zm-5.484375 -2.703125l5.5 0q-0.109375 -1.234375 -0.625 -1.859375q-0.796875 -0.96875 -2.078125 -0.96875q-1.140625 0 -1.9375 0.78125q-0.78125 0.765625 -0.859375 2.046875zm9.110092 5.875l0 -9.859375l1.5 0l0 1.390625q0.453125 -0.71875 1.21875 -1.15625q0.78125 -0.453125 1.765625 -0.453125q1.09375 0 1.796875 0.453125q0.703125 0.453125 0.984375 1.28125q1.171875 -1.734375 3.0468788 -1.734375q1.46875 0 2.25 0.8125q0.796875 0.8125 0.796875 2.5l0 6.765625l-1.671875 0l0 -6.203125q0 -1.0 -0.15625 -1.4375q-0.15625 -0.453125 -0.59375 -0.71875q-0.421875 -0.265625 -1.0 -0.265625q-1.0312538 0 -1.7187538 0.6875q-0.6875 0.6875 -0.6875 2.21875l0 5.71875l-1.671875 0l0 -6.40625q0 -1.109375 -0.40625 -1.65625q-0.40625 -0.5625 -1.34375 -0.5625q-0.703125 0 -1.3125 0.375q-0.59375 0.359375 -0.859375 1.078125q-0.265625 0.71875 -0.265625 2.0625l0 5.109375l-1.671875 0zm14.915806 -4.921875q0 -2.734375 1.53125 -4.0625q1.265625 -1.09375 3.09375 -1.09375q2.03125 0 3.3125 1.34375q1.296875 1.328125 1.296875 3.671875q0 1.90625 -0.578125 3.0q-0.5625 1.078125 -1.65625 1.6875q-1.078125 0.59375 -2.375 0.59375q-2.0625 0 -3.34375 -1.328125q-1.28125 -1.328125 -1.28125 -3.8125zm1.71875 0q0 1.890625 0.828125 2.828125q0.828125 0.9375 2.078125 0.9375q1.25 0 2.0625 -0.9375q0.828125 -0.953125 0.828125 -2.890625q0 -1.828125 -0.828125 -2.765625q-0.828125 -0.9375 -2.0625 -0.9375q-1.25 0 -2.078125 0.9375q-0.828125 0.9375 -0.828125 2.828125zm9.266342 4.921875l0 -9.859375l1.5 0l0 1.5q0.578125 -1.046875 1.0625 -1.375q0.484375 -0.34375 1.078125 -0.34375q0.84375 0 1.71875 0.546875l-0.578125 1.546875q-0.609375 -0.359375 -1.234375 -0.359375q-0.546875 0 -0.984375 0.328125q-0.421875 0.328125 -0.609375 0.90625q-0.28125 0.890625 -0.28125 1.953125l0 5.15625l-1.671875 0zm6.150177 3.796875l-0.171875 -1.5625q0.546875 0.140625 0.953125 0.140625q0.546875 0 0.875 -0.1875q0.34375 -0.1875 0.5625 -0.515625q0.15625 -0.25 0.5 -1.25q0.046875 -0.140625 0.15625 -0.40625l-3.734375 -9.875l1.796875 0l2.046875 5.71875q0.40625 1.078125 0.71875 2.28125q0.28125 -1.15625 0.6875 -2.25l2.09375 -5.75l1.671875 0l-3.75 10.03125q-0.59375 1.625 -0.9375 2.234375q-0.4375 0.828125 -1.015625 1.203125q-0.578125 0.390625 -1.375 0.390625q-0.484375 0 -1.078125 -0.203125zm17.777054 0.203125q-1.375 -1.75 -2.328125 -4.078125q-0.953125 -2.34375 -0.953125 -4.84375q0 -2.21875 0.703125 -4.234375q0.84375 -2.34375 2.578125 -4.671875l1.203125 0q-1.125 1.921875 -1.484375 2.75q-0.5625 1.28125 -0.890625 2.671875q-0.40625 1.734375 -0.40625 3.484375q0 4.46875 2.78125 8.921875l-1.203125 0zm3.181427 -4.0l0 -13.59375l2.71875 0l3.21875 9.625q0.4375 1.34375 0.640625 2.015625q0.234375 -0.75 0.734375 -2.1875l3.25 -9.453125l2.421875 0l0 13.59375l-1.734375 0l0 -11.390625l-3.953125 11.390625l-1.625 0l-3.9375 -11.578125l0 11.578125l-1.734375 0zm15.634552 0l0 -13.59375l9.843742 0l0 1.59375l-8.046867 0l0 4.171875l7.5312424 0l0 1.59375l-7.5312424 0l0 4.625l8.359367 0l0 1.609375l-10.156242 0zm12.349815 0l0 -13.59375l2.71875 0l3.21875 9.625q0.4375 1.34375 0.640625 2.015625q0.234375 -0.75 0.734375 -2.1875l3.25 -9.453125l2.421875 0l0 13.59375l-1.734375 0l0 -11.390625l-3.953125 11.390625l-1.625 0l-3.9375 -11.578125l0 11.578125l-1.734375 0zm16.478302 4.0l-1.1875 0q2.765625 -4.453125 2.765625 -8.921875q0 -1.734375 -0.390625 -3.453125q-0.328125 -1.390625 -0.890625 -2.671875q-0.359375 -0.84375 -1.484375 -2.78125l1.1875 0q1.75 2.328125 2.578125 4.671875q0.71875 2.015625 0.71875 4.234375q0 2.5 -0.96875 4.84375q-0.953125 2.328125 -2.328125 4.078125z" fill-rule="nonzero"></path><path fill="#f0e7d5" d="m6.2267656 437.2362l171.3071 0l0 38.740173l-171.3071 0z" fill-rule="nonzero"></path><path fill="#000000" d="m31.729412 463.5263l-3.015625 -9.859375l1.71875 0l1.5625 5.6875l0.59375 2.125q0.03125 -0.15625 0.5 -2.03125l1.578125 -5.78125l1.71875 0l1.46875 5.71875l0.484375 1.890625l0.578125 -1.90625l1.6875 -5.703125l1.625 0l-3.078125 9.859375l-1.734375 0l-1.578125 -5.90625l-0.375 -1.671875l-2.0 7.578125l-1.734375 0zm11.629196 0l0 -9.859375l1.5 0l0 1.5q0.578125 -1.046875 1.0625 -1.375q0.484375 -0.34375 1.078125 -0.34375q0.84375 0 1.71875 0.546875l-0.578125 1.546875q-0.609375 -0.359375 -1.234375 -0.359375q-0.546875 0 -0.984375 0.328125q-0.421875 0.328125 -0.609375 0.90625q-0.28125 0.890625 -0.28125 1.953125l0 5.15625l-1.671875 0zm6.243927 -11.6875l0 -1.90625l1.671875 0l0 1.90625l-1.671875 0zm0 11.6875l0 -9.859375l1.671875 0l0 9.859375l-1.671875 0zm7.785446 -1.5l0.234375 1.484375q-0.703125 0.140625 -1.265625 0.140625q-0.90625 0 -1.40625 -0.28125q-0.5 -0.296875 -0.703125 -0.75q-0.203125 -0.46875 -0.203125 -1.984375l0 -5.65625l-1.234375 0l0 -1.3125l1.234375 0l0 -2.4375l1.65625 -1.0l0 3.4375l1.6875 0l0 1.3125l-1.6875 0l0 5.75q0 0.71875 0.078125 0.921875q0.09375 0.203125 0.296875 0.328125q0.203125 0.125 0.578125 0.125q0.265625 0 0.734375 -0.078125zm8.277058 -1.671875l1.71875 0.21875q-0.40625 1.5 -1.515625 2.34375q-1.09375 0.828125 -2.8125038 0.828125q-2.15625 0 -3.421875 -1.328125q-1.265625 -1.328125 -1.265625 -3.734375q0 -2.484375 1.265625 -3.859375q1.28125 -1.375 3.328125 -1.375q1.9843788 0 3.2343788 1.34375q1.25 1.34375 1.25 3.796875q0 0.140625 -0.015625 0.4375l-7.343754 0q0.09375 1.625 0.921875 2.484375q0.828125 0.859375 2.0625 0.859375q0.90625 0 1.5468788 -0.46875q0.65625 -0.484375 1.046875 -1.546875zm-5.484379 -2.703125l5.500004 0q-0.109375 -1.234375 -0.625 -1.859375q-0.796875 -0.96875 -2.0781288 -0.96875q-1.140625 0 -1.9375 0.78125q-0.78125 0.765625 -0.859375 2.046875zm10.656971 5.875l-1.546875 0l0 -13.59375l1.65625 0l0 4.84375q1.0625 -1.328125 2.703125 -1.328125q0.90625 0 1.71875 0.375q0.8125 0.359375 1.328125 1.03125q0.53125 0.65625 0.828125 1.59375q0.296875 0.9375 0.296875 2.0q0 2.53125 -1.25 3.921875q-1.25 1.375 -3.0 1.375q-1.75 0 -2.734375 -1.453125l0 1.234375zm-0.015625 -5.0q0 1.765625 0.46875 2.5625q0.796875 1.28125 2.140625 1.28125q1.09375 0 1.890625 -0.9375q0.796875 -0.953125 0.796875 -2.84375q0 -1.921875 -0.765625 -2.84375q-0.765625 -0.921875 -1.84375 -0.921875q-1.09375 0 -1.890625 0.953125q-0.796875 0.953125 -0.796875 2.75zm15.281967 3.78125q-0.9375 0.796875 -1.796875 1.125q-0.859375 0.3125 -1.84375 0.3125q-1.609375 0 -2.484375 -0.78125q-0.875 -0.796875 -0.875 -2.03125q0 -0.734375 0.328125 -1.328125q0.328125 -0.59375 0.859375 -0.953125q0.53125 -0.359375 1.203125 -0.546875q0.5 -0.140625 1.484375 -0.25q2.03125 -0.25 2.984375 -0.578125q0 -0.34375 0 -0.4375q0 -1.015625 -0.46875 -1.4375q-0.640625 -0.5625 -1.90625 -0.5625q-1.171875 0 -1.734375 0.40625q-0.5625 0.40625 -0.828125 1.46875l-1.640625 -0.234375q0.234375 -1.046875 0.734375 -1.6875q0.515625 -0.640625 1.46875 -0.984375q0.96875 -0.359375 2.25 -0.359375q1.265625 0 2.046875 0.296875q0.78125 0.296875 1.15625 0.75q0.375 0.453125 0.515625 1.140625q0.09375 0.421875 0.09375 1.53125l0 2.234375q0 2.328125 0.09375 2.953125q0.109375 0.609375 0.4375 1.171875l-1.75 0q-0.265625 -0.515625 -0.328125 -1.21875zm-0.140625 -3.71875q-0.90625 0.359375 -2.734375 0.625q-1.03125 0.140625 -1.453125 0.328125q-0.421875 0.1875 -0.65625 0.546875q-0.234375 0.359375 -0.234375 0.796875q0 0.671875 0.5 1.125q0.515625 0.4375 1.484375 0.4375q0.96875 0 1.71875 -0.421875q0.75 -0.4375 1.109375 -1.15625q0.265625 -0.578125 0.265625 -1.671875l0 -0.609375zm10.516342 1.328125l1.640625 0.21875q-0.265625 1.6875 -1.375 2.65625q-1.109375 0.953125 -2.734375 0.953125q-2.015625 0 -3.25 -1.3125q-1.21875 -1.328125 -1.21875 -3.796875q0 -1.59375 0.515625 -2.78125q0.53125 -1.203125 1.609375 -1.796875q1.09375 -0.609375 2.359375 -0.609375q1.609375 0 2.625 0.8125q1.015625 0.8125 1.3125 2.3125l-1.625 0.25q-0.234375 -1.0 -0.828125 -1.5q-0.59375 -0.5 -1.421875 -0.5q-1.265625 0 -2.0625 0.90625q-0.78125 0.90625 -0.78125 2.859375q0 1.984375 0.765625 2.890625q0.765625 0.890625 1.984375 0.890625q0.984375 0 1.640625 -0.59375q0.65625 -0.609375 0.84375 -1.859375zm2.90625 3.609375l0 -13.59375l1.671875 0l0 7.75l3.953125 -4.015625l2.15625 0l-3.765625 3.65625l4.140625 6.203125l-2.0625 0l-3.25 -5.03125l-1.171875 1.125l0 3.90625l-1.671875 0zm17.683304 4.0q-1.375 -1.75 -2.328125 -4.078125q-0.953125 -2.34375 -0.953125 -4.84375q0 -2.21875 0.703125 -4.234375q0.84375 -2.34375 2.578125 -4.671875l1.203125 0q-1.125 1.921875 -1.484375 2.75q-0.5625 1.28125 -0.890625 2.671875q-0.40625 1.734375 -0.40625 3.484375q0 4.46875 2.78125 8.921875l-1.203125 0zm5.618927 -4.0l-3.609375 -13.59375l1.84375 0l2.0625 8.90625q0.34375 1.40625 0.578125 2.78125q0.515625 -2.171875 0.609375 -2.515625l2.59375 -9.171875l2.171875 0l1.953125 6.875q0.734375 2.5625 1.046875 4.8125q0.265625 -1.28125 0.6875 -2.953125l2.1249847 -8.734375l1.8125 0l-3.7343597 13.59375l-1.734375 0l-2.859375 -10.359375q-0.359375 -1.296875 -0.421875 -1.59375q-0.21875 0.9375 -0.40625 1.59375l-2.890625 10.359375l-1.828125 0zm15.155533 0l0 -13.59375l5.109375 0q1.546875 0 2.484375 0.40625q0.953125 0.40625 1.484375 1.265625q0.53125 0.859375 0.53125 1.796875q0 0.875 -0.46875 1.65625q-0.46875 0.765625 -1.4375 1.234375q1.234375 0.359375 1.890625 1.234375q0.671875 0.875 0.671875 2.0625q0 0.953125 -0.40625 1.78125q-0.390625 0.8125 -0.984375 1.265625q-0.59375 0.4375 -1.5 0.671875q-0.890625 0.21875 -2.1875 0.21875l-5.1875 0zm1.796875 -7.890625l2.9375 0q1.203125 0 1.71875 -0.15625q0.6875 -0.203125 1.03125 -0.671875q0.359375 -0.46875 0.359375 -1.1875q0 -0.671875 -0.328125 -1.1875q-0.328125 -0.515625 -0.9375 -0.703125q-0.59375 -0.203125 -2.0625 -0.203125l-2.71875 0l0 4.109375zm0 6.28125l3.390625 0q0.875 0 1.21875 -0.0625q0.625 -0.109375 1.046875 -0.359375q0.421875 -0.265625 0.6875 -0.765625q0.265625 -0.5 0.265625 -1.140625q0 -0.765625 -0.390625 -1.328125q-0.390625 -0.5625 -1.078125 -0.78125q-0.6875 -0.234375 -1.984375 -0.234375l-3.15625 0l0 4.671875zm11.599823 5.609375l-1.1875 0q2.765625 -4.453125 2.765625 -8.921875q0 -1.734375 -0.390625 -3.453125q-0.328125 -1.390625 -0.890625 -2.671875q-0.359375 -0.84375 -1.484375 -2.78125l1.1875 0q1.75 2.328125 2.578125 4.671875q0.71875 2.015625 0.71875 4.234375q0 2.5 -0.96875 4.84375q-0.953125 2.328125 -2.328125 4.078125z" fill-rule="nonzero"></path><path fill="#f0e7d5" d="m193.59157 298.3861l63.622055 0l0 38.740173l-63.622055 0z" fill-rule="nonzero"></path><path fill="#f0e7d5" d="m193.59157 344.66928l63.622055 0l0 38.740173l-63.622055 0z" fill-rule="nonzero"></path><path fill="#f0e7d5" d="m193.59157 390.95245l63.622055 0l0 38.740173l-63.622055 0z" fill-rule="nonzero"></path><path fill="#f0e7d5" d="m193.59157 437.23563l63.622055 0l0 38.740173l-63.622055 0z" fill-rule="nonzero"></path><path fill="#f0e7d5" d="m193.59157 252.10295l63.622055 0l0 38.740158l-63.622055 0z" fill-rule="nonzero"></path><path fill="#f0e7d5" d="m266.04507 298.3861l63.62204 0l0 38.740173l-63.62204 0z" fill-rule="nonzero"></path><path fill="#f0e7d5" d="m266.04507 344.66928l63.62204 0l0 38.740173l-63.62204 0z" fill-rule="nonzero"></path><path fill="#f0e7d5" d="m266.04507 390.95245l63.62204 0l0 38.740173l-63.62204 0z" fill-rule="nonzero"></path><path fill="#f0e7d5" d="m266.04507 437.23563l63.62204 0l0 38.740173l-63.62204 0z" fill-rule="nonzero"></path><path fill="#674ea7" d="m266.04507 252.10295l63.62204 0l0 38.740158l-63.62204 0z" fill-rule="nonzero"></path><path fill="#ffffff" d="m276.8107 278.39304l0 -13.59375l1.8125 0l0 13.59375l-1.8125 0zm4.9801636 0l0 -13.59375l9.171875 0l0 1.59375l-7.375 0l0 4.21875l6.375 0l0 1.609375l-6.375 0l0 6.171875l-1.796875 0z" fill-rule="nonzero"></path><path fill="#674ea7" d="m338.49854 298.3861l63.62207 0l0 38.740173l-63.62207 0z" fill-rule="nonzero"></path><path fill="#ffffff" d="m362.74707 324.6762l0 -13.59375l1.8125 0l0 13.59375l-1.8125 0zm4.886444 0l0 -13.59375l4.6875 0q1.578125 0 2.421875 0.1875q1.15625 0.265625 1.984375 0.96875q1.078125 0.921875 1.609375 2.34375q0.53125 1.40625 0.53125 3.21875q0 1.546875 -0.359375 2.75q-0.359375 1.1875 -0.921875 1.984375q-0.5625 0.78125 -1.234375 1.234375q-0.671875 0.4375 -1.625 0.671875q-0.953125 0.234375 -2.1875 0.234375l-4.90625 0zm1.796875 -1.609375l2.90625 0q1.34375 0 2.109375 -0.25q0.765625 -0.25 1.21875 -0.703125q0.640625 -0.640625 1.0 -1.71875q0.359375 -1.078125 0.359375 -2.625q0 -2.125 -0.703125 -3.265625q-0.703125 -1.15625 -1.703125 -1.546875q-0.71875 -0.28125 -2.328125 -0.28125l-2.859375 0l0 10.390625z" fill-rule="nonzero"></path><path fill="#f0e7d5" d="m338.49854 344.66928l63.62207 0l0 38.740173l-63.62207 0z" fill-rule="nonzero"></path><path fill="#f0e7d5" d="m338.49854 390.95245l63.62207 0l0 38.740173l-63.62207 0z" fill-rule="nonzero"></path><path fill="#f0e7d5" d="m338.49854 437.23563l63.62207 0l0 38.740173l-63.62207 0z" fill-rule="nonzero"></path><path fill="#00ff00" d="m338.49854 252.10295l63.62207 0l0 38.740158l-63.62207 0z" fill-rule="nonzero"></path><path fill="#ffffff" d="m349.26416 278.39304l0 -13.59375l1.8125 0l0 13.59375l-1.8125 0zm4.980194 0l0 -13.59375l9.171875 0l0 1.59375l-7.375 0l0 4.21875l6.375 0l0 1.609375l-6.375 0l0 6.171875l-1.796875 0z" fill-rule="nonzero"></path><path fill="#00ff00" d="m410.95203 298.3861l63.62207 0l0 38.740173l-63.62207 0z" fill-rule="nonzero"></path><path fill="#ffffff" d="m435.20056 324.6762l0 -13.59375l1.8125 0l0 13.59375l-1.8125 0zm4.886444 0l0 -13.59375l4.6875 0q1.578125 0 2.421875 0.1875q1.15625 0.265625 1.984375 0.96875q1.078125 0.921875 1.609375 2.34375q0.53125 1.40625 0.53125 3.21875q0 1.546875 -0.359375 2.75q-0.359375 1.1875 -0.921875 1.984375q-0.5625 0.78125 -1.234375 1.234375q-0.671875 0.4375 -1.625 0.671875q-0.953125 0.234375 -2.1875 0.234375l-4.90625 0zm1.796875 -1.609375l2.90625 0q1.34375 0 2.109375 -0.25q0.765625 -0.25 1.21875 -0.703125q0.640625 -0.640625 1.0 -1.71875q0.359375 -1.078125 0.359375 -2.625q0 -2.125 -0.703125 -3.265625q-0.703125 -1.15625 -1.703125 -1.546875q-0.71875 -0.28125 -2.328125 -0.28125l-2.859375 0l0 10.390625z" fill-rule="nonzero"></path><path fill="#674ea7" d="m410.95203 344.66928l63.62207 0l0 38.740173l-63.62207 0z" fill-rule="nonzero"></path><path fill="#ffffff" d="m431.8195 370.95938l0 -13.59375l9.84375 0l0 1.59375l-8.046875 0l0 4.171875l7.53125 0l0 1.59375l-7.53125 0l0 4.625l8.359375 0l0 1.609375l-10.15625 0zm11.021698 0l5.265625 -7.09375l-4.640625 -6.5l2.140625 0l2.46875 3.484375q0.78125 1.078125 1.09375 1.671875q0.453125 -0.75 1.078125 -1.546875l2.734375 -3.609375l1.96875 0l-4.78125 6.40625l5.140625 7.1875l-2.21875 0l-3.421875 -4.859375q-0.296875 -0.40625 -0.59375 -0.90625q-0.453125 0.75 -0.65625 1.03125l-3.40625 4.734375l-2.171875 0z" fill-rule="nonzero"></path><path fill="#f0e7d5" d="m410.95203 390.95245l63.62207 0l0 38.740173l-63.62207 0z" fill-rule="nonzero"></path><path fill="#f0e7d5" d="m410.95203 437.23563l63.62207 0l0 38.740173l-63.62207 0z" fill-rule="nonzero"></path><path fill="#e69138" d="m410.95203 252.10295l63.62207 0l0 38.740158l-63.62207 0z" fill-rule="nonzero"></path><path fill="#ffffff" d="m421.71765 278.39304l0 -13.59375l1.8125 0l0 13.59375l-1.8125 0zm4.980194 0l0 -13.59375l9.171875 0l0 1.59375l-7.375 0l0 4.21875l6.375 0l0 1.609375l-6.375 0l0 6.171875l-1.796875 0z" fill-rule="nonzero"></path><path fill="#e69138" d="m483.40552 298.3861l63.62207 0l0 38.740173l-63.62207 0z" fill-rule="nonzero"></path><path fill="#ffffff" d="m507.65405 324.6762l0 -13.59375l1.8125 0l0 13.59375l-1.8125 0zm4.8864136 0l0 -13.59375l4.6875 0q1.578125 0 2.421875 0.1875q1.15625 0.265625 1.984375 0.96875q1.078125 0.921875 1.609375 2.34375q0.53125 1.40625 0.53125 3.21875q0 1.546875 -0.359375 2.75q-0.359375 1.1875 -0.921875 1.984375q-0.5625 0.78125 -1.234375 1.234375q-0.671875 0.4375 -1.625 0.671875q-0.953125 0.234375 -2.1875 0.234375l-4.90625 0zm1.796875 -1.609375l2.90625 0q1.34375 0 2.109375 -0.25q0.765625 -0.25 1.21875 -0.703125q0.640625 -0.640625 1.0 -1.71875q0.359375 -1.078125 0.359375 -2.625q0 -2.125 -0.703125 -3.265625q-0.703125 -1.15625 -1.703125 -1.546875q-0.71875 -0.28125 -2.328125 -0.28125l-2.859375 0l0 10.390625z" fill-rule="nonzero"></path><path fill="#00ff00" d="m483.40552 344.66928l63.62207 0l0 38.740173l-63.62207 0z" fill-rule="nonzero"></path><path fill="#ffffff" d="m504.27298 370.95938l0 -13.59375l9.8437805 0l0 1.59375l-8.0469055 0l0 4.171875l7.5312805 0l0 1.59375l-7.5312805 0l0 4.625l8.3594055 0l0 1.609375l-10.1562805 0zm11.021698 0l5.265625 -7.09375l-4.640625 -6.5l2.140625 0l2.46875 3.484375q0.78125 1.078125 1.09375 1.671875q0.453125 -0.75 1.078125 -1.546875l2.734375 -3.609375l1.96875 0l-4.78125 6.40625l5.140625 7.1875l-2.21875 0l-3.421875 -4.859375q-0.296875 -0.40625 -0.59375 -0.90625q-0.453125 0.75 -0.65625 1.03125l-3.40625 4.734375l-2.171875 0z" fill-rule="nonzero"></path><path fill="#674ea7" d="m483.40552 390.95245l63.62207 0l0 38.740173l-63.62207 0z" fill-rule="nonzero"></path><path fill="#ffffff" d="m494.86023 417.24255l0 -13.59375l2.71875 0l3.21875 9.625q0.4375 1.34375 0.640625 2.015625q0.234375 -0.75 0.734375 -2.1875l3.25 -9.453125l2.421875 0l0 13.59375l-1.734375 0l0 -11.390625l-3.953125 11.390625l-1.625 0l-3.9375 -11.578125l0 11.578125l-1.734375 0zm15.634552 0l0 -13.59375l9.8437195 0l0 1.59375l-8.046875 0l0 4.171875l7.53125 0l0 1.59375l-7.53125 0l0 4.625l8.359375 0l0 1.609375l-10.1562195 0zm12.349823 0l0 -13.59375l2.71875 0l3.21875 9.625q0.4375 1.34375 0.640625 2.015625q0.234375 -0.75 0.734375 -2.1875l3.25 -9.453125l2.421875 0l0 13.59375l-1.734375 0l0 -11.390625l-3.953125 11.390625l-1.625 0l-3.9375 -11.578125l0 11.578125l-1.734375 0z" fill-rule="nonzero"></path><path fill="#f0e7d5" d="m483.40552 437.23563l63.62207 0l0 38.740173l-63.62207 0z" fill-rule="nonzero"></path><path fill="#ffff00" d="m483.40552 252.10295l63.62207 0l0 38.740158l-63.62207 0z" fill-rule="nonzero"></path><path fill="#ffffff" d="m494.17114 278.39304l0 -13.59375l1.8125 0l0 13.59375l-1.8125 0zm4.980194 0l0 -13.59375l9.171875 0l0 1.59375l-7.375 0l0 4.21875l6.375 0l0 1.609375l-6.375 0l0 6.171875l-1.796875 0z" fill-rule="nonzero"></path><path fill="#ffff00" d="m555.859 298.3861l63.62207 0l0 38.740173l-63.62207 0z" fill-rule="nonzero"></path><path fill="#ffffff" d="m580.10754 324.6762l0 -13.59375l1.8125 0l0 13.59375l-1.8125 0zm4.8864136 0l0 -13.59375l4.6875 0q1.578125 0 2.421875 0.1875q1.15625 0.265625 1.984375 0.96875q1.078125 0.921875 1.609375 2.34375q0.53125 1.40625 0.53125 3.21875q0 1.546875 -0.359375 2.75q-0.359375 1.1875 -0.921875 1.984375q-0.5625 0.78125 -1.234375 1.234375q-0.671875 0.4375 -1.625 0.671875q-0.953125 0.234375 -2.1875 0.234375l-4.90625 0zm1.796875 -1.609375l2.90625 0q1.34375 0 2.109375 -0.25q0.765625 -0.25 1.21875 -0.703125q0.640625 -0.640625 1.0 -1.71875q0.359375 -1.078125 0.359375 -2.625q0 -2.125 -0.703125 -3.265625q-0.703125 -1.15625 -1.703125 -1.546875q-0.71875 -0.28125 -2.328125 -0.28125l-2.859375 0l0 10.390625z" fill-rule="nonzero"></path><path fill="#e69138" d="m555.859 344.66928l63.62207 0l0 38.740173l-63.62207 0z" fill-rule="nonzero"></path><path fill="#ffffff" d="m576.72644 370.95938l0 -13.59375l9.84375 0l0 1.59375l-8.046875 0l0 4.171875l7.53125 0l0 1.59375l-7.53125 0l0 4.625l8.359375 0l0 1.609375l-10.15625 0zm11.0217285 0l5.265625 -7.09375l-4.640625 -6.5l2.140625 0l2.46875 3.484375q0.78125 1.078125 1.09375 1.671875q0.453125 -0.75 1.078125 -1.546875l2.734375 -3.609375l1.96875 0l-4.78125 6.40625l5.140625 7.1875l-2.21875 0l-3.421875 -4.859375q-0.296875 -0.40625 -0.59375 -0.90625q-0.453125 0.75 -0.65625 1.03125l-3.40625 4.734375l-2.171875 0z" fill-rule="nonzero"></path><path fill="#00ff00" d="m555.859 390.95245l63.62207 0l0 38.740173l-63.62207 0z" fill-rule="nonzero"></path><path fill="#ffffff" d="m567.3137 417.24255l0 -13.59375l2.71875 0l3.21875 9.625q0.4375 1.34375 0.640625 2.015625q0.234375 -0.75 0.734375 -2.1875l3.25 -9.453125l2.421875 0l0 13.59375l-1.734375 0l0 -11.390625l-3.953125 11.390625l-1.625 0l-3.9375 -11.578125l0 11.578125l-1.734375 0zm15.6345215 0l0 -13.59375l9.84375 0l0 1.59375l-8.046875 0l0 4.171875l7.53125 0l0 1.59375l-7.53125 0l0 4.625l8.359375 0l0 1.609375l-10.15625 0zm12.3498535 0l0 -13.59375l2.71875 0l3.21875 9.625q0.4375 1.34375 0.640625 2.015625q0.234375 -0.75 0.734375 -2.1875l3.25 -9.453125l2.421875 0l0 13.59375l-1.734375 0l0 -11.390625l-3.953125 11.390625l-1.625 0l-3.9375 -11.578125l0 11.578125l-1.734375 0z" fill-rule="nonzero"></path><path fill="#674ea7" d="m555.859 437.23563l63.62207 0l0 38.740173l-63.62207 0z" fill-rule="nonzero"></path><path fill="#ffffff" d="m576.4877 463.52573l-3.609375 -13.59375l1.84375 0l2.0625 8.90625q0.34375 1.40625 0.578125 2.78125q0.515625 -2.171875 0.609375 -2.515625l2.59375 -9.171875l2.171875 0l1.953125 6.875q0.734375 2.5625 1.046875 4.8125q0.265625 -1.28125 0.6875 -2.953125l2.125 -8.734375l1.8125 0l-3.734375 13.59375l-1.734375 0l-2.859375 -10.359375q-0.359375 -1.296875 -0.421875 -1.59375q-0.21875 0.9375 -0.40625 1.59375l-2.890625 10.359375l-1.828125 0zm15.155518 0l0 -13.59375l5.109375 0q1.546875 0 2.484375 0.40625q0.953125 0.40625 1.484375 1.265625q0.53125 0.859375 0.53125 1.796875q0 0.875 -0.46875 1.65625q-0.46875 0.765625 -1.4375 1.234375q1.234375 0.359375 1.890625 1.234375q0.671875 0.875 0.671875 2.0625q0 0.953125 -0.40625 1.78125q-0.390625 0.8125 -0.984375 1.265625q-0.59375 0.4375 -1.5 0.671875q-0.890625 0.21875 -2.1875 0.21875l-5.1875 0zm1.796875 -7.890625l2.9375 0q1.203125 0 1.71875 -0.15625q0.6875 -0.203125 1.03125 -0.671875q0.359375 -0.46875 0.359375 -1.1875q0 -0.671875 -0.328125 -1.1875q-0.328125 -0.515625 -0.9375 -0.703125q-0.59375 -0.203125 -2.0625 -0.203125l-2.71875 0l0 4.109375zm0 6.28125l3.390625 0q0.875 0 1.21875 -0.0625q0.625 -0.109375 1.046875 -0.359375q0.421875 -0.265625 0.6875 -0.765625q0.265625 -0.5 0.265625 -1.140625q0 -0.765625 -0.390625 -1.328125q-0.390625 -0.5625 -1.078125 -0.78125q-0.6875 -0.234375 -1.984375 -0.234375l-3.15625 0l0 4.671875z" fill-rule="nonzero"></path><path fill="#cc0000" d="m555.859 252.10295l63.62207 0l0 38.740158l-63.62207 0z" fill-rule="nonzero"></path><path fill="#ffffff" d="m566.62463 278.39304l0 -13.59375l1.8125 0l0 13.59375l-1.8125 0zm4.9801636 0l0 -13.59375l9.171875 0l0 1.59375l-7.375 0l0 4.21875l6.375 0l0 1.609375l-6.375 0l0 6.171875l-1.796875 0z" fill-rule="nonzero"></path><path fill="#cc0000" d="m628.3125 298.3861l63.62207 0l0 38.740173l-63.62207 0z" fill-rule="nonzero"></path><path fill="#ffffff" d="m652.56104 324.6762l0 -13.59375l1.8125 0l0 13.59375l-1.8125 0zm4.8864136 0l0 -13.59375l4.6875 0q1.578125 0 2.421875 0.1875q1.15625 0.265625 1.984375 0.96875q1.078125 0.921875 1.609375 2.34375q0.53125 1.40625 0.53125 3.21875q0 1.546875 -0.359375 2.75q-0.359375 1.1875 -0.921875 1.984375q-0.5625 0.78125 -1.234375 1.234375q-0.671875 0.4375 -1.625 0.671875q-0.953125 0.234375 -2.1875 0.234375l-4.90625 0zm1.796875 -1.609375l2.90625 0q1.34375 0 2.109375 -0.25q0.765625 -0.25 1.21875 -0.703125q0.640625 -0.640625 1.0 -1.71875q0.359375 -1.078125 0.359375 -2.625q0 -2.125 -0.703125 -3.265625q-0.703125 -1.15625 -1.703125 -1.546875q-0.71875 -0.28125 -2.328125 -0.28125l-2.859375 0l0 10.390625z" fill-rule="nonzero"></path><path fill="#ffff00" d="m628.3125 344.66928l63.62207 0l0 38.740173l-63.62207 0z" fill-rule="nonzero"></path><path fill="#ffffff" d="m649.17993 370.95938l0 -13.59375l9.84375 0l0 1.59375l-8.046875 0l0 4.171875l7.53125 0l0 1.59375l-7.53125 0l0 4.625l8.359375 0l0 1.609375l-10.15625 0zm11.0217285 0l5.265625 -7.09375l-4.640625 -6.5l2.140625 0l2.46875 3.484375q0.78125 1.078125 1.09375 1.671875q0.453125 -0.75 1.078125 -1.546875l2.734375 -3.609375l1.96875 0l-4.78125 6.40625l5.140625 7.1875l-2.21875 0l-3.421875 -4.859375q-0.296875 -0.40625 -0.59375 -0.90625q-0.453125 0.75 -0.65625 1.03125l-3.40625 4.734375l-2.171875 0z" fill-rule="nonzero"></path><path fill="#e69138" d="m628.3125 390.95245l63.62207 0l0 38.740173l-63.62207 0z" fill-rule="nonzero"></path><path fill="#ffffff" d="m639.7672 417.24255l0 -13.59375l2.71875 0l3.21875 9.625q0.4375 1.34375 0.640625 2.015625q0.234375 -0.75 0.734375 -2.1875l3.25 -9.453125l2.421875 0l0 13.59375l-1.734375 0l0 -11.390625l-3.953125 11.390625l-1.625 0l-3.9375 -11.578125l0 11.578125l-1.734375 0zm15.6345215 0l0 -13.59375l9.84375 0l0 1.59375l-8.046875 0l0 4.171875l7.53125 0l0 1.59375l-7.53125 0l0 4.625l8.359375 0l0 1.609375l-10.15625 0zm12.3498535 0l0 -13.59375l2.71875 0l3.21875 9.625q0.4375 1.34375 0.640625 2.015625q0.234375 -0.75 0.734375 -2.1875l3.25 -9.453125l2.421875 0l0 13.59375l-1.734375 0l0 -11.390625l-3.953125 11.390625l-1.625 0l-3.9375 -11.578125l0 11.578125l-1.734375 0z" fill-rule="nonzero"></path><path fill="#00ff00" d="m628.3125 437.23563l63.62207 0l0 38.740173l-63.62207 0z" fill-rule="nonzero"></path><path fill="#ffffff" d="m648.94116 463.52573l-3.609375 -13.59375l1.84375 0l2.0625 8.90625q0.34375 1.40625 0.578125 2.78125q0.515625 -2.171875 0.609375 -2.515625l2.59375 -9.171875l2.171875 0l1.953125 6.875q0.734375 2.5625 1.046875 4.8125q0.265625 -1.28125 0.6875 -2.953125l2.125 -8.734375l1.8125 0l-3.734375 13.59375l-1.734375 0l-2.859375 -10.359375q-0.359375 -1.296875 -0.421875 -1.59375q-0.21875 0.9375 -0.40625 1.59375l-2.890625 10.359375l-1.828125 0zm15.155518 0l0 -13.59375l5.109375 0q1.546875 0 2.484375 0.40625q0.953125 0.40625 1.484375 1.265625q0.53125 0.859375 0.53125 1.796875q0 0.875 -0.46875 1.65625q-0.46875 0.765625 -1.4375 1.234375q1.234375 0.359375 1.890625 1.234375q0.671875 0.875 0.671875 2.0625q0 0.953125 -0.40625 1.78125q-0.390625 0.8125 -0.984375 1.265625q-0.59375 0.4375 -1.5 0.671875q-0.890625 0.21875 -2.1875 0.21875l-5.1875 0zm1.796875 -7.890625l2.9375 0q1.203125 0 1.71875 -0.15625q0.6875 -0.203125 1.03125 -0.671875q0.359375 -0.46875 0.359375 -1.1875q0 -0.671875 -0.328125 -1.1875q-0.328125 -0.515625 -0.9375 -0.703125q-0.59375 -0.203125 -2.0625 -0.203125l-2.71875 0l0 4.109375zm0 6.28125l3.390625 0q0.875 0 1.21875 -0.0625q0.625 -0.109375 1.046875 -0.359375q0.421875 -0.265625 0.6875 -0.765625q0.265625 -0.5 0.265625 -1.140625q0 -0.765625 -0.390625 -1.328125q-0.390625 -0.5625 -1.078125 -0.78125q-0.6875 -0.234375 -1.984375 -0.234375l-3.15625 0l0 4.671875z" fill-rule="nonzero"></path><path fill="#f0e7d5" d="m628.3125 252.10295l63.62207 0l0 38.740158l-63.62207 0z" fill-rule="nonzero"></path><path fill="#f0e7d5" d="m700.766 298.3861l63.62207 0l0 38.740173l-63.62207 0z" fill-rule="nonzero"></path><path fill="#cc0000" d="m700.766 344.66928l63.62207 0l0 38.740173l-63.62207 0z" fill-rule="nonzero"></path><path fill="#ffffff" d="m721.6334 370.95938l0 -13.59375l9.84375 0l0 1.59375l-8.046875 0l0 4.171875l7.53125 0l0 1.59375l-7.53125 0l0 4.625l8.359375 0l0 1.609375l-10.15625 0zm11.0217285 0l5.265625 -7.09375l-4.640625 -6.5l2.140625 0l2.46875 3.484375q0.78125 1.078125 1.09375 1.671875q0.453125 -0.75 1.078125 -1.546875l2.734375 -3.609375l1.96875 0l-4.78125 6.40625l5.140625 7.1875l-2.21875 0l-3.421875 -4.859375q-0.296875 -0.40625 -0.59375 -0.90625q-0.453125 0.75 -0.65625 1.03125l-3.40625 4.734375l-2.171875 0z" fill-rule="nonzero"></path><path fill="#ffff00" d="m700.766 390.95245l63.62207 0l0 38.740173l-63.62207 0z" fill-rule="nonzero"></path><path fill="#ffffff" d="m712.2207 417.24255l0 -13.59375l2.71875 0l3.21875 9.625q0.4375 1.34375 0.640625 2.015625q0.234375 -0.75 0.734375 -2.1875l3.25 -9.453125l2.421875 0l0 13.59375l-1.734375 0l0 -11.390625l-3.953125 11.390625l-1.625 0l-3.9375 -11.578125l0 11.578125l-1.734375 0zm15.6345215 0l0 -13.59375l9.84375 0l0 1.59375l-8.046875 0l0 4.171875l7.53125 0l0 1.59375l-7.53125 0l0 4.625l8.359375 0l0 1.609375l-10.15625 0zm12.3498535 0l0 -13.59375l2.71875 0l3.21875 9.625q0.4375 1.34375 0.640625 2.015625q0.234375 -0.75 0.734375 -2.1875l3.25 -9.453125l2.421875 0l0 13.59375l-1.734375 0l0 -11.390625l-3.953125 11.390625l-1.625 0l-3.9375 -11.578125l0 11.578125l-1.734375 0z" fill-rule="nonzero"></path><path fill="#e69138" d="m700.766 437.23563l63.62207 0l0 38.740173l-63.62207 0z" fill-rule="nonzero"></path><path fill="#ffffff" d="m721.39465 463.52573l-3.609375 -13.59375l1.84375 0l2.0625 8.90625q0.34375 1.40625 0.578125 2.78125q0.515625 -2.171875 0.609375 -2.515625l2.59375 -9.171875l2.171875 0l1.953125 6.875q0.734375 2.5625 1.046875 4.8125q0.265625 -1.28125 0.6875 -2.953125l2.125 -8.734375l1.8125 0l-3.734375 13.59375l-1.734375 0l-2.859375 -10.359375q-0.359375 -1.296875 -0.421875 -1.59375q-0.21875 0.9375 -0.40625 1.59375l-2.890625 10.359375l-1.828125 0zm15.155518 0l0 -13.59375l5.109375 0q1.546875 0 2.484375 0.40625q0.953125 0.40625 1.484375 1.265625q0.53125 0.859375 0.53125 1.796875q0 0.875 -0.46875 1.65625q-0.46875 0.765625 -1.4375 1.234375q1.234375 0.359375 1.890625 1.234375q0.671875 0.875 0.671875 2.0625q0 0.953125 -0.40625 1.78125q-0.390625 0.8125 -0.984375 1.265625q-0.59375 0.4375 -1.5 0.671875q-0.890625 0.21875 -2.1875 0.21875l-5.1875 0zm1.796875 -7.890625l2.9375 0q1.203125 0 1.71875 -0.15625q0.6875 -0.203125 1.03125 -0.671875q0.359375 -0.46875 0.359375 -1.1875q0 -0.671875 -0.328125 -1.1875q-0.328125 -0.515625 -0.9375 -0.703125q-0.59375 -0.203125 -2.0625 -0.203125l-2.71875 0l0 4.109375zm0 6.28125l3.390625 0q0.875 0 1.21875 -0.0625q0.625 -0.109375 1.046875 -0.359375q0.421875 -0.265625 0.6875 -0.765625q0.265625 -0.5 0.265625 -1.140625q0 -0.765625 -0.390625 -1.328125q-0.390625 -0.5625 -1.078125 -0.78125q-0.6875 -0.234375 -1.984375 -0.234375l-3.15625 0l0 4.671875z" fill-rule="nonzero"></path><path fill="#f0e7d5" d="m700.766 252.10295l63.62207 0l0 38.740158l-63.62207 0z" fill-rule="nonzero"></path><path fill="#f0e7d5" d="m773.2195 298.3861l63.62207 0l0 38.740173l-63.62207 0z" fill-rule="nonzero"></path><path fill="#f0e7d5" d="m773.2195 344.66928l63.62207 0l0 38.740173l-63.62207 0z" fill-rule="nonzero"></path><path fill="#cc0000" d="m773.2195 390.95245l63.62207 0l0 38.740173l-63.62207 0z" fill-rule="nonzero"></path><path fill="#ffffff" d="m784.6742 417.24255l0 -13.59375l2.71875 0l3.21875 9.625q0.4375 1.34375 0.640625 2.015625q0.234375 -0.75 0.734375 -2.1875l3.25 -9.453125l2.421875 0l0 13.59375l-1.734375 0l0 -11.390625l-3.953125 11.390625l-1.625 0l-3.9375 -11.578125l0 11.578125l-1.734375 0zm15.6345215 0l0 -13.59375l9.84375 0l0 1.59375l-8.046875 0l0 4.171875l7.53125 0l0 1.59375l-7.53125 0l0 4.625l8.359375 0l0 1.609375l-10.15625 0zm12.3498535 0l0 -13.59375l2.71875 0l3.21875 9.625q0.4375 1.34375 0.640625 2.015625q0.234375 -0.75 0.734375 -2.1875l3.25 -9.453125l2.421875 0l0 13.59375l-1.734375 0l0 -11.390625l-3.953125 11.390625l-1.625 0l-3.9375 -11.578125l0 11.578125l-1.734375 0z" fill-rule="nonzero"></path><path fill="#ffff00" d="m773.2195 437.23563l63.62207 0l0 38.740173l-63.62207 0z" fill-rule="nonzero"></path><path fill="#ffffff" d="m793.84814 463.52573l-3.609375 -13.59375l1.84375 0l2.0625 8.90625q0.34375 1.40625 0.578125 2.78125q0.515625 -2.171875 0.609375 -2.515625l2.59375 -9.171875l2.171875 0l1.953125 6.875q0.734375 2.5625 1.046875 4.8125q0.265625 -1.28125 0.6875 -2.953125l2.125 -8.734375l1.8125 0l-3.734375 13.59375l-1.734375 0l-2.859375 -10.359375q-0.359375 -1.296875 -0.421875 -1.59375q-0.21875 0.9375 -0.40625 1.59375l-2.890625 10.359375l-1.828125 0zm15.155518 0l0 -13.59375l5.109375 0q1.546875 0 2.484375 0.40625q0.953125 0.40625 1.484375 1.265625q0.53125 0.859375 0.53125 1.796875q0 0.875 -0.46875 1.65625q-0.46875 0.765625 -1.4375 1.234375q1.234375 0.359375 1.890625 1.234375q0.671875 0.875 0.671875 2.0625q0 0.953125 -0.40625 1.78125q-0.390625 0.8125 -0.984375 1.265625q-0.59375 0.4375 -1.5 0.671875q-0.890625 0.21875 -2.1875 0.21875l-5.1875 0zm1.796875 -7.890625l2.9375 0q1.203125 0 1.71875 -0.15625q0.6875 -0.203125 1.03125 -0.671875q0.359375 -0.46875 0.359375 -1.1875q0 -0.671875 -0.328125 -1.1875q-0.328125 -0.515625 -0.9375 -0.703125q-0.59375 -0.203125 -2.0625 -0.203125l-2.71875 0l0 4.109375zm0 6.28125l3.390625 0q0.875 0 1.21875 -0.0625q0.625 -0.109375 1.046875 -0.359375q0.421875 -0.265625 0.6875 -0.765625q0.265625 -0.5 0.265625 -1.140625q0 -0.765625 -0.390625 -1.328125q-0.390625 -0.5625 -1.078125 -0.78125q-0.6875 -0.234375 -1.984375 -0.234375l-3.15625 0l0 4.671875z" fill-rule="nonzero"></path><path fill="#f0e7d5" d="m773.2195 252.10295l63.62207 0l0 38.740158l-63.62207 0z" fill-rule="nonzero"></path><path fill="#f0e7d5" d="m845.673 298.3861l63.62207 0l0 38.740173l-63.62207 0z" fill-rule="nonzero"></path><path fill="#f0e7d5" d="m845.673 344.66928l63.62207 0l0 38.740173l-63.62207 0z" fill-rule="nonzero"></path><path fill="#f0e7d5" d="m845.673 390.95245l63.62207 0l0 38.740173l-63.62207 0z" fill-rule="nonzero"></path><path fill="#cc0000" d="m845.673 437.23563l63.62207 0l0 38.740173l-63.62207 0z" fill-rule="nonzero"></path><path fill="#ffffff" d="m866.30164 463.52573l-3.609375 -13.59375l1.84375 0l2.0625 8.90625q0.34375 1.40625 0.578125 2.78125q0.515625 -2.171875 0.609375 -2.515625l2.59375 -9.171875l2.171875 0l1.953125 6.875q0.734375 2.5625 1.046875 4.8125q0.265625 -1.28125 0.6875 -2.953125l2.125 -8.734375l1.8125 0l-3.734375 13.59375l-1.734375 0l-2.859375 -10.359375q-0.359375 -1.296875 -0.421875 -1.59375q-0.21875 0.9375 -0.40625 1.59375l-2.890625 10.359375l-1.828125 0zm15.155518 0l0 -13.59375l5.109375 0q1.546875 0 2.484375 0.40625q0.953125 0.40625 1.484375 1.265625q0.53125 0.859375 0.53125 1.796875q0 0.875 -0.46875 1.65625q-0.46875 0.765625 -1.4375 1.234375q1.234375 0.359375 1.890625 1.234375q0.671875 0.875 0.671875 2.0625q0 0.953125 -0.40625 1.78125q-0.390625 0.8125 -0.984375 1.265625q-0.59375 0.4375 -1.5 0.671875q-0.890625 0.21875 -2.1875 0.21875l-5.1875 0zm1.796875 -7.890625l2.9375 0q1.203125 0 1.71875 -0.15625q0.6875 -0.203125 1.03125 -0.671875q0.359375 -0.46875 0.359375 -1.1875q0 -0.671875 -0.328125 -1.1875q-0.328125 -0.515625 -0.9375 -0.703125q-0.59375 -0.203125 -2.0625 -0.203125l-2.71875 0l0 4.109375zm0 6.28125l3.390625 0q0.875 0 1.21875 -0.0625q0.625 -0.109375 1.046875 -0.359375q0.421875 -0.265625 0.6875 -0.765625q0.265625 -0.5 0.265625 -1.140625q0 -0.765625 -0.390625 -1.328125q-0.390625 -0.5625 -1.078125 -0.78125q-0.6875 -0.234375 -1.984375 -0.234375l-3.15625 0l0 4.671875z" fill-rule="nonzero"></path><path fill="#f0e7d5" d="m845.673 252.10295l63.62207 0l0 38.740158l-63.62207 0z" fill-rule="nonzero"></path><path fill="#f0e7d5" d="m918.12646 298.3861l63.62207 0l0 38.740173l-63.62207 0z" fill-rule="nonzero"></path><path fill="#f0e7d5" d="m918.12646 344.66928l63.62207 0l0 38.740173l-63.62207 0z" fill-rule="nonzero"></path><path fill="#f0e7d5" d="m918.12646 390.95245l63.62207 0l0 38.740173l-63.62207 0z" fill-rule="nonzero"></path><path fill="#f0e7d5" d="m918.12646 437.23563l63.62207 0l0 38.740173l-63.62207 0z" fill-rule="nonzero"></path><path fill="#f0e7d5" d="m918.12646 252.10295l63.62207 0l0 38.740158l-63.62207 0z" fill-rule="nonzero"></path><path fill="#f0e7d5" d="m990.57996 298.3861l63.62207 0l0 38.740173l-63.62207 0z" fill-rule="nonzero"></path><path fill="#f0e7d5" d="m990.57996 344.66928l63.62207 0l0 38.740173l-63.62207 0z" fill-rule="nonzero"></path><path fill="#f0e7d5" d="m990.57996 390.95245l63.62207 0l0 38.740173l-63.62207 0z" fill-rule="nonzero"></path><path fill="#f0e7d5" d="m990.57996 437.23563l63.62207 0l0 38.740173l-63.62207 0z" fill-rule="nonzero"></path><path fill="#f0e7d5" d="m990.57996 252.10295l63.62207 0l0 38.740158l-63.62207 0z" fill-rule="nonzero"></path><path fill="#ffff00" d="m193.59157 57.71362l63.622055 0l0 38.740154l-63.622055 0z" fill-rule="nonzero"></path><path fill="#e69138" d="m193.59157 103.996796l63.622055 0l0 38.740158l-63.622055 0z" fill-rule="nonzero"></path><path fill="#00ff00" d="m193.59157 150.27997l63.622055 0l0 38.740158l-63.622055 0z" fill-rule="nonzero"></path><path fill="#674ea7" d="m193.59157 196.56314l63.622055 0l0 38.740158l-63.622055 0z" fill-rule="nonzero"></path><path fill="#cc0000" d="m193.59157 11.430447l63.622055 0l0 38.740158l-63.622055 0z" fill-rule="nonzero"></path><path fill="#cc0000" d="m266.04507 57.71362l63.62204 0l0 38.740154l-63.62204 0z" fill-rule="nonzero"></path><path fill="#ffff00" d="m266.04507 103.996796l63.62204 0l0 38.740158l-63.62204 0z" fill-rule="nonzero"></path><path fill="#e69138" d="m266.04507 150.27997l63.62204 0l0 38.740158l-63.62204 0z" fill-rule="nonzero"></path><path fill="#00ff00" d="m266.04507 196.56314l63.62204 0l0 38.740158l-63.62204 0z" fill-rule="nonzero"></path><path fill="#efefef" fill-opacity="0.2808" d="m266.04507 11.430447l63.62204 0l0 38.740158l-63.62204 0z" fill-rule="nonzero"></path><path fill="#efefef" fill-opacity="0.2808" d="m338.49854 57.71362l63.62207 0l0 38.740154l-63.62207 0z" fill-rule="nonzero"></path><path fill="#cc0000" d="m338.49854 103.996796l63.62207 0l0 38.740158l-63.62207 0z" fill-rule="nonzero"></path><path fill="#ffff00" d="m338.49854 150.27997l63.62207 0l0 38.740158l-63.62207 0z" fill-rule="nonzero"></path><path fill="#e69138" d="m338.49854 196.56314l63.62207 0l0 38.740158l-63.62207 0z" fill-rule="nonzero"></path><path fill="#efefef" fill-opacity="0.2808" d="m338.49854 11.430447l63.62207 0l0 38.740158l-63.62207 0z" fill-rule="nonzero"></path><path fill="#efefef" fill-opacity="0.2808" d="m410.95203 57.71362l63.62207 0l0 38.740154l-63.62207 0z" fill-rule="nonzero"></path><path fill="#efefef" fill-opacity="0.2808" d="m410.95203 103.996796l63.62207 0l0 38.740158l-63.62207 0z" fill-rule="nonzero"></path><path fill="#cc0000" d="m410.95203 150.27997l63.62207 0l0 38.740158l-63.62207 0z" fill-rule="nonzero"></path><path fill="#ffff00" d="m410.95203 196.56314l63.62207 0l0 38.740158l-63.62207 0z" fill-rule="nonzero"></path><path fill="#efefef" fill-opacity="0.2808" d="m410.95203 11.430447l63.62207 0l0 38.740158l-63.62207 0z" fill-rule="nonzero"></path><path fill="#efefef" fill-opacity="0.2808" d="m483.40552 57.71362l63.62207 0l0 38.740154l-63.62207 0z" fill-rule="nonzero"></path><path fill="#efefef" fill-opacity="0.2808" d="m483.40552 103.996796l63.62207 0l0 38.740158l-63.62207 0z" fill-rule="nonzero"></path><path fill="#efefef" fill-opacity="0.2808" d="m483.40552 150.27997l63.62207 0l0 38.740158l-63.62207 0z" fill-rule="nonzero"></path><path fill="#cc0000" d="m483.40552 196.56314l63.62207 0l0 38.740158l-63.62207 0z" fill-rule="nonzero"></path><path fill="#efefef" fill-opacity="0.2808" d="m483.40552 11.430447l63.62207 0l0 38.740158l-63.62207 0z" fill-rule="nonzero"></path><path fill="#efefef" fill-opacity="0.2808" d="m555.859 57.71362l63.62207 0l0 38.740154l-63.62207 0z" fill-rule="nonzero"></path><path fill="#efefef" fill-opacity="0.2808" d="m555.859 103.996796l63.62207 0l0 38.740158l-63.62207 0z" fill-rule="nonzero"></path><path fill="#efefef" fill-opacity="0.2808" d="m555.859 150.27997l63.62207 0l0 38.740158l-63.62207 0z" fill-rule="nonzero"></path><path fill="#efefef" fill-opacity="0.2808" d="m555.859 196.56314l63.62207 0l0 38.740158l-63.62207 0z" fill-rule="nonzero"></path><path fill="#efefef" fill-opacity="0.2808" d="m555.859 11.430447l63.62207 0l0 38.740158l-63.62207 0z" fill-rule="nonzero"></path><path fill="#efefef" fill-opacity="0.2808" d="m628.3125 57.71362l63.62207 0l0 38.740154l-63.62207 0z" fill-rule="nonzero"></path><path fill="#efefef" fill-opacity="0.2808" d="m628.3125 103.996796l63.62207 0l0 38.740158l-63.62207 0z" fill-rule="nonzero"></path><path fill="#efefef" fill-opacity="0.2808" d="m628.3125 150.27997l63.62207 0l0 38.740158l-63.62207 0z" fill-rule="nonzero"></path><path fill="#efefef" fill-opacity="0.2808" d="m628.3125 196.56314l63.62207 0l0 38.740158l-63.62207 0z" fill-rule="nonzero"></path><path fill="#efefef" fill-opacity="0.2808" d="m628.3125 11.430447l63.62207 0l0 38.740158l-63.62207 0z" fill-rule="nonzero"></path><path fill="#efefef" fill-opacity="0.2808" d="m700.766 57.71362l63.62207 0l0 38.740154l-63.62207 0z" fill-rule="nonzero"></path><path fill="#efefef" fill-opacity="0.2808" d="m700.766 103.996796l63.62207 0l0 38.740158l-63.62207 0z" fill-rule="nonzero"></path><path fill="#efefef" fill-opacity="0.2808" d="m700.766 150.27997l63.62207 0l0 38.740158l-63.62207 0z" fill-rule="nonzero"></path><path fill="#efefef" fill-opacity="0.2808" d="m700.766 196.56314l63.62207 0l0 38.740158l-63.62207 0z" fill-rule="nonzero"></path><path fill="#efefef" fill-opacity="0.2808" d="m700.766 11.430447l63.62207 0l0 38.740158l-63.62207 0z" fill-rule="nonzero"></path><path fill="#efefef" fill-opacity="0.2808" d="m773.2195 57.71362l63.62207 0l0 38.740154l-63.62207 0z" fill-rule="nonzero"></path><path fill="#efefef" fill-opacity="0.2808" d="m773.2195 103.996796l63.62207 0l0 38.740158l-63.62207 0z" fill-rule="nonzero"></path><path fill="#efefef" fill-opacity="0.2808" d="m773.2195 150.27997l63.62207 0l0 38.740158l-63.62207 0z" fill-rule="nonzero"></path><path fill="#efefef" fill-opacity="0.2808" d="m773.2195 196.56314l63.62207 0l0 38.740158l-63.62207 0z" fill-rule="nonzero"></path><path fill="#efefef" fill-opacity="0.2808" d="m773.2195 11.430447l63.62207 0l0 38.740158l-63.62207 0z" fill-rule="nonzero"></path><path fill="#efefef" fill-opacity="0.2808" d="m845.673 57.71362l63.62207 0l0 38.740154l-63.62207 0z" fill-rule="nonzero"></path><path fill="#efefef" fill-opacity="0.2808" d="m845.673 103.996796l63.62207 0l0 38.740158l-63.62207 0z" fill-rule="nonzero"></path><path fill="#efefef" fill-opacity="0.2808" d="m845.673 150.27997l63.62207 0l0 38.740158l-63.62207 0z" fill-rule="nonzero"></path><path fill="#efefef" fill-opacity="0.2808" d="m845.673 196.56314l63.62207 0l0 38.740158l-63.62207 0z" fill-rule="nonzero"></path><path fill="#efefef" fill-opacity="0.2808" d="m845.673 11.430447l63.62207 0l0 38.740158l-63.62207 0z" fill-rule="nonzero"></path><path fill="#efefef" fill-opacity="0.2808" d="m918.12646 57.71362l63.62207 0l0 38.740154l-63.62207 0z" fill-rule="nonzero"></path><path fill="#efefef" fill-opacity="0.2808" d="m918.12646 103.996796l63.62207 0l0 38.740158l-63.62207 0z" fill-rule="nonzero"></path><path fill="#efefef" fill-opacity="0.2808" d="m918.12646 150.27997l63.62207 0l0 38.740158l-63.62207 0z" fill-rule="nonzero"></path><path fill="#efefef" fill-opacity="0.2808" d="m918.12646 196.56314l63.62207 0l0 38.740158l-63.62207 0z" fill-rule="nonzero"></path><path fill="#efefef" fill-opacity="0.2808" d="m918.12646 11.430447l63.62207 0l0 38.740158l-63.62207 0z" fill-rule="nonzero"></path><path fill="#efefef" fill-opacity="0.2808" d="m990.57996 57.71362l63.62207 0l0 38.740154l-63.62207 0z" fill-rule="nonzero"></path><path fill="#efefef" fill-opacity="0.2808" d="m990.57996 103.996796l63.62207 0l0 38.740158l-63.62207 0z" fill-rule="nonzero"></path><path fill="#efefef" fill-opacity="0.2808" d="m990.57996 150.27997l63.62207 0l0 38.740158l-63.62207 0z" fill-rule="nonzero"></path><path fill="#efefef" fill-opacity="0.2808" d="m990.57996 196.56314l63.62207 0l0 38.740158l-63.62207 0z" fill-rule="nonzero"></path><path fill="#efefef" fill-opacity="0.2808" d="m990.57996 11.430447l63.62207 0l0 38.740158l-63.62207 0z" fill-rule="nonzero"></path><path fill="#efefef" fill-opacity="0.2808" d="m193.59157 539.0586l63.622055 0l0 38.740173l-63.622055 0z" fill-rule="nonzero"></path><path fill="#efefef" fill-opacity="0.2808" d="m193.59157 585.3418l63.622055 0l0 38.740173l-63.622055 0z" fill-rule="nonzero"></path><path fill="#efefef" fill-opacity="0.2808" d="m193.59157 631.62494l63.622055 0l0 38.740173l-63.622055 0z" fill-rule="nonzero"></path><path fill="#efefef" fill-opacity="0.2808" d="m193.59157 677.90814l63.622055 0l0 38.740173l-63.622055 0z" fill-rule="nonzero"></path><path fill="#efefef" fill-opacity="0.2808" d="m193.59157 492.77545l63.622055 0l0 38.740173l-63.622055 0z" fill-rule="nonzero"></path><path fill="#efefef" fill-opacity="0.2808" d="m266.04507 539.0586l63.62204 0l0 38.740173l-63.62204 0z" fill-rule="nonzero"></path><path fill="#efefef" fill-opacity="0.2808" d="m266.04507 585.3418l63.62204 0l0 38.740173l-63.62204 0z" fill-rule="nonzero"></path><path fill="#efefef" fill-opacity="0.2808" d="m266.04507 631.62494l63.62204 0l0 38.740173l-63.62204 0z" fill-rule="nonzero"></path><path fill="#efefef" fill-opacity="0.2808" d="m266.04507 677.90814l63.62204 0l0 38.740173l-63.62204 0z" fill-rule="nonzero"></path><path fill="#efefef" fill-opacity="0.2808" d="m266.04507 492.77545l63.62204 0l0 38.740173l-63.62204 0z" fill-rule="nonzero"></path><path fill="#efefef" fill-opacity="0.2808" d="m338.49854 539.0586l63.62207 0l0 38.740173l-63.62207 0z" fill-rule="nonzero"></path><path fill="#efefef" fill-opacity="0.2808" d="m338.49854 585.3418l63.62207 0l0 38.740173l-63.62207 0z" fill-rule="nonzero"></path><path fill="#efefef" fill-opacity="0.2808" d="m338.49854 631.62494l63.62207 0l0 38.740173l-63.62207 0z" fill-rule="nonzero"></path><path fill="#efefef" fill-opacity="0.2808" d="m338.49854 677.90814l63.62207 0l0 38.740173l-63.62207 0z" fill-rule="nonzero"></path><path fill="#efefef" fill-opacity="0.2808" d="m338.49854 492.77545l63.62207 0l0 38.740173l-63.62207 0z" fill-rule="nonzero"></path><path fill="#efefef" fill-opacity="0.2808" d="m410.95203 539.0586l63.62207 0l0 38.740173l-63.62207 0z" fill-rule="nonzero"></path><path fill="#efefef" fill-opacity="0.2808" d="m410.95203 585.3418l63.62207 0l0 38.740173l-63.62207 0z" fill-rule="nonzero"></path><path fill="#efefef" fill-opacity="0.2808" d="m410.95203 631.62494l63.62207 0l0 38.740173l-63.62207 0z" fill-rule="nonzero"></path><path fill="#efefef" fill-opacity="0.2808" d="m410.95203 677.90814l63.62207 0l0 38.740173l-63.62207 0z" fill-rule="nonzero"></path><path fill="#efefef" fill-opacity="0.2808" d="m410.95203 492.77545l63.62207 0l0 38.740173l-63.62207 0z" fill-rule="nonzero"></path><path fill="#efefef" fill-opacity="0.2808" d="m483.40552 539.0586l63.62207 0l0 38.740173l-63.62207 0z" fill-rule="nonzero"></path><path fill="#efefef" fill-opacity="0.2808" d="m483.40552 585.3418l63.62207 0l0 38.740173l-63.62207 0z" fill-rule="nonzero"></path><path fill="#efefef" fill-opacity="0.2808" d="m483.40552 631.62494l63.62207 0l0 38.740173l-63.62207 0z" fill-rule="nonzero"></path><path fill="#efefef" fill-opacity="0.2808" d="m483.40552 677.90814l63.62207 0l0 38.740173l-63.62207 0z" fill-rule="nonzero"></path><path fill="#efefef" fill-opacity="0.2808" d="m483.40552 492.77545l63.62207 0l0 38.740173l-63.62207 0z" fill-rule="nonzero"></path><path fill="#efefef" fill-opacity="0.2808" d="m555.859 539.0586l63.62207 0l0 38.740173l-63.62207 0z" fill-rule="nonzero"></path><path fill="#efefef" fill-opacity="0.2808" d="m555.859 585.3418l63.62207 0l0 38.740173l-63.62207 0z" fill-rule="nonzero"></path><path fill="#efefef" fill-opacity="0.2808" d="m555.859 631.62494l63.62207 0l0 38.740173l-63.62207 0z" fill-rule="nonzero"></path><path fill="#efefef" fill-opacity="0.2808" d="m555.859 677.90814l63.62207 0l0 38.740173l-63.62207 0z" fill-rule="nonzero"></path><path fill="#efefef" fill-opacity="0.2808" d="m555.859 492.77545l63.62207 0l0 38.740173l-63.62207 0z" fill-rule="nonzero"></path><path fill="#efefef" fill-opacity="0.2808" d="m628.3125 539.0586l63.62207 0l0 38.740173l-63.62207 0z" fill-rule="nonzero"></path><path fill="#efefef" fill-opacity="0.2808" d="m628.3125 585.3418l63.62207 0l0 38.740173l-63.62207 0z" fill-rule="nonzero"></path><path fill="#efefef" fill-opacity="0.2808" d="m628.3125 631.62494l63.62207 0l0 38.740173l-63.62207 0z" fill-rule="nonzero"></path><path fill="#efefef" fill-opacity="0.2808" d="m628.3125 677.90814l63.62207 0l0 38.740173l-63.62207 0z" fill-rule="nonzero"></path><path fill="#674ea7" d="m628.3125 492.77545l63.62207 0l0 38.740173l-63.62207 0z" fill-rule="nonzero"></path><path fill="#674ea7" d="m700.766 539.0586l63.62207 0l0 38.740173l-63.62207 0z" fill-rule="nonzero"></path><path fill="#efefef" fill-opacity="0.2808" d="m700.766 585.3418l63.62207 0l0 38.740173l-63.62207 0z" fill-rule="nonzero"></path><path fill="#efefef" fill-opacity="0.2808" d="m700.766 631.62494l63.62207 0l0 38.740173l-63.62207 0z" fill-rule="nonzero"></path><path fill="#efefef" fill-opacity="0.2808" d="m700.766 677.90814l63.62207 0l0 38.740173l-63.62207 0z" fill-rule="nonzero"></path><path fill="#00ff00" d="m700.766 492.77545l63.62207 0l0 38.740173l-63.62207 0z" fill-rule="nonzero"></path><path fill="#00ff00" d="m773.2195 539.0586l63.62207 0l0 38.740173l-63.62207 0z" fill-rule="nonzero"></path><path fill="#674ea7" d="m773.2195 585.3418l63.62207 0l0 38.740173l-63.62207 0z" fill-rule="nonzero"></path><path fill="#efefef" fill-opacity="0.2808" d="m773.2195 631.62494l63.62207 0l0 38.740173l-63.62207 0z" fill-rule="nonzero"></path><path fill="#efefef" fill-opacity="0.2808" d="m773.2195 677.90814l63.62207 0l0 38.740173l-63.62207 0z" fill-rule="nonzero"></path><path fill="#e69138" d="m773.2195 492.77545l63.62207 0l0 38.740173l-63.62207 0z" fill-rule="nonzero"></path><path fill="#e69138" d="m845.673 539.0586l63.62207 0l0 38.740173l-63.62207 0z" fill-rule="nonzero"></path><path fill="#00ff00" d="m845.673 585.3418l63.62207 0l0 38.740173l-63.62207 0z" fill-rule="nonzero"></path><path fill="#674ea7" d="m845.673 631.62494l63.62207 0l0 38.740173l-63.62207 0z" fill-rule="nonzero"></path><path fill="#efefef" fill-opacity="0.2808" d="m845.673 677.90814l63.62207 0l0 38.740173l-63.62207 0z" fill-rule="nonzero"></path><path fill="#ffff00" d="m845.673 492.77545l63.62207 0l0 38.740173l-63.62207 0z" fill-rule="nonzero"></path><path fill="#ffff00" d="m918.12646 539.0586l63.62207 0l0 38.740173l-63.62207 0z" fill-rule="nonzero"></path><path fill="#e69138" d="m918.12646 585.3418l63.62207 0l0 38.740173l-63.62207 0z" fill-rule="nonzero"></path><path fill="#00ff00" d="m918.12646 631.62494l63.62207 0l0 38.740173l-63.62207 0z" fill-rule="nonzero"></path><path fill="#674ea7" d="m918.12646 677.90814l63.62207 0l0 38.740173l-63.62207 0z" fill-rule="nonzero"></path><path fill="#cc0000" d="m918.12646 492.77545l63.62207 0l0 38.740173l-63.62207 0z" fill-rule="nonzero"></path><path fill="#cc0000" d="m990.57996 539.0586l63.62207 0l0 38.740173l-63.62207 0z" fill-rule="nonzero"></path><path fill="#ffff00" d="m990.57996 585.3418l63.62207 0l0 38.740173l-63.62207 0z" fill-rule="nonzero"></path><path fill="#e69138" d="m990.57996 631.62494l63.62207 0l0 38.740173l-63.62207 0z" fill-rule="nonzero"></path><path fill="#00ff00" d="m990.57996 677.90814l63.62207 0l0 38.740173l-63.62207 0z" fill-rule="nonzero"></path><path fill="#efefef" fill-opacity="0.2808" d="m990.57996 492.77545l63.62207 0l0 38.740173l-63.62207 0z" fill-rule="nonzero"></path><path fill="#000000" fill-opacity="0.0" d="m177.49936 219.65092c-11.889343 0 -21.527557 -1.606308 -21.527557 -3.5877838l0 -89.1079c0 -1.9814835 -9.638214 -3.5877838 -21.527557 -3.5877838l0 0c11.889343 0 21.527557 -1.606308 21.527557 -3.5877838l0 -89.1079l0 0c0 -1.9814777 9.638214 -3.587782 21.527557 -3.587782z" fill-rule="nonzero"></path><path fill="#000000" fill-opacity="0.0" d="m177.49936 219.65092c-11.889343 0 -21.527557 -1.606308 -21.527557 -3.5877838l0 -89.1079c0 -1.9814835 -9.638214 -3.5877838 -21.527557 -3.5877838l0 0c11.889343 0 21.527557 -1.606308 21.527557 -3.5877838l0 -89.1079l0 0c0 -1.9814777 9.638214 -3.587782 21.527557 -3.587782" fill-rule="nonzero"></path><path stroke="#f0e7d5" stroke-width="1.0" stroke-linejoin="round" stroke-linecap="butt" d="m177.49936 219.65092c-11.889343 0 -21.527557 -1.606308 -21.527557 -3.5877838l0 -89.1079c0 -1.9814835 -9.638214 -3.5877838 -21.527557 -3.5877838l0 0c11.889343 0 21.527557 -1.606308 21.527557 -3.5877838l0 -89.1079l0 0c0 -1.9814777 9.638214 -3.587782 21.527557 -3.587782" fill-rule="nonzero"></path><path fill="#000000" fill-opacity="0.0" d="m6.2277822 103.99737l128.25197 0l0 32.220467l-128.25197 0z" fill-rule="nonzero"></path><path fill="#f0e7d5" d="m70.48483 127.0276l-3.015625 -9.859375l1.71875 0l1.5625 5.6875l0.59375 2.125q0.03125 -0.15625 0.5 -2.03125l1.578125 -5.78125l1.71875 0l1.46875 5.71875l0.484375 1.890625l0.578125 -1.90625l1.6875 -5.703125l1.625 0l-3.078125 9.859375l-1.734375 0l-1.578125 -5.90625l-0.375 -1.671875l-2.0 7.578125l-1.734375 0zm18.082321 -1.21875q-0.9375 0.796875 -1.796875 1.125q-0.859375 0.3125 -1.84375 0.3125q-1.609375 0 -2.484375 -0.78125q-0.875 -0.796875 -0.875 -2.03125q0 -0.734375 0.328125 -1.328125q0.328125 -0.59375 0.859375 -0.953125q0.53125 -0.359375 1.203125 -0.546875q0.5 -0.140625 1.484375 -0.25q2.03125 -0.25 2.984375 -0.578125q0 -0.34375 0 -0.4375q0 -1.015625 -0.46875 -1.4375q-0.640625 -0.5625 -1.90625 -0.5625q-1.171875 0 -1.734375 0.40625q-0.5625 0.40625 -0.828125 1.46875l-1.640625 -0.234375q0.234375 -1.046875 0.734375 -1.6875q0.515625 -0.640625 1.46875 -0.984375q0.96875 -0.359375 2.25 -0.359375q1.265625 0 2.046875 0.296875q0.78125 0.296875 1.15625 0.75q0.375 0.453125 0.515625 1.140625q0.09375 0.421875 0.09375 1.53125l0 2.234375q0 2.328125 0.09375 2.953125q0.109375 0.609375 0.4375 1.171875l-1.75 0q-0.265625 -0.515625 -0.328125 -1.21875zm-0.140625 -3.71875q-0.90625 0.359375 -2.734375 0.625q-1.03125 0.140625 -1.453125 0.328125q-0.421875 0.1875 -0.65625 0.546875q-0.234375 0.359375 -0.234375 0.796875q0 0.671875 0.5 1.125q0.515625 0.4375 1.484375 0.4375q0.96875 0 1.71875 -0.421875q0.75 -0.4375 1.109375 -1.15625q0.265625 -0.578125 0.265625 -1.671875l0 -0.609375zm4.094467 -6.75l0 -1.90625l1.671875 0l0 1.90625l-1.671875 0zm0 11.6875l0 -9.859375l1.671875 0l0 9.859375l-1.671875 0zm7.785446 -1.5l0.234375 1.484375q-0.703125 0.140625 -1.265625 0.140625q-0.90625 0 -1.40625 -0.28125q-0.5 -0.296875 -0.703125 -0.75q-0.203125 -0.46875 -0.203125 -1.984375l0 -5.65625l-1.234375 0l0 -1.3125l1.234375 0l0 -2.4375l1.65625 -1.0l0 3.4375l1.6875 0l0 1.3125l-1.6875 0l0 5.75q0 0.71875 0.078125 0.921875q0.09375 0.203125 0.296875 0.328125q0.203125 0.125 0.578125 0.125q0.265625 0 0.734375 -0.078125zm1.5426788 -10.1875l0 -1.90625l1.671875 0l0 1.90625l-1.671875 0zm0 11.6875l0 -9.859375l1.671875 0l0 9.859375l-1.671875 0zm4.129196 0l0 -9.859375l1.5 0l0 1.40625q1.09375 -1.625 3.140625 -1.625q0.890625 0 1.640625 0.328125q0.75 0.3125 1.109375 0.84375q0.375 0.515625 0.53125 1.21875q0.09375 0.46875 0.09375 1.625l0 6.0625l-1.671875 0l0 -6.0q0 -1.015625 -0.203125 -1.515625q-0.1875 -0.515625 -0.6875 -0.8125q-0.5 -0.296875 -1.171875 -0.296875q-1.0625 0 -1.84375 0.671875q-0.765625 0.671875 -0.765625 2.578125l0 5.375l-1.671875 0zm10.078842 0.8125l1.609375 0.25q0.109375 0.75 0.578125 1.09375q0.609375 0.453125 1.6875 0.453125q1.171875 0 1.796875 -0.46875q0.625 -0.453125 0.859375 -1.28125q0.125 -0.515625 0.109375 -2.15625q-1.09375 1.296875 -2.71875 1.296875q-2.03125 0 -3.15625 -1.46875q-1.109375 -1.46875 -1.109375 -3.515625q0 -1.40625 0.515625 -2.59375q0.515625 -1.203125 1.484375 -1.84375q0.96875 -0.65625 2.265625 -0.65625q1.75 0 2.875 1.40625l0 -1.1875l1.546875 0l0 8.515625q0 2.3125 -0.46875 3.265625q-0.46875 0.96875 -1.484375 1.515625q-1.015625 0.5625 -2.5 0.5625q-1.765625 0 -2.859375 -0.796875q-1.078125 -0.796875 -1.03125 -2.390625zm1.375 -5.921875q0 1.953125 0.765625 2.84375q0.78125 0.890625 1.9375 0.890625q1.140625 0 1.921875 -0.890625q0.78125 -0.890625 0.78125 -2.78125q0 -1.8125 -0.8125 -2.71875q-0.796875 -0.921875 -1.921875 -0.921875q-1.109375 0 -1.890625 0.90625q-0.78125 0.890625 -0.78125 2.671875z" fill-rule="nonzero"></path><path fill="#000000" fill-opacity="0.0" d="m177.49936 691.6509c-11.889343 0 -21.527557 -1.6063232 -21.527557 -3.5877686l0 -89.10791c0 -1.9815063 -9.638214 -3.5877686 -21.527557 -3.5877686l0 0c11.889343 0 21.527557 -1.6063232 21.527557 -3.5878296l0 -89.10788l0 0c0 -1.9814758 9.638214 -3.587799 21.527557 -3.587799z" fill-rule="nonzero"></path><path fill="#000000" fill-opacity="0.0" d="m177.49936 691.6509c-11.889343 0 -21.527557 -1.6063232 -21.527557 -3.5877686l0 -89.10791c0 -1.9815063 -9.638214 -3.5877686 -21.527557 -3.5877686l0 0c11.889343 0 21.527557 -1.6063232 21.527557 -3.5878296l0 -89.10788l0 0c0 -1.9814758 9.638214 -3.587799 21.527557 -3.587799" fill-rule="nonzero"></path><path stroke="#f0e7d5" stroke-width="1.0" stroke-linejoin="round" stroke-linecap="butt" d="m177.49936 691.6509c-11.889343 0 -21.527557 -1.6063232 -21.527557 -3.5877686l0 -89.10791c0 -1.9815063 -9.638214 -3.5877686 -21.527557 -3.5877686l0 0c11.889343 0 21.527557 -1.6063232 21.527557 -3.5878296l0 -89.10788l0 0c0 -1.9814758 9.638214 -3.587799 21.527557 -3.587799" fill-rule="nonzero"></path><path fill="#000000" fill-opacity="0.0" d="m-13.606299 575.9973l148.09448 0l0 32.22046l-148.09448 0z" fill-rule="nonzero"></path><path fill="#f0e7d5" d="m47.100044 595.41815l1.640625 0.21875q-0.265625 1.6875 -1.375 2.65625q-1.109375 0.953125 -2.734375 0.953125q-2.015625 0 -3.25 -1.3125q-1.21875 -1.328125 -1.21875 -3.796875q0 -1.59375 0.515625 -2.78125q0.53125 -1.203125 1.609375 -1.796875q1.09375 -0.609375 2.359375 -0.609375q1.609375 0 2.625 0.8125q1.015625 0.8125 1.3125 2.3125l-1.625 0.25q-0.234375 -1.0 -0.828125 -1.5q-0.59375 -0.5 -1.421875 -0.5q-1.265625 0 -2.0625 0.90625q-0.78125 0.90625 -0.78125 2.859375q0 1.984375 0.765625 2.890625q0.765625 0.890625 1.984375 0.890625q0.984375 0 1.640625 -0.59375q0.65625 -0.609375 0.84375 -1.859375zm2.265625 -1.3125q0 -2.734375 1.53125 -4.0625q1.265625 -1.09375 3.09375 -1.09375q2.03125 0 3.3125 1.34375q1.296875 1.328125 1.296875 3.671875q0 1.90625 -0.578125 3.0q-0.5625 1.078125 -1.65625 1.6875q-1.078125 0.59375 -2.375 0.59375q-2.0625 0 -3.34375 -1.328125q-1.28125 -1.328125 -1.28125 -3.8125zm1.71875 0q0 1.890625 0.828125 2.828125q0.828125 0.9375 2.078125 0.9375q1.25 0 2.0625 -0.9375q0.828125 -0.953125 0.828125 -2.890625q0 -1.828125 -0.828125 -2.765625q-0.828125 -0.9375 -2.0625 -0.9375q-1.25 0 -2.078125 0.9375q-0.828125 0.9375 -0.828125 2.828125zm9.281967 4.921875l0 -9.859375l1.5 0l0 1.390625q0.453125 -0.71875 1.21875 -1.15625q0.78125 -0.453125 1.765625 -0.453125q1.09375 0 1.796875 0.453125q0.703125 0.453125 0.984375 1.28125q1.171875 -1.734375 3.046875 -1.734375q1.46875 0 2.25 0.8125q0.796875 0.8125 0.796875 2.5l0 6.765625l-1.671875 0l0 -6.203125q0 -1.0 -0.15625 -1.4375q-0.15625 -0.453125 -0.59375 -0.71875q-0.421875 -0.265625 -1.0 -0.265625q-1.03125 0 -1.71875 0.6875q-0.6875 0.6875 -0.6875 2.21875l0 5.71875l-1.671875 0l0 -6.40625q0 -1.109375 -0.40625 -1.65625q-0.40625 -0.5625 -1.34375 -0.5625q-0.703125 0 -1.3125 0.375q-0.59375 0.359375 -0.859375 1.078125q-0.265625 0.71875 -0.265625 2.0625l0 5.109375l-1.671875 0zm15.540802 3.78125l0 -13.640625l1.53125 0l0 1.28125q0.53125 -0.75 1.203125 -1.125q0.6875 -0.375 1.640625 -0.375q1.265625 0 2.234375 0.65625q0.96875 0.640625 1.453125 1.828125q0.5 1.1875 0.5 2.59375q0 1.515625 -0.546875 2.734375q-0.546875 1.203125 -1.578125 1.84375q-1.03125 0.640625 -2.171875 0.640625q-0.84375 0 -1.515625 -0.34375q-0.65625 -0.359375 -1.078125 -0.890625l0 4.796875l-1.671875 0zm1.515625 -8.65625q0 1.90625 0.765625 2.8125q0.78125 0.90625 1.875 0.90625q1.109375 0 1.890625 -0.9375q0.796875 -0.9375 0.796875 -2.921875q0 -1.875 -0.78125 -2.8125q-0.765625 -0.9375 -1.84375 -0.9375q-1.0625 0 -1.890625 1.0q-0.8125 1.0 -0.8125 2.890625zm8.828842 4.875l0 -13.59375l1.671875 0l0 13.59375l-1.671875 0zm10.926071 -3.171875l1.71875 0.21875q-0.40625 1.5 -1.515625 2.34375q-1.09375 0.828125 -2.8125 0.828125q-2.15625 0 -3.421875 -1.328125q-1.265625 -1.328125 -1.265625 -3.734375q0 -2.484375 1.265625 -3.859375q1.28125 -1.375 3.328125 -1.375q1.984375 0 3.234375 1.34375q1.25 1.34375 1.25 3.796875q0 0.140625 -0.015625 0.4375l-7.34375 0q0.09375 1.625 0.921875 2.484375q0.828125 0.859375 2.0625 0.859375q0.90625 0 1.546875 -0.46875q0.65625 -0.484375 1.046875 -1.546875zm-5.484375 -2.703125l5.5 0q-0.109375 -1.234375 -0.625 -1.859375q-0.796875 -0.96875 -2.078125 -0.96875q-1.140625 0 -1.9375 0.78125q-0.78125 0.765625 -0.859375 2.046875zm12.766342 4.375l0.234375 1.484375q-0.703125 0.140625 -1.265625 0.140625q-0.90625 0 -1.40625 -0.28125q-0.5 -0.296875 -0.703125 -0.75q-0.203125 -0.46875 -0.203125 -1.984375l0 -5.65625l-1.234375 0l0 -1.3125l1.234375 0l0 -2.4375l1.65625 -1.0l0 3.4375l1.6875 0l0 1.3125l-1.6875 0l0 5.75q0 0.71875 0.078125 0.921875q0.09375 0.203125 0.296875 0.328125q0.203125 0.125 0.578125 0.125q0.265625 0 0.734375 -0.078125zm8.277054 -1.671875l1.71875 0.21875q-0.40625 1.5 -1.515625 2.34375q-1.09375 0.828125 -2.8125 0.828125q-2.15625 0 -3.421875 -1.328125q-1.265625 -1.328125 -1.265625 -3.734375q0 -2.484375 1.265625 -3.859375q1.28125 -1.375 3.328125 -1.375q1.984375 0 3.234375 1.34375q1.25 1.34375 1.25 3.796875q0 0.140625 -0.015625 0.4375l-7.34375 0q0.09375 1.625 0.921875 2.484375q0.828125 0.859375 2.0625 0.859375q0.90625 0 1.546875 -0.46875q0.65625 -0.484375 1.046875 -1.546875zm-5.484375 -2.703125l5.5 0q-0.109375 -1.234375 -0.625 -1.859375q-0.796875 -0.96875 -2.078125 -0.96875q-1.140625 0 -1.9375 0.78125q-0.78125 0.765625 -0.859375 2.046875zm15.500717 5.875l0 -1.25q-0.9375 1.46875 -2.75 1.46875q-1.171875 0 -2.171875 -0.640625q-0.984375 -0.65625 -1.53125 -1.8125q-0.53125 -1.171875 -0.53125 -2.6875q0 -1.46875 0.484375 -2.671875q0.5 -1.203125 1.46875 -1.84375q0.984375 -0.640625 2.203125 -0.640625q0.890625 0 1.578125 0.375q0.703125 0.375 1.140625 0.984375l0 -4.875l1.65625 0l0 13.59375l-1.546875 0zm-5.28125 -4.921875q0 1.890625 0.796875 2.828125q0.8125 0.9375 1.890625 0.9375q1.09375 0 1.859375 -0.890625q0.765625 -0.890625 0.765625 -2.734375q0 -2.015625 -0.78125 -2.953125q-0.78125 -0.953125 -1.921875 -0.953125q-1.109375 0 -1.859375 0.90625q-0.75 0.90625 -0.75 2.859375z" fill-rule="nonzero"></path></g></svg>

