<?xml version="1.0" standalone="yes"?>

<svg version="1.1" viewBox="0.0 0.0 696.5590551181102 666.4173228346457" fill="none" stroke="none" stroke-linecap="square" stroke-miterlimit="10" xmlns="http://www.w3.org/2000/svg" xmlns:xlink="http://www.w3.org/1999/xlink"><clipPath id="p.0"><path d="m0 0l696.5591 0l0 666.4173l-696.5591 0l0 -666.4173z" clip-rule="nonzero"></path></clipPath><g clip-path="url(#p.0)"><path fill="#000000" fill-opacity="0.0" d="m0 0l696.5591 0l0 666.4173l-696.5591 0z" fill-rule="nonzero"></path><path fill="#ffff00" d="m442.41733 70.9762l242.80313 0l0 30.141731l-242.80313 0z" fill-rule="nonzero"></path><path fill="#00ffff" d="m442.41733 101.92969l242.80313 0l0 30.141724l-242.80313 0z" fill-rule="nonzero"></path><path fill="#ff9900" d="m442.41733 132.88318l242.80313 0l0 30.141724l-242.80313 0z" fill-rule="nonzero"></path><path fill="#00ff00" d="m442.41733 163.41806l242.80313 0l0 30.141724l-242.80313 0z" fill-rule="nonzero"></path><path fill="#ffff00" d="m442.41733 193.90643l242.80313 0l0 30.141724l-242.80313 0z" fill-rule="nonzero"></path><path fill="#00ffff" d="m442.41733 224.44131l242.80313 0l0 30.141724l-242.80313 0z" fill-rule="nonzero"></path><path fill="#ff9900" d="m442.41733 254.76689l242.80313 0l0 30.141739l-242.80313 0z" fill-rule="nonzero"></path><path fill="#00ff00" d="m442.41733 285.3018l242.80313 0l0 30.141724l-242.80313 0z" fill-rule="nonzero"></path><path fill="#ffff00" d="m442.41733 315.99945l242.80313 0l0 30.141724l-242.80313 0z" fill-rule="nonzero"></path><path fill="#00ffff" d="m442.41733 346.74365l242.80313 0l0 30.141724l-242.80313 0z" fill-rule="nonzero"></path><path fill="#ff9900" d="m442.41733 377.48782l242.80313 0l0 30.141724l-242.80313 0z" fill-rule="nonzero"></path><path fill="#00ff00" d="m442.41733 408.23203l242.80313 0l0 30.141724l-242.80313 0z" fill-rule="nonzero"></path><path fill="#ffff00" d="m442.41733 438.72037l242.80313 0l0 30.141754l-242.80313 0z" fill-rule="nonzero"></path><path fill="#00ffff" d="m442.41733 469.04596l242.80313 0l0 30.141724l-242.80313 0z" fill-rule="nonzero"></path><path fill="#ff9900" d="m442.41733 499.37155l242.80313 0l0 30.141754l-242.80313 0z" fill-rule="nonzero"></path><path fill="#00ff00" d="m442.41733 529.90643l242.80313 0l0 30.141724l-242.80313 0z" fill-rule="nonzero"></path><path fill="#ffff00" d="m10.417323 260.46457l242.80315 0l0 30.141724l-242.80315 0z" fill-rule="nonzero"></path><path fill="#ffff00" d="m10.417323 290.99945l242.80315 0l0 30.141724l-242.80315 0z" fill-rule="nonzero"></path><path fill="#00ffff" d="m10.417323 321.74365l242.80315 0l0 30.141724l-242.80315 0z" fill-rule="nonzero"></path><path fill="#00ffff" d="m10.417323 352.48782l242.80315 0l0 30.141724l-242.80315 0z" fill-rule="nonzero"></path><path fill="#ff9900" d="m10.417323 383.1855l242.80315 0l0 30.141754l-242.80315 0z" fill-rule="nonzero"></path><path fill="#ff9900" d="m10.417323 413.72037l242.80315 0l0 30.141754l-242.80315 0z" fill-rule="nonzero"></path><path fill="#00ff00" d="m10.417323 444.25528l242.80315 0l0 30.141724l-242.80315 0z" fill-rule="nonzero"></path><path fill="#00ff00" d="m10.417323 474.99945l242.80315 0l0 30.141724l-242.80315 0z" fill-rule="nonzero"></path><path fill="#ffff00" d="m442.41733 560.4413l242.80313 0l0 30.141785l-242.80313 0z" fill-rule="nonzero"></path><path fill="#00ffff" d="m442.41733 591.1855l242.80313 0l0 30.141724l-242.80313 0z" fill-rule="nonzero"></path><path fill="#ff9900" d="m442.41733 621.8832l242.80313 0l0 30.141724l-242.80313 0z" fill-rule="nonzero"></path><path stroke="#f0e7d5" stroke-width="1.0" stroke-linejoin="round" stroke-linecap="butt" d="m442.41733 621.8832l242.80313 0l0 30.141724l-242.80313 0z" fill-rule="nonzero"></path><path fill="#00ff00" d="m442.41733 40.278522l242.80313 0l0 30.141727l-242.80313 0z" fill-rule="nonzero"></path><path fill="#000000" fill-opacity="0.0" d="m442.4042 0l242.80313 0l0 40.283466l-242.80313 0z" fill-rule="nonzero"></path><path fill="#f0e7d5" d="m531.36884 26.919998l0 -9.859375l1.5 0l0 1.390625q0.453125 -0.71875 1.21875 -1.15625q0.78125 -0.453125 1.765625 -0.453125q1.09375 0 1.796875 0.453125q0.703125 0.453125 0.984375 1.28125q1.171875 -1.734375 3.046875 -1.734375q1.46875 0 2.25 0.8125q0.796875 0.8125 0.796875 2.5l0 6.765625l-1.671875 0l0 -6.203125q0 -1.0 -0.15625 -1.4375q-0.15625 -0.453125 -0.59375 -0.71875q-0.421875 -0.265625 -1.0 -0.265625q-1.03125 0 -1.71875 0.6875q-0.6875 0.6875 -0.6875 2.21875l0 5.71875l-1.671875 0l0 -6.40625q0 -1.109375 -0.40625 -1.65625q-0.40625 -0.5625 -1.34375 -0.5625q-0.703125 0 -1.3125 0.375q-0.59375 0.359375 -0.859375 1.078125q-0.265625 0.71875 -0.265625 2.0625l0 5.109375l-1.671875 0zm22.290833 -3.171875l1.71875 0.21875q-0.40625 1.5 -1.515625 2.34375q-1.09375 0.828125 -2.8125 0.828125q-2.15625 0 -3.421875 -1.328125q-1.265625 -1.328125 -1.265625 -3.734375q0 -2.484375 1.265625 -3.859375q1.28125 -1.375 3.328125 -1.375q1.984375 0 3.234375 1.34375q1.25 1.34375 1.25 3.796875q0 0.140625 -0.015625 0.4375l-7.34375 0q0.09375 1.625 0.921875 2.484375q0.828125 0.859375 2.0625 0.859375q0.90625 0 1.546875 -0.46875q0.65625 -0.484375 1.046875 -1.546875zm-5.484375 -2.703125l5.5 0q-0.109375 -1.234375 -0.625 -1.859375q-0.796875 -0.96875 -2.078125 -0.96875q-1.140625 0 -1.9375 0.78125q-0.78125 0.765625 -0.859375 2.046875zm9.110107 5.875l0 -9.859375l1.5 0l0 1.390625q0.453125 -0.71875 1.21875 -1.15625q0.78125 -0.453125 1.765625 -0.453125q1.09375 0 1.796875 0.453125q0.703125 0.453125 0.984375 1.28125q1.171875 -1.734375 3.046875 -1.734375q1.46875 0 2.25 0.8125q0.79681396 0.8125 0.79681396 2.5l0 6.765625l-1.671814 0l0 -6.203125q0 -1.0 -0.15625 -1.4375q-0.15625 -0.453125 -0.59375 -0.71875q-0.421875 -0.265625 -1.0 -0.265625q-1.03125 0 -1.71875 0.6875q-0.6875 0.6875 -0.6875 2.21875l0 5.71875l-1.671875 0l0 -6.40625q0 -1.109375 -0.40625 -1.65625q-0.40625 -0.5625 -1.34375 -0.5625q-0.703125 0 -1.3125 0.375q-0.59375 0.359375 -0.859375 1.078125q-0.265625 0.71875 -0.265625 2.0625l0 5.109375l-1.671875 0zm14.9157715 -4.921875q0 -2.734375 1.53125 -4.0625q1.265625 -1.09375 3.09375 -1.09375q2.03125 0 3.3125 1.34375q1.296875 1.328125 1.296875 3.671875q0 1.90625 -0.578125 3.0q-0.5625 1.078125 -1.65625 1.6875q-1.078125 0.59375 -2.375 0.59375q-2.0625 0 -3.34375 -1.328125q-1.28125 -1.328125 -1.28125 -3.8125zm1.71875 0q0 1.890625 0.828125 2.828125q0.828125 0.9375 2.078125 0.9375q1.25 0 2.0625 -0.9375q0.828125 -0.953125 0.828125 -2.890625q0 -1.828125 -0.828125 -2.765625q-0.828125 -0.9375 -2.0625 -0.9375q-1.25 0 -2.078125 0.9375q-0.828125 0.9375 -0.828125 2.828125zm9.266357 4.921875l0 -9.859375l1.5 0l0 1.5q0.578125 -1.046875 1.0625 -1.375q0.484375 -0.34375 1.078125 -0.34375q0.84375 0 1.71875 0.546875l-0.578125 1.546875q-0.609375 -0.359375 -1.234375 -0.359375q-0.546875 0 -0.984375 0.328125q-0.421875 0.328125 -0.609375 0.90625q-0.28125 0.890625 -0.28125 1.953125l0 5.15625l-1.671875 0zm6.1501465 3.796875l-0.171875 -1.5625q0.546875 0.140625 0.953125 0.140625q0.546875 0 0.875 -0.1875q0.34375 -0.1875 0.5625 -0.515625q0.15625 -0.25 0.5 -1.25q0.046875 -0.140625 0.15625 -0.40625l-3.734375 -9.875l1.796875 0l2.046875 5.71875q0.40625 1.078125 0.71875 2.28125q0.28125 -1.15625 0.6875 -2.25l2.09375 -5.75l1.671875 0l-3.75 10.03125q-0.59375 1.625 -0.9375 2.234375q-0.4375 0.828125 -1.015625 1.203125q-0.578125 0.390625 -1.375 0.390625q-0.484375 0 -1.078125 -0.203125z" fill-rule="nonzero"></path><path fill="#000000" fill-opacity="0.0" d="m10.4042 219.09961l242.80315 0l0 40.283478l-242.80315 0z" fill-rule="nonzero"></path><path fill="#f0e7d5" d="m114.60157 242.41023l1.640625 0.21875q-0.265625 1.6875 -1.375 2.65625q-1.109375 0.953125 -2.734375 0.953125q-2.015625 0 -3.25 -1.3125q-1.21875 -1.328125 -1.21875 -3.796875q0 -1.59375 0.515625 -2.78125q0.53125 -1.203125 1.609375 -1.796875q1.09375 -0.609375 2.359375 -0.609375q1.609375 0 2.625 0.8125q1.015625 0.8125 1.3125 2.3125l-1.625 0.25q-0.234375 -1.0 -0.828125 -1.5q-0.59375 -0.5 -1.421875 -0.5q-1.265625 0 -2.0625 0.90625q-0.78125 0.90625 -0.78125 2.859375q0 1.984375 0.765625 2.890625q0.765625 0.890625 1.984375 0.890625q0.984375 0 1.640625 -0.59375q0.65625 -0.609375 0.84375 -1.859375zm9.328125 2.390625q-0.9375 0.796875 -1.796875 1.125q-0.859375 0.3125 -1.84375 0.3125q-1.609375 0 -2.484375 -0.78125q-0.875 -0.796875 -0.875 -2.03125q0 -0.734375 0.328125 -1.328125q0.328125 -0.59375 0.859375 -0.953125q0.53125 -0.359375 1.203125 -0.546875q0.5 -0.140625 1.484375 -0.25q2.03125 -0.25 2.984375 -0.578125q0 -0.34375 0 -0.4375q0 -1.015625 -0.46875 -1.4375q-0.640625 -0.5625 -1.90625 -0.5625q-1.171875 0 -1.734375 0.40625q-0.5625 0.40625 -0.828125 1.46875l-1.640625 -0.234375q0.234375 -1.046875 0.734375 -1.6875q0.515625 -0.640625 1.46875 -0.984375q0.96875 -0.359375 2.25 -0.359375q1.265625 0 2.046875 0.296875q0.78125 0.296875 1.15625 0.75q0.375 0.453125 0.515625 1.140625q0.09375 0.421875 0.09375 1.53125l0 2.234375q0 2.328125 0.09375 2.953125q0.109375 0.609375 0.4375 1.171875l-1.75 0q-0.265625 -0.515625 -0.328125 -1.21875zm-0.140625 -3.71875q-0.90625 0.359375 -2.734375 0.625q-1.03125 0.140625 -1.453125 0.328125q-0.421875 0.1875 -0.65625 0.546875q-0.234375 0.359375 -0.234375 0.796875q0 0.671875 0.5 1.125q0.515625 0.4375 1.484375 0.4375q0.96875 0 1.71875 -0.421875q0.75 -0.4375 1.109375 -1.15625q0.265625 -0.578125 0.265625 -1.671875l0 -0.609375zm10.51635 1.328125l1.640625 0.21875q-0.265625 1.6875 -1.375 2.65625q-1.109375 0.953125 -2.734375 0.953125q-2.015625 0 -3.25 -1.3125q-1.2187576 -1.328125 -1.2187576 -3.796875q0 -1.59375 0.515625 -2.78125q0.5312576 -1.203125 1.6093826 -1.796875q1.09375 -0.609375 2.359375 -0.609375q1.609375 0 2.625 0.8125q1.015625 0.8125 1.3125 2.3125l-1.625 0.25q-0.234375 -1.0 -0.828125 -1.5q-0.59375 -0.5 -1.421875 -0.5q-1.265625 0 -2.0625 0.90625q-0.78125 0.90625 -0.78125 2.859375q0 1.984375 0.765625 2.890625q0.765625 0.890625 1.984375 0.890625q0.984375 0 1.640625 -0.59375q0.65625 -0.609375 0.84375 -1.859375zm2.890625 3.609375l0 -13.59375l1.671875 0l0 4.875q1.171875 -1.359375 2.953125 -1.359375q1.09375 0 1.890625 0.4375q0.8125 0.421875 1.15625 1.1875q0.359375 0.765625 0.359375 2.203125l0 6.25l-1.671875 0l0 -6.25q0 -1.25 -0.546875 -1.8125q-0.546875 -0.578125 -1.53125 -0.578125q-0.75 0 -1.40625 0.390625q-0.640625 0.375 -0.921875 1.046875q-0.28125 0.65625 -0.28125 1.8125l0 5.390625l-1.671875 0zm17.125717 -3.171875l1.71875 0.21875q-0.40625 1.5 -1.515625 2.34375q-1.09375 0.828125 -2.8125 0.828125q-2.15625 0 -3.421875 -1.328125q-1.265625 -1.328125 -1.265625 -3.734375q0 -2.484375 1.265625 -3.859375q1.28125 -1.375 3.328125 -1.375q1.984375 0 3.234375 1.34375q1.25 1.34375 1.25 3.796875q0 0.140625 -0.015625 0.4375l-7.34375 0q0.09375 1.625 0.921875 2.484375q0.828125 0.859375 2.0625 0.859375q0.90625 0 1.546875 -0.46875q0.65625 -0.484375 1.046875 -1.546875zm-5.484375 -2.703125l5.5 0q-0.109375 -1.234375 -0.625 -1.859375q-0.796875 -0.96875 -2.078125 -0.96875q-1.140625 0 -1.9375 0.78125q-0.78125 0.765625 -0.859375 2.046875z" fill-rule="nonzero"></path><path fill="#000000" fill-opacity="0.0" d="m442.5853 87.59705l-189.38582 206.17325" fill-rule="nonzero"></path><path stroke="#f0e7d5" stroke-width="3.0" stroke-linejoin="round" stroke-linecap="butt" d="m442.5853 87.59705l-182.43066 198.60156" fill-rule="evenodd"></path><path fill="#f0e7d5" stroke="#f0e7d5" stroke-width="3.0" stroke-linecap="butt" d="m260.15463 286.1986l-0.20230103 -4.7669067l-3.7859802 9.108704l8.755188 -4.544098z" fill-rule="evenodd"></path><path fill="#000000" fill-opacity="0.0" d="m442.5853 117.01488l-189.38582 236.62993" fill-rule="nonzero"></path><path stroke="#f0e7d5" stroke-width="3.0" stroke-linejoin="round" stroke-linecap="butt" d="m442.5853 117.01488l-182.96149 228.60298" fill-rule="evenodd"></path><path fill="#f0e7d5" stroke="#f0e7d5" stroke-width="3.0" stroke-linecap="butt" d="m259.6238 345.61786l-0.5258789 -4.742157l-3.1580048 9.345032l8.426041 -5.128784z" fill-rule="evenodd"></path><path fill="#000000" fill-opacity="0.0" d="m442.5853 147.975l-189.38582 265.7953" fill-rule="nonzero"></path><path stroke="#f0e7d5" stroke-width="3.0" stroke-linejoin="round" stroke-linecap="butt" d="m442.5853 147.975l-183.41971 257.42215" fill-rule="evenodd"></path><path fill="#f0e7d5" stroke="#f0e7d5" stroke-width="3.0" stroke-linecap="butt" d="m259.16556 405.39713l-0.78985596 -4.705353l-2.631256 9.506775l8.126495 -5.591278z" fill-rule="evenodd"></path><path fill="#000000" fill-opacity="0.0" d="m442.5853 178.47519l-189.38582 294.64566" fill-rule="nonzero"></path><path stroke="#f0e7d5" stroke-width="3.0" stroke-linejoin="round" stroke-linecap="butt" d="m442.5853 178.47519l-183.82675 285.99692" fill-rule="evenodd"></path><path fill="#f0e7d5" stroke="#f0e7d5" stroke-width="3.0" stroke-linecap="butt" d="m258.75854 464.4721l-1.0138855 -4.662262l-2.1738434 9.621674l7.8499603 -5.973297z" fill-rule="evenodd"></path><path fill="#000000" fill-opacity="0.0" d="m442.5853 208.98288l-189.38582 84.787415" fill-rule="nonzero"></path><path stroke="#f0e7d5" stroke-width="3.0" stroke-linejoin="round" stroke-linecap="butt" d="m442.5853 208.98288l-180.00204 80.586334" fill-rule="evenodd"></path><path fill="#f0e7d5" stroke="#f0e7d5" stroke-width="3.0" stroke-linecap="butt" d="m262.58325 289.56918l1.7006836 -4.457794l-7.081604 6.8668213l9.838715 -0.7083435z" fill-rule="evenodd"></path><path fill="#000000" fill-opacity="0.0" d="m442.99475 243.72354l-189.79527 109.921265" fill-rule="nonzero"></path><path stroke="#f0e7d5" stroke-width="3.0" stroke-linejoin="round" stroke-linecap="butt" d="m442.99475 243.72354l-180.8984 104.768585" fill-rule="evenodd"></path><path fill="#f0e7d5" stroke="#f0e7d5" stroke-width="3.0" stroke-linecap="butt" d="m262.09634 348.49213l1.2286377 -4.6102905l-6.330353 7.564972l9.712006 -1.7260437z" fill-rule="evenodd"></path><path fill="#000000" fill-opacity="0.0" d="m442.5853 269.83328l-189.38582 143.93701" fill-rule="nonzero"></path><path stroke="#f0e7d5" stroke-width="3.0" stroke-linejoin="round" stroke-linecap="butt" d="m442.5853 269.83328l-181.20035 137.71588" fill-rule="evenodd"></path><path fill="#f0e7d5" stroke="#f0e7d5" stroke-width="3.0" stroke-linecap="butt" d="m261.38495 407.54916l0.6445923 -4.7274475l-5.338379 8.29483l9.421234 -2.9227905z" fill-rule="evenodd"></path><path fill="#000000" fill-opacity="0.0" d="m442.5853 300.36496l-189.38582 172.75589" fill-rule="nonzero"></path><path stroke="#f0e7d5" stroke-width="3.0" stroke-linejoin="round" stroke-linecap="butt" d="m442.5853 300.36496l-181.79004 165.82709" fill-rule="evenodd"></path><path fill="#f0e7d5" stroke="#f0e7d5" stroke-width="3.0" stroke-linecap="butt" d="m260.79526 466.19205l0.21887207 -4.7661743l-4.5744934 8.739349l9.121796 -3.754303z" fill-rule="evenodd"></path><path fill="#000000" fill-opacity="0.0" d="m442.5853 331.0616l-189.38582 -37.29132" fill-rule="nonzero"></path><path stroke="#f0e7d5" stroke-width="3.0" stroke-linejoin="round" stroke-linecap="butt" d="m442.5853 331.0616l-179.29828 -35.305023" fill-rule="evenodd"></path><path fill="#f0e7d5" stroke="#f0e7d5" stroke-width="3.0" stroke-linecap="butt" d="m263.28705 295.7566l3.961975 -2.6583862l-9.74646 1.5193787l8.442871 5.1009827z" fill-rule="evenodd"></path><path fill="#000000" fill-opacity="0.0" d="m442.5853 361.80228l-189.38582 -8.157471" fill-rule="nonzero"></path><path stroke="#f0e7d5" stroke-width="3.0" stroke-linejoin="round" stroke-linecap="butt" d="m442.5853 361.80228l-179.11407 -7.7150574" fill-rule="evenodd"></path><path fill="#f0e7d5" stroke="#f0e7d5" stroke-width="3.0" stroke-linecap="butt" d="m263.47122 354.08725l3.515808 -3.2254333l-9.405914 2.9717102l9.11554 3.7695312z" fill-rule="evenodd"></path><path fill="#000000" fill-opacity="0.0" d="m442.5853 392.57343l-189.38582 21.196869" fill-rule="nonzero"></path><path stroke="#f0e7d5" stroke-width="3.0" stroke-linejoin="round" stroke-linecap="butt" d="m442.5853 392.57346l-179.16837 20.053253" fill-rule="evenodd"></path><path fill="#f0e7d5" stroke="#f0e7d5" stroke-width="3.0" stroke-linecap="butt" d="m263.41693 412.6267l2.9775696 -3.7280579l-8.836548 4.3838196l9.587067 2.3218079z" fill-rule="evenodd"></path><path fill="#000000" fill-opacity="0.0" d="m442.5853 423.2941l-189.38582 49.82675" fill-rule="nonzero"></path><path stroke="#f0e7d5" stroke-width="3.0" stroke-linejoin="round" stroke-linecap="butt" d="m442.5853 423.2941l-179.44293 47.210815" fill-rule="evenodd"></path><path fill="#f0e7d5" stroke="#f0e7d5" stroke-width="3.0" stroke-linecap="butt" d="m263.14236 470.5049l2.4043274 -4.1211243l-8.105835 5.6211853l9.822632 0.90423584z" fill-rule="evenodd"></path><path fill="#000000" fill-opacity="0.0" d="m442.5853 453.8018l-189.38582 -160.0315" fill-rule="nonzero"></path><path stroke="#f0e7d5" stroke-width="3.0" stroke-linejoin="round" stroke-linecap="butt" d="m442.5853 453.8018l-181.53278 -153.39569" fill-rule="evenodd"></path><path fill="#f0e7d5" stroke="#f0e7d5" stroke-width="3.0" stroke-linecap="butt" d="m261.0525 300.4061l4.7544556 -0.39941406l-9.257568 -3.4057312l4.9025574 8.559601z" fill-rule="evenodd"></path><path fill="#000000" fill-opacity="0.0" d="m442.5853 484.1015l-189.38582 -130.4567" fill-rule="nonzero"></path><path stroke="#f0e7d5" stroke-width="3.0" stroke-linejoin="round" stroke-linecap="butt" d="m442.5853 484.1015l-180.91895 -124.62436" fill-rule="evenodd"></path><path fill="#f0e7d5" stroke="#f0e7d5" stroke-width="3.0" stroke-linecap="butt" d="m261.66635 359.47714l4.69223 -0.86450195l-9.547363 -2.4799194l5.7196655 8.036652z" fill-rule="evenodd"></path><path fill="#000000" fill-opacity="0.0" d="m442.5853 514.4317l-189.38582 -100.66141" fill-rule="nonzero"></path><path stroke="#f0e7d5" stroke-width="3.0" stroke-linejoin="round" stroke-linecap="butt" d="m442.5853 514.4317l-180.30728 -95.83603" fill-rule="evenodd"></path><path fill="#f0e7d5" stroke="#f0e7d5" stroke-width="3.0" stroke-linecap="butt" d="m262.278 418.59567l4.5625305 -1.3956604l-9.768402 -1.3713379l6.601532 7.329529z" fill-rule="evenodd"></path><path fill="#000000" fill-opacity="0.0" d="m442.5853 544.9634l-189.38582 -71.84253" fill-rule="nonzero"></path><path stroke="#f0e7d5" stroke-width="3.0" stroke-linejoin="round" stroke-linecap="butt" d="m442.5853 544.9634l-179.77298 -68.19595" fill-rule="evenodd"></path><path fill="#f0e7d5" stroke="#f0e7d5" stroke-width="3.0" stroke-linecap="butt" d="m262.81232 476.76743l4.351013 -1.9577942l-9.863281 -0.13323975l7.4700623 6.4420776z" fill-rule="evenodd"></path><path fill="#000000" fill-opacity="0.0" d="m11.624672 264.2427l241.5748 0l0 59.055145l-241.5748 0z" fill-rule="nonzero"></path><path fill="#000000" fill-opacity="0.0" d="m11.624672 324.11725l241.5748 0l0 59.055115l-241.5748 0z" fill-rule="nonzero"></path><path fill="#000000" fill-opacity="0.0" d="m11.624672 384.2427l241.5748 0l0 59.055145l-241.5748 0z" fill-rule="nonzero"></path><path fill="#000000" fill-opacity="0.0" d="m11.624672 443.5933l241.5748 0l0 59.055115l-241.5748 0z" fill-rule="nonzero"></path></g></svg>

