<?xml version="1.0" standalone="yes"?>

<svg version="1.1" viewBox="0.0 0.0 1291.2152230971128 265.43044619422574" fill="none" stroke="none" stroke-linecap="square" stroke-miterlimit="10" xmlns="http://www.w3.org/2000/svg" xmlns:xlink="http://www.w3.org/1999/xlink"><clipPath id="p.0"><path d="m0 0l1291.2152 0l0 265.43045l-1291.2152 0l0 -265.43045z" clip-rule="nonzero"></path></clipPath><g clip-path="url(#p.0)"><path fill="#000000" fill-opacity="0.0" d="m0 0l1291.2152 0l0 265.43045l-1291.2152 0z" fill-rule="nonzero"></path><path fill="#000000" fill-opacity="0.0" d="m217.2101 15.553867l142.5512 0l0 112.7874l-142.5512 0z" fill-rule="nonzero"></path><path stroke="#f0e7d5" stroke-width="3.0" stroke-linejoin="round" stroke-linecap="butt" d="m217.2101 15.553867l142.5512 0l0 112.7874l-142.5512 0z" fill-rule="nonzero"></path><path fill="#f0e7d5" d="m236.14035 72.15945q0 1.21875 0.296875 2.203125q0.296875 0.984375 0.859375 1.703125q0.578125 0.703125 1.390625 1.09375q0.8125 0.375 1.875 0.375q1.03125 0 1.859375 -0.375q0.828125 -0.390625 1.390625 -1.09375q0.5625 -0.71875 0.859375 -1.703125q0.296875 -0.984375 0.296875 -2.203125q0 -1.21875 -0.296875 -2.21875q-0.296875 -1.0 -0.859375 -1.703125q-0.5625 -0.703125 -1.390625 -1.09375q-0.828125 -0.390625 -1.859375 -0.390625q-1.0625 0 -1.875 0.40625q-0.8125 0.390625 -1.390625 1.109375q-0.5625 0.703125 -0.859375 1.703125q-0.296875 0.984375 -0.296875 2.1875zm12.703125 0q0 2.140625 -0.640625 3.765625q-0.640625 1.609375 -1.75 2.703125q-1.09375 1.09375 -2.625 1.65625q-1.515625 0.546875 -3.265625 0.546875q-1.703125 0 -3.21875 -0.546875q-1.515625 -0.5625 -2.640625 -1.65625q-1.125 -1.09375 -1.78125 -2.703125q-0.640625 -1.625 -0.640625 -3.765625q0 -2.140625 0.671875 -3.75q0.671875 -1.625 1.8125 -2.71875q1.140625 -1.109375 2.640625 -1.65625q1.5 -0.5625038 3.15625 -0.5625038q1.703125 0 3.203125 0.5625038q1.515625 0.546875 2.640625 1.65625q1.140625 1.09375 1.78125 2.71875q0.65625 1.609375 0.65625 3.75zm10.95993 2.109375q0 -1.65625 -0.75 -2.640625q-0.734375 -1.0 -2.203125 -1.0q-0.46875 0 -0.89060974 0.03125q-0.40625 0.03125 -0.671875 0.078125l0 6.46875q0.34375 0.203125 0.87498474 0.359375q0.546875 0.140625 1.09375 0.140625q2.546875 0 2.546875 -3.4375zm3.65625 -0.09375q0 1.46875 -0.359375 2.671875q-0.359375 1.1875 -1.0625 2.0625q-0.703125 0.859375 -1.734375 1.34375q-1.03125 0.46875 -2.375 0.46875q-0.734375 0 -1.390625 -0.140625q-0.64060974 -0.140625 -1.2499847 -0.40625l0 4.75l-3.5625 0l0 -16.625q0.46875 -0.15625 1.09375 -0.28125q0.625 -0.125 1.3125 -0.21875q0.6875 -0.109375 1.390625 -0.15625q0.70310974 -0.0625 1.3593597 -0.0625q1.5625 0 2.78125 0.46875q1.21875 0.46875 2.0625 1.328125q0.84375 0.84375 1.28125 2.0625q0.453125 1.21875 0.453125 2.734375zm2.6365967 -9.453125l3.578125 -0.578125l0 3.71875l4.296875 0l0 2.984375l-4.296875 0l0 4.4375q0 1.125 0.390625 1.796875q0.390625 0.671875 1.59375 0.671875q0.578125 0 1.1875 -0.109375q0.609375 -0.109375 1.125 -0.296875l0.5 2.78125q-0.65625 0.265625 -1.453125 0.453125q-0.78125 0.1875 -1.9375 0.1875q-1.453125 0 -2.421875 -0.390625q-0.953125 -0.390625 -1.53125 -1.09375q-0.578125 -0.71875 -0.8125 -1.71875q-0.21875 -1.015625 -0.21875 -2.234375l0 -10.609375zm14.343475 15.765625l-3.5625 0l0 -12.625l3.5625 0l0 12.625zm0.34375 -16.265625q0 0.984375 -0.640625 1.546875q-0.640625 0.5625 -1.5 0.5625q-0.859375 0 -1.5 -0.5625q-0.640625 -0.5625 -0.640625 -1.546875q0 -0.9843788 0.640625 -1.5468788q0.640625 -0.578125 1.5 -0.578125q0.859375 0 1.5 0.578125q0.640625 0.5625 0.640625 1.5468788zm9.951599 9.5625q0 -1.71875 -0.4375 -2.4375q-0.4375 -0.71875 -1.53125 -0.71875q-0.328125 0 -0.6875 0.03125q-0.359375 0.03125 -0.703125 0.078125l0 9.75l-3.5625 0l0 -12.1875q0.453125 -0.125 1.0625 -0.25q0.609375 -0.140625 1.296875 -0.25q0.6875 -0.109375 1.40625 -0.15625q0.71875 -0.0625 1.40625 -0.0625q1.375 0 2.21875 0.34375q0.859375 0.34375 1.40625 0.828125q0.765625 -0.546875 1.765625 -0.859375q1.0 -0.3125 1.84375 -0.3125q1.5 0 2.46875 0.421875q0.984375 0.40625 1.5625 1.1875q0.578125 0.765625 0.78125 1.828125q0.21875 1.046875 0.21875 2.34375l0 7.125l-3.578125 0l0 -6.703125q0 -1.71875 -0.453125 -2.4375q-0.4375 -0.71875 -1.515625 -0.71875q-0.28125 0 -0.796875 0.140625q-0.515625 0.140625 -0.859375 0.359375q0.171875 0.546875 0.21875 1.171875q0.046875 0.609375 0.046875 1.296875l0 6.890625l-3.578125 0l0 -6.703125zm17.328552 6.703125l-3.5625 0l0 -12.625l3.5625 0l0 12.625zm0.34375 -16.265625q0 0.984375 -0.640625 1.546875q-0.640625 0.5625 -1.5 0.5625q-0.859375 0 -1.5 -0.5625q-0.640625 -0.5625 -0.640625 -1.546875q0 -0.9843788 0.640625 -1.5468788q0.640625 -0.578125 1.5 -0.578125q0.859375 0 1.5 0.578125q0.640625 0.5625 0.640625 1.5468788zm12.498474 6.046875q-0.421875 0.46875 -1.15625 1.296875q-0.734375 0.8125 -1.578125 1.796875q-0.84375 0.984375 -1.703125 2.0625q-0.84375 1.078125 -1.53125 2.09375l6.09375 0l0 2.96875l-10.4375 0l0 -2.109375q0.5 -0.859375 1.203125 -1.859375q0.71875 -1.0 1.484375 -2.0q0.78125 -1.015625 1.546875 -1.953125q0.78125 -0.953125 1.421875 -1.71875l-5.375 0l0 -2.984375l10.03125 0l0 2.40625zm1.9218445 4.0q0 -1.671875 0.515625 -2.9375q0.515625 -1.265625 1.359375 -2.09375q0.84375 -0.84375 1.921875 -1.265625q1.09375 -0.4375 2.25 -0.4375q2.6875 0 4.25 1.640625q1.5625 1.640625 1.5625 4.828125q0 0.3125 -0.03125 0.6875q-0.015625 0.375 -0.046875 0.65625l-8.109375 0q0.125 1.109375 1.03125 1.765625q0.921875 0.640625 2.453125 0.640625q0.984375 0 1.921875 -0.171875q0.953125 -0.1875 1.5625 -0.453125l0.46875 2.90625q-0.28125 0.140625 -0.765625 0.28125q-0.484375 0.140625 -1.078125 0.25q-0.578125 0.109375 -1.25 0.1875q-0.671875 0.078125 -1.34375 0.078125q-1.703125 0 -2.96875 -0.5q-1.25 -0.515625 -2.078125 -1.390625q-0.828125 -0.875 -1.234375 -2.078125q-0.390625 -1.203125 -0.390625 -2.59375zm8.40625 -1.359375q-0.03125 -0.46875 -0.171875 -0.890625q-0.125 -0.4375 -0.40625 -0.765625q-0.265625 -0.34375 -0.6875 -0.5625q-0.421875 -0.21875 -1.046875 -0.21875q-0.59375 0 -1.03125 0.21875q-0.421875 0.203125 -0.71875 0.546875q-0.28125 0.328125 -0.4375 0.765625q-0.15625 0.4375 -0.234375 0.90625l4.734375 0zm13.812836 -1.875q-0.46875 -0.125 -1.125 -0.25q-0.640625 -0.140625 -1.390625 -0.140625q-0.328125 0 -0.796875 0.0625q-0.46875 0.0625 -0.71875 0.140625l0 9.640625l-3.5625 0l0 -11.953125q0.953125 -0.328125 2.25 -0.625q1.3125 -0.3125 2.921875 -0.3125q0.296875 0 0.703125 0.046875q0.40625 0.03125 0.8125 0.09375q0.40625 0.046875 0.8125 0.140625q0.40625 0.078125 0.703125 0.203125l-0.609375 2.953125z" fill-rule="nonzero"></path><path fill="#000000" fill-opacity="0.0" d="m75.11259 15.553867l142.55118 0l0 112.7874l-142.55118 0z" fill-rule="nonzero"></path><path stroke="#f0e7d5" stroke-width="3.0" stroke-linejoin="round" stroke-linecap="butt" d="m75.11259 15.553867l142.55118 0l0 112.7874l-142.55118 0z" fill-rule="nonzero"></path><path fill="#f0e7d5" d="m121.46027 66.33132q-4.046875 0 -6.171875 -2.25q-2.125 -2.2656288 -2.125 -6.421879q0 -2.0625 0.640625 -3.671875q0.65625 -1.625 1.78125 -2.734375q1.125 -1.125 2.6875 -1.703125q1.5625 -0.578125 3.390625 -0.578125q1.046875 0 1.90625 0.15625q0.875 0.15625 1.515625 0.359375q0.65625 0.203125 1.078125 0.421875q0.4375 0.21875 0.625 0.328125l-1.078125 3.03125q-0.765625 -0.40625 -1.796875 -0.6875q-1.015625 -0.296875 -2.3125 -0.296875q-0.859375 0 -1.6875 0.296875q-0.828125 0.28125 -1.46875 0.921875q-0.625 0.625 -1.015625 1.640625q-0.375 1.0 -0.375 2.4375q0 1.15625 0.25 2.15625q0.25 1.0 0.8125 1.71875q0.5625 0.71875 1.46875 1.140625q0.921875 0.421875 2.21875 0.421875q0.8125 0 1.453125 -0.09375q0.65625 -0.109375 1.15625 -0.234375q0.5 -0.140625 0.890625 -0.296875q0.390625 -0.171875 0.703125 -0.3125l1.03125 3.0000038q-0.796875 0.46875 -2.234375 0.859375q-1.4375 0.390625 -3.34375 0.390625zm9.130074 4.09375l-3.6718674 0l8.062492 -23.234379l3.625 0l-8.015625 23.234379zm16.909851 -4.09375q-4.046875 0 -6.171875 -2.25q-2.125 -2.2656288 -2.125 -6.421879q0 -2.0625 0.640625 -3.671875q0.65625 -1.625 1.78125 -2.734375q1.125 -1.125 2.6875 -1.703125q1.5625 -0.578125 3.390625 -0.578125q1.046875 0 1.90625 0.15625q0.875 0.15625 1.515625 0.359375q0.65625 0.203125 1.078125 0.421875q0.4375 0.21875 0.625 0.328125l-1.078125 3.03125q-0.765625 -0.40625 -1.796875 -0.6875q-1.015625 -0.296875 -2.3125 -0.296875q-0.859375 0 -1.6875 0.296875q-0.828125 0.28125 -1.46875 0.921875q-0.625 0.625 -1.015625 1.640625q-0.375 1.0 -0.375 2.4375q0 1.15625 0.25 2.15625q0.25 1.0 0.8125 1.71875q0.5625 0.71875 1.46875 1.140625q0.921875 0.421875 2.21875 0.421875q0.8125 0 1.453125 -0.09375q0.65625 -0.109375 1.15625 -0.234375q0.5 -0.140625 0.890625 -0.296875q0.390625 -0.171875 0.703125 -0.3125l1.03125 3.0000038q-0.796875 0.46875 -2.234375 0.859375q-1.4375 0.390625 -3.34375 0.390625zm7.223831 -9.000004l4.015625 0l0 -4.453125l3.265625 0l0 4.453125l4.0 0l0 3.0l-4.0 0l0 4.437504l-3.265625 0l0 -4.437504l-4.015625 0l0 -3.0zm13.631958 0l4.015625 0l0 -4.453125l3.265625 0l0 4.453125l4.0 0l0 3.0l-4.0 0l0 4.437504l-3.265625 0l0 -4.437504l-4.015625 0l0 -3.0z" fill-rule="nonzero"></path><path fill="#f0e7d5" d="m95.3542 94.98757l0 -16.625l11.140625 0l0 3.140625l-7.40625 0l0 3.46875l6.578125 0l0 3.15625l-6.578125 0l0 6.859375l-3.734375 0zm21.13533 -9.453125q-0.46875 -0.125 -1.125 -0.25q-0.640625 -0.140625 -1.390625 -0.140625q-0.328125 0 -0.796875 0.0625q-0.46875 0.0625 -0.71875 0.140625l0 9.640625l-3.5625 0l0 -11.953125q0.953125 -0.328125 2.25 -0.625q1.3125 -0.3125 2.921875 -0.3125q0.296875 0 0.703125 0.046875q0.40625 0.03125 0.8125 0.09375q0.40625 0.046875 0.8125 0.140625q0.40625 0.078125 0.703125 0.203125l-0.609375 2.953125zm14.3311 3.109375q0 1.5 -0.4375 2.734375q-0.421875 1.234375 -1.25 2.109375q-0.8125 0.875 -1.953125 1.359375q-1.125 0.484375 -2.546875 0.484375q-1.390625 0 -2.53125 -0.484375q-1.140625 -0.484375 -1.96875 -1.359375q-0.8125 -0.875 -1.265625 -2.109375q-0.453125 -1.234375 -0.453125 -2.734375q0 -1.484375 0.46875 -2.703125q0.46875 -1.21875 1.296875 -2.078125q0.828125 -0.875 1.96875 -1.34375q1.140625 -0.484375 2.484375 -0.484375q1.359375 0 2.5 0.484375q1.140625 0.46875 1.953125 1.34375q0.828125 0.859375 1.28125 2.078125q0.453125 1.21875 0.453125 2.703125zm-3.640625 0q0 -1.640625 -0.671875 -2.59375q-0.65625 -0.953125 -1.875 -0.953125q-1.21875 0 -1.890625 0.953125q-0.671875 0.953125 -0.671875 2.59375q0 1.65625 0.671875 2.640625q0.671875 0.96875 1.890625 0.96875q1.21875 0 1.875 -0.96875q0.671875 -0.984375 0.671875 -2.640625zm6.4117126 -5.84375q0.90625 -0.265625 2.34375 -0.484375q1.4375 -0.234375 3.03125 -0.234375q1.59375 0 2.65625 0.421875q1.078125 0.40625 1.703125 1.1875q0.625 0.765625 0.890625 1.828125q0.265625 1.046875 0.265625 2.34375l0 7.125l-3.578125 0l0 -6.703125q0 -1.71875 -0.453125 -2.4375q-0.453125 -0.71875 -1.703125 -0.71875q-0.390625 0 -0.828125 0.03125q-0.421875 0.03125 -0.765625 0.078125l0 9.75l-3.5625 0l0 -12.1875zm14.010956 -3.578125l3.578125 -0.578125l0 3.71875l4.296875 0l0 2.984375l-4.296875 0l0 4.4375q0 1.125 0.390625 1.796875q0.390625 0.671875 1.59375 0.671875q0.578125 0 1.1875 -0.109375q0.609375 -0.109375 1.125 -0.296875l0.5 2.78125q-0.65625 0.265625 -1.453125 0.453125q-0.78125 0.1875 -1.9375 0.1875q-1.453125 0 -2.421875 -0.390625q-0.953125 -0.390625 -1.53125 -1.09375q-0.578125 -0.71875 -0.8125 -1.71875q-0.21875 -1.015625 -0.21875 -2.234375l0 -10.609375zm10.1716 9.546875q0 -1.671875 0.515625 -2.9375q0.515625 -1.265625 1.359375 -2.09375q0.84375 -0.84375 1.921875 -1.265625q1.09375 -0.4375 2.25 -0.4375q2.6875 0 4.25 1.640625q1.5625 1.640625 1.5625 4.828125q0 0.3125 -0.03125 0.6875q-0.015625 0.375 -0.046875 0.65625l-8.109375 0q0.125 1.109375 1.03125 1.765625q0.921875 0.640625 2.453125 0.640625q0.984375 0 1.921875 -0.171875q0.953125 -0.1875 1.5625 -0.453125l0.46875 2.90625q-0.28125 0.140625 -0.765625 0.28125q-0.484375 0.140625 -1.078125 0.25q-0.578125 0.109375 -1.25 0.1875q-0.671875 0.078125 -1.34375 0.078125q-1.703125 0 -2.96875 -0.5q-1.25 -0.515625 -2.078125 -1.390625q-0.828125 -0.875 -1.234375 -2.078125q-0.390625 -1.203125 -0.390625 -2.59375zm8.40625 -1.359375q-0.03125 -0.46875 -0.171875 -0.890625q-0.125 -0.4375 -0.40625 -0.765625q-0.265625 -0.34375 -0.6875 -0.5625q-0.421875 -0.21875 -1.046875 -0.21875q-0.59375 0 -1.03125 0.21875q-0.421875 0.203125 -0.71875 0.546875q-0.28125 0.328125 -0.4375 0.765625q-0.15625 0.4375 -0.234375 0.90625l4.734375 0zm6.2190857 -4.609375q0.90625 -0.265625 2.34375 -0.484375q1.4375 -0.234375 3.03125 -0.234375q1.59375 0 2.65625 0.421875q1.078125 0.40625 1.703125 1.1875q0.625 0.765625 0.890625 1.828125q0.265625 1.046875 0.265625 2.34375l0 7.125l-3.578125 0l0 -6.703125q0 -1.71875 -0.453125 -2.4375q-0.453125 -0.71875 -1.703125 -0.71875q-0.390625 0 -0.828125 0.03125q-0.421875 0.03125 -0.765625 0.078125l0 9.75l-3.5625 0l0 -12.1875zm17.18283 5.78125q0 1.65625 0.734375 2.671875q0.75 1.0 2.21875 1.0q0.46875 0 0.875 -0.03125q0.40625 -0.046875 0.671875 -0.09375l0 -6.5q-0.328125 -0.21875 -0.875 -0.359375q-0.53125 -0.140625 -1.09375 -0.140625q-2.53125 0 -2.53125 3.453125zm8.078125 6.0q-0.46875 0.140625 -1.09375 0.28125q-0.625 0.125 -1.3125 0.21875q-0.6875 0.09375 -1.40625 0.15625q-0.703125 0.0625 -1.34375 0.0625q-1.5625 0 -2.796875 -0.453125q-1.21875 -0.453125 -2.0625 -1.296875q-0.828125 -0.859375 -1.28125 -2.078125q-0.4375 -1.21875 -0.4375 -2.71875q0 -1.546875 0.375 -2.78125q0.390625 -1.234375 1.109375 -2.09375q0.71875 -0.859375 1.765625 -1.3125q1.046875 -0.46875 2.390625 -0.46875q0.75 0 1.328125 0.15625q0.59375 0.140625 1.1875 0.390625l0 -5.703125l3.578125 -0.578125l0 18.21875z" fill-rule="nonzero"></path><path fill="#000000" fill-opacity="0.0" d="m506.53134 80.830154l142.55118 0l0 112.7874l-142.55118 0z" fill-rule="nonzero"></path><path stroke="#f0e7d5" stroke-width="3.0" stroke-linejoin="round" stroke-linecap="butt" d="m506.53134 80.830154l142.55118 0l0 112.7874l-142.55118 0z" fill-rule="nonzero"></path><path fill="#f0e7d5" d="m554.3572 101.90448q0.296875 0.984375 0.640625 2.21875q0.34375 1.234375 0.734375 2.5625q0.40625 1.3125 0.8125 2.640625q0.40625 1.3125 0.796875 2.453125q0.3125 -1.234375 0.625 -2.671875q0.328125 -1.4375 0.609375 -2.96875q0.296875 -1.546875 0.5625 -3.0625q0.28125 -1.53125 0.53125 -2.9375l3.875 0q-0.828125 4.171875 -1.921875 8.46875q-1.09375 4.296875 -2.375 8.15625l-3.421875 0q-0.84375 -2.296875 -1.640625 -4.828125q-0.78125 -2.546875 -1.546875 -5.078125q-0.78125 2.53125 -1.546875 5.078125q-0.765625 2.53125 -1.609375 4.828125l-3.421875 0q-1.28125 -3.859375 -2.375 -8.15625q-1.09375 -4.296875 -1.921875 -8.46875l4.046875 0q0.25 1.40625 0.53125 2.9375q0.296875 1.515625 0.59375 3.0625q0.3125 1.53125 0.640625 2.96875q0.328125 1.4375 0.65625 2.671875q0.4375 -1.1875 0.84375 -2.5q0.40625 -1.328125 0.78125 -2.640625q0.390625 -1.328125 0.71875 -2.546875q0.328125 -1.21875 0.59375 -2.1875l3.1875 0zm11.361267 14.859375l0 -18.046875l3.5625 -0.578125l0 6.046875q0.359375 -0.125 0.921875 -0.21875q0.578125 -0.109375 1.09375 -0.109375q1.546875 0 2.5625 0.421875q1.015625 0.40625 1.625 1.1875q0.625 0.765625 0.875 1.828125q0.25 1.046875 0.25 2.34375l0 7.125l-3.578125 0l0 -6.703125q0 -1.71875 -0.453125 -2.4375q-0.4375 -0.71875 -1.640625 -0.71875q-0.46875 0 -0.890625 0.078125q-0.421875 0.078125 -0.765625 0.1875l0 9.59375l-3.5625 0zm25.932861 -6.34375q0 1.5 -0.4375 2.734375q-0.421875 1.234375 -1.25 2.109375q-0.8125 0.875 -1.953125 1.359375q-1.125 0.484375 -2.546875 0.484375q-1.390625 0 -2.53125 -0.484375q-1.140625 -0.484375 -1.96875 -1.359375q-0.8125 -0.875 -1.265625 -2.109375q-0.453125 -1.234375 -0.453125 -2.734375q0 -1.484375 0.46875 -2.703125q0.46875 -1.21875 1.296875 -2.078125q0.828125 -0.875 1.96875 -1.34375q1.140625 -0.484375 2.484375 -0.484375q1.359375 0 2.5 0.484375q1.140625 0.46875 1.953125 1.34375q0.828125 0.859375 1.28125 2.078125q0.453125 1.21875 0.453125 2.703125zm-3.640625 0q0 -1.640625 -0.671875 -2.59375q-0.65625 -0.953125 -1.875 -0.953125q-1.21875 0 -1.890625 0.953125q-0.671875 0.953125 -0.671875 2.59375q0 1.65625 0.671875 2.640625q0.671875 0.96875 1.890625 0.96875q1.21875 0 1.875 -0.96875q0.671875 -0.984375 0.671875 -2.640625zm11.442932 6.578125q-1.5625 -0.015625 -2.53125 -0.328125q-0.96875 -0.3125 -1.53125 -0.875q-0.5625 -0.5625 -0.765625 -1.359375q-0.203125 -0.8125 -0.203125 -1.828125l0 -13.890625l3.5625 -0.578125l0 13.75q0 0.484375 0.078125 0.875q0.078125 0.375 0.28125 0.640625q0.203125 0.265625 0.578125 0.4375q0.390625 0.15625 1.03125 0.203125l-0.5 2.953125zm1.9433594 -6.453125q0 -1.671875 0.515625 -2.9375q0.515625 -1.265625 1.359375 -2.09375q0.84375 -0.84375 1.921875 -1.265625q1.09375 -0.4375 2.25 -0.4375q2.6875 0 4.25 1.640625q1.5625 1.640625 1.5625 4.828125q0 0.3125 -0.03125 0.6875q-0.015625 0.375 -0.046875 0.65625l-8.109375 0q0.125 1.109375 1.03125 1.765625q0.921875 0.640625 2.453125 0.640625q0.984375 0 1.921875 -0.171875q0.953125 -0.1875 1.5625 -0.453125l0.46875 2.90625q-0.28125 0.140625 -0.765625 0.28125q-0.484375 0.140625 -1.078125 0.25q-0.578125 0.109375 -1.25 0.1875q-0.671875 0.078125 -1.34375 0.078125q-1.703125 0 -2.96875 -0.5q-1.25 -0.515625 -2.078125 -1.390625q-0.828125 -0.875 -1.234375 -2.078125q-0.390625 -1.203125 -0.390625 -2.59375zm8.40625 -1.359375q-0.03125 -0.46875 -0.171875 -0.890625q-0.125 -0.4375 -0.40625 -0.765625q-0.265625 -0.34375 -0.6875 -0.5625q-0.421875 -0.21875 -1.046875 -0.21875q-0.59375 0 -1.03125 0.21875q-0.421875 0.203125 -0.71875 0.546875q-0.28125 0.328125 -0.4375 0.765625q-0.15625 0.4375 -0.234375 0.90625l4.734375 0z" fill-rule="nonzero"></path><path fill="#f0e7d5" d="m538.8047 139.5451q0 -1.65625 -0.75 -2.640625q-0.734375 -1.0 -2.203125 -1.0q-0.46875 0 -0.890625 0.03125q-0.40625 0.03125 -0.671875 0.078125l0 6.46875q0.34375 0.203125 0.875 0.359375q0.546875 0.140625 1.09375 0.140625q2.546875 0 2.546875 -3.4375zm3.65625 -0.09375q0 1.46875 -0.359375 2.671875q-0.359375 1.1875 -1.0625 2.0625q-0.703125 0.859375 -1.734375 1.34375q-1.03125 0.46875 -2.375 0.46875q-0.734375 0 -1.390625 -0.140625q-0.640625 -0.140625 -1.25 -0.40625l0 4.75l-3.5625 0l0 -16.625q0.46875 -0.15625 1.09375 -0.28125q0.625 -0.125 1.3125 -0.21875q0.6875 -0.109375 1.390625 -0.15625q0.703125 -0.0625 1.359375 -0.0625q1.5625 0 2.78125 0.46875q1.21875 0.46875 2.0625 1.328125q0.84375 0.84375 1.28125 2.0625q0.453125 1.21875 0.453125 2.734375zm10.355347 -3.140625q-0.46875 -0.125 -1.125 -0.25q-0.640625 -0.140625 -1.390625 -0.140625q-0.328125 0 -0.796875 0.0625q-0.46875 0.0625 -0.71875 0.140625l0 9.640625l-3.5625 0l0 -11.953125q0.953125 -0.328125 2.25 -0.625q1.3125 -0.3125 2.921875 -0.3125q0.296875 0 0.703125 0.046875q0.40625 0.03125 0.8125 0.09375q0.40625 0.046875 0.8125 0.140625q0.40625 0.078125 0.703125 0.203125l-0.609375 2.953125zm14.331116 3.109375q0 1.5 -0.4375 2.734375q-0.421875 1.234375 -1.25 2.109375q-0.8125 0.875 -1.953125 1.359375q-1.125 0.484375 -2.546875 0.484375q-1.390625 0 -2.53125 -0.484375q-1.140625 -0.484375 -1.96875 -1.359375q-0.8125 -0.875 -1.265625 -2.109375q-0.453125 -1.234375 -0.453125 -2.734375q0 -1.484375 0.46875 -2.703125q0.46875 -1.21875 1.296875 -2.078125q0.828125 -0.875 1.96875 -1.34375q1.140625 -0.484375 2.484375 -0.484375q1.359375 0 2.5 0.484375q1.140625 0.46875 1.953125 1.34375q0.828125 0.859375 1.28125 2.078125q0.453125 1.21875 0.453125 2.703125zm-3.640625 0q0 -1.640625 -0.671875 -2.59375q-0.65625 -0.953125 -1.875 -0.953125q-1.21875 0 -1.890625 0.953125q-0.671875 0.953125 -0.671875 2.59375q0 1.65625 0.671875 2.640625q0.671875 0.96875 1.890625 0.96875q1.21875 0 1.875 -0.96875q0.671875 -0.984375 0.671875 -2.640625zm9.458557 -0.375q0 3.0 2.421875 3.0q0.546875 0 1.015625 -0.140625q0.484375 -0.15625 0.828125 -0.34375l0 -5.703125q-0.265625 -0.046875 -0.625 -0.078125q-0.359375 -0.046875 -0.84375 -0.046875q-1.40625 0 -2.109375 0.9375q-0.6875 0.9375 -0.6875 2.375zm7.84375 5.140625q0 3.09375 -1.578125 4.59375q-1.5625 1.5 -4.859375 1.5q-1.15625 0 -2.3125 -0.203125q-1.140625 -0.203125 -2.125 -0.546875l0.625 -3.0q0.84375 0.34375 1.765625 0.53125q0.921875 0.1875 2.09375 0.1875q1.546875 0 2.171875 -0.671875q0.640625 -0.671875 0.640625 -1.71875l0 -0.46875q-0.578125 0.265625 -1.1875 0.40625q-0.609375 0.125 -1.328125 0.125q-2.625 0 -4.015625 -1.546875q-1.390625 -1.546875 -1.390625 -4.328125q0 -1.390625 0.421875 -2.53125q0.4375 -1.140625 1.265625 -1.953125q0.828125 -0.828125 2.03125 -1.265625q1.203125 -0.4375 2.71875 -0.4375q0.640625 0 1.328125 0.0625q0.6875 0.046875 1.359375 0.15625q0.671875 0.09375 1.28125 0.21875q0.609375 0.125 1.09375 0.28125l0 10.609375zm10.959106 -7.875q-0.46875 -0.125 -1.125 -0.25q-0.640625 -0.140625 -1.390625 -0.140625q-0.328125 0 -0.796875 0.0625q-0.46875 0.0625 -0.71875 0.140625l0 9.640625l-3.5625 0l0 -11.953125q0.953125 -0.328125 2.25 -0.625q1.3125 -0.3125 2.921875 -0.3125q0.296875 0 0.703125 0.046875q0.40625 0.03125 0.8125 0.09375q0.40625 0.046875 0.8125 0.140625q0.40625 0.078125 0.703125 0.203125l-0.609375 2.953125zm7.3466797 6.953125q0.53125 0 1.0 -0.015625q0.484375 -0.03125 0.78125 -0.078125l0 -2.703125q-0.21875 -0.0625 -0.65625 -0.109375q-0.421875 -0.046875 -0.78125 -0.046875q-0.5 0 -0.953125 0.0625q-0.4375 0.0625 -0.78125 0.234375q-0.328125 0.171875 -0.53125 0.453125q-0.1875 0.28125 -0.1875 0.71875q0 0.84375 0.5625 1.171875q0.5625 0.3125 1.546875 0.3125zm-0.28125 -10.453125q1.578125 0 2.625 0.359375q1.0625 0.359375 1.703125 1.03125q0.640625 0.671875 0.90625 1.640625q0.265625 0.953125 0.265625 2.125l0 7.4375q-0.78125 0.171875 -2.15625 0.390625q-1.359375 0.234375 -3.296875 0.234375q-1.21875 0 -2.21875 -0.21875q-1.0 -0.21875 -1.71875 -0.703125q-0.71875 -0.5 -1.109375 -1.28125q-0.375 -0.796875 -0.375 -1.953125q0 -1.09375 0.4375 -1.859375q0.453125 -0.78125 1.1875 -1.234375q0.75 -0.453125 1.703125 -0.65625q0.96875 -0.203125 2.0 -0.203125q0.6875 0 1.21875 0.0625q0.546875 0.046875 0.890625 0.15625l0 -0.34375q0 -0.90625 -0.5625 -1.453125q-0.546875 -0.5625 -1.90625 -0.5625q-0.921875 0 -1.8125 0.140625q-0.875 0.125 -1.53125 0.359375l-0.453125 -2.875q0.3125 -0.09375 0.78125 -0.203125q0.46875 -0.109375 1.015625 -0.1875q0.5625 -0.09375 1.171875 -0.140625q0.609375 -0.0625 1.234375 -0.0625zm15.662598 6.25q0 -1.71875 -0.4375 -2.4375q-0.4375 -0.71875 -1.53125 -0.71875q-0.328125 0 -0.6875 0.03125q-0.359375 0.03125 -0.703125 0.078125l0 9.75l-3.5625 0l0 -12.1875q0.453125 -0.125 1.0625 -0.25q0.609375 -0.140625 1.296875 -0.25q0.6875 -0.109375 1.40625 -0.15625q0.71875 -0.0625 1.40625 -0.0625q1.375 0 2.21875 0.34375q0.859375 0.34375 1.40625 0.828125q0.765625 -0.546875 1.765625 -0.859375q1.0 -0.3125 1.84375 -0.3125q1.5 0 2.46875 0.421875q0.984375 0.40625 1.5625 1.1875q0.578125 0.765625 0.78125 1.828125q0.21875 1.046875 0.21875 2.34375l0 7.125l-3.578125 0l0 -6.703125q0 -1.71875 -0.453125 -2.4375q-0.4375 -0.71875 -1.515625 -0.71875q-0.28125 0 -0.796875 0.140625q-0.515625 0.140625 -0.859375 0.359375q0.171875 0.546875 0.21875 1.171875q0.046875 0.609375 0.046875 1.296875l0 6.890625l-3.578125 0l0 -6.703125z" fill-rule="nonzero"></path><path fill="#f0e7d5" d="m538.50305 172.26385q0.53125 0 1.0 -0.015625q0.484375 -0.03125 0.78125 -0.078125l0 -2.703125q-0.21875 -0.0625 -0.65625 -0.109375q-0.421875 -0.046875 -0.78125 -0.046875q-0.5 0 -0.953125 0.0625q-0.4375 0.0625 -0.78125 0.234375q-0.328125 0.171875 -0.53125 0.453125q-0.1875 0.28125 -0.1875 0.71875q0 0.84375 0.5625 1.171875q0.5625 0.3125 1.546875 0.3125zm-0.28125 -10.453125q1.578125 0 2.625 0.359375q1.0625 0.359375 1.703125 1.03125q0.640625 0.671875 0.90625 1.640625q0.265625 0.953125 0.265625 2.125l0 7.4375q-0.78125 0.171875 -2.15625 0.390625q-1.359375 0.234375 -3.296875 0.234375q-1.21875 0 -2.21875 -0.21875q-1.0 -0.21875 -1.71875 -0.703125q-0.71875 -0.5 -1.109375 -1.28125q-0.375 -0.796875 -0.375 -1.953125q0 -1.09375 0.4375 -1.859375q0.453125 -0.78125 1.1875 -1.234375q0.75 -0.453125 1.703125 -0.65625q0.96875 -0.203125 2.0 -0.203125q0.6875 0 1.21875 0.0625q0.546875 0.046875 0.890625 0.15625l0 -0.34375q0 -0.90625 -0.5625 -1.453125q-0.546875 -0.5625 -1.90625 -0.5625q-0.921875 0 -1.8125 0.140625q-0.875 0.125 -1.53125 0.359375l-0.453125 -2.875q0.3125 -0.09375 0.78125 -0.203125q0.46875 -0.109375 1.015625 -0.1875q0.5625 -0.09375 1.171875 -0.140625q0.609375 -0.0625 1.234375 -0.0625zm8.740723 0.765625q0.90625 -0.265625 2.34375 -0.484375q1.4375 -0.234375 3.03125 -0.234375q1.59375 0 2.65625 0.421875q1.078125 0.40625 1.703125 1.1875q0.625 0.765625 0.890625 1.828125q0.265625 1.046875 0.265625 2.34375l0 7.125l-3.578125 0l0 -6.703125q0 -1.71875 -0.453125 -2.4375q-0.453125 -0.71875 -1.703125 -0.71875q-0.390625 0 -0.828125 0.03125q-0.421875 0.03125 -0.765625 0.078125l0 9.75l-3.5625 0l0 -12.1875zm18.948425 9.6875q0.53125 0 1.0 -0.015625q0.484375 -0.03125 0.78125 -0.078125l0 -2.703125q-0.21875 -0.0625 -0.65625 -0.109375q-0.421875 -0.046875 -0.78125 -0.046875q-0.5 0 -0.953125 0.0625q-0.4375 0.0625 -0.78125 0.234375q-0.328125 0.171875 -0.53125 0.453125q-0.1875 0.28125 -0.1875 0.71875q0 0.84375 0.5625 1.171875q0.5625 0.3125 1.546875 0.3125zm-0.28125 -10.453125q1.578125 0 2.625 0.359375q1.0625 0.359375 1.703125 1.03125q0.640625 0.671875 0.90625 1.640625q0.265625 0.953125 0.265625 2.125l0 7.4375q-0.78125 0.171875 -2.15625 0.390625q-1.359375 0.234375 -3.296875 0.234375q-1.21875 0 -2.21875 -0.21875q-1.0 -0.21875 -1.71875 -0.703125q-0.71875 -0.5 -1.109375 -1.28125q-0.375 -0.796875 -0.375 -1.953125q0 -1.09375 0.4375 -1.859375q0.453125 -0.78125 1.1875 -1.234375q0.75 -0.453125 1.703125 -0.65625q0.96875 -0.203125 2.0 -0.203125q0.6875 0 1.21875 0.0625q0.546875 0.046875 0.890625 0.15625l0 -0.34375q0 -0.90625 -0.5625 -1.453125q-0.546875 -0.5625 -1.90625 -0.5625q-0.921875 0 -1.8125 0.140625q-0.875 0.125 -1.53125 0.359375l-0.453125 -2.875q0.3125 -0.09375 0.78125 -0.203125q0.46875 -0.109375 1.015625 -0.1875q0.5625 -0.09375 1.171875 -0.140625q0.609375 -0.0625 1.234375 -0.0625zm13.771973 13.1875q-1.5625 -0.015625 -2.53125 -0.328125q-0.96875 -0.3125 -1.53125 -0.875q-0.5625 -0.5625 -0.765625 -1.359375q-0.203125 -0.8125 -0.203125 -1.828125l0 -13.890625l3.5625 -0.578125l0 13.75q0 0.484375 0.078125 0.875q0.078125 0.375 0.28125 0.640625q0.203125 0.265625 0.578125 0.4375q0.390625 0.15625 1.03125 0.203125l-0.5 2.953125zm13.755859 -12.859375q-1.078125 3.65625 -2.265625 6.84375q-1.171875 3.1875 -2.5625 6.1875q-0.5 1.078125 -1.015625 1.828125q-0.5 0.765625 -1.09375 1.25q-0.59375 0.5 -1.359375 0.71875q-0.75 0.234375 -1.765625 0.234375q-0.84375 0 -1.546875 -0.15625q-0.703125 -0.15625 -1.15625 -0.34375l0.625 -2.859375q0.546875 0.1875 0.96875 0.265625q0.4375 0.078125 0.921875 0.078125q0.953125 0 1.46875 -0.515625q0.515625 -0.515625 0.875 -1.4375q-1.21875 -2.390625 -2.453125 -5.375q-1.21875 -3.0 -2.296875 -6.71875l3.796875 0q0.234375 0.9375 0.5625 2.03125q0.328125 1.09375 0.6875 2.21875q0.359375 1.109375 0.734375 2.171875q0.375 1.046875 0.703125 1.90625q0.3125 -0.859375 0.640625 -1.90625q0.34375 -1.0625 0.671875 -2.171875q0.328125 -1.125 0.625 -2.21875q0.296875 -1.09375 0.53125 -2.03125l3.703125 0zm5.5342407 10.0625q0.984375 0 1.390625 -0.1875q0.421875 -0.203125 0.421875 -0.75q0 -0.4375 -0.53125 -0.75q-0.53125 -0.328125 -1.609375 -0.734375q-0.84375 -0.3125 -1.53125 -0.640625q-0.671875 -0.34375 -1.15625 -0.8125q-0.484375 -0.46875 -0.75 -1.109375q-0.265625 -0.65625 -0.265625 -1.578125q0 -1.765625 1.3125 -2.796875q1.328125 -1.03125 3.640625 -1.03125q1.15625 0 2.203125 0.203125q1.0625 0.203125 1.6875 0.4375l-0.625 2.78125q-0.625 -0.21875 -1.359375 -0.375q-0.734375 -0.171875 -1.640625 -0.171875q-1.6875 0 -1.6875 0.9375q0 0.21875 0.0625 0.390625q0.078125 0.15625 0.296875 0.3125q0.21875 0.15625 0.59375 0.34375q0.375 0.171875 0.953125 0.390625q1.171875 0.4375 1.9375 0.859375q0.765625 0.40625 1.203125 0.90625q0.453125 0.484375 0.625 1.09375q0.1875 0.59375 0.1875 1.390625q0 1.875 -1.40625 2.84375q-1.40625 0.953125 -3.96875 0.953125q-1.6875 0 -2.796875 -0.296875q-1.109375 -0.28125 -1.546875 -0.484375l0.59375 -2.90625q0.921875 0.375 1.875 0.578125q0.96875 0.203125 1.890625 0.203125zm11.593079 2.5625l-3.5625 0l0 -12.625l3.5625 0l0 12.625zm0.34375 -16.265625q0 0.984375 -0.640625 1.546875q-0.640625 0.5625 -1.5 0.5625q-0.859375 0 -1.5 -0.5625q-0.640625 -0.5625 -0.640625 -1.546875q0 -0.984375 0.640625 -1.546875q0.640625 -0.578125 1.5 -0.578125q0.859375 0 1.5 0.578125q0.640625 0.5625 0.640625 1.546875zm6.639099 13.703125q0.984375 0 1.390625 -0.1875q0.421875 -0.203125 0.421875 -0.75q0 -0.4375 -0.53125 -0.75q-0.53125 -0.328125 -1.609375 -0.734375q-0.84375 -0.3125 -1.53125 -0.640625q-0.671875 -0.34375 -1.15625 -0.8125q-0.484375 -0.46875 -0.75 -1.109375q-0.265625 -0.65625 -0.265625 -1.578125q0 -1.765625 1.3125 -2.796875q1.328125 -1.03125 3.640625 -1.03125q1.15625 0 2.203125 0.203125q1.0625 0.203125 1.6875 0.4375l-0.625 2.78125q-0.625 -0.21875 -1.359375 -0.375q-0.734375 -0.171875 -1.640625 -0.171875q-1.6875 0 -1.6875 0.9375q0 0.21875 0.0625 0.390625q0.078125 0.15625 0.296875 0.3125q0.21875 0.15625 0.59375 0.34375q0.375 0.171875 0.953125 0.390625q1.171875 0.4375 1.9375 0.859375q0.765625 0.40625 1.203125 0.90625q0.453125 0.484375 0.625 1.09375q0.1875 0.59375 0.1875 1.390625q0 1.875 -1.40625 2.84375q-1.40625 0.953125 -3.96875 0.953125q-1.6875 0 -2.796875 -0.296875q-1.109375 -0.28125 -1.546875 -0.484375l0.59375 -2.90625q0.921875 0.375 1.875 0.578125q0.96875 0.203125 1.890625 0.203125z" fill-rule="nonzero"></path><path fill="#ff8d14" d="m43.938545 69.019356l19.559055 0l0 -4.1889725l8.377949 8.377953l-8.377949 8.377953l0 -4.18898l-19.559055 0z" fill-rule="nonzero"></path><path fill="#000000" fill-opacity="0.0" d="m-5.0 15.553805l53.228348 0l0 112.7874l-53.228348 0z" fill-rule="nonzero"></path><path fill="#ff8d14" d="m14.385658 80.4875l-3.296875 0l0 -12.40625q-1.8125 1.6875 -4.25 2.484375l0 -2.984375q1.28125 -0.421875 2.796875 -1.59375q1.515625 -1.1875 2.078125 -2.7499962l2.671875 0l0 17.249996zm5.6132812 0l0 -3.296875l3.296875 0l0 3.296875l-3.296875 0zm17.527344 -8.765625l-3.25 0.578125q-0.15625 -0.96875 -0.75 -1.453125q-0.578125 -0.5 -1.5 -0.5q-1.234375 0 -1.96875 0.859375q-0.71875 0.84375 -0.71875 2.828125q0 2.21875 0.734375 3.140625q0.75 0.90625 2.0 0.90625q0.9375 0 1.53125 -0.53125q0.609375 -0.53125 0.84375 -1.828125l3.234375 0.546875q-0.5 2.21875 -1.9375 3.359375q-1.421875 1.140625 -3.828125 1.140625q-2.71875 0 -4.34375 -1.71875q-1.625 -1.734375 -1.625 -4.78125q0 -3.078125 1.625 -4.796875q1.625 -1.71875 4.40625 -1.71875q2.28125 0 3.609375 0.984375q1.34375 0.984375 1.9375 2.984375z" fill-rule="nonzero"></path><path fill="#000000" fill-opacity="0.0" d="m1215.6746 67.71654l79.84253 0l0 133.29134l-79.84253 0z" fill-rule="nonzero"></path><path fill="#ff8d14" d="m1231.1193 134.24596l-2.984375 -0.53125q0.5 -1.8125 1.71875 -2.671875q1.234375 -0.875 3.671875 -0.875q2.203125 0 3.28125 0.53125q1.078125 0.515625 1.515625 1.328125q0.4375 0.796875 0.4375 2.9375l-0.03125 3.84375q0 1.640625 0.15625 2.421875q0.15625 0.78125 0.59375 1.671875l-3.265625 0q-0.125 -0.328125 -0.3125 -0.96875q-0.078125 -0.296875 -0.125 -0.390625q-0.84375 0.8125 -1.8125 1.234375q-0.953125 0.40625 -2.03125 0.40625q-1.921875 0 -3.03125 -1.046875q-1.109375 -1.046875 -1.109375 -2.640625q0 -1.046875 0.5 -1.875q0.5 -0.828125 1.40625 -1.265625q0.921875 -0.4375 2.625 -0.765625q2.3125 -0.4375 3.203125 -0.8125l0 -0.328125q0 -0.953125 -0.46875 -1.34375q-0.46875 -0.40625 -1.765625 -0.40625q-0.890625 0 -1.390625 0.34375q-0.484375 0.34375 -0.78125 1.203125zm4.40625 2.671875q-0.640625 0.21875 -2.015625 0.515625q-1.359375 0.28125 -1.78125 0.5625q-0.640625 0.46875 -0.640625 1.171875q0 0.6875 0.515625 1.1875q0.515625 0.5 1.3125 0.5q0.890625 0 1.6875 -0.578125q0.609375 -0.453125 0.796875 -1.09375q0.125 -0.421875 0.125 -1.609375l0 -0.65625zm6.4726562 5.984375l0 -3.296875l3.296875 0l0 3.296875l-3.296875 0zm5.9179688 -6.40625q0 -1.640625 0.796875 -3.171875q0.8125 -1.53125 2.296875 -2.34375q1.484375 -0.8125 3.3125 -0.8125q2.828125 0 4.625 1.84375q1.8125 1.828125 1.8125 4.625q0 2.828125 -1.828125 4.6875q-1.828125 1.859375 -4.59375 1.859375q-1.703125 0 -3.265625 -0.765625q-1.546875 -0.78125 -2.359375 -2.265625q-0.796875 -1.5 -0.796875 -3.65625zm3.375 0.1875q0 1.84375 0.875 2.828125q0.875 0.984375 2.171875 0.984375q1.28125 0 2.15625 -0.984375q0.875 -0.984375 0.875 -2.859375q0 -1.828125 -0.875 -2.8125q-0.875 -0.984375 -2.15625 -0.984375q-1.296875 0 -2.171875 0.984375q-0.875 0.984375 -0.875 2.84375zm20.238281 6.21875l0 -1.859375q-0.6875 0.984375 -1.796875 1.5625q-1.109375 0.578125 -2.328125 0.578125q-1.265625 0 -2.265625 -0.546875q-0.984375 -0.5625 -1.4375 -1.546875q-0.4375 -1.0 -0.4375 -2.765625l0 -7.875l3.296875 0l0 5.71875q0 2.625 0.171875 3.21875q0.1875 0.59375 0.65625 0.9375q0.484375 0.34375 1.234375 0.34375q0.84375 0 1.5 -0.453125q0.671875 -0.46875 0.921875 -1.15625q0.25 -0.6875 0.25 -3.359375l0 -5.25l3.28125 0l0 12.453125l-3.046875 0zm12.175781 -12.453125l0 2.625l-2.25 0l0 5.015625q0 1.53125 0.0625 1.78125q0.0625 0.25 0.28125 0.421875q0.234375 0.15625 0.5625 0.15625q0.453125 0 1.328125 -0.3125l0.28125 2.546875q-1.15625 0.5 -2.609375 0.5q-0.890625 0 -1.609375 -0.296875q-0.703125 -0.296875 -1.046875 -0.765625q-0.328125 -0.484375 -0.453125 -1.296875q-0.109375 -0.578125 -0.109375 -2.3125l0 -5.4375l-1.515625 0l0 -2.625l1.515625 0l0 -2.46875l3.3125 -1.921875l0 4.390625l2.25 0z" fill-rule="nonzero"></path><path fill="#ff8d14" d="m1193.6746 126.54068l16.503906 0l0 -8.748032l16.503906 17.496063l-16.503906 17.496063l0 -8.748032l-16.503906 0z" fill-rule="nonzero"></path><path fill="#000000" fill-opacity="0.0" d="m390.4452 15.553867l91.40158 0l0 112.7874l-91.40158 0z" fill-rule="nonzero"></path><path fill="#ff8d14" d="m411.59717 80.48757l-3.296875 0l0 -12.40625q-1.8125 1.6875 -4.25 2.484375l0 -2.984375q1.28125 -0.421875 2.796875 -1.59375q1.515625 -1.1875 2.078125 -2.7500038l2.671875 0l0 17.250004zm5.6132812 0l0 -3.296875l3.296875 0l0 3.296875l-3.296875 0zm8.996094 0l-3.9375 -12.453125l3.203125 0l2.328125 8.15625l2.140625 -8.15625l3.171875 0l2.078125 8.15625l2.375 -8.15625l3.25 0l-4.0 12.453125l-3.15625 0l-2.140625 -8.0l-2.109375 8.0l-3.203125 0zm16.246094 -12.453125l3.078125 0l0 1.828125q0.59375 -0.9375 1.609375 -1.515625q1.03125 -0.59375 2.265625 -0.59375q2.171875 0 3.671875 1.703125q1.515625 1.703125 1.515625 4.734375q0 3.125 -1.53125 4.859375q-1.515625 1.71875 -3.671875 1.71875q-1.03125 0 -1.875 -0.40625q-0.84375 -0.421875 -1.765625 -1.40625l0 6.265625l-3.296875 0l0 -17.1875zm3.265625 6.015625q0 2.09375 0.828125 3.109375q0.828125 1.0 2.03125 1.0q1.140625 0 1.90625 -0.921875q0.765625 -0.921875 0.765625 -3.015625q0 -1.96875 -0.796875 -2.90625q-0.78125 -0.953125 -1.9375 -0.953125q-1.203125 0 -2.0 0.9375q-0.796875 0.921875 -0.796875 2.75zm10.738281 0.03125q0 -1.640625 0.796875 -3.171875q0.8125 -1.53125 2.296875 -2.34375q1.484375 -0.8125 3.3125 -0.8125q2.828125 0 4.625 1.84375q1.8125 1.828125 1.8125 4.625q0 2.828125 -1.828125 4.6875q-1.828125 1.859375 -4.59375 1.859375q-1.703125 0 -3.265625 -0.765625q-1.546875 -0.78125 -2.359375 -2.265625q-0.796875 -1.5 -0.796875 -3.65625zm3.375 0.1875q0 1.84375 0.875 2.828125q0.875 0.984375 2.171875 0.984375q1.28125 0 2.15625 -0.984375q0.875 -0.984375 0.875 -2.859375q0 -1.828125 -0.875 -2.8125q-0.875 -0.984375 -2.15625 -0.984375q-1.296875 0 -2.171875 0.984375q-0.875 0.984375 -0.875 2.84375z" fill-rule="nonzero"></path><path fill="#000000" fill-opacity="0.0" d="m217.2101 137.41524l142.5512 0l0 112.7874l-142.5512 0z" fill-rule="nonzero"></path><path stroke="#f0e7d5" stroke-width="3.0" stroke-linejoin="round" stroke-linecap="butt" d="m217.2101 137.41524l142.5512 0l0 112.7874l-142.5512 0z" fill-rule="nonzero"></path><path fill="#f0e7d5" d="m236.14035 194.02081q0 1.21875 0.296875 2.203125q0.296875 0.984375 0.859375 1.703125q0.578125 0.703125 1.390625 1.09375q0.8125 0.375 1.875 0.375q1.03125 0 1.859375 -0.375q0.828125 -0.390625 1.390625 -1.09375q0.5625 -0.71875 0.859375 -1.703125q0.296875 -0.984375 0.296875 -2.203125q0 -1.21875 -0.296875 -2.21875q-0.296875 -1.0 -0.859375 -1.703125q-0.5625 -0.703125 -1.390625 -1.09375q-0.828125 -0.390625 -1.859375 -0.390625q-1.0625 0 -1.875 0.40625q-0.8125 0.390625 -1.390625 1.109375q-0.5625 0.703125 -0.859375 1.703125q-0.296875 0.984375 -0.296875 2.1875zm12.703125 0q0 2.140625 -0.640625 3.765625q-0.640625 1.609375 -1.75 2.703125q-1.09375 1.09375 -2.625 1.65625q-1.515625 0.546875 -3.265625 0.546875q-1.703125 0 -3.21875 -0.546875q-1.515625 -0.5625 -2.640625 -1.65625q-1.125 -1.09375 -1.78125 -2.703125q-0.640625 -1.625 -0.640625 -3.765625q0 -2.140625 0.671875 -3.75q0.671875 -1.625 1.8125 -2.71875q1.140625 -1.109375 2.640625 -1.65625q1.5 -0.5625 3.15625 -0.5625q1.703125 0 3.203125 0.5625q1.515625 0.546875 2.640625 1.65625q1.140625 1.09375 1.78125 2.71875q0.65625 1.609375 0.65625 3.75zm10.959961 2.109375q0 -1.65625 -0.75 -2.640625q-0.734375 -1.0 -2.203125 -1.0q-0.46875 0 -0.89064026 0.03125q-0.40625 0.03125 -0.671875 0.078125l0 6.46875q0.34375 0.203125 0.87501526 0.359375q0.546875 0.140625 1.09375 0.140625q2.546875 0 2.546875 -3.4375zm3.65625 -0.09375q0 1.46875 -0.359375 2.671875q-0.359375 1.1875 -1.0625 2.0625q-0.703125 0.859375 -1.734375 1.34375q-1.03125 0.46875 -2.375 0.46875q-0.734375 0 -1.390625 -0.140625q-0.64064026 -0.140625 -1.2500153 -0.40625l0 4.75l-3.5625 0l0 -16.625q0.46875 -0.15625 1.09375 -0.28125q0.625 -0.125 1.3125 -0.21875q0.6875 -0.109375 1.390625 -0.15625q0.70314026 -0.0625 1.3593903 -0.0625q1.5625 0 2.78125 0.46875q1.21875 0.46875 2.0625 1.328125q0.84375 0.84375 1.28125 2.0625q0.453125 1.21875 0.453125 2.734375zm2.6365662 -9.453125l3.578125 -0.578125l0 3.71875l4.296875 0l0 2.984375l-4.296875 0l0 4.4375q0 1.125 0.390625 1.796875q0.390625 0.671875 1.59375 0.671875q0.578125 0 1.1875 -0.109375q0.609375 -0.109375 1.125 -0.296875l0.5 2.78125q-0.65625 0.265625 -1.453125 0.453125q-0.78125 0.1875 -1.9375 0.1875q-1.453125 0 -2.421875 -0.390625q-0.953125 -0.390625 -1.53125 -1.09375q-0.578125 -0.71875 -0.8125 -1.71875q-0.21875 -1.015625 -0.21875 -2.234375l0 -10.609375zm14.343475 15.765625l-3.5625 0l0 -12.625l3.5625 0l0 12.625zm0.34375 -16.265625q0 0.984375 -0.640625 1.546875q-0.640625 0.5625 -1.5 0.5625q-0.859375 0 -1.5 -0.5625q-0.640625 -0.5625 -0.640625 -1.546875q0 -0.984375 0.640625 -1.546875q0.640625 -0.578125 1.5 -0.578125q0.859375 0 1.5 0.578125q0.640625 0.5625 0.640625 1.546875zm9.951599 9.5625q0 -1.71875 -0.4375 -2.4375q-0.4375 -0.71875 -1.53125 -0.71875q-0.328125 0 -0.6875 0.03125q-0.359375 0.03125 -0.703125 0.078125l0 9.75l-3.5625 0l0 -12.1875q0.453125 -0.125 1.0625 -0.25q0.609375 -0.140625 1.296875 -0.25q0.6875 -0.109375 1.40625 -0.15625q0.71875 -0.0625 1.40625 -0.0625q1.375 0 2.21875 0.34375q0.859375 0.34375 1.40625 0.828125q0.765625 -0.546875 1.765625 -0.859375q1.0 -0.3125 1.84375 -0.3125q1.5 0 2.46875 0.421875q0.984375 0.40625 1.5625 1.1875q0.578125 0.765625 0.78125 1.828125q0.21875 1.046875 0.21875 2.34375l0 7.125l-3.578125 0l0 -6.703125q0 -1.71875 -0.453125 -2.4375q-0.4375 -0.71875 -1.515625 -0.71875q-0.28125 0 -0.796875 0.140625q-0.515625 0.140625 -0.859375 0.359375q0.171875 0.546875 0.21875 1.171875q0.046875 0.609375 0.046875 1.296875l0 6.890625l-3.578125 0l0 -6.703125zm17.328583 6.703125l-3.5625 0l0 -12.625l3.5625 0l0 12.625zm0.34375 -16.265625q0 0.984375 -0.640625 1.546875q-0.640625 0.5625 -1.5 0.5625q-0.859375 0 -1.5 -0.5625q-0.640625 -0.5625 -0.640625 -1.546875q0 -0.984375 0.640625 -1.546875q0.640625 -0.578125 1.5 -0.578125q0.859375 0 1.5 0.578125q0.640625 0.5625 0.640625 1.546875zm12.498474 6.046875q-0.421875 0.46875 -1.15625 1.296875q-0.734375 0.8125 -1.578125 1.796875q-0.84375 0.984375 -1.703125 2.0625q-0.84375 1.078125 -1.53125 2.09375l6.09375 0l0 2.96875l-10.4375 0l0 -2.109375q0.5 -0.859375 1.203125 -1.859375q0.71875 -1.0 1.484375 -2.0q0.78125 -1.015625 1.546875 -1.953125q0.78125 -0.953125 1.421875 -1.71875l-5.375 0l0 -2.984375l10.03125 0l0 2.40625zm1.9218445 4.0q0 -1.671875 0.515625 -2.9375q0.515625 -1.265625 1.359375 -2.09375q0.84375 -0.84375 1.921875 -1.265625q1.09375 -0.4375 2.25 -0.4375q2.6875 0 4.25 1.640625q1.5625 1.640625 1.5625 4.828125q0 0.3125 -0.03125 0.6875q-0.015625 0.375 -0.046875 0.65625l-8.109375 0q0.125 1.109375 1.03125 1.765625q0.921875 0.640625 2.453125 0.640625q0.984375 0 1.921875 -0.171875q0.953125 -0.1875 1.5625 -0.453125l0.46875 2.90625q-0.28125 0.140625 -0.765625 0.28125q-0.484375 0.140625 -1.078125 0.25q-0.578125 0.109375 -1.25 0.1875q-0.671875 0.078125 -1.34375 0.078125q-1.703125 0 -2.96875 -0.5q-1.25 -0.515625 -2.078125 -1.390625q-0.828125 -0.875 -1.234375 -2.078125q-0.390625 -1.203125 -0.390625 -2.59375zm8.40625 -1.359375q-0.03125 -0.46875 -0.171875 -0.890625q-0.125 -0.4375 -0.40625 -0.765625q-0.265625 -0.34375 -0.6875 -0.5625q-0.421875 -0.21875 -1.046875 -0.21875q-0.59375 0 -1.03125 0.21875q-0.421875 0.203125 -0.71875 0.546875q-0.28125 0.328125 -0.4375 0.765625q-0.15625 0.4375 -0.234375 0.90625l4.734375 0zm13.812836 -1.875q-0.46875 -0.125 -1.125 -0.25q-0.640625 -0.140625 -1.390625 -0.140625q-0.328125 0 -0.796875 0.0625q-0.46875 0.0625 -0.71875 0.140625l0 9.640625l-3.5625 0l0 -11.953125q0.953125 -0.328125 2.25 -0.625q1.3125 -0.3125 2.921875 -0.3125q0.296875 0 0.703125 0.046875q0.40625 0.03125 0.8125 0.09375q0.40625 0.046875 0.8125 0.140625q0.40625 0.078125 0.703125 0.203125l-0.609375 2.953125z" fill-rule="nonzero"></path><path fill="#000000" fill-opacity="0.0" d="m75.11259 137.41524l142.55118 0l0 112.7874l-142.55118 0z" fill-rule="nonzero"></path><path stroke="#f0e7d5" stroke-width="3.0" stroke-linejoin="round" stroke-linecap="butt" d="m75.11259 137.41524l142.55118 0l0 112.7874l-142.55118 0z" fill-rule="nonzero"></path><path fill="#f0e7d5" d="m104.97817 187.84894l0 -16.625l11.140625 0l0 3.140625l-7.40625 0l0 3.46875l6.578125 0l0 3.15625l-6.578125 0l0 6.859375l-3.734375 0zm25.338448 -6.34375q0 1.5 -0.4375 2.734375q-0.421875 1.234375 -1.25 2.109375q-0.8124924 0.875 -1.9531174 1.359375q-1.125 0.484375 -2.546875 0.484375q-1.390625 0 -2.53125 -0.484375q-1.140625 -0.484375 -1.96875 -1.359375q-0.8125 -0.875 -1.265625 -2.109375q-0.453125 -1.234375 -0.453125 -2.734375q0 -1.484375 0.46875 -2.703125q0.46875 -1.21875 1.296875 -2.078125q0.828125 -0.875 1.96875 -1.34375q1.140625 -0.484375 2.484375 -0.484375q1.359375 0 2.5 0.484375q1.140625 0.46875 1.9531174 1.34375q0.828125 0.859375 1.28125 2.078125q0.453125 1.21875 0.453125 2.703125zm-3.6406174 0q0 -1.640625 -0.671875 -2.59375q-0.65625 -0.953125 -1.875 -0.953125q-1.21875 0 -1.890625 0.953125q-0.671875 0.953125 -0.671875 2.59375q0 1.65625 0.671875 2.640625q0.671875 0.96875 1.890625 0.96875q1.21875 0 1.875 -0.96875q0.671875 -0.984375 0.671875 -2.640625zm14.005455 -3.109375q-0.46875 -0.125 -1.125 -0.25q-0.640625 -0.140625 -1.390625 -0.140625q-0.328125 0 -0.796875 0.0625q-0.46875 0.0625 -0.71875 0.140625l0 9.640625l-3.5625 0l0 -11.953125q0.953125 -0.328125 2.25 -0.625q1.3125 -0.3125 2.921875 -0.3125q0.296875 0 0.703125 0.046875q0.40625 0.03125 0.8125 0.09375q0.40625 0.046875 0.8125 0.140625q0.40625 0.078125 0.703125 0.203125l-0.609375 2.953125zm2.4092255 -6.3125l3.578125 -0.578125l0 3.71875l4.296875 0l0 2.984375l-4.296875 0l0 4.4375q0 1.125 0.390625 1.796875q0.390625 0.671875 1.59375 0.671875q0.578125 0 1.1875 -0.109375q0.609375 -0.109375 1.125 -0.296875l0.5 2.78125q-0.65625 0.265625 -1.453125 0.453125q-0.78125 0.1875 -1.9375 0.1875q-1.453125 0 -2.421875 -0.390625q-0.953125 -0.390625 -1.53125 -1.09375q-0.578125 -0.71875 -0.8125 -1.71875q-0.21875 -1.015625 -0.21875 -2.234375l0 -10.609375zm18.374725 6.3125q-0.46875 -0.125 -1.125 -0.25q-0.640625 -0.140625 -1.390625 -0.140625q-0.328125 0 -0.796875 0.0625q-0.46875 0.0625 -0.71875 0.140625l0 9.640625l-3.5625 0l0 -11.953125q0.953125 -0.328125 2.25 -0.625q1.3125 -0.3125 2.921875 -0.3125q0.296875 0 0.703125 0.046875q0.40625 0.03125 0.8125 0.09375q0.40625 0.046875 0.8125 0.140625q0.40625 0.078125 0.703125 0.203125l-0.609375 2.953125zm7.3467255 6.953125q0.53125 0 1.0 -0.015625q0.484375 -0.03125 0.78125 -0.078125l0 -2.703125q-0.21875 -0.0625 -0.65625 -0.109375q-0.421875 -0.046875 -0.78125 -0.046875q-0.5 0 -0.953125 0.0625q-0.4375 0.0625 -0.78125 0.234375q-0.328125 0.171875 -0.53125 0.453125q-0.1875 0.28125 -0.1875 0.71875q0 0.84375 0.5625 1.171875q0.5625 0.3125 1.546875 0.3125zm-0.28125 -10.453125q1.578125 0 2.625 0.359375q1.0625 0.359375 1.703125 1.03125q0.640625 0.671875 0.90625 1.640625q0.265625 0.953125 0.265625 2.125l0 7.4375q-0.78125 0.171875 -2.15625 0.390625q-1.359375 0.234375 -3.296875 0.234375q-1.21875 0 -2.21875 -0.21875q-1.0 -0.21875 -1.71875 -0.703125q-0.71875 -0.5 -1.109375 -1.28125q-0.375 -0.796875 -0.375 -1.953125q0 -1.09375 0.4375 -1.859375q0.453125 -0.78125 1.1875 -1.234375q0.75 -0.453125 1.703125 -0.65625q0.96875 -0.203125 2.0 -0.203125q0.6875 0 1.21875 0.0625q0.546875 0.046875 0.890625 0.15625l0 -0.34375q0 -0.90625 -0.5625 -1.453125q-0.546875 -0.5625 -1.90625 -0.5625q-0.921875 0 -1.8125 0.140625q-0.875 0.125 -1.53125 0.359375l-0.453125 -2.875q0.3125 -0.09375 0.78125 -0.203125q0.46875 -0.109375 1.015625 -0.1875q0.5625 -0.09375 1.171875 -0.140625q0.609375 -0.0625 1.234375 -0.0625zm8.740707 0.765625q0.90625 -0.265625 2.34375 -0.484375q1.4375 -0.234375 3.03125 -0.234375q1.59375 0 2.65625 0.421875q1.078125 0.40625 1.703125 1.1875q0.625 0.765625 0.890625 1.828125q0.265625 1.046875 0.265625 2.34375l0 7.125l-3.578125 0l0 -6.703125q0 -1.71875 -0.453125 -2.4375q-0.453125 -0.71875 -1.703125 -0.71875q-0.390625 0 -0.828125 0.03125q-0.421875 0.03125 -0.765625 0.078125l0 9.75l-3.5625 0l0 -12.1875z" fill-rule="nonzero"></path><path fill="#f0e7d5" d="m95.3542 216.84894l0 -16.625l11.140625 0l0 3.140625l-7.40625 0l0 3.46875l6.578125 0l0 3.15625l-6.578125 0l0 6.859375l-3.734375 0zm21.13533 -9.453125q-0.46875 -0.125 -1.125 -0.25q-0.640625 -0.140625 -1.390625 -0.140625q-0.328125 0 -0.796875 0.0625q-0.46875 0.0625 -0.71875 0.140625l0 9.640625l-3.5625 0l0 -11.953125q0.953125 -0.328125 2.25 -0.625q1.3125 -0.3125 2.921875 -0.3125q0.296875 0 0.703125 0.046875q0.40625 0.03125 0.8125 0.09375q0.40625 0.046875 0.8125 0.140625q0.40625 0.078125 0.703125 0.203125l-0.609375 2.953125zm14.3311 3.109375q0 1.5 -0.4375 2.734375q-0.421875 1.234375 -1.25 2.109375q-0.8125 0.875 -1.953125 1.359375q-1.125 0.484375 -2.546875 0.484375q-1.390625 0 -2.53125 -0.484375q-1.140625 -0.484375 -1.96875 -1.359375q-0.8125 -0.875 -1.265625 -2.109375q-0.453125 -1.234375 -0.453125 -2.734375q0 -1.484375 0.46875 -2.703125q0.46875 -1.21875 1.296875 -2.078125q0.828125 -0.875 1.96875 -1.34375q1.140625 -0.484375 2.484375 -0.484375q1.359375 0 2.5 0.484375q1.140625 0.46875 1.953125 1.34375q0.828125 0.859375 1.28125 2.078125q0.453125 1.21875 0.453125 2.703125zm-3.640625 0q0 -1.640625 -0.671875 -2.59375q-0.65625 -0.953125 -1.875 -0.953125q-1.21875 0 -1.890625 0.953125q-0.671875 0.953125 -0.671875 2.59375q0 1.65625 0.671875 2.640625q0.671875 0.96875 1.890625 0.96875q1.21875 0 1.875 -0.96875q0.671875 -0.984375 0.671875 -2.640625zm6.4117126 -5.84375q0.90625 -0.265625 2.34375 -0.484375q1.4375 -0.234375 3.03125 -0.234375q1.59375 0 2.65625 0.421875q1.078125 0.40625 1.703125 1.1875q0.625 0.765625 0.890625 1.828125q0.265625 1.046875 0.265625 2.34375l0 7.125l-3.578125 0l0 -6.703125q0 -1.71875 -0.453125 -2.4375q-0.453125 -0.71875 -1.703125 -0.71875q-0.390625 0 -0.828125 0.03125q-0.421875 0.03125 -0.765625 0.078125l0 9.75l-3.5625 0l0 -12.1875zm14.010956 -3.578125l3.578125 -0.578125l0 3.71875l4.296875 0l0 2.984375l-4.296875 0l0 4.4375q0 1.125 0.390625 1.796875q0.390625 0.671875 1.59375 0.671875q0.578125 0 1.1875 -0.109375q0.609375 -0.109375 1.125 -0.296875l0.5 2.78125q-0.65625 0.265625 -1.453125 0.453125q-0.78125 0.1875 -1.9375 0.1875q-1.453125 0 -2.421875 -0.390625q-0.953125 -0.390625 -1.53125 -1.09375q-0.578125 -0.71875 -0.8125 -1.71875q-0.21875 -1.015625 -0.21875 -2.234375l0 -10.609375zm10.1716 9.546875q0 -1.671875 0.515625 -2.9375q0.515625 -1.265625 1.359375 -2.09375q0.84375 -0.84375 1.921875 -1.265625q1.09375 -0.4375 2.25 -0.4375q2.6875 0 4.25 1.640625q1.5625 1.640625 1.5625 4.828125q0 0.3125 -0.03125 0.6875q-0.015625 0.375 -0.046875 0.65625l-8.109375 0q0.125 1.109375 1.03125 1.765625q0.921875 0.640625 2.453125 0.640625q0.984375 0 1.921875 -0.171875q0.953125 -0.1875 1.5625 -0.453125l0.46875 2.90625q-0.28125 0.140625 -0.765625 0.28125q-0.484375 0.140625 -1.078125 0.25q-0.578125 0.109375 -1.25 0.1875q-0.671875 0.078125 -1.34375 0.078125q-1.703125 0 -2.96875 -0.5q-1.25 -0.515625 -2.078125 -1.390625q-0.828125 -0.875 -1.234375 -2.078125q-0.390625 -1.203125 -0.390625 -2.59375zm8.40625 -1.359375q-0.03125 -0.46875 -0.171875 -0.890625q-0.125 -0.4375 -0.40625 -0.765625q-0.265625 -0.34375 -0.6875 -0.5625q-0.421875 -0.21875 -1.046875 -0.21875q-0.59375 0 -1.03125 0.21875q-0.421875 0.203125 -0.71875 0.546875q-0.28125 0.328125 -0.4375 0.765625q-0.15625 0.4375 -0.234375 0.90625l4.734375 0zm6.2190857 -4.609375q0.90625 -0.265625 2.34375 -0.484375q1.4375 -0.234375 3.03125 -0.234375q1.59375 0 2.65625 0.421875q1.078125 0.40625 1.703125 1.1875q0.625 0.765625 0.890625 1.828125q0.265625 1.046875 0.265625 2.34375l0 7.125l-3.578125 0l0 -6.703125q0 -1.71875 -0.453125 -2.4375q-0.453125 -0.71875 -1.703125 -0.71875q-0.390625 0 -0.828125 0.03125q-0.421875 0.03125 -0.765625 0.078125l0 9.75l-3.5625 0l0 -12.1875zm17.18283 5.78125q0 1.65625 0.734375 2.671875q0.75 1.0 2.21875 1.0q0.46875 0 0.875 -0.03125q0.40625 -0.046875 0.671875 -0.09375l0 -6.5q-0.328125 -0.21875 -0.875 -0.359375q-0.53125 -0.140625 -1.09375 -0.140625q-2.53125 0 -2.53125 3.453125zm8.078125 6.0q-0.46875 0.140625 -1.09375 0.28125q-0.625 0.125 -1.3125 0.21875q-0.6875 0.09375 -1.40625 0.15625q-0.703125 0.0625 -1.34375 0.0625q-1.5625 0 -2.796875 -0.453125q-1.21875 -0.453125 -2.0625 -1.296875q-0.828125 -0.859375 -1.28125 -2.078125q-0.4375 -1.21875 -0.4375 -2.71875q0 -1.546875 0.375 -2.78125q0.390625 -1.234375 1.109375 -2.09375q0.71875 -0.859375 1.765625 -1.3125q1.046875 -0.46875 2.390625 -0.46875q0.75 0 1.328125 0.15625q0.59375 0.140625 1.1875 0.390625l0 -5.703125l3.578125 -0.578125l0 18.21875z" fill-rule="nonzero"></path><path fill="#000000" fill-opacity="0.0" d="m-5.0 137.41492l53.228348 0l0 112.787415l-53.228348 0z" fill-rule="nonzero"></path><path fill="#ff8d14" d="m17.073158 199.28612l0 3.0625l-11.546875 0q0.1875 -1.734375 1.125 -3.28125q0.9375 -1.5625 3.703125 -4.125q2.234375 -2.078125 2.734375 -2.8125q0.6875 -1.015625 0.6875 -2.015625q0 -1.109375 -0.59375 -1.6875q-0.59375 -0.59375 -1.640625 -0.59375q-1.03125 0 -1.640625 0.625q-0.609375 0.609375 -0.703125 2.046875l-3.28125 -0.328125q0.296875 -2.71875 1.84375 -3.890625q1.546875 -1.1875 3.859375 -1.1875q2.546875 0 4.0 1.375q1.453125 1.359375 1.453125 3.40625q0 1.15625 -0.421875 2.203125q-0.40625 1.046875 -1.3125 2.203125q-0.59375 0.765625 -2.15625 2.203125q-1.5625 1.421875 -1.984375 1.890625q-0.40625 0.46875 -0.65625 0.90625l6.53125 0zm2.9257812 3.0625l0 -3.296875l3.296875 0l0 3.296875l-3.296875 0zm17.527344 -8.765625l-3.25 0.578125q-0.15625 -0.96875 -0.75 -1.453125q-0.578125 -0.5 -1.5 -0.5q-1.234375 0 -1.96875 0.859375q-0.71875 0.84375 -0.71875 2.828125q0 2.21875 0.734375 3.140625q0.75 0.90625 2.0 0.90625q0.9375 0 1.53125 -0.53125q0.609375 -0.53125 0.84375 -1.828125l3.234375 0.546875q-0.5 2.21875 -1.9375 3.359375q-1.421875 1.140625 -3.828125 1.140625q-2.71875 0 -4.34375 -1.71875q-1.625 -1.734375 -1.625 -4.78125q0 -3.078125 1.625 -4.796875q1.625 -1.71875 4.40625 -1.71875q2.28125 0 3.609375 0.984375q1.34375 0.984375 1.9375 2.984375z" fill-rule="nonzero"></path><path fill="#000000" fill-opacity="0.0" d="m390.4452 137.41524l91.40158 0l0 112.7874l-91.40158 0z" fill-rule="nonzero"></path><path fill="#ff8d14" d="m414.28467 199.28644l0 3.0625l-11.546875 0q0.1875 -1.734375 1.125 -3.28125q0.9375 -1.5625 3.703125 -4.125q2.234375 -2.078125 2.734375 -2.8125q0.6875 -1.015625 0.6875 -2.015625q0 -1.109375 -0.59375 -1.6875q-0.59375 -0.59375 -1.640625 -0.59375q-1.03125 0 -1.640625 0.625q-0.609375 0.609375 -0.703125 2.046875l-3.28125 -0.328125q0.296875 -2.71875 1.84375 -3.890625q1.546875 -1.1875 3.859375 -1.1875q2.546875 0 4.0 1.375q1.453125 1.359375 1.453125 3.40625q0 1.15625 -0.421875 2.203125q-0.40625 1.046875 -1.3125 2.203125q-0.59375 0.765625 -2.15625 2.203125q-1.5625 1.421875 -1.984375 1.890625q-0.40625 0.46875 -0.65625 0.90625l6.53125 0zm2.9257812 3.0625l0 -3.296875l3.296875 0l0 3.296875l-3.296875 0zm8.996094 0l-3.9375 -12.453125l3.203125 0l2.328125 8.15625l2.140625 -8.15625l3.171875 0l2.078125 8.15625l2.375 -8.15625l3.25 0l-4.0 12.453125l-3.15625 0l-2.140625 -8.0l-2.109375 8.0l-3.203125 0zm16.246094 -12.453125l3.078125 0l0 1.828125q0.59375 -0.9375 1.609375 -1.515625q1.03125 -0.59375 2.265625 -0.59375q2.171875 0 3.671875 1.703125q1.515625 1.703125 1.515625 4.734375q0 3.125 -1.53125 4.859375q-1.515625 1.71875 -3.671875 1.71875q-1.03125 0 -1.875 -0.40625q-0.84375 -0.421875 -1.765625 -1.40625l0 6.265625l-3.296875 0l0 -17.1875zm3.265625 6.015625q0 2.09375 0.828125 3.109375q0.828125 1.0 2.03125 1.0q1.140625 0 1.90625 -0.921875q0.765625 -0.921875 0.765625 -3.015625q0 -1.96875 -0.796875 -2.90625q-0.78125 -0.953125 -1.9375 -0.953125q-1.203125 0 -2.0 0.9375q-0.796875 0.921875 -0.796875 2.75zm10.738281 0.03125q0 -1.640625 0.796875 -3.171875q0.8125 -1.53125 2.296875 -2.34375q1.484375 -0.8125 3.3125 -0.8125q2.828125 0 4.625 1.84375q1.8125 1.828125 1.8125 4.625q0 2.828125 -1.828125 4.6875q-1.828125 1.859375 -4.59375 1.859375q-1.703125 0 -3.265625 -0.765625q-1.546875 -0.78125 -2.359375 -2.265625q-0.796875 -1.5 -0.796875 -3.65625zm3.375 0.1875q0 1.84375 0.875 2.828125q0.875 0.984375 2.171875 0.984375q1.28125 0 2.15625 -0.984375q0.875 -0.984375 0.875 -2.859375q0 -1.828125 -0.875 -2.8125q-0.875 -0.984375 -2.15625 -0.984375q-1.296875 0 -2.171875 0.984375q-0.875 0.984375 -0.875 2.84375z" fill-rule="nonzero"></path><path fill="#ff8d14" d="m43.938545 190.88072l19.559055 0l0 -4.18898l8.377949 8.37796l-8.377949 8.377945l0 -4.18898l-19.559055 0z" fill-rule="nonzero"></path><path fill="#ff8d14" d="m369.8275 69.019356l19.559052 0l0 -4.1889725l8.37796 8.377953l-8.37796 8.377953l0 -4.18898l-19.559052 0z" fill-rule="nonzero"></path><path fill="#ff8d14" d="m369.8275 190.88072l19.559052 0l0 -4.18898l8.37796 8.37796l-8.37796 8.377945l0 -4.18898l-19.559052 0z" fill-rule="nonzero"></path><path fill="#ff8d14" d="m475.83844 90.55951l19.559052 0l0 -4.18898l8.37796 8.377953l-8.37796 8.377953l0 -4.1889725l-19.559052 0z" fill-rule="nonzero"></path><path fill="#ff8d14" d="m475.83844 169.34056l19.559052 0l0 -4.188965l8.37796 8.377945l-8.37796 8.37796l0 -4.18898l-19.559052 0z" fill-rule="nonzero"></path><path fill="#000000" fill-opacity="0.0" d="m672.4452 15.553867l91.40161 0l0 112.7874l-91.40161 0z" fill-rule="nonzero"></path><path fill="#ff8d14" d="m693.59717 80.48757l-3.296875 0l0 -12.40625q-1.8125 1.6875 -4.25 2.484375l0 -2.984375q1.28125 -0.421875 2.796875 -1.59375q1.515625 -1.1875 2.078125 -2.7500038l2.671875 0l0 17.250004zm5.6132812 0l0 -3.296875l3.296875 0l0 3.296875l-3.296875 0zm8.996094 0l-3.9375 -12.453125l3.203125 0l2.328125 8.15625l2.140625 -8.15625l3.171875 0l2.078125 8.15625l2.375 -8.15625l3.25 0l-4.0 12.453125l-3.15625 0l-2.140625 -8.0l-2.109375 8.0l-3.203125 0zm16.246094 -12.453125l3.078125 0l0 1.828125q0.59375 -0.9375 1.609375 -1.515625q1.03125 -0.59375 2.265625 -0.59375q2.171875 0 3.671875 1.703125q1.515625 1.703125 1.515625 4.734375q0 3.125 -1.53125 4.859375q-1.515625 1.71875 -3.671875 1.71875q-1.03125 0 -1.875 -0.40625q-0.84375 -0.421875 -1.765625 -1.40625l0 6.265625l-3.296875 0l0 -17.1875zm3.265625 6.015625q0 2.09375 0.828125 3.109375q0.828125 1.0 2.03125 1.0q1.140625 0 1.90625 -0.921875q0.765625 -0.921875 0.765625 -3.015625q0 -1.96875 -0.796875 -2.90625q-0.78125 -0.953125 -1.9375 -0.953125q-1.203125 0 -2.0 0.9375q-0.796875 0.921875 -0.796875 2.75zm10.738281 0.03125q0 -1.640625 0.796875 -3.171875q0.8125 -1.53125 2.296875 -2.34375q1.484375 -0.8125 3.3125 -0.8125q2.828125 0 4.625 1.84375q1.8125 1.828125 1.8125 4.625q0 2.828125 -1.828125 4.6875q-1.828125 1.859375 -4.59375 1.859375q-1.703125 0 -3.265625 -0.765625q-1.546875 -0.78125 -2.359375 -2.265625q-0.796875 -1.5 -0.796875 -3.65625zm3.375 0.1875q0 1.84375 0.875 2.828125q0.875 0.984375 2.171875 0.984375q1.28125 0 2.15625 -0.984375q0.875 -0.984375 0.875 -2.859375q0 -1.828125 -0.875 -2.8125q-0.875 -0.984375 -2.15625 -0.984375q-1.296875 0 -2.171875 0.984375q-0.875 0.984375 -0.875 2.84375z" fill-rule="nonzero"></path><path fill="#000000" fill-opacity="0.0" d="m672.4452 137.41524l91.40161 0l0 112.7874l-91.40161 0z" fill-rule="nonzero"></path><path fill="#ff8d14" d="m696.28467 199.28644l0 3.0625l-11.546875 0q0.1875 -1.734375 1.125 -3.28125q0.9375 -1.5625 3.703125 -4.125q2.234375 -2.078125 2.734375 -2.8125q0.6875 -1.015625 0.6875 -2.015625q0 -1.109375 -0.59375 -1.6875q-0.59375 -0.59375 -1.640625 -0.59375q-1.03125 0 -1.640625 0.625q-0.609375 0.609375 -0.703125 2.046875l-3.28125 -0.328125q0.296875 -2.71875 1.84375 -3.890625q1.546875 -1.1875 3.859375 -1.1875q2.546875 0 4.0 1.375q1.453125 1.359375 1.453125 3.40625q0 1.15625 -0.421875 2.203125q-0.40625 1.046875 -1.3125 2.203125q-0.59375 0.765625 -2.15625 2.203125q-1.5625 1.421875 -1.984375 1.890625q-0.40625 0.46875 -0.65625 0.90625l6.53125 0zm2.9257812 3.0625l0 -3.296875l3.296875 0l0 3.296875l-3.296875 0zm8.996094 0l-3.9375 -12.453125l3.203125 0l2.328125 8.15625l2.140625 -8.15625l3.171875 0l2.078125 8.15625l2.375 -8.15625l3.25 0l-4.0 12.453125l-3.15625 0l-2.140625 -8.0l-2.109375 8.0l-3.203125 0zm16.246094 -12.453125l3.078125 0l0 1.828125q0.59375 -0.9375 1.609375 -1.515625q1.03125 -0.59375 2.265625 -0.59375q2.171875 0 3.671875 1.703125q1.515625 1.703125 1.515625 4.734375q0 3.125 -1.53125 4.859375q-1.515625 1.71875 -3.671875 1.71875q-1.03125 0 -1.875 -0.40625q-0.84375 -0.421875 -1.765625 -1.40625l0 6.265625l-3.296875 0l0 -17.1875zm3.265625 6.015625q0 2.09375 0.828125 3.109375q0.828125 1.0 2.03125 1.0q1.140625 0 1.90625 -0.921875q0.765625 -0.921875 0.765625 -3.015625q0 -1.96875 -0.796875 -2.90625q-0.78125 -0.953125 -1.9375 -0.953125q-1.203125 0 -2.0 0.9375q-0.796875 0.921875 -0.796875 2.75zm10.738281 0.03125q0 -1.640625 0.796875 -3.171875q0.8125 -1.53125 2.296875 -2.34375q1.484375 -0.8125 3.3125 -0.8125q2.828125 0 4.625 1.84375q1.8125 1.828125 1.8125 4.625q0 2.828125 -1.828125 4.6875q-1.828125 1.859375 -4.59375 1.859375q-1.703125 0 -3.265625 -0.765625q-1.546875 -0.78125 -2.359375 -2.265625q-0.796875 -1.5 -0.796875 -3.65625zm3.375 0.1875q0 1.84375 0.875 2.828125q0.875 0.984375 2.171875 0.984375q1.28125 0 2.15625 -0.984375q0.875 -0.984375 0.875 -2.859375q0 -1.828125 -0.875 -2.8125q-0.875 -0.984375 -2.15625 -0.984375q-1.296875 0 -2.171875 0.984375q-0.875 0.984375 -0.875 2.84375z" fill-rule="nonzero"></path><path fill="#ff8d14" d="m757.8275 69.019356l19.559021 0l0 -4.1889725l8.377991 8.377953l-8.377991 8.377953l0 -4.18898l-19.559021 0z" fill-rule="nonzero"></path><path fill="#ff8d14" d="m757.8275 190.88072l19.559021 0l0 -4.18898l8.377991 8.37796l-8.377991 8.377945l0 -4.18898l-19.559021 0z" fill-rule="nonzero"></path><path fill="#ff8d14" d="m651.83844 90.55951l19.559082 0l0 -4.18898l8.37793 8.377953l-8.37793 8.377953l0 -4.1889725l-19.559082 0z" fill-rule="nonzero"></path><path fill="#ff8d14" d="m651.83844 169.34056l19.559082 0l0 -4.188965l8.37793 8.377945l-8.37793 8.37796l0 -4.18898l-19.559082 0z" fill-rule="nonzero"></path><path fill="#000000" fill-opacity="0.0" d="m793.2101 15.553867l142.55121 0l0 112.7874l-142.55121 0z" fill-rule="nonzero"></path><path stroke="#f0e7d5" stroke-width="3.0" stroke-linejoin="round" stroke-linecap="butt" d="m793.2101 15.553867l142.55121 0l0 112.7874l-142.55121 0z" fill-rule="nonzero"></path><path fill="#f0e7d5" d="m812.1403 72.15945q0 1.21875 0.296875 2.203125q0.296875 0.984375 0.859375 1.703125q0.578125 0.703125 1.390625 1.09375q0.8125 0.375 1.875 0.375q1.03125 0 1.859375 -0.375q0.828125 -0.390625 1.390625 -1.09375q0.5625 -0.71875 0.859375 -1.703125q0.296875 -0.984375 0.296875 -2.203125q0 -1.21875 -0.296875 -2.21875q-0.296875 -1.0 -0.859375 -1.703125q-0.5625 -0.703125 -1.390625 -1.09375q-0.828125 -0.390625 -1.859375 -0.390625q-1.0625 0 -1.875 0.40625q-0.8125 0.390625 -1.390625 1.109375q-0.5625 0.703125 -0.859375 1.703125q-0.296875 0.984375 -0.296875 2.1875zm12.703125 0q0 2.140625 -0.640625 3.765625q-0.640625 1.609375 -1.75 2.703125q-1.09375 1.09375 -2.625 1.65625q-1.515625 0.546875 -3.265625 0.546875q-1.703125 0 -3.21875 -0.546875q-1.515625 -0.5625 -2.640625 -1.65625q-1.125 -1.09375 -1.78125 -2.703125q-0.640625 -1.625 -0.640625 -3.765625q0 -2.140625 0.671875 -3.75q0.671875 -1.625 1.8125 -2.71875q1.140625 -1.109375 2.640625 -1.65625q1.5 -0.5625038 3.15625 -0.5625038q1.703125 0 3.203125 0.5625038q1.515625 0.546875 2.640625 1.65625q1.140625 1.09375 1.78125 2.71875q0.65625 1.609375 0.65625 3.75zm10.959961 2.109375q0 -1.65625 -0.75 -2.640625q-0.734375 -1.0 -2.203125 -1.0q-0.46875 0 -0.890625 0.03125q-0.40625 0.03125 -0.671875 0.078125l0 6.46875q0.34375 0.203125 0.875 0.359375q0.546875 0.140625 1.09375 0.140625q2.546875 0 2.546875 -3.4375zm3.65625 -0.09375q0 1.46875 -0.359375 2.671875q-0.359375 1.1875 -1.0625 2.0625q-0.703125 0.859375 -1.734375 1.34375q-1.03125 0.46875 -2.375 0.46875q-0.734375 0 -1.390625 -0.140625q-0.640625 -0.140625 -1.25 -0.40625l0 4.75l-3.5625 0l0 -16.625q0.46875 -0.15625 1.09375 -0.28125q0.625 -0.125 1.3125 -0.21875q0.6875 -0.109375 1.390625 -0.15625q0.703125 -0.0625 1.359375 -0.0625q1.5625 0 2.78125 0.46875q1.21875 0.46875 2.0625 1.328125q0.84375 0.84375 1.28125 2.0625q0.453125 1.21875 0.453125 2.734375zm2.6365967 -9.453125l3.578125 -0.578125l0 3.71875l4.296875 0l0 2.984375l-4.296875 0l0 4.4375q0 1.125 0.390625 1.796875q0.390625 0.671875 1.59375 0.671875q0.578125 0 1.1875 -0.109375q0.609375 -0.109375 1.125 -0.296875l0.5 2.78125q-0.65625 0.265625 -1.453125 0.453125q-0.78125 0.1875 -1.9375 0.1875q-1.453125 0 -2.421875 -0.390625q-0.953125 -0.390625 -1.53125 -1.09375q-0.578125 -0.71875 -0.8125 -1.71875q-0.21875 -1.015625 -0.21875 -2.234375l0 -10.609375zm14.343445 15.765625l-3.5625 0l0 -12.625l3.5625 0l0 12.625zm0.34375 -16.265625q0 0.984375 -0.640625 1.546875q-0.640625 0.5625 -1.5 0.5625q-0.859375 0 -1.5 -0.5625q-0.640625 -0.5625 -0.640625 -1.546875q0 -0.9843788 0.640625 -1.5468788q0.640625 -0.578125 1.5 -0.578125q0.859375 0 1.5 0.578125q0.640625 0.5625 0.640625 1.5468788zm9.951599 9.5625q0 -1.71875 -0.4375 -2.4375q-0.4375 -0.71875 -1.53125 -0.71875q-0.328125 0 -0.6875 0.03125q-0.359375 0.03125 -0.703125 0.078125l0 9.75l-3.5625 0l0 -12.1875q0.453125 -0.125 1.0625 -0.25q0.609375 -0.140625 1.296875 -0.25q0.6875 -0.109375 1.40625 -0.15625q0.71875 -0.0625 1.40625 -0.0625q1.375 0 2.21875 0.34375q0.859375 0.34375 1.40625 0.828125q0.765625 -0.546875 1.765625 -0.859375q1.0 -0.3125 1.84375 -0.3125q1.5 0 2.46875 0.421875q0.984375 0.40625 1.5625 1.1875q0.578125 0.765625 0.78125 1.828125q0.21875 1.046875 0.21875 2.34375l0 7.125l-3.578125 0l0 -6.703125q0 -1.71875 -0.453125 -2.4375q-0.4375 -0.71875 -1.515625 -0.71875q-0.28125 0 -0.796875 0.140625q-0.515625 0.140625 -0.859375 0.359375q0.171875 0.546875 0.21875 1.171875q0.046875 0.609375 0.046875 1.296875l0 6.890625l-3.578125 0l0 -6.703125zm17.328613 6.703125l-3.5625 0l0 -12.625l3.5625 0l0 12.625zm0.34375 -16.265625q0 0.984375 -0.640625 1.546875q-0.640625 0.5625 -1.5 0.5625q-0.859375 0 -1.5 -0.5625q-0.640625 -0.5625 -0.640625 -1.546875q0 -0.9843788 0.640625 -1.5468788q0.640625 -0.578125 1.5 -0.578125q0.859375 0 1.5 0.578125q0.640625 0.5625 0.640625 1.5468788zm12.498474 6.046875q-0.421875 0.46875 -1.15625 1.296875q-0.734375 0.8125 -1.578125 1.796875q-0.84375 0.984375 -1.703125 2.0625q-0.84375 1.078125 -1.53125 2.09375l6.09375 0l0 2.96875l-10.4375 0l0 -2.109375q0.5 -0.859375 1.203125 -1.859375q0.71875 -1.0 1.484375 -2.0q0.78125 -1.015625 1.546875 -1.953125q0.78125 -0.953125 1.421875 -1.71875l-5.375 0l0 -2.984375l10.03125 0l0 2.40625zm1.921814 4.0q0 -1.671875 0.515625 -2.9375q0.515625 -1.265625 1.359375 -2.09375q0.84375 -0.84375 1.921875 -1.265625q1.09375 -0.4375 2.25 -0.4375q2.6875 0 4.25 1.640625q1.5625 1.640625 1.5625 4.828125q0 0.3125 -0.03125 0.6875q-0.015625 0.375 -0.046875 0.65625l-8.109375 0q0.125 1.109375 1.03125 1.765625q0.921875 0.640625 2.453125 0.640625q0.984375 0 1.921875 -0.171875q0.953125 -0.1875 1.5625 -0.453125l0.46875 2.90625q-0.28125 0.140625 -0.765625 0.28125q-0.484375 0.140625 -1.078125 0.25q-0.578125 0.109375 -1.25 0.1875q-0.671875 0.078125 -1.34375 0.078125q-1.703125 0 -2.96875 -0.5q-1.25 -0.515625 -2.078125 -1.390625q-0.828125 -0.875 -1.234375 -2.078125q-0.390625 -1.203125 -0.390625 -2.59375zm8.40625 -1.359375q-0.03125 -0.46875 -0.171875 -0.890625q-0.125 -0.4375 -0.40625 -0.765625q-0.265625 -0.34375 -0.6875 -0.5625q-0.421875 -0.21875 -1.046875 -0.21875q-0.59375 0 -1.03125 0.21875q-0.421875 0.203125 -0.71875 0.546875q-0.28125 0.328125 -0.4375 0.765625q-0.15625 0.4375 -0.234375 0.90625l4.734375 0zm13.812866 -1.875q-0.46875 -0.125 -1.125 -0.25q-0.640625 -0.140625 -1.390625 -0.140625q-0.328125 0 -0.796875 0.0625q-0.46875 0.0625 -0.71875 0.140625l0 9.640625l-3.5625 0l0 -11.953125q0.953125 -0.328125 2.25 -0.625q1.3125 -0.3125 2.921875 -0.3125q0.296875 0 0.703125 0.046875q0.40625 0.03125 0.8125 0.09375q0.40625 0.046875 0.8125 0.140625q0.40625 0.078125 0.703125 0.203125l-0.609375 2.953125z" fill-rule="nonzero"></path><path fill="#000000" fill-opacity="0.0" d="m793.2101 137.41524l142.55121 0l0 112.7874l-142.55121 0z" fill-rule="nonzero"></path><path stroke="#f0e7d5" stroke-width="3.0" stroke-linejoin="round" stroke-linecap="butt" d="m793.2101 137.41524l142.55121 0l0 112.7874l-142.55121 0z" fill-rule="nonzero"></path><path fill="#f0e7d5" d="m812.1404 194.02081q0 1.21875 0.296875 2.203125q0.296875 0.984375 0.859375 1.703125q0.578125 0.703125 1.390625 1.09375q0.8125 0.375 1.875 0.375q1.03125 0 1.859375 -0.375q0.828125 -0.390625 1.390625 -1.09375q0.5625 -0.71875 0.859375 -1.703125q0.296875 -0.984375 0.296875 -2.203125q0 -1.21875 -0.296875 -2.21875q-0.296875 -1.0 -0.859375 -1.703125q-0.5625 -0.703125 -1.390625 -1.09375q-0.828125 -0.390625 -1.859375 -0.390625q-1.0625 0 -1.875 0.40625q-0.8125 0.390625 -1.390625 1.109375q-0.5625 0.703125 -0.859375 1.703125q-0.296875 0.984375 -0.296875 2.1875zm12.703125 0q0 2.140625 -0.640625 3.765625q-0.640625 1.609375 -1.75 2.703125q-1.09375 1.09375 -2.625 1.65625q-1.515625 0.546875 -3.265625 0.546875q-1.703125 0 -3.21875 -0.546875q-1.515625 -0.5625 -2.640625 -1.65625q-1.125 -1.09375 -1.78125 -2.703125q-0.640625 -1.625 -0.640625 -3.765625q0 -2.140625 0.671875 -3.75q0.671875 -1.625 1.8125 -2.71875q1.140625 -1.109375 2.640625 -1.65625q1.5 -0.5625 3.15625 -0.5625q1.703125 0 3.203125 0.5625q1.515625 0.546875 2.640625 1.65625q1.140625 1.09375 1.78125 2.71875q0.65625 1.609375 0.65625 3.75zm10.9599 2.109375q0 -1.65625 -0.75 -2.640625q-0.734375 -1.0 -2.203125 -1.0q-0.46875 0 -0.890625 0.03125q-0.40625 0.03125 -0.671875 0.078125l0 6.46875q0.34375 0.203125 0.875 0.359375q0.546875 0.140625 1.09375 0.140625q2.546875 0 2.546875 -3.4375zm3.65625 -0.09375q0 1.46875 -0.359375 2.671875q-0.359375 1.1875 -1.0625 2.0625q-0.703125 0.859375 -1.734375 1.34375q-1.03125 0.46875 -2.375 0.46875q-0.734375 0 -1.390625 -0.140625q-0.640625 -0.140625 -1.25 -0.40625l0 4.75l-3.5625 0l0 -16.625q0.46875 -0.15625 1.09375 -0.28125q0.625 -0.125 1.3125 -0.21875q0.6875 -0.109375 1.390625 -0.15625q0.703125 -0.0625 1.359375 -0.0625q1.5625 0 2.78125 0.46875q1.21875 0.46875 2.0625 1.328125q0.84375 0.84375 1.28125 2.0625q0.453125 1.21875 0.453125 2.734375zm2.6365967 -9.453125l3.578125 -0.578125l0 3.71875l4.296875 0l0 2.984375l-4.296875 0l0 4.4375q0 1.125 0.390625 1.796875q0.390625 0.671875 1.59375 0.671875q0.578125 0 1.1875 -0.109375q0.609375 -0.109375 1.125 -0.296875l0.5 2.78125q-0.65625 0.265625 -1.453125 0.453125q-0.78125 0.1875 -1.9375 0.1875q-1.453125 0 -2.421875 -0.390625q-0.953125 -0.390625 -1.53125 -1.09375q-0.578125 -0.71875 -0.8125 -1.71875q-0.21875 -1.015625 -0.21875 -2.234375l0 -10.609375zm14.343506 15.765625l-3.5625 0l0 -12.625l3.5625 0l0 12.625zm0.34375 -16.265625q0 0.984375 -0.640625 1.546875q-0.640625 0.5625 -1.5 0.5625q-0.859375 0 -1.5 -0.5625q-0.640625 -0.5625 -0.640625 -1.546875q0 -0.984375 0.640625 -1.546875q0.640625 -0.578125 1.5 -0.578125q0.859375 0 1.5 0.578125q0.640625 0.5625 0.640625 1.546875zm9.951599 9.5625q0 -1.71875 -0.4375 -2.4375q-0.4375 -0.71875 -1.53125 -0.71875q-0.328125 0 -0.6875 0.03125q-0.359375 0.03125 -0.703125 0.078125l0 9.75l-3.5625 0l0 -12.1875q0.453125 -0.125 1.0625 -0.25q0.609375 -0.140625 1.296875 -0.25q0.6875 -0.109375 1.40625 -0.15625q0.71875 -0.0625 1.40625 -0.0625q1.375 0 2.21875 0.34375q0.859375 0.34375 1.40625 0.828125q0.765625 -0.546875 1.765625 -0.859375q1.0 -0.3125 1.84375 -0.3125q1.5 0 2.46875 0.421875q0.984375 0.40625 1.5625 1.1875q0.578125 0.765625 0.78125 1.828125q0.21875 1.046875 0.21875 2.34375l0 7.125l-3.578125 0l0 -6.703125q0 -1.71875 -0.453125 -2.4375q-0.4375 -0.71875 -1.515625 -0.71875q-0.28125 0 -0.796875 0.140625q-0.515625 0.140625 -0.859375 0.359375q0.171875 0.546875 0.21875 1.171875q0.046875 0.609375 0.046875 1.296875l0 6.890625l-3.578125 0l0 -6.703125zm17.328552 6.703125l-3.5625 0l0 -12.625l3.5625 0l0 12.625zm0.34375 -16.265625q0 0.984375 -0.640625 1.546875q-0.640625 0.5625 -1.5 0.5625q-0.859375 0 -1.5 -0.5625q-0.640625 -0.5625 -0.640625 -1.546875q0 -0.984375 0.640625 -1.546875q0.640625 -0.578125 1.5 -0.578125q0.859375 0 1.5 0.578125q0.640625 0.5625 0.640625 1.546875zm12.498474 6.046875q-0.421875 0.46875 -1.15625 1.296875q-0.734375 0.8125 -1.578125 1.796875q-0.84375 0.984375 -1.703125 2.0625q-0.84375 1.078125 -1.53125 2.09375l6.09375 0l0 2.96875l-10.4375 0l0 -2.109375q0.5 -0.859375 1.203125 -1.859375q0.71875 -1.0 1.484375 -2.0q0.78125 -1.015625 1.546875 -1.953125q0.78125 -0.953125 1.421875 -1.71875l-5.375 0l0 -2.984375l10.03125 0l0 2.40625zm1.921814 4.0q0 -1.671875 0.515625 -2.9375q0.515625 -1.265625 1.359375 -2.09375q0.84375 -0.84375 1.921875 -1.265625q1.09375 -0.4375 2.25 -0.4375q2.6875 0 4.25 1.640625q1.5625 1.640625 1.5625 4.828125q0 0.3125 -0.03125 0.6875q-0.015625 0.375 -0.046875 0.65625l-8.109375 0q0.125 1.109375 1.03125 1.765625q0.921875 0.640625 2.453125 0.640625q0.984375 0 1.921875 -0.171875q0.953125 -0.1875 1.5625 -0.453125l0.46875 2.90625q-0.28125 0.140625 -0.765625 0.28125q-0.484375 0.140625 -1.078125 0.25q-0.578125 0.109375 -1.25 0.1875q-0.671875 0.078125 -1.34375 0.078125q-1.703125 0 -2.96875 -0.5q-1.25 -0.515625 -2.078125 -1.390625q-0.828125 -0.875 -1.234375 -2.078125q-0.390625 -1.203125 -0.390625 -2.59375zm8.40625 -1.359375q-0.03125 -0.46875 -0.171875 -0.890625q-0.125 -0.4375 -0.40625 -0.765625q-0.265625 -0.34375 -0.6875 -0.5625q-0.421875 -0.21875 -1.046875 -0.21875q-0.59375 0 -1.03125 0.21875q-0.421875 0.203125 -0.71875 0.546875q-0.28125 0.328125 -0.4375 0.765625q-0.15625 0.4375 -0.234375 0.90625l4.734375 0zm13.812866 -1.875q-0.46875 -0.125 -1.125 -0.25q-0.640625 -0.140625 -1.390625 -0.140625q-0.328125 0 -0.796875 0.0625q-0.46875 0.0625 -0.71875 0.140625l0 9.640625l-3.5625 0l0 -11.953125q0.953125 -0.328125 2.25 -0.625q1.3125 -0.3125 2.921875 -0.3125q0.296875 0 0.703125 0.046875q0.40625 0.03125 0.8125 0.09375q0.40625 0.046875 0.8125 0.140625q0.40625 0.078125 0.703125 0.203125l-0.609375 2.953125z" fill-rule="nonzero"></path><path fill="#000000" fill-opacity="0.0" d="m961.4463 15.553805l62.393677 0l0 112.7874l-62.393677 0z" fill-rule="nonzero"></path><path fill="#ff8d14" d="m984.75836 80.4875l-3.296875 0l0 -12.40625q-1.8125 1.6875 -4.25 2.484375l0 -2.984375q1.28125 -0.421875 2.796875 -1.59375q1.515625 -1.1875 2.078125 -2.7499962l2.671875 0l0 17.249996zm5.6132812 0l0 -3.296875l3.296875 0l0 3.296875l-3.296875 0zm5.9179688 -6.40625q0 -1.640625 0.796875 -3.171875q0.8125 -1.53125 2.296875 -2.34375q1.484375 -0.8125 3.3125 -0.8125q2.828125 0 4.625 1.84375q1.8125 1.828125 1.8125 4.625q0 2.828125 -1.828125 4.6875q-1.828125 1.859375 -4.59375 1.859375q-1.703125 0 -3.265625 -0.765625q-1.546875 -0.78125 -2.359375 -2.265625q-0.796875 -1.5 -0.796875 -3.65625zm3.375 0.1875q0 1.84375 0.875 2.828125q0.875 0.984375 2.171875 0.984375q1.28125 0 2.15625 -0.984375q0.875 -0.984375 0.875 -2.859375q0 -1.828125 -0.875 -2.8125q-0.875 -0.984375 -2.15625 -0.984375q-1.296875 0 -2.171875 0.984375q-0.875 0.984375 -0.875 2.84375z" fill-rule="nonzero"></path><path fill="#000000" fill-opacity="0.0" d="m961.4463 137.41481l62.393677 0l0 112.7874l-62.393677 0z" fill-rule="nonzero"></path><path fill="#ff8d14" d="m987.44586 199.28601l0 3.0625l-11.546875 0q0.1875 -1.734375 1.125 -3.28125q0.9375 -1.5625 3.703125 -4.125q2.234375 -2.078125 2.734375 -2.8125q0.6875 -1.015625 0.6875 -2.015625q0 -1.109375 -0.59375 -1.6875q-0.59375 -0.59375 -1.640625 -0.59375q-1.03125 0 -1.640625 0.625q-0.609375 0.609375 -0.703125 2.046875l-3.28125 -0.328125q0.296875 -2.71875 1.84375 -3.890625q1.546875 -1.1875 3.859375 -1.1875q2.546875 0 4.0 1.375q1.453125 1.359375 1.453125 3.40625q0 1.15625 -0.421875 2.203125q-0.40625 1.046875 -1.3125 2.203125q-0.59375 0.765625 -2.15625 2.203125q-1.5625 1.421875 -1.984375 1.890625q-0.40625 0.46875 -0.65625 0.90625l6.53125 0zm2.9257812 3.0625l0 -3.296875l3.296875 0l0 3.296875l-3.296875 0zm5.9179688 -6.40625q0 -1.640625 0.796875 -3.171875q0.8125 -1.53125 2.296875 -2.34375q1.484375 -0.8125 3.3125 -0.8125q2.828125 0 4.625 1.84375q1.8125 1.828125 1.8125 4.625q0 2.828125 -1.828125 4.6875q-1.828125 1.859375 -4.59375 1.859375q-1.703125 0 -3.265625 -0.765625q-1.546875 -0.78125 -2.359375 -2.265625q-0.796875 -1.5 -0.796875 -3.65625zm3.375 0.1875q0 1.84375 0.875 2.828125q0.875 0.984375 2.171875 0.984375q1.28125 0 2.15625 -0.984375q0.875 -0.984375 0.875 -2.859375q0 -1.828125 -0.875 -2.8125q-0.875 -0.984375 -2.15625 -0.984375q-1.296875 0 -2.171875 0.984375q-0.875 0.984375 -0.875 2.84375z" fill-rule="nonzero"></path><path fill="#ff8d14" d="m941.8275 69.019356l19.559021 0l0 -4.1889725l8.377991 8.377953l-8.377991 8.377953l0 -4.18898l-19.559021 0z" fill-rule="nonzero"></path><path fill="#ff8d14" d="m941.8275 190.88072l19.559021 0l0 -4.18898l8.377991 8.37796l-8.377991 8.377945l0 -4.18898l-19.559021 0z" fill-rule="nonzero"></path><path fill="#ff8d14" d="m1014.83844 90.55951l19.559021 0l0 -4.18898l8.378052 8.377953l-8.378052 8.377953l0 -4.1889725l-19.559021 0z" fill-rule="nonzero"></path><path fill="#ff8d14" d="m1014.83844 169.34056l19.559021 0l0 -4.188965l8.378052 8.377945l-8.378052 8.37796l0 -4.18898l-19.559021 0z" fill-rule="nonzero"></path><path fill="#000000" fill-opacity="0.0" d="m1045.5314 80.830154l142.55115 0l0 112.7874l-142.55115 0z" fill-rule="nonzero"></path><path stroke="#f0e7d5" stroke-width="3.0" stroke-linejoin="round" stroke-linecap="butt" d="m1045.5314 80.830154l142.55115 0l0 112.7874l-142.55115 0z" fill-rule="nonzero"></path><path fill="#f0e7d5" d="m1093.5262 142.5451l0 3.21875l-11.109375 0l0 -16.625l3.734375 0l0 13.40625l7.375 0zm5.730713 3.21875l-3.5625 0l0 -12.625l3.5625 0l0 12.625zm0.34375 -16.265625q0 0.984375 -0.640625 1.546875q-0.640625 0.5625 -1.5 0.5625q-0.859375 0 -1.5 -0.5625q-0.640625 -0.5625 -0.640625 -1.546875q0 -0.984375 0.640625 -1.546875q0.640625 -0.578125 1.5 -0.578125q0.859375 0 1.5 0.578125q0.640625 0.5625 0.640625 1.546875zm3.0297852 4.078125q0.90625 -0.265625 2.34375 -0.484375q1.4375 -0.234375 3.03125 -0.234375q1.59375 0 2.65625 0.421875q1.078125 0.40625 1.703125 1.1875q0.625 0.765625 0.890625 1.828125q0.265625 1.046875 0.265625 2.34375l0 7.125l-3.578125 0l0 -6.703125q0 -1.71875 -0.453125 -2.4375q-0.453125 -0.71875 -1.703125 -0.71875q-0.390625 0 -0.828125 0.03125q-0.421875 0.03125 -0.765625 0.078125l0 9.75l-3.5625 0l0 -12.1875zm17.698486 4.125q0.53125 -0.578125 1.09375 -1.203125q0.5625 -0.625 1.09375 -1.234375q0.53125 -0.609375 1.0 -1.15625q0.46875 -0.5625 0.796875 -0.96875l4.25 0q-1.265625 1.46875 -2.484375 2.796875q-1.203125 1.328125 -2.640625 2.75q0.71875 0.640625 1.484375 1.546875q0.765625 0.90625 1.484375 1.859375q0.71875 0.953125 1.3125 1.921875q0.609375 0.953125 1.015625 1.75l-4.109375 0q-0.375 -0.625 -0.875 -1.375q-0.484375 -0.765625 -1.046875 -1.515625q-0.546875 -0.75 -1.15625 -1.453125q-0.609375 -0.703125 -1.21875 -1.171875l0 5.515625l-3.5625 0l0 -18.046875l3.5625 -0.578125l0 10.5625zm9.723999 1.84375q0 -1.671875 0.515625 -2.9375q0.515625 -1.265625 1.359375 -2.09375q0.84375 -0.84375 1.921875 -1.265625q1.09375 -0.4375 2.25 -0.4375q2.6875 0 4.25 1.640625q1.5625 1.640625 1.5625 4.828125q0 0.3125 -0.03125 0.6875q-0.015625 0.375 -0.046875 0.65625l-8.109375 0q0.125 1.109375 1.03125 1.765625q0.921875 0.640625 2.453125 0.640625q0.984375 0 1.921875 -0.171875q0.953125 -0.1875 1.5625 -0.453125l0.46875 2.90625q-0.28125 0.140625 -0.765625 0.28125q-0.484375 0.140625 -1.078125 0.25q-0.578125 0.109375 -1.25 0.1875q-0.671875 0.078125 -1.34375 0.078125q-1.703125 0 -2.96875 -0.5q-1.25 -0.515625 -2.078125 -1.390625q-0.828125 -0.875 -1.234375 -2.078125q-0.390625 -1.203125 -0.390625 -2.59375zm8.40625 -1.359375q-0.03125 -0.46875 -0.171875 -0.890625q-0.125 -0.4375 -0.40625 -0.765625q-0.265625 -0.34375 -0.6875 -0.5625q-0.421875 -0.21875 -1.046875 -0.21875q-0.59375 0 -1.03125 0.21875q-0.421875 0.203125 -0.71875 0.546875q-0.28125 0.328125 -0.4375 0.765625q-0.15625 0.4375 -0.234375 0.90625l4.734375 0zm13.812866 -1.875q-0.46875 -0.125 -1.125 -0.25q-0.640625 -0.140625 -1.390625 -0.140625q-0.328125 0 -0.796875 0.0625q-0.46875 0.0625 -0.71875 0.140625l0 9.640625l-3.5625 0l0 -11.953125q0.953125 -0.328125 2.25 -0.625q1.3125 -0.3125 2.921875 -0.3125q0.296875 0 0.703125 0.046875q0.40625 0.03125 0.8125 0.09375q0.40625 0.046875 0.8125 0.140625q0.40625 0.078125 0.703125 0.203125l-0.609375 2.953125z" fill-rule="nonzero"></path></g></svg>

